<svg id="Layer_1" data-name="Layer 1" xmlns="http://www.w3.org/2000/svg" viewBox="0 0 484 484"><title>Map</title><path d="M489,226C478,103,374,6,248,6S19,103,7,226H6v45H7C19,394,122,490,248,490s230-97,241-220h1V226Zm-45,0H353c-2-61-14-120-34-161C386,90,436,152,444,226ZM248,445c-19,0-55-61-59-175H308C303,384,267,445,248,445ZM189,226c4-113,40-175,59-175s55,61,59,175ZM178,64c-20,42-32,101-34,161H52C61,152,111,90,178,64ZM52,271h91c2,61,14,120,34,161C111,406,61,345,52,271ZM319,432c20-42,32-101,34-161h91C436,345,386,406,319,432Z" transform="translate(-6 -6)"/></svg>