<svg id="Layer_1" data-name="Layer 1" xmlns="http://www.w3.org/2000/svg" viewBox="0 0 383 493"><title>500px</title><path d="M103,344c-7-14-7-18,7-23,26-8,8,9,43,49h0V277c1-50,44-92,98-92s98,44,98,97-61,113-128,93c-10-4-2-32,9-29,53,0,89-10,89-64s-77-90-117-45c-23,26-18,42-18,158,51,31,118,22,160-20A132,132,0,0,0,158,188s-16,17-21,24h0c-3,5-6,9-20,6s-14-6-14-12V20a10,10,0,0,1,11-10H354c8,0,8,12,8,15s0,15-8,15H130V173h0C235,63,413,137,413,282c0,178-245,220-310,63ZM167,84c0,4,5,25,15,21,125-48,203,40,209,40s23-15,14-23C312,33,170,65,167,84ZM393,415C283,525,94,476,61,311c0-12-30-7-29,3C56,487,278,571,414,435c7-8-13-28-21-20ZM214,307c0,4,4,7,6,9s6,4,9,4,3,0,22-19c20,19,19,20,22,20s19-10,11-18l-17-17,18-18c6-7-10-22-16-16l-18,18c-19-19-18-19-21-19s-18,12-12,17l18,18C216,302,214,303,214,307Z" transform="translate(-32 -10)" style="fill:#fff"/></svg>