<svg id="Layer_1" data-name="Layer 1" xmlns="http://www.w3.org/2000/svg" width="400" height="512" viewBox="0 0 400 512">
  <title>accessible-icon-2</title>
  <path d="M424,256,411,413c-3,41-64,35-61-5l10-122-41,2a156,156,0,0,1-26,175l-39-39c58-64,13-167-74-167a100,100,0,0,0-67,26L73,243a155,155,0,0,1,81-40l75-86L187,93l-52,46c-30,27-71-18-40-45l68-61a30,30,0,0,1,36-4l140,81c16,10,21,36,6,53l-58,67,106-6a30,30,0,0,1,32,33ZM359,102a51,51,0,1,0-51-51A51,51,0,0,0,359,102ZM180,457c-81,0-127-91-83-156L57,261a154,154,0,0,0-33,96c0,131,151,201,251,123l-40-40a99,99,0,0,1-56,17Z" transform="translate(-24)" fill="#f4f4f4"/>
</svg>
