<svg id="Layer_1" data-name="Layer 1" xmlns="http://www.w3.org/2000/svg" viewBox="0 0 640 416"><title>accusoft</title><path d="M322,252h0l-51-66s-12,2-25,15L3,441c-7,10,2,7,16,2l114-37h1c0-5-1-26-1-28s2-7,7-9l93-34,90-83ZM482,372c13,16,21,13,31,9l118-49c8-4-2-17-7-23L416,61c-10-12-14-13-38-13H261c-19,0-33,0-19,17Zm153,2-38-7L479,418c-16,7-27-3-37-15l-57-74-65-9c-3,0-10,1-14,3L156,378c-5,2-11,4-11,8s2,3,5,4l308,69c16,3,39,11,54,2l126-78C642,378,641,375,635,374Z" transform="translate(0 -48)" style="fill:#fff"/></svg>