<svg id="Layer_1" data-name="Layer 1" xmlns="http://www.w3.org/2000/svg" viewBox="0 0 345 512"><title>acquisitions-incorporated</title><path d="M357,468c-1-8-1-8-10-8-100,0-112-2-113-3-12-2-21-10-21-23,0-2,0-72-1-129,0-5,2-6,6-7l37-10c4-1,7,0,8,4l13,31c2,4,0,4-3,4H244v27H360l-4-27H336c-23-2-18-4-84-159-9-20-28-62-36-89-4-14,6-25,19-27s38-2,56-2h62c3,0,4-1,4-4s3-19,4-29l2-16H24c-4,0-5,1-5,5s-1,1,6,45H127c12,0,37,4,38,22s-1,11-33,87C79,290,82,281,65,322c-2,4-4,5-8,5H32c-2,0-5,2-6,3s-2,16-3,25H138V327c-7,0-33,0-35-3l16-37,48,12c3,1,5,3,5,7,0,43,0,86,0,129,0,10-5,19-15,23s-3,3-121,2c-5,0-7,2-8,7s-3,26-5,39,1,6,5,6H364C362,497,360,483,357,468ZM183,263l-40-12-6-3,51-132c8,2,8-1,9,0,9,23,18,60,27,83l20,51-4,2-39,12a28,28,0,0,1-18,0Z" transform="translate(-19)" style="fill:#fff"/></svg>