<?xml version="1.0" encoding="UTF-8"?>
<!DOCTYPE svg PUBLIC "-//W3C//DTD SVG 1.1//EN" "http://www.w3.org/Graphics/SVG/1.1/DTD/svg11.dtd">
<!-- Creator: CorelDRAW 2017 -->
<svg xmlns="http://www.w3.org/2000/svg" xml:space="preserve" width="210mm" height="297mm" version="1.1" style="shape-rendering:geometricPrecision; text-rendering:geometricPrecision; image-rendering:optimizeQuality; fill-rule:evenodd; clip-rule:evenodd"
viewBox="0 0 21000 29700"
 xmlns:xlink="http://www.w3.org/1999/xlink">
 <defs>
  <style type="text/css">
   <![CDATA[
    .fil0 {fill:white}
   ]]>
  </style>
 </defs>
 <g id="Layer_x0020_1">
  <metadata id="CorelCorpID_0Corel-Layer"/>
  <path class="fil0" d="M20438 10350c309,0 563,-253 563,-563l0 -1875c0,-309 -253,-563 -563,-563l-938 0 0 -2250c0,-1242 -1008,-2250 -2250,-2250l-15000 0c-1242,0 -2250,1008 -2250,2250l0 19500c0,1242 1008,2250 2250,2250l15000 0c1242,0 2250,-1008 2250,-2250l0 -2250 938 0c309,0 563,-253 563,-563l0 -1875c0,-309 -253,-563 -563,-563l-938 0 0 -3000 938 0c309,0 563,-253 563,-563l0 -1875c0,-309 -253,-563 -563,-563l-938 0 0 -3000 938 0zm-10688 -1500c1655,0 3000,1345 3000,3000 0,1655 -1345,3000 -3000,3000 -1655,0 -3000,-1345 -3000,-3000 0,-1655 1345,-3000 3000,-3000zm5250 11100c0,497 -469,900 -1050,900l-8400 0c-581,0 -1050,-403 -1050,-900l0 -900c0,-1491 1411,-2700 3150,-2700l234 0c577,239 1205,375 1866,375 661,0 1294,-136 1866,-375l234 0c1739,0 3150,1209 3150,2700l0 900z"/>
 </g>
</svg>
