<svg id="Layer_1" data-name="Layer 1" xmlns="http://www.w3.org/2000/svg" viewBox="0 0 512 448"><title>adversal</title><path d="M482,32H29C6,32,0,38,0,61V451c0,23,6,29,29,29H482c24,0,30-5,30-30V62C512,38,507,32,482,32ZM178,220c-27-20-72-9-84,23-4,11-9,10-17,8s-17-3-22-5c-29-11,9-55,25-64,41-21,83-22,125-5s35,59,35,129c3,26-4,58,9,89,2,4,0,8-3,11s-39,2-47-7l-4-6c-4-4-7-2-12,1-57,36-140,21-147-43-3-29,12-57,40-71,38-19,112-12,114-31s-2-20-11-27ZM465,442c0,15-11,10-18,10H52c-7,0-18,5-18-11s11-9,17-9H449c7,0,17-4,17,10Zm4-340V393c0,6-1,14-8,14s-27,7-36-6-8-4-12-1c-53,30-128,7-144-85-6-33-1-67,16-100s57-76,136-30V113c0-26,0-26,26-26h10c10-1,14,4,14,14h0ZM417,334c-19,48-73,43-90,5s-15-68,0-101,60-36,82-5S424,318,417,334ZM123,369c-7-1-33-3-34-28,0-14,8-23,20-26,24-6,49-10,74-15,9-2,7,4,8,10C192,344,164,370,123,369Z" transform="translate(0 -32)" style="fill:#fff"/></svg>