<svg id="Layer_1" data-name="Layer 1" xmlns="http://www.w3.org/2000/svg" viewBox="0 0 417 448"><title>airbnb</title><path d="M224,373c-25-32-40-59-45-83-23-88,113-88,90,0-5,24-20,52-45,83Zm138,73c-42,18-84-11-119-50,104-130,46-200-19-200s-85,47-73,101c7,29,25,62,54,100-33,36-61,53-85,55-50,7-89-41-71-91,15-39,112-231,116-242,16-30,26-57,59-57s43,26,60,60c36,71,89,177,115,239,13,33-1,71-37,87Zm47-136C280,36,273,32,224,32s-65,32-85,73C33,317,23,347,22,350c-25,69,27,130,90,130,22,0,61-6,112-62,59,64,101,62,112,62,63,0,115-61,90-130,0-4-17-39-17-40Z" transform="translate(-15 -32)" style="fill:#fff"/></svg>