<svg id="Layer_1" data-name="Layer 1" xmlns="http://www.w3.org/2000/svg" viewBox="0 0 448 448"><title>algolia</title><path d="M229,183a89,89,0,1,0,89,89,89,89,0,0,0-89-89Zm63,57-59,31a3,3,0,0,1-4-2V201a3,3,0,0,1,3-3,74,74,0,0,1,61,37,3,3,0,0,1-1,4ZM389,32H59A59,59,0,0,0,0,91V421a59,59,0,0,0,59,59H389a59,59,0,0,0,59-59V91A59,59,0,0,0,389,32ZM187,117a19,19,0,0,1,20-19h45a19,19,0,0,1,19,19v15a3,3,0,0,1-3,3,143,143,0,0,0-38-5,140,140,0,0,0-39,6,3,3,0,0,1-3-2V117Zm-84,37,9-9a19,19,0,0,1,27,0l8,8a3,3,0,0,1,0,4l-18,15-15,17a3,3,0,0,1-4,0l-8-8a19,19,0,0,1,0-27ZM229,399A127,127,0,1,1,356,272,127,127,0,0,1,229,399Z" transform="translate(0 -32)" style="fill:#fff"/></svg>