<svg id="Layer_1" data-name="Layer 1" xmlns="http://www.w3.org/2000/svg" viewBox="0 0 448 448"><title>alipay</title><path d="M378,32H70A70,70,0,0,0,0,102V410a70,70,0,0,0,70,70H378a70,70,0,0,0,70-70c-46-26-111-60-172-88-32,44-84,81-149,81s-94-45-97-76,15-81,100-81c35,0,79,10,127,25a402,402,0,0,0,26-60H106V193h92V162H88V143H198V92h51v50H358v19H249v31h89s-15,47-38,91l149,53V102A70,70,0,0,0,378,32ZM47,323c1,20,10,54,70,54s93-40,118-73c-45-19-84-31-109-31C58,272,46,305,47,323Z" transform="translate(0 -32)" style="fill:#fff"/></svg>