<svg id="Layer_1" data-name="Layer 1" xmlns="http://www.w3.org/2000/svg" viewBox="0 0 434 448"><title>amazon</title><path d="M257,163c-49,2-169,16-169,118s138,114,183,43c7,10,35,38,45,47l57-56s-32-25-32-53V114c0-25-24-82-112-82S94,87,94,136l74,7c16-49,54-49,54-49,41,0,36,30,36,69Zm0,87c0,80-84,68-84,17s51-57,84-58ZM393,413c-8,10-70,67-174,67S34,409,10,379c-7-8,1-11,6-8,73,45,188,118,373,30C395,397,401,403,393,413Zm40,2c-6,16-16,27-21,31s-9,3-6-4,19-46,13-55-37-4-48-3-13,2-14,0,22-15,38-17,41-1,46,6,0,27-6,43Z" transform="translate(-7 -32)" style="fill:#fff"/></svg>