<svg id="Layer_1" data-name="Layer 1" xmlns="http://www.w3.org/2000/svg" viewBox="0 0 611 382"><title>amazon-pay</title><path d="M14,325c2-4,5-5,10-2l31,17a596,596,0,0,0,127,46,617,617,0,0,0,63,12,603,603,0,0,0,95,5l52-4a604,604,0,0,0,163-43c3-1,6-2,9-1s9,9,4,14l-10,7c-31,21-64,36-100,48a473,473,0,0,1-75,18,431,431,0,0,1-53,5H295a426,426,0,0,1-50-5,448,448,0,0,1-80-21A443,443,0,0,1,18,333l-4-6ZM172,65h-4a81,81,0,0,0-38,15l-7,5h0V77c-1-5-3-7-8-7H102c-7,0-8,1-8,8V288c0,1,0,2,0,3s2,5,5,5h21c3,0,5-2,5-5s0-2,0-3V215l2,2c18,15,39,20,61,15s35-16,44-35,10-29,10-44-1-34-8-50-23-32-44-37H172Zm-47,42a3,3,0,0,1,2-3c14-9,29-14,46-13s27,8,34,26,5,22,5,33-1,21-4,31c-7,21-22,29-43,29s-26-6-37-14a4,4,0,0,1-2-3c0-14,0-28,0-42s0-28,0-42ZM330,65h-3l-29,4-18,6c-4,1-5,4-5,8s0,7,0,10,2,6,7,5l24-6c12-2,25-3,37-1s13,3,17,8,5,11,5,16,0,17,0,25h-1l-32-5c-11-1-22,0-33,4s-23,12-29,25-5,20-4,31,9,25,21,32,25,7,38,5,29-9,40-18h2l2,11c1,3,3,5,5,5h16a5,5,0,0,0,5-5,26,26,0,0,0,0-3V117a80,80,0,0,0-1-13c-2-13-7-23-19-30s-14-6-22-7H330Zm35,128a3,3,0,0,1-1,3c-11,8-23,14-37,15s-11,0-17-2a20,20,0,0,1-12-13,33,33,0,0,1,0-19c3-8,8-13,16-16a61,61,0,0,1,25-2l25,3c2,0,2,1,2,3s0,10,0,14S365,188,365,193ZM625,322c-1-5-5-7-9-8l-21-4a147,147,0,0,0-39,2c-14,3-28,7-40,16l-4,4a5,5,0,0,0,0,4c0,2,2,2,4,2h2l23-2c11-1,23-2,34-1l14,3c5,1,7,5,8,10s-1,16-3,23-10,30-16,45v3c0,3,1,5,4,4l5-2,13-13c13-16,20-35,25-56l2-11V322ZM493,199,454,92l-6-17c-1-3-3-5-6-5H419c-2,0-4,2-3,5l2,6,59,146c2,4,2,8,0,12l-9,22c-3,7-8,11-15,13H429c-3,0-5,1-5,5s0,7,0,10,2,8,7,9l17,2c17,0,31-6,40-21a132,132,0,0,0,9-18L568,80l2-5c0-3-1-4-4-4H546a8,8,0,0,0-8,5l-2,4L502,179l-8,22v-2Z" transform="translate(-14 -65)" style="fill:#fff"/></svg>