<svg id="Layer_1" data-name="Layer 1" xmlns="http://www.w3.org/2000/svg" viewBox="0 0 356 512"><title>angellist</title><path d="M347,215c12-33,45-127,45-157S377,9,349,9c-45,0-85,132-97,163C242,144,197,0,157,0s-46,23-46,52,34,127,47,162c-6-2-13-4-20-4-23,0-48,29-48,53,0,9,5,21,8,30-37,10-51,35-51,72,0,72,68,149,165,149,118,0,191-89,191-203,0-43-7-82-55-94ZM312,108c4-12,21-64,37-64s11,9,11,16c0,19-39,125-47,148l-34-6ZM142,48c0-12,15-46,46,47l35,100c-16-1-28-3-35,1-11-29-45-120-45-149Zm-2,196c29,0,67,95,67,107s-5,11-11,11c-21,0-77-77-77-98,0-8,13-21,20-21ZM324,430c-29,32-66,49-110,49-59,0-106-33-129-88-17-43,4-68,21-68s54,60,54,73-8,8-12,8c-16,0-22-15-51-51-30,30,20,87,58,87,26,0,43-24,38-42h12c1,27,9,59,42,62l2-7c0-17-11-33-11-50,0-28,22-56,44-72,8-6,18-10,27-13s20-8,27-15-6-21-17-21c-28,0-121,4-121-40,0-7,0-13,17-13,32,0,114,8,138,29s24,113-31,175ZM226,304c10,3,20,4,30,6a130,130,0,0,0-20,19C232,321,229,313,226,304Z" transform="translate(-46)" style="fill:#fff"/></svg>