<svg id="Layer_1" data-name="Layer 1" xmlns="http://www.w3.org/2000/svg" viewBox="0 0 640 284"><title>angrycreative</title><path d="M640,238l-3,28-34,2-2,18,35-2-3,28-34,2-2,20,34-2-3,26-65,4,13-113L527,365l-32,2L471,249l30-2,14,79,32-82,93-6ZM427,372l28-2,13-120-28,2L427,372ZM162,388l-19-36-3,37-28,2,3-29c-11,18-32,34-57,36S-3,377,0,340s27-63,68-65,48,23,51,29l3-31,39-2c20-1,39,4,43,24l3-27,65-4-3,28-36,2-2,18,36-2-3,28-36,2-2,20,36-2-2,21,55-117,24-2,32,111,9-86H357l3-28,75-5-3,28-24,2-10,92-58,4-4-16-39,3-8,16-126,8Zm-44-70-26,2c-7-12-14-17-26-16s-33,18-35,33,7,33,29,31,21-9,29-19l27-2,3-30Zm56-8c1-13-8-14-26-12l-3,29C159,325,172,324,174,310Zm21,71,6-60c-5,14-15,21-28,27l22,33Zm135-45-8-38-16,39h24ZM160,261l-4-18-40,3-8,18-32,2,57-122,24-2,31,102,10-105,27-2,38,64,7-67,29-2-4,41c7-13,23-45,64-47s52,29,53,30l3-32,39-3c13-1,28,0,36,10l-4-12,32-2,13,43,23-46,31-2-44,78-5,44-28,2,5-44-16-43c1,22-9,40-32,50l25,39-36,2-19-37-4,38-28,2,3-31c-7,9-20,35-60,38-26,2-46-10-55-39l-4,40-25,2-38-63-6,66-57,4Zm277-82c10-1,18-2,22-4s7-6,8-12-1-9-3-10-11-3-23-2l-3,29ZM328,214c6,6,13,9,21,8a32,32,0,0,0,13-4c6-3,11-8,15-14l-34,2,2-24,63-4V166l-31,2-11-8a26,26,0,0,0-12-2c-8,1-15,4-22,9a35,35,0,0,0-13,24c-1,10,1,17,7,23Zm-201,8,24-2-8-38Z" transform="translate(0 -114)" style="fill:#fff"/></svg>