<svg id="Layer_1" data-name="Layer 1" xmlns="http://www.w3.org/2000/svg" viewBox="0 0 448 448"><title>app-store-ios</title><path d="M400,32H48A48,48,0,0,0,0,80V432a48,48,0,0,0,48,48H400a48,48,0,0,0,48-48V80A48,48,0,0,0,400,32ZM127,385a20,20,0,0,1-35-20l14-25q24-7,40,11Zm139-54H84a20,20,0,0,1,0-40h51l65-113-20-35a20,20,0,1,1,35-20l9,15,9-15a20,20,0,1,1,35,20L181,291h62c20,0,32,24,23,40Zm98,0H335l20,34a20,20,0,1,1-35,20L246,256c-17-29-5-58,7-68l59,102h52a20,20,0,0,1,0,40Z" transform="translate(0 -32)" style="fill:#fff"/></svg>