<svg id="Layer_1" data-name="Layer 1" xmlns="http://www.w3.org/2000/svg" viewBox="0 0 496 496"><title>app-store</title><path d="M256,121l9-16a20,20,0,1,1,35,20L213,277h63c21,0,32,24,23,41H114a20,20,0,1,1,0-41h52l67-115-21-36a20,20,0,1,1,35-20l9,16ZM177,339l-20,34a20,20,0,0,1-35-20l15-25c16-5,30-1,40,12Zm169-62h53a20,20,0,0,1,0,41H370l20,35a20,20,0,1,1-35,20L279,242c-17-29-5-59,7-69l60,104ZM256,8C119,8,8,119,8,256S119,504,256,504,504,393,504,256,393,8,256,8ZM472,256c0,119-96,216-216,216S40,376,40,256,136,40,256,40,472,136,472,256Z" transform="translate(-8 -8)" style="fill:#fff"/></svg>