<svg id="Layer_1" data-name="Layer 1" xmlns="http://www.w3.org/2000/svg" viewBox="0 0 640 169"><title>apper</title><path d="M42,239c22,0,29,3,34,15h1V231c0-11-5-15-18-15s-14,3-15,13H5c0-14,2-19,6-24s19-12,46-12,47,5,54,19,4,16,4,24v76H76V292H77c-5,16-14,20-35,20S0,302,0,275s12-36,42-36Zm17,48c13,0,17-3,17-13s-4-12-20-12-18,3-18,12S42,287,59,287Zm78-95h38v21h1c9-17,16-21,38-21s25,3,32,9,13,20,13,48-3,43-12,53-16,10-33,10-29-5-34-21h-1v70H137V192Zm81,61c0-27-3-32-21-32s-21,5-21,29,4,34,21,34S218,277,218,253Zm58-61h38v21h1c9-17,16-21,38-21s25,3,32,9,13,20,13,48-3,43-12,53-16,10-33,10-29-5-34-21h-1v70H276V192Zm81,61c0-27-3-32-21-32s-21,5-21,29,4,34,21,34S357,277,357,253Zm54-4c0-25,3-38,12-46s22-11,45-11c43,0,56,13,56,56v11H448a33,33,0,0,0,0,5c0,17,5,22,20,22s18-3,18-14h38v2c0,10-2,19-7,25s-20,14-44,14-42-3-51-12-11-21-11-51Zm76-12a23,23,0,0,1,0-4c0-12-3-15-20-15s-17,3-18,15v3Zm56-45h38l-2,20h1c7-15,14-20,30-20s19,3,23,9,7,14,7,34c0,2,0,5,0,9H605a24,24,0,0,0,0-4c0-15-2-19-10-19s-11,3-13,9-1,4-1,12v68H542V192Z" transform="translate(0 -192)" style="fill:#fff"/></svg>