<?xml version="1.0" encoding="UTF-8"?>
<!DOCTYPE svg PUBLIC "-//W3C//DTD SVG 1.1//EN" "http://www.w3.org/Graphics/SVG/1.1/DTD/svg11.dtd">
<!-- Creator: CorelDRAW 2017 -->
<svg xmlns="http://www.w3.org/2000/svg" xml:space="preserve" width="210mm" height="297mm" version="1.1" style="shape-rendering:geometricPrecision; text-rendering:geometricPrecision; image-rendering:optimizeQuality; fill-rule:evenodd; clip-rule:evenodd"
viewBox="0 0 21000 29700"
 xmlns:xlink="http://www.w3.org/1999/xlink">
 <defs>
  <style type="text/css">
   <![CDATA[
    .fil0 {fill:white}
   ]]>
  </style>
 </defs>
 <g id="Layer_x0020_1">
  <metadata id="CorelCorpID_0Corel-Layer"/>
  <path class="fil0" d="M16446 8897c1217,219 2216,875 2996,1969 687,969 1155,2188 1404,3656 219,1344 203,2687 -47,4031 -375,2219 -1124,4078 -2247,5578 -1343,1813 -3028,2719 -5056,2719 -500,0 -1045,-156 -1639,-469 -406,-250 -858,-375 -1358,-375 -500,0 -952,125 -1358,375 -593,313 -1139,469 -1639,469 -2029,0 -3714,-906 -5056,-2719 -1124,-1500 -1873,-3360 -2247,-5578 -249,-1344 -266,-2687 -47,-4031 249,-1469 718,-2687 1404,-3656 780,-1094 1779,-1750 2996,-1969 749,-125 1779,-15 3090,328 1124,313 2076,688 2856,1125 780,-437 1733,-812 2856,-1125 1312,-344 2342,-453 3091,-328l0 0zm-2575 -1922c-437,406 -1015,703 -1733,891 -500,156 -1045,234 -1639,234l-702 -47c-62,-437 -62,-938 0,-1500 125,-1125 484,-1984 1077,-2578 437,-406 1015,-703 1733,-891 500,-156 1045,-234 1639,-234l702 47 47 703c0,594 -78,1140 -234,1641 -187,719 -483,1297 -890,1734l0 0z"/>
 </g>
</svg>
