<svg id="Layer_1" data-name="Layer 1" xmlns="http://www.w3.org/2000/svg" viewBox="0 0 640 263"><title>apple-pay</title><path d="M117,159c-7,9-19,16-31,15-1-12,4-25,11-33s21-16,31-16c1,12-4,25-11,34m11,17c-17-1-32,10-41,10s-21-9-35-9S18,187,9,203c-19,32-5,80,13,106,9,13,19,27,34,27s19-9,35-9,21,9,35,8,24-13,33-26a113,113,0,0,0,15-30s-28-11-28-43,22-39,23-40c-12-19-32-21-39-21m100-36V334h30V268h42c38,0,65-26,65-64s-26-64-64-64H228Zm30,26h35c26,0,41,14,41,39s-15,39-41,39H258V165ZM421,336c19,0,37-10,45-25h1v23h28V237c0-28-22-46-57-46s-56,18-57,44h27c2-12,13-20,29-20s29,9,29,25v11l-38,2c-35,2-54,17-54,42S393,336,421,336Zm8-23c-16,0-26-8-26-20s10-19,29-20l34-2v11C465,300,449,313,429,313Zm103,75c30,0,43-11,56-45l53-149H609L574,308h-1L537,193H506l51,142-3,9c-5,15-12,20-25,20h-9v23h12Z" transform="translate(0 -125)" style="fill:#fff"/></svg>