<svg id="Layer_1" data-name="Layer 1" xmlns="http://www.w3.org/2000/svg" viewBox="0 0 401 512"><title>Asset1</title><g id="Layer_2" data-name="Layer 2"><g id="Layer_1-2" data-name="Layer 1-2"><path d="M400,256,387,413c-3,41-64,35-61-5l10-122-41,2a156,156,0,0,1-26,175l-39-39c58-64,13-167-74-167a100,100,0,0,0-67,26L49,243a155,155,0,0,1,81-40l75-86L163,93l-52,46c-30,27-71-18-40-45l68-61a30,30,0,0,1,36-4l140,81c16,10,21,36,6,53l-58,67,106-6a30,30,0,0,1,32,33ZM335,102a51,51,0,1,0-51-51A51,51,0,0,0,335,102ZM156,457c-81,0-127-91-83-156L33,261A154,154,0,0,0,0,356C0,487,151,558,251,479l-40-40a99,99,0,0,1-56,17Z" style="fill:#fff"/></g></g></svg>