<svg id="Layer_1" data-name="Layer 1" xmlns="http://www.w3.org/2000/svg" viewBox="0 0 576 407"><title>asymmetrik</title><path d="M518,309c39-40,58-80,59-116,1-65-59-118-169-135C278,38,118,74,0,141c52-26,111-48,171-58,75-20,153-25,221-15,153,24,197,128,99,232a256,256,0,0,1-35,31L305,103,115,389c-66-29-76-90-19-151,21-22,48-42,80-58,20-12,40-23,62-31-65,20-123,53-162,93-28,29-41,57-42,83s23,65,68,83L68,459H169l22-34a431,431,0,0,0,69-3l-23,37H373l-33-53a522,522,0,0,0,55-19l46,72H542L469,349A288,288,0,0,0,518,309ZM330,390l-25-41-33,53a388,388,0,0,1-69,4L305,247l79,123a456,456,0,0,1-54,19Z" transform="translate(0 -53)" style="fill:#fff"/></svg>