<?xml version="1.0" encoding="UTF-8"?>
<!DOCTYPE svg PUBLIC "-//W3C//DTD SVG 1.1//EN" "http://www.w3.org/Graphics/SVG/1.1/DTD/svg11.dtd">
<!-- Creator: CorelDRAW 2017 -->
<svg xmlns="http://www.w3.org/2000/svg" xml:space="preserve" width="210mm" height="297mm" version="1.1" style="shape-rendering:geometricPrecision; text-rendering:geometricPrecision; image-rendering:optimizeQuality; fill-rule:evenodd; clip-rule:evenodd"
viewBox="0 0 21000 29700"
 xmlns:xlink="http://www.w3.org/1999/xlink">
 <defs>
  <style type="text/css">
   <![CDATA[
    .fil0 {fill:white}
   ]]>
  </style>
 </defs>
 <g id="Layer_x0020_1">
  <metadata id="CorelCorpID_0Corel-Layer"/>
  <path class="fil0" d="M10500 13350c-828,0 -1500,672 -1500,1500 0,828 672,1500 1500,1500 828,0 1500,-672 1500,-1500 -1,-828 -673,-1499 -1500,-1500l0 0zm11540 -3000c-510,-914 -1899,-2379 -5450,-1963 -2508,-3902 -4044,-5537 -6089,-5537 -2045,0 -3581,1635 -4589,4037 -3552,-410 -4940,1049 -5450,1963 -768,1377 -703,3428 1178,6000 -1881,2572 -1946,4623 -1178,6000 1366,2455 4765,2045 5450,1963 1008,2402 2544,4037 4589,4037 2045,0 3581,-1635 4589,-4037 686,82 4085,492 5450,-1963 768,-1377 703,-3428 -1178,-6000 1881,-2572 1946,-4623 1178,-6000l1500 1500zm-19071 9000c-188,-340 -6,-1160 703,-2262 322,305 662,604 1026,896 76,645 188,1271 316,1881 -1154,41 -1870,-205 -2045,-516zm1729 -7635c-363,293 -703,592 -1026,896 -709,-1102 -891,-1922 -703,-2262 158,-287 768,-539 1776,-539 82,0 182,18 270,18 -135,627 -240,1254 -316,1887zm5802 -5865c445,0 1043,633 1588,1746 -527,176 -1055,375 -1588,604 -533,-229 -1061,-428 -1588,-604 545,-1113 1143,-1746 1588,-1746zm0 18000c-445,0 -1043,-633 -1588,-1746 528,-176 1055,-375 1588,-604 533,229 1061,428 1588,604 -545,1113 -1143,1746 -1588,1746zm0 -5250c-2071,0 -3750,-1679 -3750,-3750 0,-2071 1679,-3750 3750,-3750 2071,0 3750,1679 3750,3750 0,2071 -1679,3750 -3750,3750l0 0zm7531 750c-170,311 -891,557 -2045,516 129,-609 240,-1236 317,-1881 363,-293 703,-592 1026,-896 709,1102 891,1922 703,2262zm-703 -6738c-322,-305 -662,-604 -1026,-896 -76,-633 -182,-1260 -317,-1887 88,0 188,-18 270,-18 1008,0 1618,252 1776,539 187,340 6,1160 -703,2262z"/>
 </g>
</svg>
