<svg id="Layer_1" data-name="Layer 1" xmlns="http://www.w3.org/2000/svg" viewBox="0 0 640 208"><title>aviato</title><path d="M107,284,88,242H36L17,284H0L62,152l62,131ZM62,185,43,228H82ZM175,288,113,156h17l45,96,45-96h17Zm81-4V156h16V284ZM465,168V284H447V168H406V156H506v12Zm175,51a65,65,0,0,1-5,26,66,66,0,0,1-35,35,68,68,0,0,1-52,0,66,66,0,0,1-21-14,67,67,0,0,1-14-73,66,66,0,0,1,14-21c6-6,13-8,21-12a68,68,0,0,1,52,0c8,3,15,6,21,12a68,68,0,0,1,14,21A65,65,0,0,1,640,219Zm-15,0a52,52,0,0,0-4-20,49,49,0,0,0-11-16,52,52,0,0,0-16-11,51,51,0,0,0-40,0,52,52,0,0,0-16,11,49,49,0,0,0-11,16,55,55,0,0,0,0,41,49,49,0,0,0,11,16,52,52,0,0,0,16,11,51,51,0,0,0,40,0,52,52,0,0,0,16-11,49,49,0,0,0,11-16,53,53,0,0,0,4-20Zm-95,97v-6l89-10L376,313a48,48,0,0,0,1-7,63,63,0,0,0,1-6l65-8-65,2h0c-3-17-25-24-25-24V242h24l19,42h17L349,152,286,283h17l19-42h24v26s-23,7-25,24h0l-65-2,65,8c0,2,0,4,1,7a48,48,0,0,0,1,7L78,299l89,10v6a12,12,0,1,0,4,0v-6l80,9v5a12,12,0,0,0-10,12c0,7,6,10,12,10s12-3,12-10a12,12,0,0,0-10-12v-5l28,3v24h-6v14h6v-7h5v7h6V346h-6V323l38,4c8,11,19,14,19,14v7h-5v12h4v-5h5v5h4V348h-5v-7s11-2,19-14l38-4v23h-6v14h6v-7h5v7h6V346h-6V323l28-3v5a12,12,0,0,0-10,12c0,7,6,10,12,10s12-3,12-10a12,12,0,0,0-10-12v-5l80-9v6a12,12,0,1,0,14,12A13,13,0,0,0,530,316ZM329,228l20-42,20,43H350l-2-40-2,40Z" transform="translate(0 -152)" style="fill:#fff"/></svg>