<svg id="Layer_1" data-name="Layer 1" xmlns="http://www.w3.org/2000/svg" viewBox="0 0 640 384"><title>aws</title><path d="M180,203c-1,23,11,33,11,39a8,8,0,0,1-4,6l-13,9-6,2s-8,2-20-26a79,79,0,0,1-63,29c-16,1-60-9-58-56s34-62,71-60c7,0,22,0,47,6V137c3-26-15-47-45-44-2,0-19,0-46,10-7,3-8,3-11,3s-4-21-3-24,36-18,66-18a77,77,0,0,1,56,17,70,70,0,0,1,18,52v69ZM94,235c32,0,46-20,49-30s2-16,2-27a172,172,0,0,0-40-5c-15-1-43,6-42,32S75,236,94,235Zm171,23c-8,1-12-5-13-10L202,83a38,38,0,0,1-2-9,5,5,0,0,1,4-5h22c9-1,12,6,13,10l36,141L308,80c1-3,3-11,13-10h17c2,0,11,0,13,10l33,143L421,80c0-2,3-11,13-10h20c1,0,6-1,5,9L406,248c-1,6-5,11-13,10H375c-11,1-13-10-13-11L329,111,296,248c0,1-2,12-13,11H265Zm273,6c-6,0-34,0-57-12a13,13,0,0,1-8-12V229c0-8,6-7,9-6s16,7,29,10c37,8,53-2,57-4s14-26,5-35-15-9-53-21c-5-1-44-14-44-52-1-28,25-56,70-56,13,0,46,4,56,16a12,12,0,0,1,2,7V97q0,7-5,7c-8-1-21-11-49-11-7,0-40,1-38,25s27,26,30,27c36,11,49,13,63,30s8,48,4,55c-19,37-68,34-69,34Zm40,105c-70,52-172,79-258,79A469,469,0,0,1,3,327c-7-6-1-14,7-9a637,637,0,0,0,317,84,630,630,0,0,0,242-50c12-5,22,8,10,16Zm29-33c-9-12-59-5-82-3-7,1-8-5-2-9,40-28,106-20,113-11s-2,75-40,107c-6,5-11,2-9-4C598,394,617,347,608,336Z" transform="translate(0 -64)" style="fill:#fff"/></svg>