<?xml version="1.0" encoding="UTF-8"?>
<!DOCTYPE svg PUBLIC "-//W3C//DTD SVG 1.1//EN" "http://www.w3.org/Graphics/SVG/1.1/DTD/svg11.dtd">
<!-- Creator: CorelDRAW 2017 -->
<svg xmlns="http://www.w3.org/2000/svg" xml:space="preserve" width="210mm" height="297mm" version="1.1" style="shape-rendering:geometricPrecision; text-rendering:geometricPrecision; image-rendering:optimizeQuality; fill-rule:evenodd; clip-rule:evenodd"
viewBox="0 0 21000 29700"
 xmlns:xlink="http://www.w3.org/1999/xlink">
 <defs>
  <style type="text/css">
   <![CDATA[
    .fil0 {fill:white}
   ]]>
  </style>
 </defs>
 <g id="Layer_x0020_1">
  <metadata id="CorelCorpID_0Corel-Layer"/>
  <path class="fil0" d="M4228 13547c417,-1988 1753,-3642 3548,-4486 169,230 1313,1819 2377,3703 -3000,797 -5639,788 -5925,783zm10519 -3478c-1575,-1397 -3717,-1927 -5747,-1434 178,239 1341,1823 2391,3750 2278,-858 3239,-2152 3356,-2316l0 0zm-8180 9844c1898,1481 4373,1720 6436,844 -94,-563 -469,-2522 -1369,-4856 -2583,881 -4397,2644 -5067,4013zm4631 -5072c-159,-366 -338,-727 -520,-1088 -3197,956 -6300,919 -6581,909 0,66 -5,131 -5,197 0,1645 623,3145 1645,4284 1041,-1777 3145,-3652 5461,-4303l0 0zm1636 764c839,2302 1177,4177 1242,4566 1439,-970 2461,-2513 2747,-4294 -216,-70 -1983,-595 -3989,-272l0 0zm-952 -2269c225,459 389,834 563,1256 2133,-267 4252,159 4463,206 -14,-1514 -553,-2902 -1448,-3989 -136,183 -1209,1556 -3577,2527zm9117 -6736l0 16500c0,1242 -1008,2250 -2250,2250l-16500 0c-1242,0 -2250,-1008 -2250,-2250l0 -16500c0,-1242 1008,-2250 2250,-2250l16500 0c1242,0 2250,1008 2250,2250zm-3000 8250c0,-4134 -3366,-7500 -7500,-7500 -4134,0 -7500,3366 -7500,7500 0,4134 3366,7500 7500,7500 4134,0 7500,-3366 7500,-7500z"/>
 </g>
</svg>
