<?xml version="1.0" encoding="UTF-8"?>
<!DOCTYPE svg PUBLIC "-//W3C//DTD SVG 1.1//EN" "http://www.w3.org/Graphics/SVG/1.1/DTD/svg11.dtd">
<!-- Creator: CorelDRAW 2017 -->
<svg xmlns="http://www.w3.org/2000/svg" xml:space="preserve" width="210mm" height="297mm" version="1.1" style="shape-rendering:geometricPrecision; text-rendering:geometricPrecision; image-rendering:optimizeQuality; fill-rule:evenodd; clip-rule:evenodd"
viewBox="0 0 21000 29700"
 xmlns:xlink="http://www.w3.org/1999/xlink">
 <defs>
  <style type="text/css">
   <![CDATA[
    .fil0 {fill:white}
   ]]>
  </style>
 </defs>
 <g id="Layer_x0020_1">
  <metadata id="CorelCorpID_0Corel-Layer"/>
  <path class="fil0" d="M10500 4678c-5618,0 -10172,4554 -10172,10172 0,5618 4554,10172 10172,10172 5618,0 10172,-4554 10172,-10172 0,-5618 -4554,-10172 -10172,-10172zm5336 4835c2684,2684 2871,6787 848,9665l-10513 -10513c2879,-2024 6982,-1835 9665,848zm-10673 10673c-2684,-2684 -2871,-6787 -848,-9665l10513 10513c-2879,2024 -6982,1835 -9665,-848z"/>
 </g>
</svg>
