<svg id="Layer_1" data-name="Layer 1" xmlns="http://www.w3.org/2000/svg" viewBox="0 0 511 512"><title>battle-net</title><path d="M449,226c27,0,36-7,39-12,12-16-7-48-53-71,18-34,30-64,36-85s1-19,0-20c-2,11-16,48-48,100-25-11-57-20-94-24-9-17-35-64-60-89S239,1,228,0h0c-14-2-23,6-27,11-17,19-24,49-25,84-7-12-17-25-28-26h0c-21-3-38,29-36,81-38,1-71,6-93,11-10,2-16,7-18,10s22-9,112-9c5,53,30,102,26,93-10,15-38,62-47,98-6,23-4,38,0,47s16,17,23,18c25,6,55-4,87-21-8,13-14,29-9,39s44,19,88-9c20,32,40,58,56,74l9,7c5,3,9,3,9,3s-34-38-63-92c22-16,46-39,67-69,123,5,143-25,148-32,15-20,3-57-57-94ZM371,332c24-38,30-68,29-92,28,18,47,38,49,59S441,327,371,332ZM217,388l29-20,21,38c-41,22-69,13-50-18ZM432,216l-32-15,23-37c39,24,46,53,10,52ZM279,398l-16-36c43,1,62-19,63-20s-25,16-63,12a719,719,0,0,0,85-84l25-31s-2-3-17-12c-52,60-102,98-133,116-21-11-41-32-56-61s-30-82-32-116l39,4c-22,37-14,63-13,64s-1-29,20-60a695,695,0,0,0,45,153c1,0,2,1,19-8-26-74-34-138-34-173,20-12,48-20,82-18,45,3,86,15,116,31l-23,32c-21-38-47-44-49-44s26,14,42,47a718,718,0,0,0-115-32l-39-6s-2,2-2,20c78,14,137,40,167,57,1,24-7,52-25,80S308,380,279,398Zm27-287c-45-2-74,7-95,21,2-52,21-76,38-75S305,109,307,111Zm-131,3c0,12,2,25,3,37H137c0,3,0-51,25-50h0c6,1,11,7,14,14ZM148,276c21,40,43,61,65,72-47,25-78,20-85,5,0,0-11-15,20-77Z" transform="translate(0 0)" style="fill:#fff"/></svg>