<?xml version="1.0" encoding="UTF-8"?>
<!DOCTYPE svg PUBLIC "-//W3C//DTD SVG 1.1//EN" "http://www.w3.org/Graphics/SVG/1.1/DTD/svg11.dtd">
<!-- Creator: CorelDRAW 2017 -->
<svg xmlns="http://www.w3.org/2000/svg" xml:space="preserve" width="210mm" height="297mm" version="1.1" style="shape-rendering:geometricPrecision; text-rendering:geometricPrecision; image-rendering:optimizeQuality; fill-rule:evenodd; clip-rule:evenodd"
viewBox="0 0 21000 29700"
 xmlns:xlink="http://www.w3.org/1999/xlink">
 <defs>
  <style type="text/css">
   <![CDATA[
    .fil0 {fill:white}
   ]]>
  </style>
 </defs>
 <g id="Layer_x0020_1">
  <metadata id="CorelCorpID_0Corel-Layer"/>
  <path class="fil0" d="M5775 14850c1447,0 2625,-1178 2625,-2625 0,-1447 -1178,-2625 -2625,-2625 -1447,0 -2625,1178 -2625,2625 0,1447 1178,2625 2625,2625zm11550 -4200l-7350 0c-290,0 -525,235 -525,525l0 4725 -7350 0 0 -6825c0,-290 -235,-525 -525,-525l-1050 0c-290,0 -525,235 -525,525l0 11550c0,290 235,525 525,525l1050 0c290,0 525,-235 525,-525l0 -1575 16800 0 0 1575c0,290 235,525 525,525l1050 0c290,0 525,-235 525,-525l0 -6300c0,-2030 -1645,-3675 -3675,-3675z"/>
 </g>
</svg>
