<svg id="Layer_1" data-name="Layer 1" xmlns="http://www.w3.org/2000/svg" viewBox="0 0 448 448"><title>behance-square</title><path d="M187,293c0,19-14,25-31,25H110V266h46c19,0,30,8,30,28Zm-8-82c0-18-14-22-29-22H110v45h43c15,0,26-7,26-23Zm132,23c-18,0-30,11-32,30h62c-2-18-11-30-30-30ZM448,80V432a48,48,0,0,1-48,48H48A48,48,0,0,1,0,432V80A48,48,0,0,1,48,32H400A48,48,0,0,1,448,80ZM272,185h78V166H272ZM229,295c0-24-11-45-35-52,17-8,26-18,26-37,0-38-28-47-61-47H68V351h93C196,351,229,334,229,295Zm151-15c0-41-24-75-68-75s-71,32-71,74,27,73,71,73c33,0,55-15,65-47H344c-4,12-19,18-30,18-22,0-34-13-34-35H380c0-2,0-5,0-7Z" transform="translate(0 -32)" style="fill:#fff"/></svg>