<svg id="Layer_1" data-name="Layer 1" xmlns="http://www.w3.org/2000/svg" viewBox="0 0 576 361"><title>behance</title><path d="M232,237c32-15,48-38,48-74,0-71-53-88-113-88H0V430H172c64,0,125-31,125-103,0-44-21-77-65-90ZM78,136h73c28,0,53,8,53,41s-20,42-47,42H78Zm83,234H78V272h85c34,0,56,14,56,51s-26,47-58,47ZM520,129H376V94H520v35Zm56,176c0-76-44-139-125-139S320,225,320,302s50,135,131,135c61,0,101-28,120-86H509c-7,22-34,34-56,34-41,0-63-24-63-65H575C576,314,576,310,576,305ZM390,274c2-34,25-55,59-55s53,21,56,55Z" transform="translate(0 -75)" style="fill:#fff"/></svg>