<?xml version="1.0" encoding="UTF-8"?>
<!DOCTYPE svg PUBLIC "-//W3C//DTD SVG 1.1//EN" "http://www.w3.org/Graphics/SVG/1.1/DTD/svg11.dtd">
<!-- Creator: CorelDRAW 2017 -->
<svg xmlns="http://www.w3.org/2000/svg" xml:space="preserve" width="210mm" height="297mm" version="1.1" style="shape-rendering:geometricPrecision; text-rendering:geometricPrecision; image-rendering:optimizeQuality; fill-rule:evenodd; clip-rule:evenodd"
viewBox="0 0 21000 29700"
 xmlns:xlink="http://www.w3.org/1999/xlink">
 <defs>
  <style type="text/css">
   <![CDATA[
    .fil0 {fill:white}
   ]]>
  </style>
 </defs>
 <g id="Layer_x0020_1">
  <metadata id="CorelCorpID_0Corel-Layer"/>
  <path class="fil0" d="M16817 12750c-537,-2 -1051,97 -1524,279l-2549 -4107c-144,-231 -397,-372 -669,-372 0,0 0,0 0,0l-2100 0c-290,0 -525,235 -525,525l0 525c0,290 235,525 525,525l1662 0 489 788 -3726 0 0 -525c0,-290 -235,-525 -525,-525l-2870 0c-441,0 -813,361 -805,802 8,428 357,773 787,773l1599 0 -965 1559c-441,-158 -916,-246 -1411,-247 -2304,-6 -4197,1871 -4210,4175 -14,2331 1872,4225 4200,4225 1957,0 3601,-1339 4068,-3150l1707 0c273,0 526,-141 670,-373l2821 -4556 490 790c-835,769 -1358,1873 -1355,3099 5,2259 1900,4169 4158,4191 2317,22 4206,-1831 4241,-4134 36,-2328 -1855,-4256 -4183,-4265l0 0zm-10689 2421c319,345 547,776 645,1254l-1421 0 776 -1254 0 0zm-1928 4404c-1447,0 -2625,-1178 -2625,-2625 0,-1447 1178,-2625 2625,-2625 193,0 380,21 561,61l-1493 2412c-324,524 53,1202 670,1202l2668 0c-406,926 -1331,1575 -2405,1575l0 0zm5336 -3150l-1169 0c-130,-1042 -642,-1965 -1391,-2626l812 -1312 4185 0 -2438 3938zm7122 3146c-1346,-71 -2430,-1171 -2482,-2519 -27,-693 218,-1330 634,-1813l1458 2349c153,246 477,322 723,169l446 -277c246,-153 322,-477 169,-723l-1459 -2351c212,-54 431,-82 650,-82 0,0 1,0 1,0 1447,0 2625,1178 2625,2625 0,1494 -1255,2701 -2767,2621l0 0z"/>
 </g>
</svg>
