<svg id="Layer_1" data-name="Layer 1" xmlns="http://www.w3.org/2000/svg" viewBox="0 0 496 496"><title>bitcoin</title><path d="M504,256c0,137-111,248-248,248S8,393,8,256,119,8,256,8,504,119,504,256ZM362,221c5-33-20-51-55-63l11-45-27-7-11,44-22-5,11-44-27-7-11,45-17-4h0l-38-9-7,29,20,5c11,3,13,10,13,16l-13,51h0l-18,71c-1,3-5,8-12,6l-20-5-14,31,35,9,19,5-11,45,27,7,11-45,22,6-11,45,27,7,11-45c46,9,81,5,96-37s-1-53-25-66c18-4,31-16,35-40Zm-62,87c-8,34-65,16-84,11l15-60C250,263,309,273,300,308Zm8-88c-8,31-55,15-70,11l14-54C267,181,317,188,309,220Z" transform="translate(-8 -8)" style="fill:#fff"/></svg>