<svg id="Layer_1" data-name="Layer 1" xmlns="http://www.w3.org/2000/svg" viewBox="0 0 496 487"><title>bity</title><path d="M78,67c95-89,246-91,343,4,14,14-6,37-22,22-85-82-216-80-299-3C84,104,64,81,78,67Zm99,419c19,6,29-24,8-30C73,422,9,306,38,195c5-20-25-28-30-7C-25,315,49,448,177,486Zm148-2c122-40,193-167,164-291-4-20-35-14-30,8,24,108-37,218-143,253C295,461,306,490,325,484Zm-63-79V333a15,15,0,0,0-30,0v72a15,15,0,0,0,30,0Zm71-269c2,91,5,132-85,133s-87-44-85-132c0-22-32-20-32,0v72c0,69,61,91,118,90s118-21,118-90V136C366,116,334,114,334,136Z" transform="translate(0 0)" style="fill:#fff"/></svg>