<svg id="Layer_1" data-name="Layer 1" xmlns="http://www.w3.org/2000/svg" viewBox="0 0 512 358"><title>blackberry</title><path d="M166,117c0,23-16,49-72,49H23L44,77h68C154,77,166,101,166,117ZM292,77H224l-19,89h70c54,0,70-26,70-49s-12-40-54-40ZM89,208H21L0,297H70c56,0,73-23,73-49s-12-40-54-40Zm180,0H201l-19,89h70c54,0,70-23,70-49s-12-40-54-40Zm189-54H390l-19,89h70c54,0,70-23,70-49S500,154,458,154ZM430,292H362l-19,89h70c56,0,70-23,70-49s-12-40-54-40ZM241,346H173l-19,89h70c56,0,70-26,70-49s-12-40-54-40Z" transform="translate(0 -77)" style="fill:#fff"/></svg>