<svg id="Layer_1" data-name="Layer 1" xmlns="http://www.w3.org/2000/svg" viewBox="0 0 448 448"><title>blogger</title><path d="M162,196c5-5,6-5,36-5s28,0,32,2,8,7,8,14-2,10-8,13-4,2-31,2H169c-10-3-14-18-7-25Zm61,95c-54,0-56,0-60,4s-6,9-5,14a17,17,0,0,0,9,12c2,1,14,2,56,1h57a15,15,0,0,0,3-24c-5-5-5-5-60-5ZM447,421c-3,28-23,50-51,58-7,2-10,2-173,2s-166,0-172-2a72,72,0,0,1-22-10c-6-4-14-12-17-16A86,86,0,0,1,2,430c-2-7-2-9-2-173S0,90,2,83A67,67,0,0,1,53,33c7-2,332-2,340,0a67,67,0,0,1,48,36c8,15,7-1,7,181C448,366,448,415,447,421ZM362,235c-1-5-4-10-8-11l-15-2c-12-1-14-1-18-3s-8-8-8-18-8-39-25-56-25-20-41-25l-39-2c-43,0-52,0-67,6-27,11-46,33-53,62-1,5-2,14-2,64,0,63,0,72,4,84,10,31,37,53,65,58,9,2,122,2,134,1s36-11,51-26,17-23,22-38,3-88,2-94Z" transform="translate(0 -32)" style="fill:#fff"/></svg>