<svg id="Layer_1" data-name="Layer 1" xmlns="http://www.w3.org/2000/svg" viewBox="0 0 448 448"><title>blogger-b</title><path d="M447,223c-2-8-7-15-12-18l-25-3c-20-1-22-1-29-5s-13-12-13-29c0-33-14-64-41-91s-41-33-65-40c-6-2-19-2-63-3-69-1-85,1-108,10C46,60,15,96,3,143c-2,9-3,23-3,104C0,348,0,363,7,383c16,50,60,86,104,94,15,3,197,3,216,1,33-4,58-17,82-42s28-37,35-62,5-143,3-152ZM125,159c8-8,10-8,59-8s45,0,52,3,13,11,13,22-4,16-12,22-7,3-50,3H135C118,195,112,171,125,159ZM316,359l-15,2H224c-68,1-87,0-91-2s-14-12-15-19,3-17,8-22,10-7,97-7,89,0,98,8,10,31-5,39Z" transform="translate(0 -32)" style="fill:#fff"/></svg>