<?xml version="1.0" encoding="UTF-8"?>
<!DOCTYPE svg PUBLIC "-//W3C//DTD SVG 1.1//EN" "http://www.w3.org/Graphics/SVG/1.1/DTD/svg11.dtd">
<!-- Creator: CorelDRAW 2017 -->
<svg xmlns="http://www.w3.org/2000/svg" xml:space="preserve" width="210mm" height="297mm" version="1.1" style="shape-rendering:geometricPrecision; text-rendering:geometricPrecision; image-rendering:optimizeQuality; fill-rule:evenodd; clip-rule:evenodd"
viewBox="0 0 21000 29700"
 xmlns:xlink="http://www.w3.org/1999/xlink">
 <defs>
  <style type="text/css">
   <![CDATA[
    .fil0 {fill:white}
   ]]>
  </style>
 </defs>
 <g id="Layer_x0020_1">
  <metadata id="CorelCorpID_0Corel-Layer"/>
  <path class="fil0" d="M18238 13866c832,-1016 1347,-2258 1477,-3567 403,-4172 -2871,-7699 -6949,-7699l-10906 0c-483,0 -875,392 -875,875l0 2625c0,483 392,875 875,875l1743 0 0 15750 -1743 0c-483,0 -875,392 -875,875l0 2625c0,483 392,875 875,875l11447 0c3872,0 7336,-2830 7711,-6694 259,-2650 -896,-5035 -2780,-6541zm-10272 -6891l4799 0c1450,0 2625,1176 2625,2625 0,1450 -1176,2625 -2625,2625l-4799 0 0 -5250zm9599 15750l-4799 0 0 -6125 4799 0c1691,0 3063,1371 3063,3062 0,1691 -1371,3063 -3063,3063l0 0z"/>
 </g>
</svg>
