<?xml version="1.0" encoding="UTF-8"?>
<!DOCTYPE svg PUBLIC "-//W3C//DTD SVG 1.1//EN" "http://www.w3.org/Graphics/SVG/1.1/DTD/svg11.dtd">
<!-- Creator: CorelDRAW 2017 -->
<svg xmlns="http://www.w3.org/2000/svg" xml:space="preserve" width="210mm" height="297mm" version="1.1" style="shape-rendering:geometricPrecision; text-rendering:geometricPrecision; image-rendering:optimizeQuality; fill-rule:evenodd; clip-rule:evenodd"
viewBox="0 0 21000 29700"
 xmlns:xlink="http://www.w3.org/1999/xlink">
 <defs>
  <style type="text/css">
   <![CDATA[
    .fil0 {fill:white}
   ]]>
  </style>
 </defs>
 <g id="Layer_x0020_1">
  <metadata id="CorelCorpID_0Corel-Layer"/>
  <path class="fil0" d="M18067 7980l-2133 2133 1087 1087c386,386 386,1009 0,1390l-714 714c484,1071 755,2260 755,3511 0,4713 -3819,8531 -8531,8531 -4713,0 -8531,-3814 -8531,-8527 0,-4713 3819,-8531 8531,-8531 1251,0 2440,271 3511,755l714 -714c386,-386 1009,-386 1390,0l1087 1087 2133 -2133 701 697 0 0zm2440 -1169l-984 0c-271,0 -492,221 -492,492 0,271 221,492 492,492l984 0c271,0 492,-221 492,-492 0,-271 -221,-492 -492,-492l0 0zm-2461 -2461c-271,0 -492,221 -492,492l0 984c0,271 221,492 492,492 271,0 492,-221 492,-492l0 -984c0,-271 -221,-492 -492,-492l0 0zm1390 2256l697 -697c193,-193 193,-504 0,-697 -193,-193 -504,-193 -697,0l-697 697c-193,193 -193,504 0,697 197,193 509,193 697,0zm-2781 0c193,193 504,193 697,0 193,-193 193,-504 0,-697l-697 -697c-193,-193 -504,-193 -697,0 -193,193 -193,504 0,697l697 697zm2781 1395c-193,-193 -504,-193 -697,0 -193,193 -193,504 0,697l697 697c193,193 504,193 697,0 193,-193 193,-504 0,-697l-697 -697zm-14844 7506c0,-1448 1177,-2625 2625,-2625 361,0 656,-295 656,-656 0,-361 -295,-656 -656,-656 -2170,0 -3938,1768 -3938,3938 0,361 295,656 656,656 361,0 656,-295 656,-656z"/>
 </g>
</svg>
