<svg id="Layer_1" data-name="Layer 1" xmlns="http://www.w3.org/2000/svg" viewBox="0 0 414 448"><title>buffer</title><path d="M428,381,231,478a19,19,0,0,1-15,0L20,381c-4-2-4-5,0-7l47-23a19,19,0,0,1,15,0l135,67a19,19,0,0,0,15,0l135-67a19,19,0,0,1,15,0l47,23c4,2,4,5,0,7Zm0-137-47-23a19,19,0,0,0-15,0L231,288a19,19,0,0,1-15,0L82,221a19,19,0,0,0-15,0L20,244c-4,2-4,5,0,7l197,98a19,19,0,0,0,15,0l197-98c4-2,4-5,0-7ZM20,130l197,90a20,20,0,0,0,15,0l197-90c4-2,4-5,0-7L231,33a20,20,0,0,0-15,0L20,124C16,126,16,129,20,130Z" transform="translate(-17 -32)" style="fill:#fff"/></svg>