<?xml version="1.0" encoding="UTF-8"?>
<!DOCTYPE svg PUBLIC "-//W3C//DTD SVG 1.1//EN" "http://www.w3.org/Graphics/SVG/1.1/DTD/svg11.dtd">
<!-- Creator: CorelDRAW 2017 -->
<svg xmlns="http://www.w3.org/2000/svg" xml:space="preserve" width="210mm" height="297mm" version="1.1" style="shape-rendering:geometricPrecision; text-rendering:geometricPrecision; image-rendering:optimizeQuality; fill-rule:evenodd; clip-rule:evenodd"
viewBox="0 0 21000 29700"
 xmlns:xlink="http://www.w3.org/1999/xlink">
 <defs>
  <style type="text/css">
   <![CDATA[
    .fil0 {fill:white}
   ]]>
  </style>
 </defs>
 <g id="Layer_x0020_1">
  <metadata id="CorelCorpID_0Corel-Layer"/>
  <path class="fil0" d="M6000 9788l0 -1875c0,-309 253,-563 563,-563l1875 0c309,0 563,253 563,563l0 1875c0,309 -253,563 -563,563l-1875 0c-309,0 -563,-253 -563,-563zm6563 563l1875 0c309,0 563,-253 563,-563l0 -1875c0,-309 -253,-563 -563,-563l-1875 0c-309,0 -563,253 -563,563l0 1875c0,309 253,563 563,563zm-6000 4500l1875 0c309,0 563,-253 563,-563l0 -1875c0,-309 -253,-563 -563,-563l-1875 0c-309,0 -563,253 -563,563l0 1875c0,309 253,563 563,563zm6000 0l1875 0c309,0 563,-253 563,-563l0 -1875c0,-309 -253,-563 -563,-563l-1875 0c-309,0 -563,253 -563,563l0 1875c0,309 253,563 563,563zm-3563 3938l0 -1875c0,-309 -253,-563 -563,-563l-1875 0c-309,0 -563,253 -563,563l0 1875c0,309 253,563 563,563l1875 0c309,0 563,-253 563,-563zm3563 563l1875 0c309,0 563,-253 563,-563l0 -1875c0,-309 -253,-563 -563,-563l-1875 0c-309,0 -563,253 -563,563l0 1875c0,309 253,563 563,563zm8438 5813l0 1688 -21000 0 0 -1688c0,-309 253,-563 563,-563l914 0 0 -20625c0,-623 502,-1125 1125,-1125l15797 0c623,0 1125,502 1125,1125l0 20625 914 0c309,0 563,253 563,563zm-17273 -609l5273 0 0 -3141c0,-309 253,-563 563,-563l1875 0c309,0 563,253 563,563l0 3141 5273 0 0 -19406 -13523 -47 -23 19453z"/>
 </g>
</svg>
