<svg id="Layer_1" data-name="Layer 1" xmlns="http://www.w3.org/2000/svg" viewBox="0 0 448 448"><title>buromobelexperte</title><path d="M0,32V160H128V32ZM120,152H8V40H120ZM160,32V160H288V32ZM280,152H168V40H280ZM320,32V160H448V32ZM440,152H328V40H440ZM0,192V320H128V192ZM120,312H8V200H120Zm40-120V320H288V192ZM280,312H168V200H280Zm40-120V320H448V192ZM440,312H328V200H440ZM0,352V480H128V352ZM120,472H8V360H120Zm40-120V480H288V352ZM280,472H168V360H280Zm40-120V480H448V352Z" transform="translate(0 -32)" style="fill:#fff"/></svg>