<svg id="Layer_1" data-name="Layer 1" xmlns="http://www.w3.org/2000/svg" viewBox="0 0 560 448"><title>buy-n-large</title><path d="M288,32C133,32,8,132,8,256S133,480,288,480,568,380,568,256,443,32,288,32ZM203,389H64l77-291H275c63,0,85,29,78,73v7l-17-2c-42,0-77,34-77,76s27,68,63,74c-18,37-56,61-118,62ZM358,207h32l-22,90H332l-11-36-8,36H276l27-90h31l15,37ZM504,389H307l16-61h11c42,0,77-34,77-76s-21-60-50-71l21-82h93L421,305H525ZM212,269H187l-14,56h25c16,0,32-3,38-27S228,269,212,269Zm21-99H212l-12,48h21c18,0,35-15,39-30S251,170,233,170Z" transform="translate(-8 -32)" style="fill:#fff"/></svg>