<?xml version="1.0" encoding="UTF-8"?>
<!DOCTYPE svg PUBLIC "-//W3C//DTD SVG 1.1//EN" "http://www.w3.org/Graphics/SVG/1.1/DTD/svg11.dtd">
<!-- Creator: CorelDRAW 2017 -->
<svg xmlns="http://www.w3.org/2000/svg" xml:space="preserve" width="210mm" height="297mm" version="1.1" style="shape-rendering:geometricPrecision; text-rendering:geometricPrecision; image-rendering:optimizeQuality; fill-rule:evenodd; clip-rule:evenodd"
viewBox="0 0 21000 29700"
 xmlns:xlink="http://www.w3.org/1999/xlink">
 <defs>
  <style type="text/css">
   <![CDATA[
    .fil0 {fill:white}
   ]]>
  </style>
 </defs>
 <g id="Layer_x0020_1">
  <metadata id="CorelCorpID_0Corel-Layer"/>
  <path class="fil0" d="M563 11850l19875 0c309,0 563,253 563,563l0 12188c0,1242 -1008,2250 -2250,2250l-16500 0c-1242,0 -2250,-1008 -2250,-2250l0 -12188c0,-309 253,-563 563,-563zm20438 -2063l0 -1688c0,-1242 -1008,-2250 -2250,-2250l-2250 0 0 -2438c0,-309 -253,-563 -563,-563l-1875 0c-309,0 -563,253 -563,563l0 2438 -6000 0 0 -2438c0,-309 -253,-563 -563,-563l-1875 0c-309,0 -563,253 -563,563l0 2438 -2250 0c-1242,0 -2250,1008 -2250,2250l0 1688c0,309 253,563 563,563l19875 0c309,0 563,-253 563,-563z"/>
 </g>
</svg>
