<?xml version="1.0" encoding="UTF-8"?>
<!DOCTYPE svg PUBLIC "-//W3C//DTD SVG 1.1//EN" "http://www.w3.org/Graphics/SVG/1.1/DTD/svg11.dtd">
<!-- Creator: CorelDRAW 2017 -->
<svg xmlns="http://www.w3.org/2000/svg" xml:space="preserve" width="210mm" height="297mm" version="1.1" style="shape-rendering:geometricPrecision; text-rendering:geometricPrecision; image-rendering:optimizeQuality; fill-rule:evenodd; clip-rule:evenodd"
viewBox="0 0 21000 29700"
 xmlns:xlink="http://www.w3.org/1999/xlink">
 <defs>
  <style type="text/css">
   <![CDATA[
    .fil0 {fill:white}
   ]]>
  </style>
 </defs>
 <g id="Layer_x0020_1">
  <metadata id="CorelCorpID_0Corel-Layer"/>
  <path class="fil0" d="M0 24600c0,1242 1008,2250 2250,2250l16500 0c1242,0 2250,-1008 2250,-2250l0 -12750 -21000 0 0 12750zm15000 -9188c0,-309 253,-563 563,-563l1875 0c309,0 563,253 563,563l0 1875c0,309 -253,563 -563,563l-1875 0c-309,0 -563,-253 -563,-563l0 -1875zm0 6000c0,-309 253,-563 563,-563l1875 0c309,0 563,253 563,563l0 1875c0,309 -253,563 -563,563l-1875 0c-309,0 -563,-253 -563,-563l0 -1875zm-6000 -6000c0,-309 253,-563 563,-563l1875 0c309,0 563,253 563,563l0 1875c0,309 -253,563 -563,563l-1875 0c-309,0 -563,-253 -563,-563l0 -1875zm0 6000c0,-309 253,-563 563,-563l1875 0c309,0 563,253 563,563l0 1875c0,309 -253,563 -563,563l-1875 0c-309,0 -563,-253 -563,-563l0 -1875zm-6000 -6000c0,-309 253,-563 563,-563l1875 0c309,0 563,253 563,563l0 1875c0,309 -253,563 -563,563l-1875 0c-309,0 -563,-253 -563,-563l0 -1875zm0 6000c0,-309 253,-563 563,-563l1875 0c309,0 563,253 563,563l0 1875c0,309 -253,563 -563,563l-1875 0c-309,0 -563,-253 -563,-563l0 -1875zm15750 -15563l-2250 0 0 -2250c0,-413 -338,-750 -750,-750l-1500 0c-413,0 -750,338 -750,750l0 2250 -6000 0 0 -2250c0,-413 -338,-750 -750,-750l-1500 0c-413,0 -750,338 -750,750l0 2250 -2250 0c-1242,0 -2250,1008 -2250,2250l0 2250 21000 0 0 -2250c0,-1242 -1008,-2250 -2250,-2250z"/>
 </g>
</svg>
