<?xml version="1.0" encoding="UTF-8"?>
<!DOCTYPE svg PUBLIC "-//W3C//DTD SVG 1.1//EN" "http://www.w3.org/Graphics/SVG/1.1/DTD/svg11.dtd">
<!-- Creator: CorelDRAW 2017 -->
<svg xmlns="http://www.w3.org/2000/svg" xml:space="preserve" width="210mm" height="297mm" version="1.1" style="shape-rendering:geometricPrecision; text-rendering:geometricPrecision; image-rendering:optimizeQuality; fill-rule:evenodd; clip-rule:evenodd"
viewBox="0 0 21000 29700"
 xmlns:xlink="http://www.w3.org/1999/xlink">
 <defs>
  <style type="text/css">
   <![CDATA[
    .fil0 {fill:white}
   ]]>
  </style>
 </defs>
 <g id="Layer_x0020_1">
  <metadata id="CorelCorpID_0Corel-Layer"/>
  <path class="fil0" d="M20438 10350l-19875 0c-311,0 -563,-252 -563,-563l0 -1688c0,-1243 1007,-2250 2250,-2250l2250 0 0 -2438c0,-311 252,-563 563,-563l1875 0c311,0 563,252 563,563l0 2438 6000 0 0 -2438c0,-311 252,-563 563,-563l1875 0c311,0 563,252 563,563l0 2438 2250 0c1243,0 2250,1007 2250,2250l0 1688c0,311 -252,563 -563,563zm-19875 1500l19875 0c311,0 563,252 563,563l0 12188c0,1243 -1007,2250 -2250,2250l-16500 0c-1243,0 -2250,-1007 -2250,-2250l0 -12188c0,-311 252,-563 563,-563zm15623 4498l-1320 -1331c-219,-221 -575,-222 -795,-3l-4970 4930 -2155 -2173c-219,-221 -575,-222 -796,-3l-1331 1320c-221,219 -222,575 -3,795l3872 3903c219,221 575,222 795,3l6701 -6647c221,-219 222,-575 3,-795l0 0z"/>
 </g>
</svg>
