<?xml version="1.0" encoding="UTF-8"?>
<!DOCTYPE svg PUBLIC "-//W3C//DTD SVG 1.1//EN" "http://www.w3.org/Graphics/SVG/1.1/DTD/svg11.dtd">
<!-- Creator: CorelDRAW 2017 -->
<svg xmlns="http://www.w3.org/2000/svg" xml:space="preserve" width="210mm" height="297mm" version="1.1" style="shape-rendering:geometricPrecision; text-rendering:geometricPrecision; image-rendering:optimizeQuality; fill-rule:evenodd; clip-rule:evenodd"
viewBox="0 0 21000 29700"
 xmlns:xlink="http://www.w3.org/1999/xlink">
 <defs>
  <style type="text/css">
   <![CDATA[
    .fil0 {fill:white}
   ]]>
  </style>
 </defs>
 <g id="Layer_x0020_1">
  <metadata id="CorelCorpID_0Corel-Layer"/>
  <path class="fil0" d="M21000 10256l0 11813c0,1087 -882,1969 -1969,1969l-17063 0c-1087,0 -1969,-882 -1969,-1969l0 -11813c0,-1087 882,-1969 1969,-1969l3609 0 504 -1349c287,-767 1021,-1276 1842,-1276l5147 0c820,0 1554,509 1842,1276l509 1349 3609 0c1087,0 1969,882 1969,1969zm-5578 5906c0,-2715 -2207,-4922 -4922,-4922 -2715,0 -4922,2207 -4922,4922 0,2715 2207,4922 4922,4922 2715,0 4922,-2207 4922,-4922zm-1313 0c0,1989 -1620,3609 -3609,3609 -1989,0 -3609,-1620 -3609,-3609 0,-1989 1620,-3609 3609,-3609 1989,0 3609,1620 3609,3609z"/>
 </g>
</svg>
