<svg id="Layer_1" data-name="Layer 1" xmlns="http://www.w3.org/2000/svg" viewBox="0 0 466 512"><title>canadian-maple-leaf</title><path d="M384,352l105-92-17-7c-10-5-7-11-5-17l20-67-58,13c-7,2-10-2-12-7l-15-32-55,62c-10,8-20,0-18-10S356,62,356,62L316,85c-7,5-13,5-18-5S256,0,256,0s-37,72-42,80-10,10-18,5L156,62s28,120,28,130-7,18-18,10l-55-62L96,172c-2,5-5,10-12,8L25,167l20,67c2,6,5,13-5,17l-17,8,105,92c5,5,10,8,5,23s-10,35-10,35l105-23c9-1,18,3,18,13s-6,113-6,113h30s-6-103-6-113,10-13,18-12l105,23s-5-20-10-35S379,357,384,352Z" transform="translate(-23)" style="fill:#fff"/></svg>