<?xml version="1.0" encoding="UTF-8"?>
<!DOCTYPE svg PUBLIC "-//W3C//DTD SVG 1.1//EN" "http://www.w3.org/Graphics/SVG/1.1/DTD/svg11.dtd">
<!-- Creator: CorelDRAW 2017 -->
<svg xmlns="http://www.w3.org/2000/svg" xml:space="preserve" width="210mm" height="297mm" version="1.1" style="shape-rendering:geometricPrecision; text-rendering:geometricPrecision; image-rendering:optimizeQuality; fill-rule:evenodd; clip-rule:evenodd"
viewBox="0 0 21000 29700"
 xmlns:xlink="http://www.w3.org/1999/xlink">
 <defs>
  <style type="text/css">
   <![CDATA[
    .fil0 {fill:white}
   ]]>
  </style>
 </defs>
 <g id="Layer_x0020_1">
  <metadata id="CorelCorpID_0Corel-Layer"/>
  <path class="fil0" d="M20507 11569l-2456 0 -683 -1706c-701,-1754 -2375,-2888 -4265,-2888l-5209 0c-1889,0 -3563,1133 -4265,2888l-683 1706 -2455 0c-320,0 -555,301 -477,612l246 984c55,219 251,373 477,373l823 0c-551,481 -906,1180 -906,1969l0 1969c0,661 253,1258 656,1720l0 2218c0,725 588,1313 1313,1313l1313 0c725,0 1313,-588 1313,-1313l0 -1313 10500 0 0 1313c0,725 588,1313 1313,1313l1313 0c725,0 1313,-588 1313,-1313l0 -2218c404,-461 656,-1058 656,-1720l0 -1969c0,-788 -355,-1488 -905,-1969l823 0c226,0 423,-154 477,-373l246 -984c78,-310 -158,-612 -478,-612zm-14440 -731c299,-747 1023,-1237 1828,-1237l5209 0c805,0 1529,490 1828,1237l817 2044 -10500 0 817 -2044zm-2130 6629c-788,0 -1313,-523 -1313,-1308 0,-785 525,-1308 1313,-1308 788,0 1969,1178 1969,1963 0,785 -1181,654 -1969,654zm13125 0c-788,0 -1969,131 -1969,-654 0,-785 1181,-1963 1969,-1963 788,0 1313,523 1313,1308 0,785 -525,1308 -1313,1308z"/>
 </g>
</svg>
