<?xml version="1.0" encoding="UTF-8"?>
<!DOCTYPE svg PUBLIC "-//W3C//DTD SVG 1.1//EN" "http://www.w3.org/Graphics/SVG/1.1/DTD/svg11.dtd">
<!-- Creator: CorelDRAW 2017 -->
<svg xmlns="http://www.w3.org/2000/svg" xml:space="preserve" width="210mm" height="297mm" version="1.1" style="shape-rendering:geometricPrecision; text-rendering:geometricPrecision; image-rendering:optimizeQuality; fill-rule:evenodd; clip-rule:evenodd"
viewBox="0 0 21000 29700"
 xmlns:xlink="http://www.w3.org/1999/xlink">
 <defs>
  <style type="text/css">
   <![CDATA[
    .fil0 {fill:white}
   ]]>
  </style>
 </defs>
 <g id="Layer_x0020_1">
  <metadata id="CorelCorpID_0Corel-Layer"/>
  <path class="fil0" d="M11919 12225c-828,0 -4381,81 -6669,3525l0 -3525c0,-2171 -1766,-3938 -3938,-3938 -725,0 -1313,588 -1313,1313 0,725 588,1313 1313,1313 724,0 1313,589 1313,1313l0 10500c0,1448 1177,2625 2625,2625l7219 0c363,0 656,-294 656,-656l0 -656c0,-725 -588,-1313 -1313,-1313l-1313 0 5250 -3938 0 5906c0,363 294,656 656,656l1313 0c363,0 656,-294 656,-656l0 -8455c-422,110 -857,186 -1313,186 -2535,0 -4656,-1807 -5144,-4200zm6456 -3938l-2625 0 -2625 -2625 0 5513c0,2175 1763,3938 3938,3938 2175,0 3938,-1763 3938,-3938l0 -5513 -2625 2625zm-2953 3281c-363,0 -656,-294 -656,-656 0,-363 294,-656 656,-656 363,0 656,294 656,656 0,363 -294,656 -656,656zm3281 0c-363,0 -656,-294 -656,-656 0,-363 294,-656 656,-656 363,0 656,294 656,656 0,363 -294,656 -656,656z"/>
 </g>
</svg>
