<svg id="Layer_1" data-name="Layer 1" xmlns="http://www.w3.org/2000/svg" viewBox="0 0 576 448"><title>cc-amazon-pay</title><path d="M125,202c0-12,0-23,0-35V131a3,3,0,0,1,1-3c12-8,24-12,38-11s23,7,28,22,4,18,4,28-1,17-3,26-19,25-36,24-22-5-31-12a3,3,0,0,1-1-3Zm155,15a29,29,0,0,0,14,2c12-1,22-6,31-12a3,3,0,0,0,1-2c0-4,0-8,0-12s0-8,0-12,0-2-2-2l-21-3a52,52,0,0,0-21,2c-7,2-12,6-14,13a27,27,0,0,0,0,16A16,16,0,0,0,280,216ZM576,80V432a48,48,0,0,1-48,48H48A48,48,0,0,1,0,432V80A48,48,0,0,1,48,32H528A48,48,0,0,1,576,80ZM369,104l2,5,50,122c1,4,2,6,0,10l-8,19c-3,6-7,10-13,11H380c-3,0-4,1-4,4s0,6,0,8,2,7,6,8l14,2c14,0,26-5,33-18a111,111,0,0,0,8-15l59-150v-5c0-2-1-4-3-4H478a6,6,0,0,0-6,4v3l-29,84-6,19v-2l-32-90-5-14a5,5,0,0,0-5-4H371c-2,0-3,2-3,4ZM242,206c2,12,8,21,18,27s21,6,32,5a68,68,0,0,0,34-15h1l2,9c1,3,2,4,5,4h14a4,4,0,0,0,4-4,18,18,0,0,0,0-2V139a78,78,0,0,0-1-11c-2-11-6-20-16-25a49,49,0,0,0-18-6H295l-24,4-15,5c-3,1-4,3-4,7s0,6,0,8,2,5,6,4l20-5c10-2,21-3,31-1s11,2,14,7,4,9,4,14,0,14,0,21h-1l-27-4c-9,0-19,0-28,3s-20,10-25,21S241,197,242,206ZM99,107V282a21,21,0,0,0,0,3c0,3,2,4,4,4h18a4,4,0,0,0,4-4,21,21,0,0,0,0-2V222l2,2c15,13,32,17,51,13s29-14,37-29,8-24,9-37-1-28-7-42-19-27-37-31H161a67,67,0,0,0-32,13l-6,5h0v-7c-1-4-2-5-6-6H106c-6,0-7,1-7,7ZM494,339c-3-1-5,0-8,1a506,506,0,0,1-137,36l-44,3a505,505,0,0,1-80-4l-53-10A494,494,0,0,1,66,326L40,312c-4-2-6-1-8,2v2l4,5a370,370,0,0,0,122,73,383,383,0,0,0,67,18l42,5h31l45-4a396,396,0,0,0,63-15c30-10,58-22,83-40l8-6c4-4,2-10-3-12Zm50-28c-1-4-4-6-8-7l-18-3a124,124,0,0,0-33,2c-12,2-23,6-33,13l-3,3a5,5,0,0,0,0,3c0,1,2,2,3,2h2l20-2h29l12,2c4,1,6,4,6,9s-1,13-3,20-8,25-13,38v3c0,3,1,4,3,4l4-2,11-11c11-14,17-30,21-47l2-9c0-5,0-10,0-14Z" transform="translate(0 -32)" style="fill:#fff"/></svg>