<svg id="Layer_1" data-name="Layer 1" xmlns="http://www.w3.org/2000/svg" viewBox="0 0 576 448"><title>cc-amex</title><path d="M325,168c0-16-14-18-27-18H259v69h16V193h18c18,0,15,10,15,25h17V205c0-9-1-15-11-18,7-3,12-11,12-19Zm-29,11H275V164h21c5,0,11,1,11,7s-5,8-11,8Zm-17,89H226l-21,23-20-23H118v69h65l21-23,20,23h32V315c19,0,49,5,49-23,0-17-12-23-28-23ZM175,323H135V310h36V295H135V283h42l18,20Zm66,8-25-28,25-27Zm38-31H258V283h22c6,0,10,2,10,8S285,301,279,301ZM247,164V149H192v69h56V204H208V190h38V176H208V164Zm329,92h0ZM381,287c0-16-14-19-27-19H315v69h17V313h18c11,0,15,2,15,14v12h17V324c0-9-2-15-11-18C377,303,381,295,381,287Zm-29,11H331V283h21c5,0,11,1,11,7S358,299,352,299ZM179,219V149H152l-20,47-22-47H83v66L55,149H31L1,219H19l6-15H60l6,15h34V164l24,54h15l24-54v54ZM31,189l11-28,12,28ZM509,348v-4c-11,6-4,5-157,5,0-25,0-24,0-25h-9c0,18,0,7,0,25H303c0-12,0-15,0-29-10,6-23,6-34,6,0,15,0,8,0,23H220l-15-17-16,17H106V255h83l16,17,16-17h58c10,0,18,2,24,6v-6c54,0,64-1,76,5v-5h78v5c11-7,20-5,65-5v5c10-6,17-5,54-5V80a48,48,0,0,0-48-48H48A48,48,0,0,0,0,80V190l23-54H63l9,21V136h46l14,30,13-30H259c44,0,54-1,64,5v-5h40v9c8-6,18-9,31-9h62l9,21V136h43l11,18V136h40v92H518l-13-22v22H452l-7-15H426l-6,15H393c-12,0-22-3-30-9v9H297c0-14,0-25,0-25H287v25H151V217l-5,11H117l-5-11v11H59l-6-15H33l-6,15H0V432a48,48,0,0,0,48,48H528a48,48,0,0,0,48-48V342c-13,8-33,6-67,6Zm36-64h30V269H542c-13,0-24,7-24,21,0,33,43,13,43,27s-4,6-8,6H521v15h32c8,0,18-2,23-9V303c-10-14-39-1-39-13S540,283,545,283Zm-57,40H456v15h32c15,0,26-6,26-22,0-33-43-11-43-26s5-6,9-6h30V269H478c-13,0-23,7-23,21,0,33,43,13,43,27S492,323,488,323Zm-42-40V269H391v69h55V324H407V310h38V295H407V283ZM389,175s-1,2-1,8,1,8,1,8h3l7-17H389Zm20-10h0Zm-16-15c-23,0-34,12-34,35s10,34,33,34h19l6-15h34l7,15h34V167l31,52h24V149H531v48l-29-48H476v65l-28-65H424l-23,55h-7c-13,0-16-8-16-20,0-24,16-20,33-20V149Zm42,12,11,28H424ZM335,149v69h17V149Z" transform="translate(0 -32)" style="fill:#fff"/></svg>