<svg id="Layer_1" data-name="Layer 1" xmlns="http://www.w3.org/2000/svg" viewBox="0 0 576 448"><title>cc-apple-pay</title><path d="M302,218c0,17-10,27-29,27H249V191h24c18,0,29,10,29,27Zm48,63c0,8,7,14,19,14s25-9,25-22v-8l-23,2C357,268,350,272,350,281ZM576,79V431a48,48,0,0,1-48,48H48A48,48,0,0,1,0,431V79A48,48,0,0,1,48,31H528A48,48,0,0,1,576,79ZM128,197c8,1,17-4,22-10s9-15,8-24-17,5-22,11-9,14-8,23Zm61,75s-20-8-20-30,15-28,16-28c-9-13-22-14-27-15s-23,7-28,7-15-7-24-6a36,36,0,0,0-31,19c-13,23-3,56,9,74s14,19,23,19,13-6,24-6,15,6,24,6,17-9,23-18A85,85,0,0,0,188,272Zm135-53c0-27-18-45-45-45H228V310h21V263h29C305,263,324,245,324,218Zm90,24c0-20-16-32-40-32s-39,13-40,31h19c2-8,9-14,20-14s20,6,20,17v8l-26,2c-25,2-38,12-38,29s14,29,33,29,26-7,31-17h0v16h20V242Zm102-31H495l-25,81h0l-25-81H422l36,99-2,6c-3,10-8,14-18,14h-6v16h8c21,0,30-8,39-32Z" transform="translate(0 -31)" style="fill:#fff"/></svg>