<svg id="Layer_1" data-name="Layer 1" xmlns="http://www.w3.org/2000/svg" viewBox="0 0 576 448"><title>cc-discover</title><path d="M520,196c0-8-5-12-16-12h-5v25h5c10,0,16-4,16-13Zm8-164H48A48,48,0,0,0,0,80V432a48,48,0,0,0,48,48H528a48,48,0,0,0,48-48V80A48,48,0,0,0,528,32ZM484,171c23,0,53-4,53,24,0,13-7,21-19,23l26,34H524l-22-33h-2v33H484Zm-56,0h45v14H444v18h28v14H444v22h29v14H428Zm-69,0,22,55,22-55h18l-35,84h-9l-35-84Zm-56-3a45,45,0,1,1-45,45A45,45,0,0,1,303,168Zm-49,6v19c-20-20-47-5-47,19s28,39,47,19v19c-30,14-63-6-63-38S224,159,254,174Zm-97,66c11,0,22-15-3-24-15-5-20-11-20-23,0-23,31-31,50-14l-8,11c-10-12-25-6-25,3s3,7,12,10,24,13,24,26c0,29-39,37-57,11l10-10c4,7,10,11,18,11ZM55,253H32V171H55c26,0,44,17,44,41S86,253,55,253Zm67,0H107V171h16ZM544,433a15,15,0,0,1-15,15H128c190-36,383-139,416-160ZM74,192c-5-5-12-7-22-7H48v54h4c10,0,17-2,22-6a28,28,0,0,0,9-21A27,27,0,0,0,74,192Z" transform="translate(0 -32)" style="fill:#fff"/></svg>