<svg id="Layer_1" data-name="Layer 1" xmlns="http://www.w3.org/2000/svg" viewBox="0 0 576 448"><title>cc-diners-club</title><path d="M240,80C143,80,64,159,64,256s79,176,176,176,176-79,176-176A176,176,0,0,0,240,80ZM200,360a111,111,0,0,1,0-208Zm80,0V152a112,112,0,0,1,0,208ZM528,32H48A48,48,0,0,0,0,80V432a48,48,0,0,0,48,48H528a48,48,0,0,0,48-48V80A48,48,0,0,0,528,32ZM330,448H239C133,448,46,363,46,258S133,64,239,64h90c105,0,201,79,201,194S435,448,330,448Z" transform="translate(0 -32)" style="fill:#fff"/></svg>