<svg id="Layer_1" data-name="Layer 1" xmlns="http://www.w3.org/2000/svg" viewBox="0 0 576 448"><title>cc-jcb</title><path d="M432,244V212h39a16,16,0,0,1,13,16c0,9-6,15-13,16Zm43,20H432v35h43a17,17,0,0,0,14-17A17,17,0,0,0,474,265ZM576,80V432a48,48,0,0,1-48,48H48A48,48,0,0,1,0,432V80A48,48,0,0,1,48,32H528A48,48,0,0,1,576,80ZM182,192H125c0,67,11,110-36,110-19,0-39-6-57-15v28c30,8,68,8,68,8C198,324,182,276,182,192Zm179,5c-63-16-165-15-165,59s108,74,165,59V287c-48,25-107,22-107-31s60-56,108-31Zm184,90c0-18-16-30-38-32h0c20-3,30-15,30-30s-16-30-37-31H379V320H502C526,320,544,307,544,287Z" transform="translate(0 -32)" style="fill:#fff"/></svg>