<svg id="Layer_1" data-name="Layer 1" xmlns="http://www.w3.org/2000/svg" viewBox="0 0 576 448"><title>cc-mastercard</title><path d="M483,410c0,7-5,12-11,12s-11-5-11-12,4-12,11-12S483,404,483,410ZM172,399c-7,0-11,5-11,12s4,12,11,12,11-5,11-12S179,399,172,399Zm117,0c-5,0-9,4-9,9h19C298,401,295,398,290,398Zm108,0c-7,0-11,5-11,12s4,12,11,12,11-5,11-12S404,399,397,399Zm106,26h0Zm-2,1h-2v4h2ZM576,81V433a48,48,0,0,1-48,48H48A48,48,0,0,1,0,433V81A48,48,0,0,1,48,33H528A48,48,0,0,1,576,81ZM64,221A138,138,0,0,0,279,336c-73-59-72-171,0-230a139,139,0,0,0-76-23C126,82,64,144,64,221ZM288,329c71-55,70-162,0-217C218,167,218,275,288,329ZM146,406c0-9-6-14-15-15s-9,1-13,7-6-6-12-6a13,13,0,0,0-11,5v-4H87v37h8c0-19-2-30,9-30s8,10,8,30h8c0-18-2-30,9-30s8,10,8,30h8V406Zm45-14h-8v4a14,14,0,0,0-12-5c-10,0-18,8-18,19s8,19,18,19,9-2,12-5v5h8Zm41,26c0-15-23-8-23-15s12-5,19-1l3-6c-9-6-30-6-30,8s23,8,23,15-13,6-21,1l-3,6c11,8,33,6,33-7Zm35,9-2-7c-4,2-12,4-12-4V399h13v-7H252V381h-8v11h-8v7h8v17c0,18,17,14,23,11Zm13-13h28c0-16-7-23-17-23s-18,8-18,19,23,24,34,14l-4-6C294,425,282,424,280,414Zm59-21c-5-2-12-2-15,4v-4h-8v37h8V408c0-12,10-10,13-8l2-8Zm11,18c0-11,12-15,21-8l4-6c-12-9-33-4-33,15s22,24,33,15l-4-6C361,425,350,422,350,410Zm67-18h-8v4c-8-11-30-5-30,14s22,25,30,14v5h8Zm34,0c-2-1-11-3-15,4v-4h-8v37h8V408c0-11,9-10,13-8l2-8Zm40-15h-8v19c-8-11-30-5-30,14s23,25,30,14v5h8V377Zm8-75v5h1v-5h-1Zm7,124a3,3,0,0,0,0-2h-7a3,3,0,0,0,0,2h7Zm3-125h-1l-2,4-2-3h-1v5h1v-4l2,4h1v1h1Zm4-80c0-76-62-138-138-138a139,139,0,0,0-76,23c72,59,73,171,0,230A138,138,0,0,0,512,221Z" transform="translate(0 -33)" style="fill:#fff"/></svg>