<svg id="Layer_1" data-name="Layer 1" xmlns="http://www.w3.org/2000/svg" viewBox="0 0 576 448"><title>cc-paypal</title><path d="M186,258c0,12-10,22-22,22s-16-5-16-15a22,22,0,0,1,22-22C179,243,186,248,186,258ZM81,210H76a3,3,0,0,0-3,3l-4,27h8c11,0,20-1,22-14S92,210,81,210Zm284,0h-4a3,3,0,0,0-3,3l-4,27h8c13,0,22-3,22-18s-10-11-18-11ZM576,80V432a48,48,0,0,1-48,48H48A48,48,0,0,1,0,432V80A48,48,0,0,1,48,32H528A48,48,0,0,1,576,80ZM128,215c0-21-16-28-35-28H54a5,5,0,0,0-5,5L32,294a3,3,0,0,0,3,4H54c3,0,5-3,6-6l4-27c1-7,13-5,18-5,29,0,46-17,46-46Zm84,9H194c-4,0-4,6-4,8-6-8-14-10-24-10-24,0-43,22-43,45s12,32,32,32,20-5,27-12a27,27,0,0,0-1,6c0,2,1,4,3,4h17c3,0,5-3,6-6l10-64a3,3,0,0,0-3-4Zm41,98,64-93a2,2,0,0,0,1-2,4,4,0,0,0-3-3H295l-4,3-26,39-11-37a6,6,0,0,0-5-4H229a4,4,0,0,0-3,4c0,1,20,57,21,62s-20,29-20,32a3,3,0,0,0,3,3h19l5-3ZM412,215c0-21-16-28-35-28H338a6,6,0,0,0-5,5L316,294c0,2,1,4,3,4h21a4,4,0,0,0,4-3l5-29c1-7,13-5,18-5,28,0,46-17,46-46Zm84,9H478c-4,0-4,6-4,8-5-8-14-10-24-10-24,0-43,22-43,45s12,32,32,32,21-5,27-12a44,44,0,0,0-1,6c0,2,1,4,3,4h17c3,0,5-3,6-6l10-64a3,3,0,0,0-3-4Zm48-33a3,3,0,0,0-3-3H522a3,3,0,0,0-3,3L503,294h0a4,4,0,0,0,4,4h17c3,0,5-3,5-6l16-101h0Zm-90,52a22,22,0,0,0-22,22c0,10,7,15,16,15a21,21,0,0,0,22-21C470,248,463,243,454,243Z" transform="translate(0 -32)" style="fill:#fff"/></svg>