<svg id="Layer_1" data-name="Layer 1" xmlns="http://www.w3.org/2000/svg" viewBox="0 0 576 448"><title>cc-stripe</title><path d="M492,221c-9,0-19,7-19,23h37C510,228,501,221,492,221Zm-117,3c-8,0-13,3-17,7v53c4,4,9,7,17,7s22-14,22-33S388,223,375,223ZM528,32H48A48,48,0,0,0,0,80V432a48,48,0,0,0,48,48H528a48,48,0,0,0,48-48V80A48,48,0,0,0,528,32ZM122,281c0,26-20,40-50,40a98,98,0,0,1-39-8V279c12,6,27,11,39,11s14-2,14-9-54-11-54-50c0-25,19-40,48-40a94,94,0,0,1,35,7v33a80,80,0,0,0-35-9c-7,0-12,2-12,8,0,16,54,8,54,51Zm69-57H164v51c0,21,23,14,27,13v29c-5,3-13,5-25,5s-37-15-37-36V171l35-7v31h27Zm74,2c-4-1-19-4-27,7v84H202V194h31l2,11c8-15,25-12,30-10h0Zm44,92H273V194h36Zm0-143-36,8V155l36-8Zm74,145c-12,0-20-5-25-9v40l-35,8V194h31l2,9a40,40,0,0,1,28-11c25,0,48,23,48,64s-23,66-49,66Zm160-51H474c2,17,14,22,28,22s25-3,35-8v29c-10,5-22,9-39,9-35,0-59-22-59-64s21-65,54-65,51,29,51,65C544,260,544,268,544,270Z" transform="translate(0 -32)" style="fill:#fff"/></svg>