<svg id="Layer_1" data-name="Layer 1" xmlns="http://www.w3.org/2000/svg" viewBox="0 0 576 448"><title>cc-visa</title><path d="M470,231l9,45H446l16-43,5-15,3,13ZM576,80V432a48,48,0,0,1-48,48H48A48,48,0,0,1,0,432V80A48,48,0,0,1,48,32H528A48,48,0,0,1,576,80ZM153,331l63-155H173L134,282l-4-21-14-71c-2-10-9-13-18-13H33v3a159,159,0,0,1,42,17l36,135Zm94,0,25-155H232L207,331h40Zm140-51c0-18-11-31-34-42s-23-12-23-19,7-13,23-13a69,69,0,0,1,30,6l4,2,6-34a100,100,0,0,0-36-7c-40,0-68,21-68,51s20,35,35,42,21,13,21,19-13,15-24,15-25-2-38-8l-5-2-6,35c9,4,27,8,45,8,42,0,70-21,70-53Zm141,51L496,176H465c-10,0-17,3-21,13L384,331h42l8-23h52l5,23Z" transform="translate(0 -32)" style="fill:#fff"/></svg>