<svg id="Layer_1" data-name="Layer 1" xmlns="http://www.w3.org/2000/svg" viewBox="0 0 448 447"><title>centos</title><path d="M290,98l32,32-76,77V98ZM127,129l76,77V98H159Zm42-42h45V216l11,11,11-11V88h45L224,32Zm26,168-11-11H56V200L0,256l56,56V267H184l11-11Zm79-21H382V190l-32-32Zm173,21-55-56v45H264l-11,11,11,11H392v45l56-56ZM65,176l33-32,90,91h15V220l-90-90,32-32H65ZM382,98H304l32,32-90,91v15h15l90-90,32,32ZM204,414V306l-76,77,32,32h45ZM65,235H174L98,159,65,190ZM382,335l-32,32-90-90H245v15l90,91-32,32h79Zm0-59H274l76,77,32-32ZM321,382l-76-76V414h45ZM98,353l76-76H65v45Zm182,71H235V296l-11-11-11,11V424H169l56,56ZM113,382l90-90V276H188L98,367,65,335v79h79Z" transform="translate(0 -32)" style="fill:#fff"/></svg>