<?xml version="1.0" encoding="UTF-8"?>
<!DOCTYPE svg PUBLIC "-//W3C//DTD SVG 1.1//EN" "http://www.w3.org/Graphics/SVG/1.1/DTD/svg11.dtd">
<!-- Creator: CorelDRAW 2017 -->
<svg xmlns="http://www.w3.org/2000/svg" xml:space="preserve" width="210mm" height="297mm" version="1.1" style="shape-rendering:geometricPrecision; text-rendering:geometricPrecision; image-rendering:optimizeQuality; fill-rule:evenodd; clip-rule:evenodd"
viewBox="0 0 21000 29700"
 xmlns:xlink="http://www.w3.org/1999/xlink">
 <defs>
  <style type="text/css">
   <![CDATA[
    .fil0 {fill:white}
   ]]>
  </style>
 </defs>
 <g id="Layer_x0020_1">
  <metadata id="CorelCorpID_0Corel-Layer"/>
  <path class="fil0" d="M18811 14847l1886 -1846c562,-532 300,-1478 -437,-1655l-2570 -656 724 -2544c205,-732 -485,-1422 -1217,-1217l-2543 725 -656 -2570c-174,-726 -1130,-991 -1654,-438l-1845 1901 -1845 -1901c-518,-548 -1478,-297 -1654,438l-656 2570 -2543 -725c-732,-205 -1421,486 -1217,1217l724 2544 -2570 656c-738,176 -999,1122 -437,1654l1886 1846 -1886 1846c-562,532 -300,1478 437,1655l2570 656 -724 2544c-205,732 485,1422 1217,1217l2543 -725 656 2570c182,762 1136,985 1654,438l1845 -1887 1845 1887c513,553 1476,307 1654,-438l656 -2570 2543 725c732,205 1421,-486 1217,-1217l-724 -2544 2570 -656c738,-176 999,-1122 437,-1655l-1886 -1846 0 0z"/>
 </g>
</svg>
