<?xml version="1.0" encoding="UTF-8"?>
<!DOCTYPE svg PUBLIC "-//W3C//DTD SVG 1.1//EN" "http://www.w3.org/Graphics/SVG/1.1/DTD/svg11.dtd">
<!-- Creator: CorelDRAW 2017 -->
<svg xmlns="http://www.w3.org/2000/svg" xml:space="preserve" width="210mm" height="297mm" version="1.1" style="shape-rendering:geometricPrecision; text-rendering:geometricPrecision; image-rendering:optimizeQuality; fill-rule:evenodd; clip-rule:evenodd"
viewBox="0 0 21000 29700"
 xmlns:xlink="http://www.w3.org/1999/xlink">
 <defs>
  <style type="text/css">
   <![CDATA[
    .fil0 {fill:white}
   ]]>
  </style>
 </defs>
 <g id="Layer_x0020_1">
  <metadata id="CorelCorpID_0Corel-Layer"/>
  <path class="fil0" d="M5250 8850c0,-1383 759,-2578 1875,-3230l0 9230 2250 0 0 -9750 2250 0 0 9750 2250 0 0 -9230c1116,652 1875,1847 1875,3230l0 6000 2250 0 0 -6000c0,-3314 -2686,-6000 -6000,-6000l-3000 0c-3314,0 -6000,2686 -6000,6000l0 6000 2250 0 0 -6000zm15670 10027l-502 -1500c-206,-614 -778,-1027 -1425,-1027l-16992 0c-647,0 -1219,413 -1425,1027l-502 1500c-319,970 403,1973 1425,1973l0 5250c0,413 338,750 750,750l1500 0c413,0 750,-338 750,-750l0 -5250 12000 0 0 5250c0,413 338,750 750,750l1500 0c413,0 750,-338 750,-750l0 -5250c1022,0 1744,-1003 1420,-1973z"/>
 </g>
</svg>
