<?xml version="1.0" encoding="UTF-8"?>
<!DOCTYPE svg PUBLIC "-//W3C//DTD SVG 1.1//EN" "http://www.w3.org/Graphics/SVG/1.1/DTD/svg11.dtd">
<!-- Creator: CorelDRAW 2017 -->
<svg xmlns="http://www.w3.org/2000/svg" xml:space="preserve" width="210mm" height="297mm" version="1.1" style="shape-rendering:geometricPrecision; text-rendering:geometricPrecision; image-rendering:optimizeQuality; fill-rule:evenodd; clip-rule:evenodd"
viewBox="0 0 21000 29700"
 xmlns:xlink="http://www.w3.org/1999/xlink">
 <defs>
  <style type="text/css">
   <![CDATA[
    .fil0 {fill:white}
   ]]>
  </style>
 </defs>
 <g id="Layer_x0020_1">
  <metadata id="CorelCorpID_0Corel-Layer"/>
  <path class="fil0" d="M6563 4788c0,-2175 1763,-3938 3938,-3938 2175,0 3938,1763 3938,3938 0,2175 -1763,3938 -3938,3938 -2175,0 -3938,-1763 -3938,-3938zm13925 75c-683,-683 -1791,-683 -2475,0l-4737 4737 -5550 0 -4737 -4737c-683,-683 -1791,-683 -2475,0 -683,683 -683,1791 0,2475l5175 5175 0 14588c0,966 784,1750 1750,1750l875 0c966,0 1750,-784 1750,-1750l0 -6125 875 0 0 6125c0,966 784,1750 1750,1750l875 0c966,0 1750,-784 1750,-1750l0 -14588 5175 -5175c683,-683 683,-1791 0,-2475z"/>
 </g>
</svg>
