<?xml version="1.0" encoding="UTF-8"?>
<!DOCTYPE svg PUBLIC "-//W3C//DTD SVG 1.1//EN" "http://www.w3.org/Graphics/SVG/1.1/DTD/svg11.dtd">
<!-- Creator: CorelDRAW 2017 -->
<svg xmlns="http://www.w3.org/2000/svg" xml:space="preserve" width="210mm" height="297mm" version="1.1" style="shape-rendering:geometricPrecision; text-rendering:geometricPrecision; image-rendering:optimizeQuality; fill-rule:evenodd; clip-rule:evenodd"
viewBox="0 0 21000 29700"
 xmlns:xlink="http://www.w3.org/1999/xlink">
 <defs>
  <style type="text/css">
   <![CDATA[
    .fil0 {fill:white}
   ]]>
  </style>
 </defs>
 <g id="Layer_x0020_1">
  <metadata id="CorelCorpID_0Corel-Layer"/>
  <path class="fil0" d="M11813 5952l0 683c0,443 299,827 725,946 3179,888 5509,3804 5509,7269 0,4171 -3375,7547 -7547,7547 -4171,0 -7547,-3375 -7547,-7547 0,-3465 2329,-6381 5509,-7269 427,-119 725,-503 725,-946l0 -683c0,-644 -608,-1114 -1232,-953 -4403,1134 -7652,5142 -7627,9905 30,5621 4572,10129 10194,10117 5608,-12 10150,-4561 10150,-10172 0,-4743 -3246,-8727 -7638,-9853 -620,-159 -1222,315 -1222,955z"/>
 </g>
</svg>
