<?xml version="1.0" encoding="UTF-8"?>
<!DOCTYPE svg PUBLIC "-//W3C//DTD SVG 1.1//EN" "http://www.w3.org/Graphics/SVG/1.1/DTD/svg11.dtd">
<!-- Creator: CorelDRAW 2017 -->
<svg xmlns="http://www.w3.org/2000/svg" xml:space="preserve" width="210mm" height="297mm" version="1.1" style="shape-rendering:geometricPrecision; text-rendering:geometricPrecision; image-rendering:optimizeQuality; fill-rule:evenodd; clip-rule:evenodd"
viewBox="0 0 21000 29700"
 xmlns:xlink="http://www.w3.org/1999/xlink">
 <defs>
  <style type="text/css">
   <![CDATA[
    .fil0 {fill:white}
   ]]>
  </style>
 </defs>
 <g id="Layer_x0020_1">
  <metadata id="CorelCorpID_0Corel-Layer"/>
  <path class="fil0" d="M20213 12750l-4463 0 0 -5513c0,-435 -352,-788 -788,-788l-4725 0c-435,0 -788,352 -788,788l0 2363 -2100 0 0 -2625c0,-290 -235,-525 -525,-525l-525 0c-290,0 -525,235 -525,525l0 2625 -2100 0 0 -2625c0,-290 -235,-525 -525,-525l-525 0c-290,0 -525,235 -525,525l0 2625 -1313 0c-435,0 -788,352 -788,788l0 11813c0,580 470,1050 1050,1050l18900 0c580,0 1050,-470 1050,-1050l0 -8663c0,-435 -353,-788 -788,-788zm-16013 6956c0,218 -176,394 -394,394l-1313 0c-218,0 -394,-176 -394,-394l0 -1313c0,-218 176,-394 394,-394l1313 0c218,0 394,176 394,394l0 1313zm0 -3150c0,218 -176,394 -394,394l-1313 0c-218,0 -394,-176 -394,-394l0 -1313c0,-218 176,-394 394,-394l1313 0c218,0 394,176 394,394l0 1313zm0 -3150c0,218 -176,394 -394,394l-1313 0c-218,0 -394,-176 -394,-394l0 -1313c0,-218 176,-394 394,-394l1313 0c218,0 394,176 394,394l0 1313zm4200 6300c0,218 -176,394 -394,394l-1313 0c-218,0 -394,-176 -394,-394l0 -1313c0,-218 176,-394 394,-394l1313 0c218,0 394,176 394,394l0 1313zm0 -3150c0,218 -176,394 -394,394l-1313 0c-218,0 -394,-176 -394,-394l0 -1313c0,-218 176,-394 394,-394l1313 0c218,0 394,176 394,394l0 1313zm0 -3150c0,218 -176,394 -394,394l-1313 0c-218,0 -394,-176 -394,-394l0 -1313c0,-218 176,-394 394,-394l1313 0c218,0 394,176 394,394l0 1313zm5250 3150c0,218 -176,394 -394,394l-1313 0c-218,0 -394,-176 -394,-394l0 -1313c0,-218 176,-394 394,-394l1313 0c218,0 394,176 394,394l0 1313zm0 -3150c0,218 -176,394 -394,394l-1313 0c-218,0 -394,-176 -394,-394l0 -1313c0,-218 176,-394 394,-394l1313 0c218,0 394,176 394,394l0 1313zm0 -3150c0,218 -176,394 -394,394l-1313 0c-218,0 -394,-176 -394,-394l0 -1313c0,-218 176,-394 394,-394l1313 0c218,0 394,176 394,394l0 1313zm5250 9450c0,218 -176,394 -394,394l-1313 0c-218,0 -394,-176 -394,-394l0 -1313c0,-218 176,-394 394,-394l1313 0c218,0 394,176 394,394l0 1313zm0 -3150c0,218 -176,394 -394,394l-1313 0c-218,0 -394,-176 -394,-394l0 -1313c0,-218 176,-394 394,-394l1313 0c218,0 394,176 394,394l0 1313z"/>
 </g>
</svg>
