<?xml version="1.0" encoding="UTF-8"?>
<!DOCTYPE svg PUBLIC "-//W3C//DTD SVG 1.1//EN" "http://www.w3.org/Graphics/SVG/1.1/DTD/svg11.dtd">
<!-- Creator: CorelDRAW 2017 -->
<svg xmlns="http://www.w3.org/2000/svg" xml:space="preserve" width="210mm" height="297mm" version="1.1" style="shape-rendering:geometricPrecision; text-rendering:geometricPrecision; image-rendering:optimizeQuality; fill-rule:evenodd; clip-rule:evenodd"
viewBox="0 0 21000 29700"
 xmlns:xlink="http://www.w3.org/1999/xlink">
 <defs>
  <style type="text/css">
   <![CDATA[
    .fil0 {fill:white}
   ]]>
  </style>
 </defs>
 <g id="Layer_x0020_1">
  <metadata id="CorelCorpID_0Corel-Layer"/>
  <path class="fil0" d="M10500 4678c-5619,0 -10172,4553 -10172,10172 0,5619 4553,10172 10172,10172 5619,0 10172,-4553 10172,-10172 0,-5619 -4553,-10172 -10172,-10172zm0 18375c-4532,0 -8203,-3671 -8203,-8203 0,-4532 3671,-8203 8203,-8203 4532,0 8203,3671 8203,8203 0,4532 -3671,8203 -8203,8203zm2535 -4282l-3482 -2531c-127,-94 -201,-242 -201,-398l0 -6735c0,-271 221,-492 492,-492l1313 0c271,0 492,221 492,492l0 5812 2740 1993c221,160 267,468 107,689l-771 1062c-160,217 -468,267 -689,107z"/>
 </g>
</svg>
