<?xml version="1.0" encoding="UTF-8"?>
<!DOCTYPE svg PUBLIC "-//W3C//DTD SVG 1.1//EN" "http://www.w3.org/Graphics/SVG/1.1/DTD/svg11.dtd">
<!-- Creator: CorelDRAW 2017 -->
<svg xmlns="http://www.w3.org/2000/svg" xml:space="preserve" width="210mm" height="297mm" version="1.1" style="shape-rendering:geometricPrecision; text-rendering:geometricPrecision; image-rendering:optimizeQuality; fill-rule:evenodd; clip-rule:evenodd"
viewBox="0 0 21000 29700"
 xmlns:xlink="http://www.w3.org/1999/xlink">
 <defs>
  <style type="text/css">
   <![CDATA[
    .fil0 {fill:white}
   ]]>
  </style>
 </defs>
 <g id="Layer_x0020_1">
  <metadata id="CorelCorpID_0Corel-Layer"/>
  <path class="fil0" d="M19031 4350l-13125 0c-1087,0 -1969,881 -1969,1969l0 1969 -1969 0c-1087,0 -1969,881 -1969,1969l0 13125c0,1087 881,1969 1969,1969l13125 0c1087,0 1969,-881 1969,-1969l0 -1969 1969 0c1087,0 1969,-881 1969,-1969l0 -13125c0,-1087 -881,-1969 -1969,-1969zm-4184 19031l-12633 0c-136,0 -246,-110 -246,-246l0 -12633c0,-136 110,-246 246,-246l1723 0 0 9188c0,1087 881,1969 1969,1969l9188 0 0 1723c0,136 -110,246 -246,246l0 0zm4184 -4184l-12879 0c-136,0 -246,-110 -246,-246l0 -12387c0,-136 110,-246 246,-246l12633 0c136,0 246,110 246,246l0 12633c0,136 -110,246 -246,246l246 -246z"/>
 </g>
</svg>
