<svg id="Layer_1" data-name="Layer 1" xmlns="http://www.w3.org/2000/svg" viewBox="0 0 448 448"><title>cloudscale</title><path d="M318,154l-9,8c-22-19-51-34-83-34-72,0-129,61-129,132a124,124,0,0,0,1,19c-2-56,42-97,93-97a91,91,0,0,1,63,25l-25,20a28,28,0,1,0,25,25l75-89c6-6-3-16-9-10ZM234,266a14,14,0,0,1-20,0,14,14,0,1,1,20,0ZM224,32C101,32,0,133,0,256S101,480,224,480,448,380,448,256,348,32,224,32Zm0,384c-88,0-160-72-160-160S136,96,224,96s160,72,160,160S312,416,224,416Z" transform="translate(0 -32)" style="fill:#fff"/></svg>