<svg id="Layer_1" data-name="Layer 1" xmlns="http://www.w3.org/2000/svg" viewBox="0 0 616 384"><title>cloudversify</title><path d="M149,304c8,69,67,116,146,111,51,43,137,46,186-6,69,1,119-45,132-99s-18-133-92-155C487,67,389,54,334,70s-84,53-99,110c-8,3-26,9-45,24,12,0,15,9,15,20v20a20,20,0,0,1-19,20H165c-11,0-19-6-19-17v-7H99c-4,0-11,4-11,12v40a12,12,0,0,0,12,12h49Zm227,8c-11,46,22,72,55,87-107,34-172-51-135-111-33,22-34,71-29,93-18-12-54-32-57-80s22-76,57-94,104-8,134,41c-14-48-54-70-102-75,31-31,64-50,114-44,70,9,133,83,68,151,35-16,49-54,47-77l11,20a102,102,0,0,1-70,149c-32,6-83-5-92-59ZM128,208H88a16,16,0,0,1-16-16V152a16,16,0,0,1,16-16h40a16,16,0,0,1,16,16v40a16,16,0,0,1-16,16ZM10,168A10,10,0,0,1,0,158V130a10,10,0,0,1,10-10H38a10,10,0,0,1,10,10v28a10,10,0,0,1-10,10Zm158-25V121a9,9,0,0,1,9-9h21a9,9,0,0,1,9,9v21a9,9,0,0,1-9,9H177A9,9,0,0,1,168,143ZM56,236v25a11,11,0,0,1-11,12H19A11,11,0,0,1,8,261V236a11,11,0,0,1,11-11H45A12,12,0,0,1,56,236Z" transform="translate(0 -64)" style="fill:#fff"/></svg>