<svg id="Layer_1" data-name="Layer 1" xmlns="http://www.w3.org/2000/svg" viewBox="0 0 512 512"><title>codepen</title><path d="M502,160,268,4c-8-5-17-5-25,0L10,160A22,22,0,0,0,0,178V334a22,22,0,0,0,10,18L244,508c8,5,17,5,25,0L502,352a22,22,0,0,0,10-18V178a22,22,0,0,0-10-18ZM278,63,450,178l-77,51-95-64Zm-44,0V166l-95,64L62,178ZM44,219l55,37L44,293V219ZM234,449,62,334l77-51,95,64Zm22-141-78-52,78-52,78,52Zm22,141V346l95-64,77,51ZM468,293l-55-37,55-37v74Z" transform="translate(0 0)" style="fill:#fff"/></svg>