<?xml version="1.0" encoding="UTF-8"?>
<!DOCTYPE svg PUBLIC "-//W3C//DTD SVG 1.1//EN" "http://www.w3.org/Graphics/SVG/1.1/DTD/svg11.dtd">
<!-- Creator: CorelDRAW 2017 -->
<svg xmlns="http://www.w3.org/2000/svg" xml:space="preserve" width="210mm" height="297mm" version="1.1" style="shape-rendering:geometricPrecision; text-rendering:geometricPrecision; image-rendering:optimizeQuality; fill-rule:evenodd; clip-rule:evenodd"
viewBox="0 0 21000 29700"
 xmlns:xlink="http://www.w3.org/1999/xlink">
 <defs>
  <style type="text/css">
   <![CDATA[
    .fil0 {fill:white}
   ]]>
  </style>
 </defs>
 <g id="Layer_x0020_1">
  <metadata id="CorelCorpID_0Corel-Layer"/>
  <path class="fil0" d="M10500 5663c-5800,0 -10500,3819 -10500,8531 0,1952 816,3741 2170,5180 -611,1616 -1883,2986 -1903,3002 -271,287 -345,705 -189,1066 156,361 513,595 906,595 2522,0 4512,-1054 5705,-1899 1185,373 2465,587 3810,587 5800,0 10500,-3819 10500,-8531 0,-4713 -4700,-8531 -10500,-8531zm0 15094c-1095,0 -2178,-168 -3216,-496l-931 -295 -800 566c-587,414 -1390,878 -2358,1189 299,-496 591,-1054 816,-1649l435 -1153 -845 -894c-742,-792 -1632,-2100 -1632,-3831 0,-3618 3827,-6563 8531,-6563 4704,0 8531,2945 8531,6563 0,3618 -3827,6563 -8531,6563z"/>
 </g>
</svg>
