<svg id="Layer_1" data-name="Layer 1" xmlns="http://www.w3.org/2000/svg" viewBox="0 0 549 480"><title>connectdevelop</title><path d="M551,241l-50-87a16,16,0,0,0,2-7,15,15,0,0,0-15-15L432,36a16,16,0,0,0,1-5,15,15,0,0,0-27-10H300a15,15,0,0,0-23,0H170a15,15,0,0,0-27,10,14,14,0,0,0,1,5L88,133a15,15,0,0,0-9,14v2L26,241a15,15,0,0,0-13,15,15,15,0,0,0,12,15l55,95a14,14,0,0,0-1,5,15,15,0,0,0,12,15l52,90a17,17,0,0,0-1,5,15,15,0,0,0,15,15,15,15,0,0,0,12-5H276a15,15,0,0,0,23,0H407a15,15,0,0,0,11,5,15,15,0,0,0,15-15,11,11,0,0,0-1-4l52-90a15,15,0,0,0,12-15,15,15,0,0,0-1-5l55-95a15,15,0,0,0,12-15A15,15,0,0,0,551,241ZM154,451l-44-76h44Zm0-84H110v-3l45-47Zm0-62-50,53-4-2L43,260a10,10,0,0,0,1-4,14,14,0,0,0,0-3l52-90,8-3,50,52v93Zm0-102-46-47a15,15,0,0,0,2-8h0l44-16Zm0-81-44,16,44-76Zm327,39h1L446,329l-64-67,98-102ZM292,355l12,12H281Zm0-11-83-85,80-84,83,88Zm5,6,79-82,68,71-6,28H314ZM410,44h3l58,101h0a15,15,0,0,0,2,8L376,256l-83-88Zm-9-2L288,163l-57-60L397,42h4ZM278,42a14,14,0,0,0,20,0h75L225,96,174,42ZM162,48V46h3l51,54-55,20Zm0,79,61-22,60,63-80,84-41-42Zm0,93,36,38-36,38V220Zm0,88,42-44,83,86-17,18H162V308Zm7,162-6-3V375H261l-92,95Zm130,0a15,15,0,0,0-21,0H181l92-95h38l92,95H298Zm120-12-4,8h-3l-89-92H436l-17,83Zm13-22,13-61h22Zm35-69H446l5-21,17,18v3Zm66-107-55,97-4,2-21-22,35-164,46,79a20,20,0,0,0-1,4A18,18,0,0,0,532,259Z" transform="translate(-14 -16)" style="fill:#fff"/></svg>