<svg id="Layer_1" data-name="Layer 1" xmlns="http://www.w3.org/2000/svg" viewBox="0 0 488 496"><title>cotton-bureau</title><path d="M474,330c-24,92-94,145-202,148V430c0-48,26-74,74-74,62,0,99-37,99-99s-37-98-97-99c-33-69-146-65-177,0-61,1-97,38-97,99s37,99,99,99c48,0,75,26,75,74v49C114,474,37,394,37,256S118,33,260,33c115,0,190,53,215,149h25C474,72,388,8,260,8,105,8,12,101,12,256s93,249,248,248c128,0,214-64,240-174ZM357,182c41,3,64,29,64,74s-26,74-74,74c-29,0-49-10-62-27,83-17,76-100,72-121Zm-82,97c-2-10-16-87,56-97,2,10,17,87-56,97ZM260,132c29,0,49,10,61,28-28,5-49,21-62,43-12-23-33-38-62-43,12-18,33-27,62-27Zm-72,51c73,11,59,87,56,97-72-10-59-87-56-97ZM173,330c-48,0-74-26-74-74s23-70,64-74c-7,37-1,107,72,121-12,18-33,27-61,27Zm53,12a81,81,0,0,0,34-34c8,14,19,26,34,34a80,80,0,0,0-34,34c-8-14-19-26-34-34Z" transform="translate(-12 -8)" style="fill:#fff"/></svg>