<svg id="Layer_1" data-name="Layer 1" xmlns="http://www.w3.org/2000/svg" viewBox="0 0 640 141"><title>cpanel</title><path d="M210,220a52,52,0,0,0-51-41H122a15,15,0,0,0-14,11L73,320H98a15,15,0,0,0,14-11l26-96h20a19,19,0,1,1,0,37H147a15,15,0,0,0-14,11l-6,24h32c37,0,58-36,52-65ZM54,248H72a15,15,0,0,0,14-11l6-24H53c-23,0-44,14-51,41a52,52,0,0,0,50,65H64l7-26a7,7,0,0,0-6-8H54c-25,0-25-37,0-37Zm247-35H223l-3,13a15,15,0,0,0,14,19h57c4,0,2,4,2,5l-9,32c0,1-1,5-5,5H245c-5,0-5-8,0-8h22a15,15,0,0,0,14-11l4-13H236c-39,0-44,64-1,64h58a24,24,0,0,0,23-18l14-52a29,29,0,0,0-28-37Zm332-34H614a11,11,0,0,0-10,8L568,320c21,0,40-14,45-34l27-98a7,7,0,0,0-6-8ZM397,214H349l-26,98a7,7,0,0,0,6,8h19a11,11,0,0,0,10-8l17-64h20c13,0,21,12,18,23l-11,40a6,6,0,0,0,6,8h19a10,10,0,0,0,10-8l9-33c9-33-16-65-50-65Zm98,75a5,5,0,0,1-5-7l8-30c1-4,4-6,8-6h33a4,4,0,0,1,4,5v3a4,4,0,0,1-4,3H516a14,14,0,0,0-14,11l-3,13h53a24,24,0,0,0,23-18l3-12a29,29,0,0,0-28-37H503a40,40,0,0,0-39,30l-11,40c-5,18,8,37,28,37h67a15,15,0,0,0,14-11l6-21Z" transform="translate(0 -179)" style="fill:#fff"/></svg>