<svg id="Layer_1" data-name="Layer 1" xmlns="http://www.w3.org/2000/svg" viewBox="0 0 496 496"><title>creative-commons-pd-alt</title><path d="M248,8C105,8,0,123,0,256S114,504,248,504,496,403,496,256,389,8,248,8Zm1,451C136,459,45,366,45,256S130,53,248,53s203,90,203,203S352,459,248,459Zm68-273H264V323h53c21,0,70-5,70-69S338,186,317,186Zm1,109H298V215h19c4,0,35-2,35,40C352,279,342,295,318,295ZM204,186H136V323h35V279h27c54,0,57-37,57-46q0-46-50-46Zm-5,67H170V212h28c31,0,29,42,1,42Z" transform="translate(0 -8)" style="fill:#fff"/></svg>