<svg id="Layer_1" data-name="Layer 1" xmlns="http://www.w3.org/2000/svg" viewBox="0 0 496 496"><title>creative-commons-nc-eu</title><path d="M248,8C104,8,0,125,0,256S112,504,248,504,496,403,496,256,388,8,248,8Zm1,451C136,459,45,366,45,256a200,200,0,0,1,11-66l66,29h-5v30h23c0,6,0,3,0,19H117v30h27c11,67,67,101,125,101,27,0,51-8,65-16l-10-46c-9,5-28,11-47,11s-58-11-67-50h90l128,57c-1,2-56,104-179,104ZM232,268h0Zm77-19h4V219H242l-29-13a57,57,0,0,1,9-14c13-16,31-22,51-22s35,5,46,10l12-47c-15-7-37-12-62-12-39,0-72,16-96,42a124,124,0,0,0-14,20L78,146c65-97,158-94,171-94,113,0,203,90,203,203a215,215,0,0,1-6,53L309,249Z" transform="translate(0 -8)" style="fill:#fff"/></svg>