<svg id="Layer_1" data-name="Layer 1" xmlns="http://www.w3.org/2000/svg" viewBox="0 0 496 496"><title>creative-commons-sampling-plus</title><path d="M248,8C389,8,496,118,496,256S378,504,248,504,0,395,0,256,105,8,248,8Zm1,45C130,53,45,151,45,256s91,203,204,203,203-81,203-203S361,53,248,53ZM355,258a11,11,0,0,0-11,7l-4,10-11-93c-2-14-22-13-23,0l-4,51-5-69c-1-14-22-14-23,0l-3,45-6-94c-1-14-22-14-23,0l-5,84-4-66c-1-14-22-14-23,0l-5,80-4-57c-1-14-22-14-23,0l-8,90-2-12c-2-11-17-14-22-3l-13,28H88v23h51a12,12,0,0,0,10-6l11,73c2,14,22,13,23-1l4-44,6,78c1,14,22,14,23,0l5-70,5,73c1,14,22,14,23,0l5-80,5,72c1,14,22,15,23,0l5-59,5,64c1,14,22,14,23,0l7-83,3,22c1,12,18,14,22,3l18-43h51V258H355Zm-78,5H256v22a8,8,0,0,1-15,0V264H219a7,7,0,1,1,0-15h22V227a8,8,0,0,1,15,0v22h22a8,8,0,1,1,0,15Z" transform="translate(0 -8)" style="fill:#fff"/></svg>