<svg id="Layer_1" data-name="Layer 1" xmlns="http://www.w3.org/2000/svg" viewBox="0 0 496 496"><title>creative-commons-remix</title><path d="M248,8C389,8,496,118,496,256S378,504,248,504,0,395,0,256,105,8,248,8Zm1,45C130,53,45,151,45,256s91,203,204,203,203-81,203-203S361,53,248,53ZM410,260l5,2v70l-67,29L210,305l-64,27L83,304V240l59-25c-1-1,0,5,0-70l67-30,152,63v62Zm-70,82V298h0v-2L226,250v45l114,47h0Zm8-58,40-16-37-16-39,16Zm52,38V279l-44,19v43Z" transform="translate(0 -8)" style="fill:#fff"/></svg>