<svg id="Layer_1" data-name="Layer 1" xmlns="http://www.w3.org/2000/svg" viewBox="0 0 496 496"><title>creative-commons-share</title><path d="M248,8C389,8,496,118,496,256S378,504,248,504,0,395,0,256,105,8,248,8Zm1,45C130,53,45,151,45,256s91,203,204,203,203-81,203-203S361,53,248,53ZM349,185a14,14,0,0,1,14,14V381a14,14,0,0,1-14,14H214a14,14,0,0,1-14-14V327H147a13,13,0,0,1-14-14V131c0-8,7-13,12-14H282a14,14,0,0,1,14,14v54h54ZM160,300h41V199c0-7,6-13,12-14h56V145H160Zm176-88H228V368H336V212Z" transform="translate(0 -8)" style="fill:#fff"/></svg>