<svg id="Layer_1" data-name="Layer 1" xmlns="http://www.w3.org/2000/svg" viewBox="0 0 496 496"><title>creative-commons-nc</title><path d="M248,8C387,8,496,116,496,256S378,504,248,504,0,393,0,256,105,8,248,8ZM56,189q-11,31-11,67c0,111,92,202,204,202,122,0,177-102,179-104l-93-42c-8,37-41,53-68,55v38H236V368q-41,0-75-30l34-34c32,29,86,32,86-2a19,19,0,0,0-7-15L56,189ZM248,52c-38,0-112,9-170,93l95,43c10-31,40-43,64-44V105h29v38q34,2,62,23l-32,33c-43-30-83-8-70,11l93,42,127,57a231,231,0,0,0,6-53q0-85-59-144T248,52Z" transform="translate(0 -8)" style="fill:#fff"/></svg>