<svg id="Layer_1" data-name="Layer 1" xmlns="http://www.w3.org/2000/svg" viewBox="0 0 496 496"><title>creative-commons</title><path d="M246,215l-33,17c-9-20-25-20-27-20q-33,0-33,44c0,24,9,44,33,44s25-7,31-21l31,16c-6,12-26,39-65,39-23,0-74-10-74-77s43-77,73-77,53,12,66,36Zm143,0-33,17c-9-20-26-20-28-20q-33,0-33,44c0,24,9,44,33,44s25-7,31-21l31,16c-2,4-21,39-65,39-23,0-74-10-74-77s43-77,73-77,53,12,66,36ZM248,8C105,8,0,123,0,256S114,504,248,504,496,403,496,256,389,8,248,8Zm1,451C136,459,45,366,45,256S130,53,248,53s203,89,203,203S352,459,248,459Z" transform="translate(0 -8)" style="fill:#fff"/></svg>