<svg id="Layer_1" data-name="Layer 1" xmlns="http://www.w3.org/2000/svg" viewBox="0 0 496 496"><title>creative-commons-nc-jp</title><path d="M248,8C104,8,0,125,0,256S112,504,248,504,496,403,496,256,389,8,248,8Zm1,451C136,459,45,366,45,256a200,200,0,0,1,9-60l127,57H153v39h58l6,12v19H153v39h64v56h62V360h64V324l81,36C422,363,366,459,248,459Zm88-137H278V303l3-6,55,24Zm7-51V252H304l63-116H301l-43,96-23-10-40-86H129l27,51L75,151c28-44,83-98,174-98,113,0,203,90,203,203a216,216,0,0,1-8,59Z" transform="translate(0 -8)" style="fill:#fff"/></svg>