<svg id="Layer_1" data-name="Layer 1" xmlns="http://www.w3.org/2000/svg" viewBox="0 0 496 496"><title>creative-commons-sampling</title><path d="M248,8C389,8,496,118,496,256S378,504,248,504,0,395,0,256,105,8,248,8Zm1,45C130,53,45,151,45,256s91,203,204,203,203-81,203-203S361,53,248,53Zm4,53c3,0,11,1,11,12l7,107,5-59a11,11,0,1,1,21,0c0,3,0-6,6,82l6-64c0-3,3-9,10-9s10,2,11,9l12,97,5-13q3-7,10-7h58v21H363l-18,44c-4,10-19,9-21-3l-4-32-7,93c0,3-3,9-10,9s-10-2-11-9,1,6-6-78l-5,72c-1,5-5,9-11,9s-10-2-11-9,1,7-6-88l-6,95c0,6-4,12-11,12s-11-4-11-12l-6-88c-6,93-5,84-5,86s-5,9-11,9-10-2-11-9a18,18,0,0,1,0-3l-6-89-5,57c-1,7-7,9-11,9s-10-4-11-9l-11-76c-2,4-3,8-11,8H87V259h45l14-28c4-10,18-7,20,3l3,20,8-98a11,11,0,0,1,11-11c1,0,11,0,11,12l5,69,7-93c0-10,10-11,10-11s11,1,11,11l5,81,6-98c0-1-1-10,10-11Z" transform="translate(0 -8)" style="fill:#fff"/></svg>