<svg id="Layer_1" data-name="Layer 1" xmlns="http://www.w3.org/2000/svg" viewBox="0 0 496 496"><title>creative-commons-zero</title><path d="M248,8C389,8,496,118,496,256S378,504,248,504,0,395,0,256,105,8,248,8Zm1,45C130,53,45,151,45,256s91,203,204,203,203-81,203-203S361,53,248,53Zm0,60c-82,0-102,77-102,143s21,143,103,143,102-77,102-143S330,113,248,113Zm0,54h9c6,5,9,12,3,22L206,290a261,261,0,0,1-2-34c0-29,2-89,44-89Zm41,46c3,15,3,31,3,43,0,29-2,89-44,89-13,0-33-8-20-26l61-105Z" transform="translate(0 -8)" style="fill:#fff"/></svg>