<svg id="Layer_1" data-name="Layer 1" xmlns="http://www.w3.org/2000/svg" viewBox="0 0 496 496"><title>creative-commons-pd</title><path d="M248,8C111,8,0,119,0,256S111,504,248,504,496,393,496,256,385,8,248,8Zm0,450C109,458,12,320,58,190l79,35a168,168,0,0,0-3,33c0,99,74,127,120,127,23,0,54-7,79-29l-36-44a48,48,0,0,1-36,17c-38,0-54-40-54-72l218,97c-34,62-101,105-177,105ZM442,308,218,208c19-34,55-31,75-11l40-42c-27-23-58-27-78-27-47,0-81,21-101,52L80,146c36-55,98-91,168-91,111,0,201,90,201,202a203,203,0,0,1-7,52h-1Z" transform="translate(0 -8)" style="fill:#fff"/></svg>