<svg id="Layer_1" data-name="Layer 1" xmlns="http://www.w3.org/2000/svg" viewBox="0 0 496 496"><title>creative-commons-sa</title><path d="M248,8C389,8,496,118,496,256S378,504,248,504,0,395,0,256,105,8,248,8Zm1,45C130,53,45,151,45,256s91,203,204,203,203-81,203-203S361,53,248,53ZM138,221c13-84,81-96,109-96,100,0,127,83,127,134,0,64-41,133-129,133-39,0-99-20-109-97h63c2,30,20,45,55,45,23,0,58-18,58-83,0-82-49-81-57-81q-50,0-56,44h18l-49,49-49-49h19Z" transform="translate(0 -8)" style="fill:#fff"/></svg>