<svg id="Layer_1" data-name="Layer 1" xmlns="http://www.w3.org/2000/svg" viewBox="0 0 446 512"><title>critical-role</title><path d="M226,0,443,125c3,1,4,3,4,7q0,125,0,250a6,6,0,0,1-3,6L224,512h-3L3,386a3,3,0,0,1-2-3c0-1,0-226,0-253a5,5,0,0,1,3-5L224,0ZM215,20h0L21,131h0l31,12c-8,6-8,6-11,5L15,138V368L79,257c2-3,3-2,9-2s1,0,1,1L21,374c-1,1-1,1,1,1H209c1,0,2,0,2-2v-9c0-1,2-1-18-1-7,0-14-3-21-13l-22-29c-2-3-3-2-17-2-2,0-2,0-2,2,0,26,0,25,1,33s2,4,10,5,4,4,1,5H108a2,2,0,0,1-2-3l2-2c3-1,6,1,7-4s1-9,1-79c0-11,0-13-5-14h-5c-3-1-2-5,2-5,34,0,46-1,56,5s12,11,13,20-7,22-15,33a1,1,0,0,0,0,2h0l8,10c28,33,24,31,41,33,1,0,1,0,1-1V347c0-1,0-1,1-1a72,72,0,0,0,24,0c1,0,2,0,1,1v27c0,2,1,2,2,2H427L346,234h7c2,0,2,0,3,1l77,134V138L327,178h-2l-2-6c0-1,0-1,1-1l103-39L231,18l87,150h0c-10-1-10-2-12-4L224,23c-9,15-84,146-85,146h-9L215,20Zm52,130h6c2,0,3,0,3,2s0,19-1,20-2,1-3,0,6-10-39-12h-1l4,122v2l9,4c7,4,11,11,12,19s-3,36-32,37c-3,0-28,1-34-23s8-33,20-36a2,2,0,0,0,2-3c0-6,3-107,4-121,0-1-1-1-1-1-32,1-37,0-40,9s-4,1-4,0l3-18c0-2,1-3,3-2s7,2,37,2c2,0,2,0,2-2,1-27,1-23,1-30a3,3,0,0,0-2-3c-6-3-9-8-9-14s18-22,27-12,6,19-2,24a4,4,0,0,0-2,4c0,1,0-4,1,30h36ZM68,142c20-5,33-1,52,2,3,0,4,1,4,4s-1,22-1,23l-2,2c-4,2-4-4-4-7-3-22-74-33-75,25,0,24,17,54,54,51s19-20,25-20a3,3,0,0,1,3,3l-3,19c-2,9-87,22-93-42-3-26,10-53,40-60Zm80,88H129l-3-2c2-4,6,1,6-6,0-26,0-38,0-40s-1-5-3-5-3-3-1-3h30c9,1,17,13,8,23l-6,7,17,20c3,3,6,4,10,3a2,2,0,0,0,2-2c0-3,0,5,0-41,0-6,0-7-3-7s-4-2-1-3h19s4,1,1,3h0c-4,0-4,1-4,5,0,44,0,40,0,43s0,2,5,2,4,3,0,3H176c-11,0-13-6-24-21-2-2-8-2-8,0,1,16,0,18,4,18s5,4,1,4Zm275-10c-1,7,0,10-5,10H364c-3-1,1-1,0-6l-4-10H341l-5,11c-1,3,8,1,12,2s5,4,1,4H323c-3,0-3-3-1-3a6,6,0,0,0,6-3l4-9c18-42,17-40,18-42h3c3,3,18,45,24,52s6,2,6,2,4-1,4-4,0,1,0-41c0-4-2-4-6-4s-3-1,0-3h22c2,0,5,3-1,3a3,3,0,0,0-3,2h0c0,2,0,39,0,41a3,3,0,0,0,3,2c13,0,15,0,16-3s4-3,4,0ZM319,284c-4,0-4-3-1-3h37c2,0,2,0,2,2v10c0,2-3,3-3,0s-2-4-16-5c-2,0-2,0-2,2v16c0,2,0,2,2,1s10,0,16-2,3-2,3,2-1,10-1,11-2,2-3,0,0-5-4-5c-15-1-13-3-13,6s-1,16,4,16c17,0,14,0,16-6s4-2,3,1v10s0,2-5,2H318c-3-1-2-3,0-3s4,1,4-3c2-56,0-51-4-51Zm0-110c2,1,3,2,3,5s0,9-1,10-3,2-3,0-3-8-8-9c-26-8-33,15-27,30s22,16,29,14,6-6,7-8,2-2,3,1,1,12-6,13-19,4-33-3-17-35-7-45,40-7,42-6ZM290,280c3,0,4,3,0,3s-5,0-5,5,0,29,0,41,1,4,3,4c22,1,15-2,19-6s3,1,3,1c0,14-4,12-5,12H267c-2,0-2-3,0-3s5,0,5-3c1-16,1-45,0-48s-3-3-6-4-2-3,0-3Zm-32-58c0,4,3,3,6,4s3,3,0,3H242c-4,0-3-3,0-3s3,2,3-46c0-5-3-4-5-4s-1-3,0-3h21c1,1,2,2,0,3s-4,0-4,2-1,2,0,44ZM221,497h3L422,384H240c-1,0-2,0-2,2s1,45,1,50a28,28,0,0,1-1,8l-13,32c-1,2-1,2-2,0l-13-31a24,24,0,0,1-2-11c0-2,1-16,2-48,0-2,0-2-2-2H25L221,497ZM130,308c0,2,0,3,3,3s21,4,26-7,3-34-12-39c-2-1-16-3-16,2S130,278,130,308Zm106-15c0,2,1,39,1,39s-26,6-25-3,1-37,1-39c-14,7-14,40,6,49a18,18,0,0,0,22-7c5-8,7-29-5-39h0ZM224,95c-10,0-10,15,0,15s10-15,0-15ZM144,199c0,2,0,2,2,3,14,1,13-11,12-13s-14-10-14-8S144,194,144,199Zm212,6-6-16-6,16Z" transform="translate(-1)" style="fill:#fff"/></svg>