<?xml version="1.0" encoding="UTF-8"?>
<!DOCTYPE svg PUBLIC "-//W3C//DTD SVG 1.1//EN" "http://www.w3.org/Graphics/SVG/1.1/DTD/svg11.dtd">
<!-- Creator: CorelDRAW 2017 -->
<svg xmlns="http://www.w3.org/2000/svg" xml:space="preserve" width="210mm" height="297mm" version="1.1" style="shape-rendering:geometricPrecision; text-rendering:geometricPrecision; image-rendering:optimizeQuality; fill-rule:evenodd; clip-rule:evenodd"
viewBox="0 0 21000 29700"
 xmlns:xlink="http://www.w3.org/1999/xlink">
 <defs>
  <style type="text/css">
   <![CDATA[
    .fil0 {fill:white}
   ]]>
  </style>
 </defs>
 <g id="Layer_x0020_1">
  <metadata id="CorelCorpID_0Corel-Layer"/>
  <path class="fil0" d="M20016 18788l-1641 0 0 -9957 2433 -2433c256,-256 256,-672 0,-928l-928 -928c-256,-256 -672,-256 -928,0l-2433 2433 -8644 0 0 3938 4707 0 -6019 6019 0 -11597c0,-544 -441,-984 -984,-984l-1969 0c-543,0 -984,441 -984,984l0 1641 -1641 0c-543,0 -984,441 -984,984l0 1969c0,543 441,984 984,984l1641 0 0 10828c0,543 441,984 984,984l9516 0 0 -3938 -4707 0 6019 -6019 0 11597c0,543 441,984 984,984l1969 0c543,0 984,-441 984,-984l0 -1641 1641 0c543,0 984,-441 984,-984l0 -1969c0,-544 -441,-984 -984,-984l0 0z"/>
 </g>
</svg>
