<svg id="Layer_1" data-name="Layer 1" xmlns="http://www.w3.org/2000/svg" viewBox="0 0 532 512"><title>d-and-d</title><path d="M83,99c-1-17,2-34,13-48,0,7,1,14,4,22,6-27,20-49,42-65-2,6-3,12-3,18,9-7,19-18,44-23a102,102,0,0,1,42,1c39,9,61,34,70,72,5,23,1,45-8,66a143,143,0,0,1-21,35l-6-6c-43-41-27-25-37-37-1-1-1-2,0-4a67,67,0,0,0,10-44c-1-10-4-19-11-26a37,37,0,0,0-53,1c-11,12-14,27-11,44a9,9,0,0,1,0,4c-3,14-5,28-2,42a9,9,0,0,1,0,2h0c-22-11-36-28-43-52-8,18-11,36-7,54-16-15-21-34-22-55ZM552,222a121,121,0,0,0-40-27c-13-5-26-8-40-7s-20,3-29,6l-8,2c-5,1-7-3-5-7s3-4,15-12h-2c-19,3-31,16-49,30s-14,4-12,0l5-10,4-5h-1c-27,18-47,42-58,73h1v-2a140,140,0,0,1,37-30c18-11,38-18,59-20h8c-18,2-35,9-51,19-30,18-54,42-75,70h-1c15,5,24,17,36,26h0v-3c12-27,27-52,47-74s38-25,63-20c6,1,11,4,17,7l8-5a108,108,0,0,1,27-9c15-3,30-5,45-1h-2ZM317,398l-43-36-2,3c-11,19-25,35-44,48s-21,12-34,12-38-9-49-28-13-41-8-63c8-34,30-55,39-64-19-6-33,2-46,14,1-14,4-26,12-37a208,208,0,0,0-65,44c0-6,5-44,6-45a8,8,0,0,0-3-7c-24,25-44,52-56,85a167,167,0,0,1,24-16c-8,22-20,53-8,101,5,19,12,37,24,52l10,10h1a75,75,0,0,1-1-22l6,9c13,16,29,27,47,36s51,13,78,9c55-10,91-49,116-99,1-2,1-3-1-4Zm172-46c-9-3-22-4-29-3,10,4,14,7,19,12s10,35-5,46-25,11-39,9h-3l8-11c9-17,5-42-9-56l-7-6a5,5,0,0,0,0,3c4,17-8,32-25,32s-14-4-20-8l-58-48c-6-5-12-8-20-9H287c-6,0-9-3-10-8l-2-10c-1-8-6-13-14-14H247c-13-1-20-7-23-20-5,11-2,22,7,30l14,11a21,21,0,0,1,8,15,111,111,0,0,0,2,14c2,11,9,18,17,25l50,41c18,15,14,33,13,56a52,52,0,0,0,34,51h4c-16-18-10-44,1-52,0,2,0,4,1,6,9,44,45,64,85,57,16-3,31-9,43-20l6-6c-19,5-36,0-51-11h2c21,2,41-3,57-17s27-43,17-66-24-32-44-39ZM99,179c-5-9-13-16-22-21,14,0,27,0,40,4-7-12-8-25-5-39,5,12,14,20,24,27s36,20,47,30l10,11-2-6c-5-11-13-19-23-25a8,8,0,0,1-3-4c-3-12-3-25-1-38a136,136,0,0,1,5-16,21,21,0,0,1,4-7c1,7,0,25,20,46l34,33c9,9,18,17,26,27l4,5c-5-13-14-24-24-34l-29-27c-3-3-5-7-5-11a57,57,0,0,1,4-30l2-3c1,4,1,8,1,12,5,23,20,36,49,64,10,9,19,19,26,32s7,19,6,30v2c6,3,10,7,10,14s13-8,16-14c4,20-9,50-27,59,0-4,5-23-16-28l-23-2c5-9,10-21,1-22-25-5-53,2-58,5,8,0,16,1,24,3l-6,19c-2,7,2,15,9,10l3-3c-3,18-3,16-3,18s10,8,16,7c-2,12-29,27-45,26,7-5,13-10,16-18l-19,2h0a30,30,0,0,0,10-13c9-21-4-38-25-40a43,43,0,0,0-26,6c6-16,17-27,33-34l-25-6c15-9,30-13,47-15-5-3-48-4-70,21l23,4c-24,7-44,20-62,36,1-5,3-9,3-14a48,48,0,0,0,0-14c-1-9-9-15-20-16s-16,0-23,1H43c16-15,36-22,53-33,6-4,7-8,3-15Zm128,27c3,16,13,26,24,24C247,219,239,211,228,206Z" transform="translate(-22 0)" style="fill:#fff"/></svg>