<svg id="Layer_1" data-name="Layer 1" xmlns="http://www.w3.org/2000/svg" viewBox="0 0 640 203"><title>d-and-d-beyond</title><path d="M314,242c14,0,21-10,25-18l-7-7c-2,4-8,11-14,11s-15-15-3-27c0,0-4-2-8,2a11,11,0,0,1,2-7c-3,1-10,6-11,8s2-7,1-9h0s-8,6-9,15l2-2c1,0,1,0,1,2s-6,16,5,26c-1-2-2-8,2-2s6,7,16,7Zm52-21c0-4-5-4-6-4a10,10,0,0,1,0,9C363,225,366,223,366,220Zm10,5c0-6-6-11-13-11,8,1,6,14-5,11,4-3,3-10-1-12s-3,8-7,5l-11-9c-2-2-5-1-7-2s0-4-2-5h-5a4,4,0,0,1-3-3c-2,4,3,6,5,9s-1,5,4,9,9,8,10,18a9,9,0,0,0,6,7,7,7,0,0,1,0-9c0,14,19,13,23,6s-7,0-9-2,14-4,15-11Zm-39-18,6,5c10-24,22-16,22-15s10-4,14-3-7-6-13-6h-8c-1-1,3-3,3-3s-10,7-11,6,1-4,1-4-9,9-10,13,14-10,20-9c-10,1-19,10-24,16Zm243,52-50,2,7,8v77l-7,8,52,2c42,0,59-21,59-49s-23-49-60-49Zm-15,76V281c30-3,47,4,47,26S590,338,565,335ZM302,181a13,13,0,0,1,1-9,14,14,0,0,0,8,9,18,18,0,0,1,1-8c-1-5,2-10,6-10s9,9,5,14,6,6,8,8,6-9,6-14-5-16-17-16-20,17-20,19S302,181,302,181Zm0,6c0,2-7,4-10,7s7,0,8,2,0,3,0,6,7-5,11-6h-4c3-3,9-4,13-4l-8,3h4a12,12,0,0,0-6,6c7-5,13,5,7,8h4l-3,3c3,0,7-2,8-5h-3c-1-1,0-4,0-4s-3-1-1-4h-5c3-1,10-2,11,0s-1,3-1,3,8,1,7,5,6-6,5-10l-3,3c0-1-1-2-2-3s-15-14-14-24c-1,1-2,5-1,7s9,7,10,12c-3-6-15-11-15-20s-3,8-1,11,5,4,5,6-11-6-14-12a8,8,0,0,0,1,7h-7c2,1,5,4,5,5Zm26,7c-3,0-3-2-4-4A7,7,0,0,1,327,194Zm39,4h-6a10,10,0,0,0-7,3l-2,3v16c4,3,7-3,3-7l5,3h11V196h-3ZM80,306c17-5,16-18,16-20,0-21-24-25-37-25H3l8,9v30H0l11,15v32l-8,9c62,0,74,2,86-6s10-10,10-18S102,312,80,306ZM39,278c20,0,30-1,30,9v3c0,12-19,9-30,9Zm0,59V315c12,0,33-2,33,9v5h0c0,11-12,9-33,9Zm101-19h23l14-21H140V282h52l-14-21H105l7,8v77l-7,8h81l14-21H140Zm215-60c-74,0-77,99,0,99S428,258,355,258Zm0,78c-37,0-37-55,0-55S393,336,354,336Zm-91-8,44-66H265l6,7-20,37h0l-21-37,6-7H191l44,66v19l-8,8h43l-7-8ZM235,176c2,1,3,2,3,7v39c0,4-1,5-3,6l-8,5h35c10,0,17-1,26-9a35,35,0,0,1,1-12l-3,4c0-6,2-15,10-20a18,18,0,0,0-9,1c2-3,10-8,10-8-8-26-38-23-32-23-31,0-33,0-40-4s1,8,10,15Zm21,6c5,0,23-3,23,17s-18,17-23,17Zm229,80,7,8v43h0c-5-14-42-41-45-51H415l7,9v77l-7,8h39l-7-8V299h0c4,11,45,43,49,56h21V270l7-8ZM378,165c-32,0-33,0-40-4s1,8,10,15,3,4,3,10l6-3-3,5c1-1,8-5,15-3l-6,3s2-1,8,0v-4c5,0,23-3,23,17s-18,17-20,17a11,11,0,0,1,2,16h0c33,0,37-27,37-34s-1-32-34-34Z" transform="translate(0 -155)" style="fill:#fff"/></svg>