<svg id="Layer_1" data-name="Layer 1" xmlns="http://www.w3.org/2000/svg" viewBox="0 0 512 384"><title>deploydog</title><path d="M382,136h52V376H382V355c-20,25-53,24-74,15s-44-38-44-72,15-58,43-71,53-11,75,13ZM318,298c0,18,14,34,33,34a33,33,0,0,0,33-33c0-17-14-33-33-33A33,33,0,0,0,318,298ZM189,136h52V376H189V355c-20,25-53,24-74,15s-44-38-44-72,15-58,43-71,53-11,75,13ZM124,298c0,18,14,34,33,34a33,33,0,0,0,33-33c0-17-14-33-33-33A33,33,0,0,0,124,298ZM448,96a32,32,0,0,1,32,32V384a32,32,0,0,1-32,32H64a32,32,0,0,1-32-32V128A32,32,0,0,1,64,96H448m0-32H64A64,64,0,0,0,0,128V384a64,64,0,0,0,64,64H448a64,64,0,0,0,64-64V128A64,64,0,0,0,448,64Z" transform="translate(0 -64)" style="fill:#fff"/></svg>