<svg id="Layer_1" data-name="Layer 1" xmlns="http://www.w3.org/2000/svg" viewBox="0 0 480 512"><title>deskpro</title><path d="M206,512l31-38c12,0,26-1,37-7,39-19,38-62,38-64s-1-4-29-37h79c0,50-7,69-10,76-9,24-44,63-95,69H206ZM406,344c39,0,59-14,74-31H305l-17,31ZM363,120V289H289l-33,56h-6c-52,0-58-56-58-59-1-13-21-12-20,2s9,40,26,57H107C81,344-4,317,0,230V17C0,1,10,0,15,0H98c4,0,50-2,50,44,0,13,20,13,20,0s-5-33-16-44h84C345,0,363,80,363,120ZM230,176l64,29C307,160,252,134,230,176Z" transform="translate(0 0)" style="fill:#fff"/></svg>