<svg id="Layer_1" data-name="Layer 1" xmlns="http://www.w3.org/2000/svg" viewBox="0 0 640 91"><title>dhl</title><path d="M238,301h59l22-30H260ZM0,283v6H82l5-6Zm173-12c-9,0-6-4-5-5l10-14c3-4,3-6-3-6H125L84,301H184c33,0,52-22,57-30H173Zm318-7,39-53H468l-39,53h62ZM95,271H0v6H91Zm111-27-10,14c-1,2-4,6,5,6h46l14-18c8-11,1-35-29-35H113L92,239H204c6,0,6,2,3,6ZM0,301H73l5-6H0Zm323,0h59l22-30H345Zm222,0h95v-6H550Zm22-30-5,6h77v-6H567Zm-13,18h86v-6H559ZM390,211l-22,31H341l23-31H305l-39,53H409l39-53Zm34,60-6,9c-7,10-1,22,23,22h94l22-30H423Z" transform="translate(0 -211)" style="fill:#fff"/></svg>