<svg id="Layer_1" data-name="Layer 1" xmlns="http://www.w3.org/2000/svg" viewBox="0 0 448 512"><title>discord</title><path d="M297,243c0,16-12,28-26,28s-26-13-26-28,12-28,26-28S297,228,297,243ZM178,215c-15,0-26,13-26,28s12,28,26,28,26-13,26-28S192,215,178,215ZM448,53V512c-64-57-44-38-119-108l14,47H52A53,53,0,0,1,0,399V53A53,53,0,0,1,52,0H396A53,53,0,0,1,448,53ZM375,295c0-82-37-149-37-149-37-28-72-27-72-27l-4,4c44,13,64,33,64,33-61-33-132-33-191-7l-15,7s21-20,67-34l-3-3s-35-1-72,27c0,0-37,67-37,149,0,0,22,37,78,39l17-21c-33-10-45-30-45-30l10,6c43,24,105,32,160,9a146,146,0,0,0,29-15s-13,21-46,30l17,21c57-2,78-39,78-39Z" style="fill:#fff"/></svg>