<svg id="Layer_1" data-name="Layer 1" xmlns="http://www.w3.org/2000/svg" viewBox="0 0 640 448"><title>docker</title><path d="M350,236H284V177h66v59Zm0-204H284V93h66Zm78,145H362v59h66V177ZM272,105H206v60h66Zm78,0H284v60h66ZM627,205c-14-10-48-13-73-8-3-24-17-45-41-64l-14-9-9,14c-18,28-23,74-4,104-9,5-26,11-48,11H2c-9,51,6,117,44,162s93,66,165,66c157,0,274-72,328-204,21,0,68,0,91-45l9-17-13-9ZM116,177H50v59h66V177Zm78,0H128v59h66Zm78,0H206v59h66Zm-78-72H128v60h66Z" transform="translate(0 -32)" style="fill:#fff"/></svg>