<?xml version="1.0" encoding="UTF-8"?>
<!DOCTYPE svg PUBLIC "-//W3C//DTD SVG 1.1//EN" "http://www.w3.org/Graphics/SVG/1.1/DTD/svg11.dtd">
<!-- Creator: CorelDRAW 2017 -->
<svg xmlns="http://www.w3.org/2000/svg" xml:space="preserve" width="210mm" height="297mm" version="1.1" style="shape-rendering:geometricPrecision; text-rendering:geometricPrecision; image-rendering:optimizeQuality; fill-rule:evenodd; clip-rule:evenodd"
viewBox="0 0 21000 29700"
 xmlns:xlink="http://www.w3.org/1999/xlink">
 <defs>
  <style type="text/css">
   <![CDATA[
    .fil0 {fill:white}
   ]]>
  </style>
 </defs>
 <g id="Layer_x0020_1">
  <metadata id="CorelCorpID_0Corel-Layer"/>
  <path class="fil0" d="M10867 13683l5467 1952 0 7964c0,322 -261,583 -583,583l-2333 0c-322,0 -583,-261 -583,-583l0 -4083 -5833 0 0 4083c0,322 -261,583 -583,583l-2333 0c-322,0 -583,-261 -583,-583l0 -7799c-1355,-483 -2333,-1766 -2333,-3285 0,-644 522,-1167 1167,-1167 644,0 1167,522 1167,1167 1,644 523,1166 1167,1167l6200 0zm8967 -4083l0 1167c0,1288 -1045,2333 -2333,2333l-1167 0 0 1297 -4667 -1667 0 -5464c0,-520 628,-780 996,-412l995 996 1955 0c398,0 866,289 1043,645l261 522 2333 0c322,0 583,261 583,583l0 0zm-4667 -583c0,-322 -261,-583 -583,-583 -322,0 -583,261 -583,583 0,322 261,583 583,583 0,322 261,583 583,583 322,0 583,-261 583,-583l-583 -583z"/>
 </g>
</svg>
