<?xml version="1.0" encoding="UTF-8"?>
<!DOCTYPE svg PUBLIC "-//W3C//DTD SVG 1.1//EN" "http://www.w3.org/Graphics/SVG/1.1/DTD/svg11.dtd">
<!-- Creator: CorelDRAW 2017 -->
<svg xmlns="http://www.w3.org/2000/svg" xml:space="preserve" width="210mm" height="297mm" version="1.1" style="shape-rendering:geometricPrecision; text-rendering:geometricPrecision; image-rendering:optimizeQuality; fill-rule:evenodd; clip-rule:evenodd"
viewBox="0 0 21000 29700"
 xmlns:xlink="http://www.w3.org/1999/xlink">
 <defs>
  <style type="text/css">
   <![CDATA[
    .fil0 {fill:white}
   ]]>
  </style>
 </defs>
 <g id="Layer_x0020_1">
  <metadata id="CorelCorpID_0Corel-Layer"/>
  <path class="fil0" d="M14282 13539l-6265 -1833c-725,-209 -1230,-888 -1230,-1642 0,-946 766,-1711 1711,-1711l3846 0c708,0 1404,215 1984,609 354,238 830,180 1131,-116l2019 -1972c412,-400 354,-1067 -104,-1421 -1421,-1114 -3196,-1734 -5018,-1740l0 -2784c0,-510 -418,-928 -928,-928l-1856 0c-510,0 -928,418 -928,928l0 2784 -145 0c-3695,0 -6665,3173 -6323,6938 244,2674 2286,4849 4861,5604l5946 1740c725,215 1230,888 1230,1642 0,946 -766,1711 -1711,1711l-3846 0c-708,0 -1404,-215 -1984,-609 -354,-238 -830,-180 -1131,116l-2019 1972c-412,400 -354,1067 104,1421 1421,1114 3196,1734 5018,1740l0 2784c0,510 418,928 928,928l1856 0c510,0 928,-418 928,-928l0 -2796c2703,-52 5238,-1659 6131,-4217 1247,-3573 -847,-7239 -4206,-8220l0 0z"/>
 </g>
</svg>
