<svg id="Layer_1" data-name="Layer 1" xmlns="http://www.w3.org/2000/svg" viewBox="0 0 480 448"><title>draft2digital</title><path d="M480,398,336,316v65H245c31-35,82-96,112-149s16-123-13-153c-4-5-62-63-166-41C119,49,88,80,73,104a128,128,0,0,0-18,48c-5,33,19,67,57,67a57,57,0,0,0,57-57c0-27-20-52-48-57,2-7,18-21,26-25,41-17,78,5,83,33,8,44-37,90-70,128C85,328,18,397,0,416H336v64ZM370,371l47,27-47,27ZM134,161a22,22,0,1,1-22-22A22,22,0,0,1,134,161ZM83,381c26-27,98-105,151-170,35-43,40-82,28-113-7-19-17-30-24-36,45,2,68,23,82,38,0,0,42,48,6,113S215,361,197,381Z" transform="translate(0 -32)" style="fill:#fff"/></svg>