<svg id="Layer_1" data-name="Layer 1" xmlns="http://www.w3.org/2000/svg" viewBox="0 0 448 448"><title>dribbble-square</title><path d="M90,228a137,137,0,0,1,76-96,882,882,0,0,1,51,79C153,229,96,228,90,228Zm224-74a136,136,0,0,0-123-31,736,736,0,0,1,51,80C292,185,312,158,315,154ZM140,364a136,136,0,0,0,137,18c-2-12-10-54-29-104-55,19-94,56-108,86Zm99-108-11-23c-68,20-134,20-140,19s0,3,0,4a136,136,0,0,0,35,91c22-38,67-78,116-92Zm35,16c18,49,25,89,27,97a137,137,0,0,0,59-92C354,276,317,265,274,272Zm-20-48,12,27c46-6,91,3,95,4a135,135,0,0,0-31-85C327,174,304,203,254,224ZM448,80V432a48,48,0,0,1-48,48H48A48,48,0,0,1,0,432V80A48,48,0,0,1,48,32H400A48,48,0,0,1,448,80ZM384,256c0-88-72-160-160-160S64,168,64,256s72,160,160,160S384,344,384,256Z" transform="translate(0 -32)" style="fill:#fff"/></svg>