<svg id="Layer_1" data-name="Layer 1" xmlns="http://www.w3.org/2000/svg" viewBox="0 0 496 496"><title>dribbble</title><path d="M256,8C119,8,8,119,8,256S119,504,256,504,504,393,504,256,393,8,256,8ZM420,122a211,211,0,0,1,48,132c-7-1-77-16-148-7-6-14-11-26-19-42,78-32,114-77,118-84ZM396,98c-4,5-36,48-111,77A1131,1131,0,0,0,206,50,211,211,0,0,1,396,98ZM166,65a1352,1352,0,0,1,79,123c-99,26-186,26-196,26A213,213,0,0,1,166,65ZM44,256c0-2,0-4,0-6s112,2,218-30l17,36c-77,22-146,84-181,142A211,211,0,0,1,44,256Zm82,167c22-45,82-104,168-133,30,77,42,142,45,161A211,211,0,0,1,126,423Zm248,8c-2-13-13-75-41-151,66-11,125,7,132,9A212,212,0,0,1,374,432Z" transform="translate(-8 -8)" style="fill:#fff"/></svg>