<svg id="Layer_1" data-name="Layer 1" xmlns="http://www.w3.org/2000/svg" viewBox="0 0 384 447"><title>drupal</title><path d="M320,115c-22-14-43-19-65-33s-31-30-46-48c-3,29-11,41-22,49-21,17-35,22-53,32S32,182,32,291s92,190,194,190,190-74,190-186S333,123,320,115Zm3,326c-20,20-90,29-117,4-5-5,0-12,7-12s17,13,51,13,46-8,55-14S326,436,322,440Zm-54-53c9-4,29-4,37,1s16,19,6,24-1-16-26-16c-15,0-19,5-27,11s-10,8-12,5S261,390,268,388Zm93,17c-15-1-45-49-65-49-31-1-104,81-161,42-39-27-15-105,52-105,50,0,84,49,109,49s62-42,82-42C425,299,399,408,360,405Z" transform="translate(-32 -33)" style="fill:#fff"/></svg>