<svg id="Layer_1" data-name="Layer 1" xmlns="http://www.w3.org/2000/svg" viewBox="0 0 480 496"><title>earlybirds</title><path d="M313,48c1-13,21-14,37-9,1,0,26,10,19,15C341,47,312,72,313,48ZM112,54c31-8,62,20,61-7-1-14-23-15-40-10C132,38,104,48,112,54ZM319,160a16,16,0,1,0,16,16A16,16,0,0,0,319,160Zm-160,0a16,16,0,1,0,16,16A16,16,0,0,0,160,160ZM478,323c-10,24-41,11-64-1-13,69-58,111-126,124h24c34,1,64-3,97-8-20-14-11-37-10-38s15,2,22,12c9-12,28-15,30-14s7,21-7,35l10-2c3-1,18,11,3,13l-47,11c-46,11-86,12-118,13v12c4,18-23,24-28,6,1,18-27,22-28-1v5c-1,18-28,18-28-1-7,14-28,7-26-8V469l-62,3c-21,0-21-32,0-32l63,3C124,428,81,388,70,325c-25,13-57,27-68,1s21-43,67-73c1-7,2-13,3-20-14-20-12-36-16-60-17,2-23-9-24-23a69,69,0,0,1,2-15c1-2,10-2,13-3,6-32,51-33,91-35,20-22,45-42,81-48-15-19-3-40-2-40s21,4,26,23c5-9,18-11,20-11s6,15-5,26c40,4,72,25,96,51,36,2,72,6,77,34,3,1,12,1,13,3a69,69,0,0,1,2,15c0,14-7,25-24,23-3,17-3,33-9,48a264,264,0,0,1,5,36c37,25,70,43,60,67ZM207,160c1-44-38-42-79-40-22,1-39,2-46,14s6,93,23,101,73,8,86-7,15-49,15-68Zm52,58c-4-12-6-30-15-33H233c-10,3-11,22-17,37,15,0,19,10,24,10S246,221,259,218Zm136-85c-7-12-25-13-46-14-40-2-78-4-77,40,0,18,5,58,13,68s77,12,86,7S407,156,395,134Z" transform="translate(0 -8)" style="fill:#fff"/></svg>