<svg id="Layer_1" data-name="Layer 1" xmlns="http://www.w3.org/2000/svg" viewBox="0 0 640 256"><title>ebay</title><path d="M606,190,551,299,496,190H459l11,21c-11-19-36-26-63-26s-68,9-71,43h34c1-14,16-22,35-22s41,10,41,33v3H403c-42,1-70,10-77,34a86,86,0,0,0,2-16c0-52-40-76-75-76-21,0-43,6-59,24V128H162V297c0,10-1,23-1,33h32a178,178,0,0,0,1-19c14,17,35,25,59,25,37,0,65-22,73-54a51,51,0,0,0-1,9c0,24,21,45,61,45,27,0,46-6,62-25a174,174,0,0,0,1,20h30c-1-8-1-17-1-27V238c0-9-2-17-5-24l62,116-28,54h36l99-195ZM244,314c-30,0-50-21-50-54s21-54,50-54,50,21,50,54S274,314,244,314Zm201-47c0,30-18,48-52,48s-35-13-35-26,18-24,47-25h39ZM33,268H161v-8c0-52-33-75-78-75-57,0-83,31-83,78s25,74,83,74c31,0,68-12,74-46H124C112,326,36,326,33,268Zm95-21H33c7-57,92-55,94,0Z" transform="translate(0 -128)" style="fill:#fff"/></svg>