<svg id="Layer_1" data-name="Layer 1" xmlns="http://www.w3.org/2000/svg" viewBox="0 0 496 496"><title>edge</title><path d="M482,134C441,54,352,8,256,8,137,8,38,92,13,204c26-46,86-79,149-79,79,0,121,49,122,50,22,24,33,50,33,83,0,10-5,26-15,39-2,2-6,5-6,11s3,10,9,14c28,19,80,17,81,17a115,115,0,0,0,59-16,119,119,0,0,0,59-102C504,176,488,147,482,134ZM213,476a155,155,0,0,1-47-45c-33-47-34-96-20-136a156,156,0,0,1,57-79c59-45,95-6,99-1l-5-10c-9-16-24-36-57-54s-71-19-78-19c-39,0-78,13-108,36S13,209,9,243c-1,12-3,63,23,118A248,248,0,0,0,280,503C242,496,214,476,213,476Zm251-98a8,8,0,0,0-8,0l-20,9a198,198,0,0,1-70,13c-92,0-172-63-172-144a61,61,0,0,1,7-27,169,169,0,0,0-39,50c-15,29-33,88,13,152,7,9,23,30,56,48s49,20,72,20c35,0,115-33,163-109a8,8,0,0,0-2-11h0Z" transform="translate(-8 -8)" style="fill:#fff"/></svg>