<?xml version="1.0" encoding="UTF-8"?>
<!DOCTYPE svg PUBLIC "-//W3C//DTD SVG 1.1//EN" "http://www.w3.org/Graphics/SVG/1.1/DTD/svg11.dtd">
<!-- Creator: CorelDRAW 2017 -->
<svg xmlns="http://www.w3.org/2000/svg" xml:space="preserve" width="210mm" height="297mm" version="1.1" style="shape-rendering:geometricPrecision; text-rendering:geometricPrecision; image-rendering:optimizeQuality; fill-rule:evenodd; clip-rule:evenodd"
viewBox="0 0 21000 29700"
 xmlns:xlink="http://www.w3.org/1999/xlink">
 <defs>
  <style type="text/css">
   <![CDATA[
    .fil0 {fill:white}
   ]]>
  </style>
 </defs>
 <g id="Layer_x0020_1">
  <metadata id="CorelCorpID_0Corel-Layer"/>
  <path class="fil0" d="M14667 18091l1167 -1167c182,-182 499,-55 499,208l0 5301c0,966 -784,1750 -1750,1750l-12833 0c-966,0 -1750,-784 -1750,-1750l0 -12833c0,-966 784,-1750 1750,-1750l9971 0c259,0 390,314 208,499l-1167 1167c-55,55 -128,84 -208,84l-8805 0 0 12833 12833 0 0 -4138c0,-77 29,-149 84,-204l0 0zm5709 -7357l-9574 9574 -3296 365c-955,106 -1768,-700 -1663,-1663l365 -3296 9574 -9574c835,-835 2184,-835 3015,0l1575 1575c835,835 835,2187 4,3019zm-3602 1127l-2118 -2118 -6774 6778 -266 2381 2381 -266 6778 -6774zm2363 -2906l-1575 -1575c-149,-149 -394,-149 -540,0l-1127 1127 2118 2118 1127 -1127c146,-153 146,-394 -4,-543l0 0z"/>
 </g>
</svg>
