<svg id="Layer_1" data-name="Layer 1" xmlns="http://www.w3.org/2000/svg" viewBox="0 0 640 242"><title>ember</title><path d="M640,255c-1-11-11-7-11-7s-16,12-29,11-9-32-9-32,3-28-5-30-18,7-18,7-12,14-18,31h-2s2-31,0-38-16-3-19,3-14,49-15,67c0,0-23,20-43,23s-25-9-25-9,55-15,53-59-44-28-49-24-29,18-37,60v8s-21,14-33,18c0,0,33-56-7-81-11-7-21,0-27,5,14-17,46-64,37-105-6-24-18-27-29-23s-23,17-23,17-22,32-27,79-13,105-13,105-10,10-20,11-5-29-5-29,8-45,7-52-1-12-10-14-18,9-18,9-25,39-28,45v1s18-53,1-53-28,19-28,19-20,33-20,37v-2s8-38,6-48-10-7-10-7-11-1-14,6-14,55-15,71c0,0-28,20-47,20s-17-12-17-12,68-23,49-69c-8-12-18-15-32-15s-30,9-41,33c-5,12-7,23-8,32s-12,2-19-3-10,0-10,0-11,14,0,18,28,6,28,6,6,20,20,30,59-1,59-1l16-9s1,15,12,17,16,1,37-48c12-25,13-24,13-24h1s-9,47-6,60,19,11,19,11,8,2,15-21,20-50,20-50h2s-6,48,3,64,31,5,31,5,16-8,18-10,19,16,45,13c58-11,79-26,79-26s10,24,41,27,55-19,55-19,0,14,12,19,21-23,21-23l21-57h2s1,37,22,43,47-14,47-14,6-3,5-14ZM62,260c1-32,22-46,29-39s5,22-9,31S62,260,62,260ZM335,136s19-50,24-25-40,96-40,96C319,191,335,136,335,136Zm23,138c-13,33-43,20-43,20s-3-12,6-45,33-20,33-20S370,241,358,275Zm85-15s-3-11,8-31,20-9,20-9,9,10-1,26-26,14-26,14Z" transform="translate(0 -78)" style="fill:#fff"/></svg>