<svg id="Layer_1" data-name="Layer 1" xmlns="http://www.w3.org/2000/svg" viewBox="0 0 496 496"><title>empire</title><path d="M288,54a194,194,0,0,0-33-4V32A224,224,0,0,1,439,139l-16,9a195,195,0,0,0-20-27l-18,15A180,180,0,0,0,283,78ZM53,322l23-8a180,180,0,0,1,0-117l-23-8a191,191,0,0,1,14-31l-16-9a223,223,0,0,0,0,213l16-9A240,240,0,0,1,53,322ZM213,434a183,183,0,0,1-102-59L93,391a191,191,0,0,1-20-27l-16,9A225,225,0,0,0,242,480V461l-33-4,5-24ZM93,121l18,15A180,180,0,0,1,213,78l-5-24a194,194,0,0,1,34-4V32A224,224,0,0,0,57,139l16,9A187,187,0,0,1,93,121ZM403,391l-18-16a182,182,0,0,1-102,59l5,24-33,4v18A225,225,0,0,0,439,373l-16-9A184,184,0,0,1,403,391Zm93-135c0,137-111,248-248,248S0,393,0,256,111,8,248,8,496,119,496,256Zm-12,0C484,126,378,20,248,20S12,126,12,256,118,492,248,492,484,386,484,256ZM445,149l-16,9a191,191,0,0,1,14,31l-23,8a180,180,0,0,1,0,117l23,8a239,239,0,0,1-14,31l16,9a223,223,0,0,0,0-213ZM262,327a72,72,0,0,0,41-23l51,45a136,136,0,0,0,27-47l-64-22a73,73,0,0,0,0-47l65-22a143,143,0,0,0-27-47l-51,45a73,73,0,0,0-41-24l13-66a126,126,0,0,0-27-3,120,120,0,0,0-27,3l13,66a73,73,0,0,0-41,24l-51-45a142,142,0,0,0-27,47l64,22a73,73,0,0,0,0,47l-64,22a137,137,0,0,0,27,47l51-45a72,72,0,0,0,41,24l-13,67,27,3,27-3-13-67Z" transform="translate(0 -8)" style="fill:#fff"/></svg>