<svg id="Layer_1" data-name="Layer 1" xmlns="http://www.w3.org/2000/svg" viewBox="0 0 383 448"><title>evernote</title><path d="M121,132c2,22-18,22-22,22-69,0-74-1-84,3h0L124,46h0c-4,10-3,15-3,85Zm79,308c-15-37,13-77,53-77,17,0,23,23,8,31s-25,2-25,19,20,25,31,25a46,46,0,0,0,46-46h0c0-12-8-47-48-55-8-2-65-6-68-51-4,17-17,63-43,69-9,2-70,8-113-37,0,0-19-15-28-58-3-16-9-40-11-62s11-30,25-32c81,0,90,2,101-8s8-15,8-103c1-8,8-31,53-24,6,1,32,4,37,31l64,11c20,4,71,7,81,58,23,121,9,238,8,238C362,486,267,480,267,480c-19,0-54-9-67-40Zm81-205c-1,2-2,6,1,7,14,5,40,7,46,6s3-4,2-7c-4-22-41-26-49-6Z" transform="translate(-1 -32)" style="fill:#fff"/></svg>