<svg id="Layer_1" data-name="Layer 1" xmlns="http://www.w3.org/2000/svg" viewBox="0 0 496 496"><title>expeditedssl</title><path d="M248,43C131,43,35,139,35,256s95,213,213,213,213-95,213-213S365,43,248,43ZM151,176a97,97,0,1,1,195,0v27a9,9,0,0,1-9,9H319a9,9,0,0,1-9-9V176c0-82-124-82-124,0v27a9,9,0,0,1-9,9H159a9,9,0,0,1-9-9V176ZM390,380a18,18,0,0,1-18,18H124a18,18,0,0,1-18-18V238a18,18,0,0,1,18-18H372a18,18,0,0,1,18,18ZM142,243V376a4,4,0,0,1-4,4h-9a4,4,0,0,1-4-4V243a4,4,0,0,1,4-4h9A4,4,0,0,1,142,243Zm142,49a35,35,0,0,1-18,30v32a9,9,0,0,1-9,9H239a9,9,0,0,1-9-9V322a35,35,0,1,1,53-30ZM248,8C111,8,0,119,0,256S111,504,248,504,496,393,496,256,385,8,248,8Zm0,478C121,486,18,383,18,256S121,26,248,26,478,129,478,256,375,486,248,486Z" transform="translate(0 -8)" style="fill:#fff"/></svg>