<?xml version="1.0" encoding="UTF-8"?>
<!DOCTYPE svg PUBLIC "-//W3C//DTD SVG 1.1//EN" "http://www.w3.org/Graphics/SVG/1.1/DTD/svg11.dtd">
<!-- Creator: CorelDRAW 2017 -->
<svg xmlns="http://www.w3.org/2000/svg" xml:space="preserve" width="210mm" height="297mm" version="1.1" style="shape-rendering:geometricPrecision; text-rendering:geometricPrecision; image-rendering:optimizeQuality; fill-rule:evenodd; clip-rule:evenodd"
viewBox="0 0 21000 29700"
 xmlns:xlink="http://www.w3.org/1999/xlink">
 <defs>
  <style type="text/css">
   <![CDATA[
    .fil0 {fill:white}
   ]]>
  </style>
 </defs>
 <g id="Layer_x0020_1">
  <metadata id="CorelCorpID_0Corel-Layer"/>
  <path class="fil0" d="M20803 21905l-19622 -15340c-93,-75 -209,-115 -328,-115 -159,0 -310,72 -410,197l-328 410c-75,93 -115,209 -115,329 0,160 73,311 197,410l19622 15340c93,75 209,115 328,115 159,0 310,-72 410,-197l328 -410c75,-93 115,-209 115,-329 0,-160 -73,-311 -197,-410l0 0zm-11065 -10649l4423 3458c-73,-1967 -1677,-3539 -3661,-3539 -256,0 -512,28 -762,81l0 0zm2285 7107l-5184 -3377c73,1966 1677,3539 3661,3539 256,0 512,-28 762,-81l762 -81zm-1523 -8238c3237,0 6205,1805 7807,4725 -393,719 -879,1383 -1444,1975l1238 968c689,-737 1274,-1567 1736,-2464 75,-149 115,-313 115,-479 0,-166 -39,-330 -114,-479 -1781,-3472 -5304,-5821 -9337,-5821 -1204,0 -2353,230 -3433,617l1523 1191c621,-141 1258,-233 1910,-233zm9337 14654c-3237,0 -6204,-1805 -7807,-4725 393,-719 881,-1384 1446,-1976l-1238 -968c-689,737 -1274,1569 -1735,2465 -75,148 -115,312 -115,478 0,166 39,330 114,479 -7558,-1732 -4035,617 -2,617 1204,0 2353,-231 3433,-617l-1523 -1190c-621,141 -1258,233 -1910,233l9337 5204z"/>
 </g>
</svg>
