<?xml version="1.0" encoding="UTF-8"?>
<!DOCTYPE svg PUBLIC "-//W3C//DTD SVG 1.1//EN" "http://www.w3.org/Graphics/SVG/1.1/DTD/svg11.dtd">
<!-- Creator: CorelDRAW 2017 -->
<svg xmlns="http://www.w3.org/2000/svg" xml:space="preserve" width="210mm" height="297mm" version="1.1" style="shape-rendering:geometricPrecision; text-rendering:geometricPrecision; image-rendering:optimizeQuality; fill-rule:evenodd; clip-rule:evenodd"
viewBox="0 0 21000 29700"
 xmlns:xlink="http://www.w3.org/1999/xlink">
 <defs>
  <style type="text/css">
   <![CDATA[
    .fil0 {fill:white}
   ]]>
  </style>
 </defs>
 <g id="Layer_x0020_1">
  <metadata id="CorelCorpID_0Corel-Layer"/>
  <path class="fil0" d="M20873 14318c-1977,-3858 -5891,-6468 -10373,-6468 -4482,0 -8397,2612 -10373,6468 -83,165 -127,347 -127,532 0,185 44,367 127,532 1977,3858 5891,6468 10373,6468 4482,0 8397,-2612 10373,-6468 83,-165 127,-347 127,-532 0,-185 -44,-367 -127,-532l0 0zm-10373 5782c-2899,0 -5250,-2351 -5250,-5250 0,-2899 2351,-5250 5250,-5250 2899,0 5250,2351 5250,5250 0,1 0,2 0,3 0,2898 -2350,5247 -5247,5247 -1,0 -2,0 -3,0l0 0zm5250 -14000c-312,4 -623,51 -923,138 220,299 340,662 340,1034 0,963 -781,1745 -1745,1745 -372,0 -735,-119 -1034,-339 19,-146 28,-296 28,-444 0,-1928 -1564,-3492 -3492,-3492 -1928,0 -3492,1564 -3492,3492 0,1928 1564,3492 3492,3492 547,0 1088,-129 1576,-376l5250 -5250z"/>
 </g>
</svg>
