<svg id="Layer_1" data-name="Layer 1" xmlns="http://www.w3.org/2000/svg" viewBox="0 0 512 512"><title>fantasy-flight-games</title><path d="M256,33,33,256,256,479,479,256ZM88,256l96-97c41-42,86-44,120-19s62,59,62,59,1,3,1,3l-33,35c-34-32-41-38-49-44s-41-10-57,5c-2,2-2,3,0,5l35,36-36,35-37-38-62,61L88,256ZM323,357c-35,35-78,38-107,20s-39-32-73-67l35-36c33,32,37,36,45,42,18,15,43,14,59-2,4-3,4-4,0-7l-32-32c-1-1-3-2-1-5l32-32h2l37,39,61-60,41,40L323,357ZM256,0,0,256,256,512,512,256ZM16,256,256,16,496,256,256,496Z" style="fill:#fff"/></svg>