<?xml version="1.0" encoding="UTF-8"?>
<!DOCTYPE svg PUBLIC "-//W3C//DTD SVG 1.1//EN" "http://www.w3.org/Graphics/SVG/1.1/DTD/svg11.dtd">
<!-- Creator: CorelDRAW 2017 -->
<svg xmlns="http://www.w3.org/2000/svg" xml:space="preserve" width="210mm" height="297mm" version="1.1" style="shape-rendering:geometricPrecision; text-rendering:geometricPrecision; image-rendering:optimizeQuality; fill-rule:evenodd; clip-rule:evenodd"
viewBox="0 0 21000 29700"
 xmlns:xlink="http://www.w3.org/1999/xlink">
 <defs>
  <style type="text/css">
   <![CDATA[
    .fil0 {fill:white}
   ]]>
  </style>
 </defs>
 <g id="Layer_x0020_1">
  <metadata id="CorelCorpID_0Corel-Layer"/>
  <path class="fil0" d="M19688 10913l0 -3394c0,-348 -139,-682 -385,-928l-1856 -1856c-246,-246 -580,-384 -928,-384l-9957 0c-725,0 -1312,588 -1312,1313l0 18375c0,725 588,1312 1313,1312l13125 0c725,0 1313,-588 1313,-1313l0 -11812c0,-725 -588,-1313 -1313,-1313zm-7875 11156c0,362 -294,656 -656,656l-1313 0c-362,0 -656,-294 -656,-656l0 -1313c0,-362 294,-656 656,-656l1312 0c362,0 656,294 656,656l0 1313zm-656 -7219c0,362 -294,656 -656,656l-1313 0c-362,0 -656,-294 -656,-656l0 -1313c0,-362 294,-656 656,-656l1312 0c362,0 656,294 656,656l0 1313zm4594 3281c0,362 -294,656 -656,656l-1313 0c-362,0 -656,-294 -656,-656l0 -1313c0,-362 294,-656 656,-656l1313 0c362,0 656,294 656,656l0 1313zm-656 -7219c0,362 -294,656 -656,656l-1313 0c-362,0 -656,-294 -656,-656l0 -1313c0,-362 294,-656 656,-656l1313 0c362,0 656,294 656,656l0 1313zm-656 -6563l-6563 0 0 2625 6563 0 0 1969c0,362 294,656 656,656l1969 0 -2625 -5250zm-11813 5250l-1313 0c-725,0 -1312,588 -1312,1313l0 13125c0,725 588,1312 1313,1312l1312 0c725,0 1313,-588 1313,-1313l0 -13125c0,-725 -588,-1313 -1312,-1313l0 0z"/>
 </g>
</svg>
