<svg id="Layer_1" data-name="Layer 1" xmlns="http://www.w3.org/2000/svg" viewBox="0 0 640 191"><title>fedex</title><path d="M586,285l53-60H577l-22,25-22-25H414V209h56V161H319v76h0c-10-11-21-15-35-15-28,0-50,19-57,45-18-59-97-58-122-14V228H49V202h60V161H0V345H49V268H98a71,71,0,0,0-2,18c0,73,103,91,130,24H184c-15,21-46,9-46-15h86c4,31,27,57,60,57a42,42,0,0,0,35-19h1v12H531l22-25,22,25h64ZM139,268c6-26,42-26,47,0Zm153,49c-35,0-34-63,0-63S327,317,293,317Zm168,19H366V169h95v30H405v34h56v28H404v45h56v30Zm-46-40V272h56V228l51,57-51,57V296Zm139,10-26,30H489l46-51-46-51h40l27,29,26-29h39l-45,51,46,51H579l-26-29Z" transform="translate(0 -161)" style="fill:#fff"/></svg>