<svg id="Layer_1" data-name="Layer 1" xmlns="http://www.w3.org/2000/svg" viewBox="0 0 448 448"><title>fedora</title><path d="M225,32C101,32,1,132,0,255V426a54,54,0,0,0,53,54H224c124,0,224-100,225-223S349,32,225,32ZM395,189l-62-63c2-5,4-9,4-14v-2l55,56a101,101,0,0,1,3,22ZM331,94a106,106,0,0,1,59,64l-54-55A26,26,0,0,0,331,94ZM118,247a50,50,0,0,0-8,11l-8-8,16-3Zm-21,4,12,12v8a35,35,0,0,0,2,13L83,257l14-5Zm-18,7,38,38-14,5L68,266ZM64,269l35,36-10,9L54,278l10-9ZM50,281l35,35-8,11L42,291ZM39,295l36,37a48,48,0,0,0-4,15L33,307l7-12Zm-9,16,41,42a63,63,0,0,0,7,26L26,326l5-14Zm-8,43,62,62a31,31,0,0,0-4,14h0L26,376A88,88,0,0,1,23,354Zm5,31,54,55a28,28,0,0,0,4,9,106,106,0,0,1-58-64Zm-5-37a81,81,0,0,1,2-17l72,73a38,38,0,0,0-10,9Zm253-52H233v56c0,69-64,116-126,103-6,0-20-9-20-24a25,25,0,0,1,24-25l16,2a56,56,0,0,0,56-56h0V305c0-4-4-9-9-9H142c-33,0-33-49,0-49h43V191A105,105,0,0,1,290,86h0l20,2c11,2,20,12,20,24s-15,28-30,24c-27-6-66,14-66,55v47a9,9,0,0,0,9,9h34c33,0,32,49,0,49Zm24,0a36,36,0,0,0,8-11l9,9Zm21-4-12-12v-8a35,35,0,0,0-2-12l27,27-14,5Zm18-7-38-38,14-5,36,36-12,7Zm16-10-35-36,11-8,35,35Zm13-12-35-35,8-11,36,36Zm11-14-36-37a48,48,0,0,0,4-15l40,40-7,12Zm14-31-5,14-41-41a58,58,0,0,0-7-26Zm1-6-72-72a32,32,0,0,0,10-9l64,65a91,91,0,0,1-2,17Z" transform="translate(0 -32)" style="fill:#fff"/></svg>