<?xml version="1.0" encoding="UTF-8"?>
<!DOCTYPE svg PUBLIC "-//W3C//DTD SVG 1.1//EN" "http://www.w3.org/Graphics/SVG/1.1/DTD/svg11.dtd">
<!-- Creator: CorelDRAW 2017 -->
<svg xmlns="http://www.w3.org/2000/svg" xml:space="preserve" width="210mm" height="297mm" version="1.1" style="shape-rendering:geometricPrecision; text-rendering:geometricPrecision; image-rendering:optimizeQuality; fill-rule:evenodd; clip-rule:evenodd"
viewBox="0 0 21000 29700"
 xmlns:xlink="http://www.w3.org/1999/xlink">
 <defs>
  <style type="text/css">
   <![CDATA[
    .fil0 {fill:white}
   ]]>
  </style>
 </defs>
 <g id="Layer_x0020_1">
  <metadata id="CorelCorpID_0Corel-Layer"/>
  <path class="fil0" d="M20229 6204l-4588 -4588c-492,-492 -1159,-771 -1854,-771l-11162 0c-1449,5 -2625,1181 -2625,2630l0 22750c0,1449 1176,2625 2625,2625l15750 0c1449,0 2625,-1176 2625,-2625l0 -18162c0,-695 -279,-1367 -771,-1859l0 0zm-2067 1646l-4162 0 0 -4162 4162 4162zm-15537 18375l0 -22750 8750 0 0 5688c0,727 585,1313 1313,1313l5688 0 0 15750 -15750 0zm11594 -13125l-1575 0c-241,0 -459,131 -574,345 -984,1810 -1214,2319 -1564,3155 -760,-1591 -377,-946 -1564,-3155 -115,-213 -339,-345 -580,-345l-1580 0c-509,0 -820,547 -569,984l2532 4266 -2532 4266c-257,438 60,984 569,984l1580 0c241,0 459,-131 574,-345 1187,-2188 1258,-2461 1564,-3155 815,1652 323,870 1564,3155 115,213 339,345 580,345l1575 0c509,0 820,-547 569,-984l-2538 -4266c38,-60 1657,-2762 2532,-4266 257,-438 -60,-984 -563,-984l0 0z"/>
 </g>
</svg>
