<?xml version="1.0" encoding="UTF-8"?>
<!DOCTYPE svg PUBLIC "-//W3C//DTD SVG 1.1//EN" "http://www.w3.org/Graphics/SVG/1.1/DTD/svg11.dtd">
<!-- Creator: CorelDRAW 2017 -->
<svg xmlns="http://www.w3.org/2000/svg" xml:space="preserve" width="210mm" height="297mm" version="1.1" style="shape-rendering:geometricPrecision; text-rendering:geometricPrecision; image-rendering:optimizeQuality; fill-rule:evenodd; clip-rule:evenodd"
viewBox="0 0 21000 29700"
 xmlns:xlink="http://www.w3.org/1999/xlink">
 <defs>
  <style type="text/css">
   <![CDATA[
    .fil0 {fill:white}
   ]]>
  </style>
 </defs>
 <g id="Layer_x0020_1">
  <metadata id="CorelCorpID_0Corel-Layer"/>
  <path class="fil0" d="M12250 8288l0 -7438 -10938 0c-727,0 -1313,585 -1313,1313l0 25375c0,727 585,1313 1313,1313l18375 0c727,0 1313,-585 1313,-1313l0 -17938 -7438 0c-722,0 -1313,-591 -1313,-1313zm8750 -771l0 334 -7000 0 0 -7000 334 0c350,0 684,137 930,383l5354 5359c246,246 383,580 383,924z"/>
 </g>
</svg>
