<svg id="Layer_1" data-name="Layer 1" xmlns="http://www.w3.org/2000/svg" viewBox="0 0 496 495"><title>firefox</title><path d="M504,241c0-2,0-3,0-5h0v-5h0a246,246,0,0,0-7-41h0v-4h0v-4h0v-3h0v-3h0v-3h0v-3h0v-3h0l-5-11h0V117l-2-2v-2l-2-3h-1l-3-4a249,249,0,0,0-24-27L412,62,400,53a162,162,0,0,0-25-15l-7-4a254,254,0,0,0-55-20h-9a236,236,0,0,0-38-4H255a235,235,0,0,0-45,5c-34,7-63,21-83,39l-2,2h0c15-9,35-16,49-20h13c64-12,133,8,180,53a171,171,0,0,1,27,33c30,49,27,111,4,148-34,53-111,71-159,25a84,84,0,0,1-26-59,74,74,0,0,1,6-31c2-4,13-26,18-25-13-3-38,3-55,28s-15,58-5,83a133,133,0,0,1-12-39c-12-83,43-153,94-171-27-24-96-22-148,15-30,22-51,53-63,90,2-21,10-52,26-84-17,9-39,37-50,63C10,200,5,245,10,287v10C31,414,133,503,256,503c137,0,248-111,248-248C504,250,504,246,504,241Z" transform="translate(-8 -9)" style="fill:#fff"/></svg>