<svg id="Layer_1" data-name="Layer 1" xmlns="http://www.w3.org/2000/svg" viewBox="0 0 487 503"><title>firefox-browser</title><path d="M131,123h0Zm351,45c-11-25-32-53-49-62,14,27,22,54,25,74h0c-28-69-74-96-113-157l-6-9-3-5a45,45,0,0,1-4-10h-1c-54,32-77,87-83,123a130,130,0,0,0-48,12,6,6,0,0,0-3,8,6,6,0,0,0,8,4h1a118,118,0,0,1,42-11h7a123,123,0,0,1,35,5h2l6,2,4,2h3l5,2h2l5,3,3,2a125,125,0,0,1,43,44c-13-9-36-18-59-14,88,44,64,195-57,189a108,108,0,0,1-32-6l-7-3-4-2c-30-15-54-44-58-80,0,0,11-42,81-42,8,0,29-21,29-27s-43-19-59-35l-17-16-6-5a113,113,0,0,1-1-60c-25,11-45,29-59,45h0c-10-12-9-53-8-61l-8,4a179,179,0,0,0-24,20,214,214,0,0,0-23,27h0a206,206,0,0,0-33,74s-2,10-4,22v6c-1,4-1,8-1,14h0v8h0c0,135,109,244,244,244,121,0,221-88,240-203v-9c5-42-1-86-16-123Z" transform="translate(-12 0)" style="fill:#fff"/></svg>