<svg id="Layer_1" data-name="Layer 1" xmlns="http://www.w3.org/2000/svg" viewBox="0 0 496 496"><title>first-order-alt</title><path d="M248,8C111,8,0,119,0,256S111,504,248,504,496,393,496,256,385,8,248,8Zm0,488C115,496,8,389,8,256S115,16,248,16,488,123,488,256,381,496,248,496Zm0-460C127,36,28,135,28,256s98,220,220,220,220-98,220-220S369,36,248,36Zm0,431C131,468,36,373,36,256S131,44,248,44s212,95,212,212S365,468,248,468ZM434,305a192,192,0,0,1-20,49l-74-36,61,55a194,194,0,0,1-37,37l-55-62,36,74a191,191,0,0,1-49,20l-27-78,5,83-26,2-26-2,5-82-27,78a191,191,0,0,1-49-20l36-74-55,62a194,194,0,0,1-37-37l62-55L82,353a192,192,0,0,1-20-49l78-27-82,5a194,194,0,0,1,0-53l82,5L62,207a192,192,0,0,1,20-49l74,36L95,139a194,194,0,0,1,37-37l55,62L151,90a191,191,0,0,1,49-20l27,77-5-82,26-2,26,2-5,82,27-78a191,191,0,0,1,49,20l-36,74,55-61a193,193,0,0,1,37,37l-61,55,74-36a192,192,0,0,1,20,49l-78,27,82-5a194,194,0,0,1,0,53l-82-5,78,27Z" transform="translate(0 -8)" style="fill:#fff"/></svg>