<svg id="Layer_1" data-name="Layer 1" xmlns="http://www.w3.org/2000/svg" viewBox="0 0 439 512"><title>first-order</title><path d="M13,229h0ZM224,97l-21,2,4,67-22-64a157,157,0,0,0-40,17l29,61-45-51a166,166,0,0,0-31,31l51,45L88,175a161,161,0,0,0-17,40l64,23-68-4a177,177,0,0,0-1,22,193,193,0,0,0,1,22l68-4L71,296a164,164,0,0,0,17,40l61-30L98,352a151,151,0,0,0,31,31l45-51-29,61a154,154,0,0,0,40,17l22-65-4,68,22,2,22-2-4-69,23,65a158,158,0,0,0,40-17l-29-61,45,51a149,149,0,0,0,31-31l-51-45,61,29a158,158,0,0,0,17-40l-64-22,67,4a141,141,0,0,0,1-22,145,145,0,0,0-1-22l-68,4,64-22a149,149,0,0,0-17-40l-61,30,51-45a166,166,0,0,0-31-31l-45,51,29-61a154,154,0,0,0-40-17l-22,64,4-68Zm219,31V384L224,512,5,384V128L224,0Zm-17,10L224,21,22,138V373L224,491,426,373ZM224,37,412,147V365L224,475,36,365V147Zm0,51C132,88,57,163,57,256s75,168,167,168,167-75,167-168S316,88,224,88Z" transform="translate(-5)" style="fill:#fff"/></svg>