<?xml version="1.0" encoding="UTF-8"?>
<!DOCTYPE svg PUBLIC "-//W3C//DTD SVG 1.1//EN" "http://www.w3.org/Graphics/SVG/1.1/DTD/svg11.dtd">
<!-- Creator: CorelDRAW 2017 -->
<svg xmlns="http://www.w3.org/2000/svg" xml:space="preserve" width="210mm" height="297mm" version="1.1" style="shape-rendering:geometricPrecision; text-rendering:geometricPrecision; image-rendering:optimizeQuality; fill-rule:evenodd; clip-rule:evenodd"
viewBox="0 0 21000 29700"
 xmlns:xlink="http://www.w3.org/1999/xlink">
 <defs>
  <style type="text/css">
   <![CDATA[
    .fil0 {fill:white}
   ]]>
  </style>
 </defs>
 <g id="Layer_x0020_1">
  <metadata id="CorelCorpID_0Corel-Layer"/>
  <path class="fil0" d="M13788 7631c-2015,0 -3827,-1313 -6641,-1313 -1284,0 -2391,266 -3311,622 67,-200 101,-411 101,-623 0,-76 -5,-152 -13,-227 -107,-938 -882,-1675 -1824,-1736 -1147,-74 -2100,834 -2100,1964 0,729 396,1364 984,1705l0 16670c0,362 294,656 656,656l656 0c362,0 656,-294 656,-656l0 -3422c1553,-709 2923,-1171 5243,-1171 2015,0 3827,1313 6641,1313 2399,0 4182,-928 5272,-1640 556,-363 891,-983 891,-1647l0 -9840c0,-1413 -1446,-2369 -2744,-1809 -1473,635 -3013,1156 -4468,1156zm5243 10500c-893,632 -2495,1313 -4194,1313 -2459,0 -4184,-1313 -6641,-1313 -1778,0 -3953,386 -5243,984l0 -9516c893,-632 2495,-1313 4194,-1313 2459,0 4184,1313 6641,1313 1775,0 3951,-712 5243,-1313l0 9844z"/>
 </g>
</svg>
