<svg id="Layer_1" data-name="Layer 1" xmlns="http://www.w3.org/2000/svg" viewBox="0 0 328 512"><title>fly</title><path d="M198,428c13,12,34,33,33,51v3c-2,20-19,31-39,31s-40-17-39-36,21-37,32-48l6-4C195,425,195,425,198,428ZM332,67c-16-26-39-41-63-52S214,0,192,0c-44,0-71,13-81,17C57,45,27,87,28,159c7,82,97,176,156,234l6,5h3l4-2c52-49,141-146,156-216,7-39,3-72-21-113ZM187,352c-28-51-65-131-69-189-3-47,11-131,69-137V352ZM329,180c-16,57-77,128-119,170,28-52,65-133,67-192,2-46-10-106-48-131C318,45,345,125,329,180Z" transform="translate(-28 0)" style="fill:#fff"/></svg>