<?xml version="1.0" encoding="UTF-8"?>
<!DOCTYPE svg PUBLIC "-//W3C//DTD SVG 1.1//EN" "http://www.w3.org/Graphics/SVG/1.1/DTD/svg11.dtd">
<!-- Creator: CorelDRAW 2017 -->
<svg xmlns="http://www.w3.org/2000/svg" xml:space="preserve" width="210mm" height="297mm" version="1.1" style="shape-rendering:geometricPrecision; text-rendering:geometricPrecision; image-rendering:optimizeQuality; fill-rule:evenodd; clip-rule:evenodd"
viewBox="0 0 21000 29700"
 xmlns:xlink="http://www.w3.org/1999/xlink">
 <defs>
  <style type="text/css">
   <![CDATA[
    .fil0 {fill:white}
   ]]>
  </style>
 </defs>
 <g id="Layer_x0020_1">
  <metadata id="CorelCorpID_0Corel-Layer"/>
  <path class="fil0" d="M19031 9600l-7875 0 -2241 -2241c-246,-246 -580,-384 -928,-384l-6019 0c-1087,0 -1969,881 -1969,1969l0 11813c0,1087 881,1969 1969,1969l17063 0c1087,0 1969,-881 1969,-1969l0 -9188c0,-1087 -881,-1969 -1969,-1969zm0 11156l-17063 0 0 -11813 5747 0 2241 2241c246,246 580,384 928,384l8147 0 0 9188z"/>
 </g>
</svg>
