<svg id="Layer_1" data-name="Layer 1" xmlns="http://www.w3.org/2000/svg" viewBox="0 0 448 448"><title>font-awesome-alt</title><path d="M339,171c-6,0-30,16-53,16a31,31,0,0,1-12-2c-20-8-37-14-59-14s-42,7-60,14l-5,2V168a32,32,0,0,0,13-26,32,32,0,1,0-65,0,33,33,0,0,0,13,26V380a20,20,0,0,0,20,20,19,19,0,0,0,19-14h0a13,13,0,0,0,1-5V336h3c20-8,43-17,66-17s43,16,69,16,36-7,52-14c4-2,7-4,7-8V178C349,174,345,171,339,171ZM398,32H50A50,50,0,0,0,0,82V430a50,50,0,0,0,50,50H398a50,50,0,0,0,50-50V82a50,50,0,0,0-50-50Zm14,398a14,14,0,0,1-14,14H50a14,14,0,0,1-14-14V82A14,14,0,0,1,50,68H398a14,14,0,0,1,14,14Z" transform="translate(0 -32)" style="fill:#fff"/></svg>