<svg id="Layer_1" data-name="Layer 1" xmlns="http://www.w3.org/2000/svg" viewBox="0 0 3992 512"><title>font-awesome-logo-full</title><path d="M455,0H57A58,58,0,0,0,0,57V455c0,31,26,57,57,57H455a58,58,0,0,0,57-57V57A58,58,0,0,0,455,0ZM396,325c0,5-4,7-9,9-19,8-40,16-61,16-40,0-69-45-163,3v52c0,30-46,30-46,0V154a38,38,0,1,1,47,0v21c37-12,66-34,146-3,27,11,69-16,77-16s10,4,10,9V325ZM829,151H692v70H825c40,0,40,62,0,62H692V389c0,46-71,46-71,0V128a40,40,0,0,1,40-40H828c40,0,41,62,0,62Zm191,23c-169,0-169,252,0,252s170-252,0-252Zm0,196c-82,0-82-140,0-140S1102,370,1020,370Zm372,53a31,31,0,0,1-31-31V275c0-62-73-52-99-16V392c0,42-63,42-63,0V208c0-40,63-42,63,0v3c43-52,162-60,162,39V392C1424,423,1392,424,1392,424Zm180,3c-44,0-68-23-68-66V235h-15c-36,0-37-55,0-55h16V143c0-41,64-42,64,0v38h25c35,0,36,55,0,55h-25V344c0,30,26,26,27,26,31,0,53,56-23,56Zm420-303c-19-50-95-50-114,0-107,276-99,253-99,263,0,43,58,51,72,14l14-36h142l13,36c14,38,72,27,72-14,0-10,5,7-99-263ZM1883,302l52-143,52,143Zm591-86-54,176c-12,41-72,41-84,0l-42-136-42,136c-12,41-72,41-84,0l-54-176c-12-39,50-56,60-17l39,142,45-139c11-33,60-35,71,0l45,140,39-142c10-38,73-24,60,17Zm275,75c0-42-34-117-119-117-73,0-124,56-124,126s55,126,129,126c32,0,93-11,93-40s-21-31-39-22c-49,26-109,8-116-44h148c16,0,29-13,29-29Zm-179-14c10-73,114-69,119,0Zm317,149c-31,0-82-10-97-32s3-40,22-40,37,23,78,23c27,0,40-11,40-26,0-40-143-7-143-102,0-40,35-76,99-76,31,0,74,10,88,29s-1,36-21,36-27-17-66-17c-23,0-38,11-38,24,0,36,142,6,142,103,0,44-37,77-104,77Zm267-252c-169,0-169,252,0,252S3324,174,3155,174Zm0,196c-82,0-82-140,0-140S3237,370,3155,370Zm477,22V269c0-54-61-46-86-10V392c0,41-64,42-64,0V269c0-52-59-47-86-10V392c0,42-63,42-63,0V208c0-40,63-42,63,0v3c10-14,42-37,79-37s58,16,67,44c14-22,46-44,83-44s71,23,71,73V392c1,17-13,31-32,31,4,0-31,1-31-31Zm361-101c0-42-32-117-118-117-73,0-127,56-127,126s58,126,132,126c32,0,92-11,92-40s-21-31-39-22c-49,26-110,8-117-44h150a29,29,0,0,0,29-29Zm-180-14c10-74,116-68,120,0Z" style="fill:#fff"/></svg>