<svg id="Layer_1" data-name="Layer 1" xmlns="http://www.w3.org/2000/svg" viewBox="0 0 448 448"><title>fonticons</title><path d="M0,32V480H448V32ZM187,173c-18,0-19,10-19,27v23c0,2-3,4-1,4h67l-11,37H168V378c0,6-2,7,3,7l44,4v25H84V389l21-2c5-1,7-2,7-8V268c0-2-3-2-6-2H84V228h28V207c0-50,27-70,77-70,34,0,65,8,65,53l-51,6c0-19-4-23-16-23Zm74,242V390l20-3c5-1,8-2,8-7V272c0-4-3-7-7-8l-24-6,7-29h80V380c0,6-3,6,3,7l16,3v25Zm81-255,9,33-7,7-31-17-31,17-7-7,9-33-22-24,4-10h28l16-28h9l16,28h28l4,10Z" transform="translate(0 -32)" style="fill:#fff"/></svg>