<svg id="Layer_1" data-name="Layer 1" xmlns="http://www.w3.org/2000/svg" viewBox="0 0 448 448"><title>font-awesome</title><path d="M398,32H50A50,50,0,0,0,0,82V430a50,50,0,0,0,50,50H398a50,50,0,0,0,50-50V82a50,50,0,0,0-50-50ZM352,316c0,4-4,6-8,8-17,7-35,14-54,14s-39-17-72-17-48,8-67,17h-4v45a12,12,0,0,1-1,5h0a20,20,0,0,1-19,14,20,20,0,0,1-20-20V166a33,33,0,1,1,54-26,32,32,0,0,1-13,26v19l5-2c19-8,41-14,62-14s41,6,61,14a32,32,0,0,0,13,2c23,0,48-16,54-16s9,4,9,8V316Z" transform="translate(0 -32)" style="fill:#fff"/></svg>