<svg id="Layer_1" data-name="Layer 1" xmlns="http://www.w3.org/2000/svg" viewBox="0 0 384 432"><title>fonticons-fi</title><path d="M114,224h92l-15,51H115V433c0,8-3,9,4,10l60,6v34H0V448l29-3c7-1,9-3,9-11V278c0-3-4-3-8-3H0V224H38V195c0-68,36-96,106-96,47,0,89,11,89,72l-70,8c0-26-6-32-22-32s-26,14-26,38v32C115,221,110,224,114,224ZM384,483H243V449l28-4c7-1,10-2,10-10V287c0-6-4-9-9-11l-33-9,9-40H358V435c0,8-4,9,4,10l22,4ZM354,136l12,46-10,10-43-23-43,23-10-10,12-46L243,99l5-10h38l21-38h13l21,38h38l5,13-30,33Z" transform="translate(0 -51)" style="fill:#fff"/></svg>