<svg id="Layer_1" data-name="Layer 1" xmlns="http://www.w3.org/2000/svg" viewBox="0 0 496 496"><title>fort-awesome-alt</title><path d="M208,237H186a4,4,0,0,0-4,4v52a4,4,0,0,0,4,4h22a4,4,0,0,0,4-4V241A4,4,0,0,0,208,237Zm118,0H304a4,4,0,0,0-4,4v52a4,4,0,0,0,4,4h22a4,4,0,0,0,4-4V241A4,4,0,0,0,326,237ZM458,112l-7-9a248,248,0,0,0-33-34L404,57l-5-3a247,247,0,0,0-94-41,253,253,0,0,0-100,0,245,245,0,0,0-93,41l-5,4L94,69l-9,8-8,8L61,103l-7,10A247,247,0,0,0,8,256c0,2,0,4,0,6a13,13,0,0,1,0,2v6c0,1,0,3,0,4v59l2,5v28l2,3h0l7,12h1l2,3h1l2,3h1l2,3h1l2,3h1a248,248,0,0,0,160,99h82c66-11,123-48,160-102h1l2-3h1l2-3h1l2-3h1l2-3h1l7-12h0l2-3v-2l2-3V335l2-5V271c0,2,0,1,0-1v-2c0-1,0-3,0-4a13,13,0,0,0,0-2c0-2,0-4,0-6a247,247,0,0,0-46-144ZM448,372a227,227,0,0,1-34,43,223,223,0,0,1-114,61V400c0-59-89-59-89,0v76a217,217,0,0,1-43-13,223,223,0,0,1-71-48,227,227,0,0,1-34-43V300a4,4,0,0,1,4-4H90a4,4,0,0,1,4,4v26h30V182a4,4,0,0,1,4-4h22a4,4,0,0,1,4,4v26h30V182a4,4,0,0,1,4-4h22a4,4,0,0,1,4,4v26h30V182c0-5,7-4,10-4V88a13,13,0,0,1-7-11c0-17,25-17,25,0a13,13,0,0,1-7,12v4l19-2c9,0,18,4,26,4s15-3,19-3a4,4,0,0,1,4,4v48c0,6-19,7-22,7s-17-3-25-3l-21,3v31c3,0,10-1,10,4v26h30V182a4,4,0,0,1,4-4h22a4,4,0,0,1,4,4v26h30V182a4,4,0,0,1,4-4h22a4,4,0,0,1,4,4V326h30V300a4,4,0,0,1,4-4h22a4,4,0,0,1,4,4Z" transform="translate(-8 -8)" style="fill:#fff"/></svg>