<svg id="Layer_1" data-name="Layer 1" xmlns="http://www.w3.org/2000/svg" viewBox="0 0 476 512"><title>fort-awesome</title><path d="M489,288H462a5,5,0,0,0-5,5v32H421V146a5,5,0,0,0-5-5H389a5,5,0,0,0-5,5v32H347V146a5,5,0,0,0-5-5H315a5,5,0,0,0-5,5v32H274V146c0-6-8-5-12-5V104a111,111,0,0,1,26-3c11,0,21,4,31,4s28-1,28-8V36a5,5,0,0,0-5-5c-5,0-15,4-24,4s-21-4-33-4l-24,3V30a16,16,0,0,0,9-14c0-21-31-21-31,0a16,16,0,0,0,9,14V142c-4,0-12-1-12,5v32H201V146a5,5,0,0,0-5-5H169a5,5,0,0,0-5,5v32H128V146a5,5,0,0,0-5-5H96a5,5,0,0,0-5,5V325H55V293a5,5,0,0,0-5-5H23a5,5,0,0,0-5,5V512H201V416c0-73,110-73,110,0v96H494V293a4,4,0,0,0-4-5Zm-288-4a5,5,0,0,1-5,5H169a5,5,0,0,1-5-5V219a5,5,0,0,1,5-5h27a5,5,0,0,1,5,5Zm146,0a5,5,0,0,1-5,5H316a5,5,0,0,1-5-5V219a5,5,0,0,1,5-5h27a5,5,0,0,1,5,5Z" transform="translate(-18 0)" style="fill:#fff"/></svg>