<svg id="Layer_1" data-name="Layer 1" xmlns="http://www.w3.org/2000/svg" viewBox="0 0 448 448"><title>forumbee</title><path d="M6,310a236,236,0,0,1-6-51C0,135,100,35,223,35a232,232,0,0,1,49,6C149,88,52,186,6,310ZM399,121a221,221,0,0,0-48-45A458,458,0,0,0,41,387c13,18,28,36,45,49,43-151,161-272,312-316Zm16,253a220,220,0,0,0,30-83c-79,43-145,111-188,190a222,222,0,0,0,85-31,1061,1061,0,0,0,107,34C439,447,428,409,414,373Zm30-145a212,212,0,0,0-16-57C291,217,182,328,137,466a225,225,0,0,0,57,15c46-114,137-207,251-254Z" transform="translate(0 -35)" style="fill:#fff"/></svg>