<svg id="Layer_1" data-name="Layer 1" xmlns="http://www.w3.org/2000/svg" viewBox="0 0 496 496"><title>galactic-republic</title><path d="M248,504C111,504,0,393,0,256S111,8,248,8,496,119,496,256,385,504,248,504Zm0-479C120,25,17,128,17,256S120,487,248,487,479,384,479,256,376,25,248,25Zm28,22V71a186,186,0,0,1,84,35l17-17A210,210,0,0,0,276,46Zm-55,0A210,210,0,0,0,119,88l17,17h0a186,186,0,0,1,84-35Zm12,50v83a78,78,0,0,0-28,11l-59-59-22,22,59,59a78,78,0,0,0-11,28H89v31h83a78,78,0,0,0,11,28l-59,59,22,22,59-59a78,78,0,0,0,28,11v83h31V333a78,78,0,0,0,28-12l59,59,22-22-59-59a78,78,0,0,0,12-28h83V240H325a78,78,0,0,0-11-28l59-59-22-22-59,59a78,78,0,0,0-28-11V97Zm183,31-17,17a186,186,0,0,1,35,84h25A211,211,0,0,0,416,127ZM80,127A210,210,0,0,0,38,228H63a186,186,0,0,1,35-84L80,127ZM38,284A210,210,0,0,0,80,385l17-17a186,186,0,0,1-35-84H38Zm395,0a186,186,0,0,1-35,84l17,17a211,211,0,0,0,42-101H433ZM137,406l-17,17a210,210,0,0,0,101,42V441a186,186,0,0,1-84-35Zm223,0a186,186,0,0,1-84,35v25a210,210,0,0,0,101-42l-17-17Z" transform="translate(0 -8)" style="fill:#fff"/></svg>