<svg id="Layer_1" data-name="Layer 1" xmlns="http://www.w3.org/2000/svg" viewBox="0 0 512 443"><title>galactic-senate</title><path d="M250,33V60c-14,21-24,109-24,215,12-16,19-33,19-48V210a56,56,0,0,1,2-16l3-6a8,8,0,0,1,13,0l3,6a56,56,0,0,1,2,16v17c0,15,7,33,19,48-1-107-11-195-24-215V33H250ZM224,181l-27,9c9,16,10,33,2,37s-22-4-31-20a153,153,0,0,0-31,31c15,10,23,23,18,31s-20,7-35-1a155,155,0,0,0-12,42,63,63,0,0,1,26,6c18,0,33-2,40-4a86,86,0,0,1,46-60c1-26,2-50,3-72Zm65,0c2,22,3,47,3,72a86,86,0,0,1,46,60c8,2,23,4,40,4a63,63,0,0,1,26-6,155,155,0,0,0-12-42c-15,8-31,9-35,1s4-21,18-31a153,153,0,0,0-31-31c-10,16-23,24-31,20s-7-21,2-37l-27-9Zm-32,9c-3,0-6,9-6,20h0v17c0,41-49,95-93,95S34,320,0,351v3a289,289,0,0,0,33,48c13-21,52-41,108-41,46,1,79,20,91,41,0,0,0,0,0,0a92,92,0,0,0,48,0s0,0,0,0c12-21,45-40,91-41,56,0,95,20,108,41a289,289,0,0,0,33-48v-3c-34-31-104-29-156-29s-93-54-93-95V210h0c0-11-3-20-6-20Zm0,97a41,41,0,1,1-41,41A41,41,0,0,1,256,286Zm0,8a33,33,0,1,0,33,33A33,33,0,0,0,256,294Zm0,6a27,27,0,1,1-27,27A27,27,0,0,1,256,300ZM141,367l-30,2c0,4,2,19,7,30a102,102,0,0,1,28-4c41,1,71,34,78,74v5a178,178,0,0,0,64,0v-5c7-40,37-74,78-74a102,102,0,0,1,28,4c6-11,7-25,7-30l-30-2a136,136,0,0,0-49,10c-13,16-29,30-50,33h0l-16,2-16-2h0c-20-3-37-17-50-33a137,137,0,0,0-49-10Z" transform="translate(0 -33)" style="fill:#fff"/></svg>