<?xml version="1.0" encoding="UTF-8"?>
<!DOCTYPE svg PUBLIC "-//W3C//DTD SVG 1.1//EN" "http://www.w3.org/Graphics/SVG/1.1/DTD/svg11.dtd">
<!-- Creator: CorelDRAW 2017 -->
<svg xmlns="http://www.w3.org/2000/svg" xml:space="preserve" width="210mm" height="297mm" version="1.1" style="shape-rendering:geometricPrecision; text-rendering:geometricPrecision; image-rendering:optimizeQuality; fill-rule:evenodd; clip-rule:evenodd"
viewBox="0 0 21000 29700"
 xmlns:xlink="http://www.w3.org/1999/xlink">
 <defs>
  <style type="text/css">
   <![CDATA[
    .fil0 {fill:white}
   ]]>
  </style>
 </defs>
 <g id="Layer_x0020_1">
  <metadata id="CorelCorpID_0Corel-Layer"/>
  <path class="fil0" d="M10177 855c-5747,172 -10177,5186 -10177,10935l0 14433c0,780 942,1170 1494,619l1363 -1013c364,-271 875,-218 1176,121l2349 2644c342,342 896,342 1238,0l2227 -2507c348,-392 960,-392 1308,0l2227 2507c342,342 896,342 1238,0l2349 -2644c301,-339 812,-392 1176,-121l1363 1013c551,551 1494,161 1494,-619l0 -14873c0,-5906 -4876,-10673 -10823,-10495zm-3177 12245c-966,0 -1750,-784 -1750,-1750 0,-966 784,-1750 1750,-1750 966,0 1750,784 1750,1750 0,966 -784,1750 -1750,1750zm7000 0c-966,0 -1750,-784 -1750,-1750 0,-966 784,-1750 1750,-1750 966,0 1750,784 1750,1750 0,966 -784,1750 -1750,1750z"/>
 </g>
</svg>
