<?xml version="1.0" encoding="UTF-8"?>
<!DOCTYPE svg PUBLIC "-//W3C//DTD SVG 1.1//EN" "http://www.w3.org/Graphics/SVG/1.1/DTD/svg11.dtd">
<!-- Creator: CorelDRAW 2017 -->
<svg xmlns="http://www.w3.org/2000/svg" xml:space="preserve" width="210mm" height="297mm" version="1.1" style="shape-rendering:geometricPrecision; text-rendering:geometricPrecision; image-rendering:optimizeQuality; fill-rule:evenodd; clip-rule:evenodd"
viewBox="0 0 21000 29700"
 xmlns:xlink="http://www.w3.org/1999/xlink">
 <defs>
  <style type="text/css">
   <![CDATA[
    .fil0 {fill:white}
   ]]>
  </style>
 </defs>
 <g id="Layer_x0020_1">
  <metadata id="CorelCorpID_0Corel-Layer"/>
  <path class="fil0" d="M1313 22725c0,726 587,1313 1313,1313l6563 0 0 -6563 -7875 0 0 5250zm10500 1313l6563 0c726,0 1313,-587 1313,-1313l0 -5250 -7875 0 0 6563zm7875 -13125l-1727 0c254,-496 414,-1046 414,-1641 0,-1989 -1620,-3609 -3609,-3609 -1706,0 -2810,874 -4225,2801 -1415,-1928 -2518,-2801 -4225,-2801 -1989,0 -3609,1620 -3609,3609 0,595 156,1144 414,1641l-1809 0c-726,0 -1313,587 -1313,1313l0 3281c0,361 295,656 656,656l19688 0c361,0 656,-295 656,-656l0 -3281c0,-726 -587,-1313 -1313,-1313zm-13375 0c-906,0 -1641,-734 -1641,-1641 0,-906 734,-1641 1641,-1641 816,0 1419,135 3531,3281l-3531 0zm8453 0l-3531 0c2108,-3138 2695,-3281 3531,-3281 906,0 1641,734 1641,1641 0,906 -734,1641 -1641,1641l0 0z"/>
 </g>
</svg>
