<svg id="Layer_1" data-name="Layer 1" xmlns="http://www.w3.org/2000/svg" viewBox="0 0 448 448"><title>git-square</title><path d="M101,334c49,3,59,2,59,12s-66,20-66,2C94,343,97,338,101,334Zm28-117c-32,0-34,44-1,44s32-44,1-44ZM448,80V432a48,48,0,0,1-48,48H48A48,48,0,0,1,0,432V80A48,48,0,0,1,48,32H400A48,48,0,0,1,448,80ZM221,149c0,14,8,23,23,23s23-8,23-23-8-22-23-22S221,135,221,149Zm-22,46H150c-25-7-82-5-82,47,0,19,9,32,22,38-16,14-23,21-23,31s3,13,11,17c-9,8-14,14-14,26s18,32,64,32,70-17,70-46-28-35-95-39l8-13c17,5,74,6,74-42,0-12-5-20-9-26l23-2Zm84,110-13-2c-4-1-4-1-4-5V193H214l-3,21c16,6,17,5,17,10v75c0,6,0,5-17,7v20h72Zm100,10-7-22c-41,15-38-12-38-17V215h38V190H341c-3,0-2,3-2-39H315c-3,28-12,39-34,41v23c20,0,20-1,20,3v67c0,29,11,41,42,41,14,0,30-5,41-10Z" transform="translate(0 -32)" style="fill:#fff"/></svg>