<svg id="Layer_1" data-name="Layer 1" xmlns="http://www.w3.org/2000/svg" viewBox="0 0 512 413"><title>git</title><path d="M216,158H137C97,148,7,151,7,233c0,30,15,51,35,61C16,317,5,328,5,343s4,21,18,27C8,384,0,393,0,412c0,32,28,51,102,51s112-26,112-73c0-59-45-56-152-63l13-22c27,8,119,10,119-68,0-19-8-32-15-41l37-3ZM153,400c0,32-105,32-105,2,0-8,5-15,11-22C136,386,153,385,153,400ZM102,266c-53,0-50-71,1-71S154,266,102,266ZM235,366V334c27-4,27-2,27-11V204c0-8-2-7-27-16l4-33h84V323c0,7,0,7,7,8l21,3v32Zm52-244c-23,0-37-13-37-37s13-36,37-36,37,13,37,36S311,122,288,122ZM512,350c-17,9-43,16-66,16-48,0-67-19-67-65V195c0-5,1-4-32-4V155c36-4,50-22,54-66h39c0,66-1,62,3,62h57v41H440v97c0,7-5,51,61,27Z" transform="translate(0 -50)" style="fill:#fff"/></svg>