<svg id="Layer_1" data-name="Layer 1" xmlns="http://www.w3.org/2000/svg" viewBox="0 0 448 448"><title>github-square</title><path d="M400,32H48A48,48,0,0,0,0,80V432a48,48,0,0,0,48,48H400a48,48,0,0,0,48-48V80A48,48,0,0,0,400,32ZM277,416c-8,2-11-4-11-8s0-33,0-55-5-25-11-31c37-4,76-9,76-73,0-18-6-27-17-39,2-4,7-22-2-45-14-4-46,18-46,18a157,157,0,0,0-83,0s-32-22-46-18c-9,23-3,41-2,45-11,12-16,21-16,39,0,64,37,69,74,73-5,4-9,12-11,22s-34,12-48-14a35,35,0,0,0-25-17c-16,0-1,10-1,10,11,5,18,24,18,24,10,30,56,20,56,20,0,14,0,37,0,41s-3,10-11,8C106,394,60,331,60,257c0-92,70-161,162-161s166,70,166,161C388,331,343,394,277,416Zm-98-61c-2,0-4,0-4-2s1-3,3-3,4,1,4,2-1,3-3,3Zm-9-1c0,1-1,2-3,2s-4-1-4-2,2-2,4-2S170,352,170,354Zm-14-1c0,1-2,2-4,1s-3-2-3-3,2-2,4-1,3,2,3,3Zm-12-5c-1,1-3,1-4-1s-2-3-1-4,3-1,4,1S145,346,144,347Zm-9-9c-1,1-3,0-4-1s-1-3,0-4,3,0,4,1S136,337,135,338Zm-6-10c-1,1-2,0-3-1s-1-3,0-3,2,0,4,1S129,328,128,328Zm-7-7h-3c-1-1-2-2-1-3h3C121,319,122,320,121,321Z" transform="translate(0 -32)" style="fill:#fff"/></svg>