<svg id="Layer_1" data-name="Layer 1" xmlns="http://www.w3.org/2000/svg" viewBox="0 0 496 484"><title>github</title><path d="M166,397c0,2-2,4-5,4s-6-1-6-4,2-4,5-4S166,395,166,397Zm-31-4c-1,2,1,4,4,5s6,0,6-2-1-4-4-5-5,0-6,2Zm44-2c-3,1-5,3-5,5s3,3,6,3,5-3,5-5S182,391,179,391ZM245,8C106,8,0,113,0,252,0,363,70,458,170,491c13,2,17-6,17-12s0-40,0-61c0,0-70,15-85-30,0,0-11-29-28-37,0,0-23-16,2-15,0,0,25,2,39,26,22,39,59,28,73,21,2-16,9-27,16-34-56-6-112-14-112-111,0-27,8-41,24-59-3-6-11-33,3-68,21-6,69,27,69,27a236,236,0,0,1,126,0s48-34,69-27c14,35,5,61,3,68,16,18,26,32,26,59,0,97-59,104-115,111,9,8,17,23,17,46s0,75,0,84,5,14,17,12c100-33,168-128,168-239C496,113,384,8,245,8ZM97,353c-1,1-1,3,1,5s4,2,5,1,1-3-1-5S98,352,97,353Zm-11-8c-1,1,0,3,2,4s4,1,4-1,0-3-2-4Zm32,36c-2,1-1,4,1,6s5,3,7,1,1-4-1-6S120,379,119,380Zm-11-15c-2,1-2,4,0,6s4,3,6,2,2-4,0-6-4-3-6-2Z" transform="translate(0 -8)" style="fill:#fff"/></svg>