<svg id="Layer_1" data-name="Layer 1" xmlns="http://www.w3.org/2000/svg" viewBox="0 0 480 384"><title>github-alt</title><path d="M186,329c0,21-11,55-37,55s-37-34-37-55,11-55,37-55S186,308,186,329Zm294-50c0,32-3,66-17,95-38,77-142,75-217,75S60,451,20,373C6,344,0,310,0,278s14-81,42-114a157,157,0,0,1-8-49c0-22,5-32,15-52,45,0,74,9,109,36a383,383,0,0,1,89-10,345,345,0,0,1,80,9c34-27,63-35,108-35,10,20,15,30,15,52a154,154,0,0,1-8,48c28,32,39,72,39,114Zm-64,51c0-44-27-83-73-83-19,0-37,3-56,6a294,294,0,0,1-45,3,296,296,0,0,1-45-3c-19-3-37-6-56-6-47,0-73,39-73,83,0,88,80,101,150,101h48C335,430,416,417,416,329Zm-83-55c-26,0-37,34-37,55s11,55,37,55,37-34,37-55S359,274,333,274Z" transform="translate(0 -64)" style="fill:#fff"/></svg>