<svg id="Layer_1" data-name="Layer 1" xmlns="http://www.w3.org/2000/svg" viewBox="0 0 576 503"><title>gitkraken</title><path d="M566,118a12,12,0,0,0-22,8,265,265,0,0,1,17,93c0,135-100,246-230,263V358l23-6V456c107-26,186-122,186-237A244,244,0,0,0,414,6a12,12,0,0,0-11,20A221,221,0,0,1,517,219c0,93-58,173-140,205V333c14-4,25-18,25-33a35,35,0,0,0-17-30c8-79,45-59,45-84V170C429,132,341,8,300,5h-8C251,8,163,132,163,170v15c0,25,36,4,45,84a35,35,0,0,0-17,31,35,35,0,0,0,25,34v92A221,221,0,0,1,189,26,12,12,0,0,0,178,6,244,244,0,0,0,52,220c0,115,79,211,186,237V352l23,6V482C131,465,31,354,31,220a265,265,0,0,1,17-93,12,12,0,0,0-22-8A288,288,0,0,0,8,220C8,375,131,501,284,507V361h23V507c154-6,276-133,276-288A289,289,0,0,0,566,118ZM366,276a24,24,0,1,1-24,24A24,24,0,0,1,366,276ZM226,323a24,24,0,1,1,24-24A24,24,0,0,1,226,323Z" transform="translate(-8 -5)" style="fill:#fff"/></svg>