<?xml version="1.0" encoding="UTF-8"?>
<!DOCTYPE svg PUBLIC "-//W3C//DTD SVG 1.1//EN" "http://www.w3.org/Graphics/SVG/1.1/DTD/svg11.dtd">
<!-- Creator: CorelDRAW 2017 -->
<svg xmlns="http://www.w3.org/2000/svg" xml:space="preserve" width="210mm" height="297mm" version="1.1" style="shape-rendering:geometricPrecision; text-rendering:geometricPrecision; image-rendering:optimizeQuality; fill-rule:evenodd; clip-rule:evenodd"
viewBox="0 0 21000 29700"
 xmlns:xlink="http://www.w3.org/1999/xlink">
 <defs>
  <style type="text/css">
   <![CDATA[
    .fil0 {fill:white}
   ]]>
  </style>
 </defs>
 <g id="Layer_x0020_1">
  <metadata id="CorelCorpID_0Corel-Layer"/>
  <path class="fil0" d="M20931 15738l-1653 -6625c-215,-864 -787,-1606 -1568,-2035 -782,-428 -1712,-514 -2559,-231l-556 185c-306,102 -471,432 -369,738l184 553c102,306 432,471 738,369l481 -160c396,-132 839,-130 1209,63 375,196 641,531 743,941l1402 5608c-809,-248 -1815,-454 -2960,-454 -1268,0 -2697,256 -4187,975l-2668 0c-1490,-720 -2920,-975 -4188,-975 -1146,0 -2152,206 -2961,454l1402 -5608c102,-410 368,-746 743,-941 370,-193 812,-195 1209,-63l480 160c306,102 636,-63 738,-369l184 -553c102,-306 -63,-636 -369,-738l-556 -185c-847,-284 -1777,-197 -2559,231 -781,429 -1352,1171 -1568,2034l-1653 6626c-46,184 -69,375 -69,565l0 2561c0,2293 1881,4152 4200,4152l1353 0c2198,0 4024,-1675 4188,-3842l107 -1408 1303 0 107 1408c164,2167 1990,3842 4188,3842l1353 0c2319,0 4200,-1859 4200,-4152l0 -2561c0,-191 -23,-380 -69,-565zm-34377 3260c-72,945 -890,1685 -1862,1685l19508 0c-1029,0 -1867,-816 -1867,-1819l0 -1369c661,-237 1583,-471 2646,-471 870,0 1723,158 2550,471l-114 1503 -20861 0zm32113 -134c0,1003 -837,1819 -1867,1819l-1353 0c-972,0 -1790,-740 -1862,-1685l-114 -1503c827,-313 1680,-471 2550,-471 1062,0 1984,235 2645,471l0 1369 0 0z"/>
 </g>
</svg>
