<svg id="Layer_1" data-name="Layer 1" xmlns="http://www.w3.org/2000/svg" viewBox="0 0 416 512"><title>glide-g</title><path d="M407,211l-15-4c-37,0-62,17-93,35h-1c7-47,24-92,24-140C321,29,283,0,212,0,97,0,39,114,39,198S90,335,178,335c12,0,11-1,11,4-17,129-91,133-91,95s45-59,46-61-47-28-59-28c-34,0-52,51-52,79,0,52,33,88,86,88,77,0,134-78,151-145s11-63,20-68c32-16,58-27,94-27,18,0,31,4,59,8,3,0,7-3,7-6s-33-60-41-63ZM232,127,204,261c-2,10-13,8-22,8-38,0-49-42-49-73,0-47,18-109,62-133,7-4,15-7,23-7,19,0,20,13,20,29S235,113,232,127Z" transform="translate(-32)" style="fill:#fff"/></svg>