<svg id="Layer_1" data-name="Layer 1" xmlns="http://www.w3.org/2000/svg" viewBox="0 0 448 448"><title>glide</title><path d="M253,149c0,9-2,18-3,26l-17,84c-1,6-8,5-14,5-24,0-30-26-30-45s11-68,39-83a29,29,0,0,1,14-4c11,0,12,8,12,18ZM448,80V432a48,48,0,0,1-48,48H48A48,48,0,0,1,0,432V80A48,48,0,0,1,48,32H400A48,48,0,0,1,448,80ZM384,267c0-5-21-38-25-39l-10-2c-23,0-39,11-58,22h0c4-29,15-57,15-87,0-45-24-63-67-63-72,0-108,71-108,123s32,85,86,85c8,0,7-1,7,2-10,80-56,83-56,59s28-36,28-38-29-17-37-17c-21,0-33,33-33,51,0,32,20,55,53,55,48,0,83-50,94-92s7-39,12-42c20-10,36-17,58-17,11,0,19,2,37,5,2,0,4-2,4-3Z" transform="translate(0 -32)" style="fill:#fff"/></svg>