<svg id="Layer_1" data-name="Layer 1" xmlns="http://www.w3.org/2000/svg" viewBox="0 0 325 512"><title>goodreads-g</title><path d="M43,403H84c2,0,3,0,4,2,7,35,30,55,63,64s54,8,81,2,56-28,68-60c8-21,11-44,11-66,0-6,0-47,0-53h-1l-2,4c-22,43-61,67-105,69C98,369,32,308,29,189c0-24,2-47,8-70C58,48,112,1,192,0c61,0,101,39,116,70,1,1,1,2,2,2V11h44c0,280,0,332,0,332,0,79-27,144-103,162S93,510,56,448c-8-13-12-28-13-44ZM189,37C136,36,80,77,74,170c-4,59,15,122,72,149,28,13,74,15,108-9,48-33,63-97,55-154C299,85,261,36,189,37Z" transform="translate(-29 0)" style="fill:#fff"/></svg>