<svg id="Layer_1" data-name="Layer 1" xmlns="http://www.w3.org/2000/svg" viewBox="0 0 448 448"><title>goodreads</title><path d="M300,191c5,37-5,79-36,101s-53,14-71,6c-37-17-49-59-47-97,4-61,41-88,75-87,47,0,72,32,78,78ZM448,88V424a56,56,0,0,1-56,56H56A56,56,0,0,1,0,424V88A56,56,0,0,1,56,32H392A56,56,0,0,1,448,88ZM330,313s0-34,0-217H301v40h-2c-10-21-36-46-76-46-52,0-87,31-101,78-4,15-6,30-5,46,2,78,45,118,112,115,29-1,54-17,69-45l2-3h1c0,4,0,31,0,35,0,15-2,30-7,44s-22,35-44,40-36,4-53-1-36-19-41-42c0-2-1-1-2-1H126c1,11,3,20,9,29,24,41,83,49,128,37s67-55,67-106Z" transform="translate(0 -32)" style="fill:#fff"/></svg>