<svg id="Layer_1" data-name="Layer 1" xmlns="http://www.w3.org/2000/svg" viewBox="0 0 432 448"><title>google-wallet</title><path d="M157,127c38,61,64,113,84,162a771,771,0,0,1-31,98c-13-52-26-101-56-148,7-36,2-74,3-112Zm-47,73H16c-6,0-10,8-6,13,42,54,72,118,92,187H205c-16-70-39-134-82-193A17,17,0,0,0,109,200Zm48-88c69,108,130,235,138,368H409c-12-138-68-265-143-368ZM409,44a16,16,0,0,0-15-11H305a8,8,0,0,0-8,10,769,769,0,0,1,27,146c48,86,80,178,91,271,16-60,25-133,25-203S428,111,409,43Z" transform="translate(-8 -32)" style="fill:#fff"/></svg>