<svg id="Layer_1" data-name="Layer 1" xmlns="http://www.w3.org/2000/svg" viewBox="0 0 496 496"><title>grav</title><path d="M301,212a12,12,0,0,1,0,16l-10,10a12,12,0,0,1-17,0l-10-10a12,12,0,0,1,0-17l10-10a12,12,0,0,1,17,0Zm-30-20a7,7,0,0,0-10-10,7,7,0,0,0,11,11Zm-26,5a7,7,0,0,0,0,10,7,7,0,1,0,0-10Zm73-13c-20-14-34-43-12-68s41-17,60,1,29,25,17,48-45,33-65,19Zm48-44c-9-10-23,7-15,16S382,158,365,140ZM504,256c0,137-111,248-248,248S8,393,8,256,119,8,256,8,504,119,504,256Zm-66,43c3-16-20-17-25-26-14-24-28-37-54-30a35,35,0,0,1,24-6c0-6,0-13-9-25a38,38,0,0,0,0-22,57,57,0,0,0,29-43,57,57,0,0,0-50-63c-22-2-44,8-54,26-23,40,1,71,22,81-14-1-34-12-40-34s3-50,9-61l-8-9s-14,0-25,5c12-15,25-14,25-14s-1-15-4-22-24-13-32,3h0c-5,12-1,56,17,87l-13,10c-22,10-56,60-56,60-28,11-77,51-71,80a14,14,0,0,0,3,8l-8,8c-12,14-5,35,18,24s30-20,36-30-5-5-16-4c28-7,34-9,46-9s8-34,8-34c0-15-2-31-11-41,13,12,29,33,28,61s-15,23-15,23c-9,17-43,66-30,106,0,0-10-15-10-22-17,19-46,52-25,65s109-89,126-142c35-21,55-47,64-65,22,44,95,95,101,59Z" transform="translate(-8 -8)" style="fill:#fff"/></svg>