<svg id="Layer_1" data-name="Layer 1" xmlns="http://www.w3.org/2000/svg" viewBox="0 0 288 496"><title>gripfire</title><path d="M113,301c0-74,105-123,105-203,0-47-34-88-39-90a84,84,0,0,1,1,10c0,92-147,154-147,269,0,50,32,79,67,108,65,47,78,71,78,87s-5,17-5,22c13-17,17-32,18-46,0-30-22-56-44-86s-33-43-33-69Zm205-39c-12-67-78-124-95-131l4,7a40,40,0,0,1,3,17c0,45-54,111-57,117a40,40,0,0,0-3,16c0,20,15,42,18,42s57-55,58-88c6,12,9,23,9,33,0,41-42,97-42,97,0,12,32,53,36,53l3-2c38-39,67-85,67-137A140,140,0,0,0,318,262Z" transform="translate(-32 -8)" style="fill:#fff"/></svg>