<svg id="Layer_1" data-name="Layer 1" xmlns="http://www.w3.org/2000/svg" viewBox="0 0 379 512"><title>grunt</title><path d="M61,189c-1,10,5,19,5,19s2-13,4-17c0,10,3,24,13,34s36,23,55,6l3,9c3,10-3,25-3,25s15-17,14-32c11,0,21-8,21-19,0,0-19,10-35-9s-41-42-83-32l14,4h0c-4,2-6,7-7,12Zm28-2c20,11,37,26,45,37-6,3-22,10-38-2S87,197,90,188Zm142,46c-1,16,14,32,14,32s-6-15-3-25l3-8c19,17,48,2,55-6s12-24,13-34a47,47,0,0,1,4,17s6-9,5-19-3-10-7-12h0l14-4c-42-10-73,21-83,32s-35,9-35,9c0,11,10,19,21,19Zm63-46c3,9,3,28-7,35s-32,5-38,2C257,213,275,199,294,188ZM160,419H131c-5,0-8,2-9,3s-2,5-1,8,11,17,14,19a18,18,0,0,0,12,4,15,15,0,0,0,11-5,75,75,0,0,0,13-20c1-1,1-4-1-7s-5-3-9-3ZM349,317c-2,18-13,34-25,44-3-23-4-55-4-62s10-24,12-26l8-5c18-10,40-22,40-44s-9-23-15-28l-2-2-4-4c-4-10-4-34-2-38s17-21,12-39a27,27,0,0,0-14-17c-5-3-12-4-19-4a40,40,0,0,0-1-6,27,27,0,0,1-1-8c0-5,1-9,2-11,8-13,29-18,29-18l12-2-8-9s-17-17-46-17a79,79,0,0,0-24,4c-24,8-43,31-49,39l-10-3c-4-16,9-38,9-38s-14-3-34,15c-3-7-8-21-2-37-29,10-37,26-39,41-8-5-7-23-7-28s-29,22-28,48l-6,2c-6-9-25-31-49-39a90,90,0,0,0-24-3C31,20,14,37,14,38L6,47l12,2s21,4,29,18c1,2,2,7,2,11a31,31,0,0,1-1,8,38,38,0,0,0-1,6q-12,0-19,5a27,27,0,0,0-14,17c-5,18,11,39,12,39s3,28-2,38l-4,4-2,2c-6,5-15,12-15,28s22,34,40,44l8,5c3,2,12,11,12,26s-1,40-4,62c-12-10-22-26-25-44,0,0-29,23-21,71,5,30,23,46,47,55,9,19,29,46,67,50,14,12,34,19,64,19h0c29,0,49-8,64-19,38-4,59-30,67-50,24-9,42-25,47-55,8-48-21-71-21-71ZM306,38l18-3a65,65,0,0,1,25,5l-10,5h-9a50,50,0,0,0-29,9c-12,9-18,17-21,22l-7-4-5-2c6-9,20-26,38-32Zm21,18-2,3c-3,5-4,12-4,18s-1,13-4,17l-11,3a68,68,0,0,0-10-11c1-5,6-16,14-22a34,34,0,0,1,20-7ZM46,45,36,40a65,65,0,0,1,25-5l18,3c18,6,32,23,38,32l-5,2-7,4c-3-5-8-14-21-22a50,50,0,0,0-29-9ZM90,85A60,60,0,0,0,80,97L68,94c-3-4-4-10-4-17s-1-13-4-18l-2-3a33,33,0,0,1,20,7C85,69,89,81,90,85ZM58,260l-8-5c-15-8-30-16-30-30s4-15,9-18h1l2-2c-1,7-2,13-3,15s12-15,16-44c1-11-1-34-5-43a137,137,0,0,1,0,14v-2c-3-4-12-17-9-27s3-6,7-8,9-3,15-3,26,4,33,6c25,8,55,31,64,38h0l6,4-3-6s-19-31-53-46c2-3,7-8,22-15s46-16,74-16,53,5,74,16,20,12,22,15c-34,15-53,46-53,46l-3,6,6-4h0c9-7,39-30,64-38,7-2,21-6,33-6s11,1,15,3a13,13,0,0,1,7,8c3,9-6,23-9,27v2a137,137,0,0,1,0-14c-4,9-6,32-5,43,4,29,16,44,16,44s-2-8-3-15l2,2h1c5,4,9,7,9,18s-15,23-30,31l-8,5c-9,5-18,17-19,34s1,50,3,76c-12,5-27,6-40,7l-5-13c-1-2-20-51-26-62,6,39,18,74,24,90H122c6-16,18-51,24-90-7,11-26,60-26,62l-5,13c-13,0-27-2-40-7,3-26,4-61,3-76s-10-29-19-34ZM35,405c-12-20-9-54-4-59,11,34,47,44,74,45l-7,10H97c-7,8-9,19-4,32-23,0-46-10-58-29Zm46,44,19,2a142,142,0,0,0,12,23A70,70,0,0,1,81,448Zm112,50c-61,0-78-46-85-65s-3-18,1-23,10-7,25-7H251c15,0,22,4,25,7s5,13,1,23S253,498,192,498Zm81-25a142,142,0,0,0,12-23l19-2A70,70,0,0,1,273,474Zm77-69c-12,20-36,29-58,30,5-13,3-24-4-32h-1l-7-10c27-1,64-11,74-45,5,5,8,39-4,59ZM192,188h0c13,0,27-18,27-18s-19,8-27,8-17-2-27-8,15,18,27,18Zm62,231H224c-4,0-7,1-9,3s-1,5-1,7a71,71,0,0,0,13,19,15,15,0,0,0,11,5,19,19,0,0,0,12-4c2-2,10-9,14-18s1-6-1-8-4-3-9-3Z" transform="translate(-2 0)" style="fill:#fff"/></svg>