<svg id="Layer_1" data-name="Layer 1" xmlns="http://www.w3.org/2000/svg" viewBox="0 0 231 512"><title>gulp</title><path d="M210,391l-14,25-5,80c0,9-28,16-63,16s-63-7-63-16l-6-79L44,391C85,408,170,408,210,391ZM14,138,27,263c6-20,21-47,40-55,6-3,13-3,19,1s10,9,10,12-2,9-4,9-5-5-7-7-10-8-17-3-13,13-17,21a119,119,0,0,0-12,28c-1,6-3,15-1,20s3,4,5,4,12-7,16-10,10-11,12-16l5-15c3-7,10-6,10,0s-4,14-10,35l-8,26c-1,3-3,8-6,8H60c-1-1-1-5-1-6s6-22,7-25l-6,7c-5,5-14,12-21,12a12,12,0,0,1-8-2l8,80c2,5,39,17,88,17s86-12,88-17l11-95c-6,5-12,12-20,15s-17,4-17-6,9-15,14-21,5-6,5-8-6-2-12,3l-9,10a80,80,0,0,0-8,16c-6,14-4,9-9,22l-5,14a10,10,0,0,1-4,5,6,6,0,0,1-6,0c-1-1-1-2-1-4v-3c2-6,8-18,15-34v-2c-6,6-11,9-14,11s-13,3-14-4h0c-12,9-24,12-20-8-5,8-13,15-22,15s-7-1-9-5,1-15,5-24l7-16c2-3,4-5,8-4h2c3,2,2,4,0,7s-7,13-9,21-2,9,2,9l7-2c5-3,8-8,11-13a68,68,0,0,0,6-12l2-5c1-2,3-5,5-5l3,2c2,2,1,4,0,7l-7,17c-1,4-3,8-3,12s4,3,7,1l7-4c1-5,1-4,26-68,1-3,4-5,6-5h3c2,1,2,4,1,6l-4,11-13,32-9,22c-1,2-1,6,1,6s19-13,23-17h1l2-5c1-4,3-8,5-11l3-2c3,0,4,1,4,4a34,34,0,0,1-1,6l5-4c15-14,26-7,26,0s-9,18-14,23l-5,6c0,1,1,2,2,2s6-3,8-5l17-14,15-137c-30,17-198,17-228,0Zm230-8c0,21-231,21-231,0,0-9,52-16,116-16h26l13-49L228,1c1-1,6,0,10,3s7,8,5,9h0L186,74l-10,41C216,117,244,123,244,129Zm-69,5-2-2h0c0,1-5,2-11,2s-11-1-11-2h0l-3,2c0,2,6,4,14,4s14-2,14-4Z" transform="translate(-12 0)" style="fill:#fff"/></svg>