<svg id="Layer_1" data-name="Layer 1" xmlns="http://www.w3.org/2000/svg" viewBox="0 0 464 512"><title>hackerrank</title><path d="M478,128C463,103,285,0,256,0S49,103,35,128,20,359,35,384,227,512,256,512,463,409,477,384,492,153,478,128ZM316,414c-4,0-41-36-38-39l18-2c0-26,1-69,1-86,0-2,0-3,0-6H216c0,7,0,36,1,73,0,5-2,6-6,6H181c-4,0-6-2-6-6,1-33,3-84,0-213v-3l-17-2c-3-3,35-39,38-39s41,36,38,39l-17,2v3c-2,26-2,80-3,105h80c0-5,0-35-1-84,0-3,1-5,4-5h33c3,0,5,2,5,5-4,191-1,178-1,210l18,2c3,3-34,39-38,39Z" transform="translate(-24)" style="fill:#fff"/></svg>