<?xml version="1.0" encoding="UTF-8"?>
<!DOCTYPE svg PUBLIC "-//W3C//DTD SVG 1.1//EN" "http://www.w3.org/Graphics/SVG/1.1/DTD/svg11.dtd">
<!-- Creator: CorelDRAW 2017 -->
<svg xmlns="http://www.w3.org/2000/svg" xml:space="preserve" width="210mm" height="297mm" version="1.1" style="shape-rendering:geometricPrecision; text-rendering:geometricPrecision; image-rendering:optimizeQuality; fill-rule:evenodd; clip-rule:evenodd"
viewBox="0 0 21000 29700"
 xmlns:xlink="http://www.w3.org/1999/xlink">
 <defs>
  <style type="text/css">
   <![CDATA[
    .fil0 {fill:white}
   ]]>
  </style>
 </defs>
 <g id="Layer_x0020_1">
  <metadata id="CorelCorpID_0Corel-Layer"/>
  <path class="fil0" d="M18802 6987c-2371,-1993 -6033,-1694 -8302,615 -2268,-2309 -5931,-2613 -8302,-615 -3084,2596 -2633,6829 -435,9073l7194 7329c410,418 960,652 1542,652 587,0 1132,-230 1542,-648l7194 -7329c2194,-2244 2654,-6476 -435,-9077zm-968 7690l-7194 7330c-98,98 -180,98 -279,0l-7194 -7330c-1497,-1526 -1801,-4413 299,-6181 1596,-1341 4056,-1140 5599,431l1436 1464 1436 -1464c1550,-1579 4011,-1772 5599,-435 2096,1768 1784,4672 299,6185z"/>
 </g>
</svg>
