<svg id="Layer_1" data-name="Layer 1" xmlns="http://www.w3.org/2000/svg" viewBox="0 0 640 367"><title>hips</title><path d="M252,158c0-2-1-3-3-3H208a3,3,0,0,0-3,3V359a3,3,0,0,0,3,3h41c2,0,3-1,3-3Zm-95,10c-16-12-36-18-60-18a107,107,0,0,0-50,11V80c0-2-1-3-3-3H3a2,2,0,0,0-3,3V359c0,2,1,3,3,3H44c2,0,3-1,3-3V223c0-1-3-27,46-27s46,26,46,27V346a16,16,0,0,0,16,16h27c2,0,3-1,3-3V223Q185,188,157,168ZM635,278c-7-16-18-27-35-34l-58-25c-9-4-9-11-3-16s44-14,84,7a3,3,0,0,0,4-2V162a3,3,0,0,0-2-3,157,157,0,0,0-55-10c-26,0-45,6-58,15,0,0-28,20-23,54,3,20,16,34,37,44l54,24c12,5,15,13,12,21s-13,14-36,14a99,99,0,0,1-58-19,3,3,0,0,0-4,2v34c0,10,5,17,15,21a144,144,0,0,0,48,8c13,0,26-1,36-4s36-9,46-46a58,58,0,0,0-3-39ZM376,150c-32,0-104,20-104,104V437a3,3,0,0,0,3,3h41c2,0,3-1,3-3V348c17,13,36,19,58,19a109,109,0,1,0,0-217Zm0,171a60,60,0,0,1-44-18c-12-12-18-27-18-44a62,62,0,1,1,62,62ZM228,73a29,29,0,1,0,29,29,29,29,0,0,0-29-29Z" transform="translate(0 -73)" style="fill:#fff"/></svg>