<svg id="Layer_1" data-name="Layer 1" xmlns="http://www.w3.org/2000/svg" viewBox="0 0 512 512"><title>hire-a-helper</title><path d="M443,0H72C68,37,37,68,0,72V443c37,5,66,32,72,69H444c3-36,33-66,68-70V72C476,66,447,36,443,0ZM406,405c-36,0-19-2-55-2s-21,2-56,2c-6,0-5-8,0-10,23-8,23-10,25-13,10-16,6-83,6-113,0-5-6-13-14-13H200c-7,0-14,8-14,13,0,30-4,97,6,113,2,3,2,5,25,13,5,2,6,10,0,10-35,0-20-2-56-2s-19,2-55,2c-8,0-6-11,0-11s14-3,22-14,8-44,8-128V151c0-22-12-28-29-32s-4-12,1-12c36,0,21,2,57,2s17-2,49-2c3,0,9,8,1,11s-28,4-28,39,0,56,1,69c0,1,2,13,13,13H311c11,0,13-11,13-13,1-13,1-23,1-69s-23-38-28-39-2-11,1-11c33,0,17,2,49,2s21-2,57-2c5,0,10,10,1,12s-29,10-29,32V252c0,83,0,115,8,128s11,10,22,14,8,11,0,11Z" style="fill:#fff"/></svg>