<?xml version="1.0" encoding="UTF-8"?>
<!DOCTYPE svg PUBLIC "-//W3C//DTD SVG 1.1//EN" "http://www.w3.org/Graphics/SVG/1.1/DTD/svg11.dtd">
<!-- Creator: CorelDRAW 2017 -->
<svg xmlns="http://www.w3.org/2000/svg" xml:space="preserve" width="210mm" height="297mm" version="1.1" style="shape-rendering:geometricPrecision; text-rendering:geometricPrecision; image-rendering:optimizeQuality; fill-rule:evenodd; clip-rule:evenodd"
viewBox="0 0 21000 29700"
 xmlns:xlink="http://www.w3.org/1999/xlink">
 <defs>
  <style type="text/css">
   <![CDATA[
    .fil0 {fill:white}
   ]]>
  </style>
 </defs>
 <g id="Layer_x0020_1">
  <metadata id="CorelCorpID_0Corel-Layer"/>
  <path class="fil0" d="M10222 10922l-6722 5536 0 5975c0,322 261,583 583,583l4086 -11c321,-2 580,-262 580,-583 0,0 0,0 0,0l0 -3489c0,-322 261,-583 583,-583l2333 0c322,0 583,261 583,583l0 3487c0,1 0,1 0,2 0,322 261,583 583,583 0,0 0,0 0,0l4084 11c322,0 583,-261 583,-583l0 -5979 -6720 -5532c-79,-64 -177,-98 -279,-98 -101,0 -200,35 -279,98l0 0zm10618 3763l-3048 -2512 0 -5050c0,-242 -196,-438 -438,-438l-2042 0c-242,0 -438,196 -438,438l0 2647 -3264 -2686c-313,-258 -706,-399 -1112,-399 -406,0 -799,141 -1112,399l-9229 7601c-101,83 -159,207 -159,337 0,102 36,201 100,279l930 1130c83,101 207,160 338,160 102,0 200,-36 279,-100l8576 -7063c79,-64 177,-98 279,-98 101,0 200,35 279,98l8576 7063c78,65 177,100 279,100 130,0 254,-58 337,-159l930 -1130c64,-78 99,-176 99,-278 0,-132 -59,-256 -161,-339l0 0z"/>
 </g>
</svg>
