<svg id="Layer_1" data-name="Layer 1" xmlns="http://www.w3.org/2000/svg" viewBox="0 0 640 212"><title>hooli</title><path d="M145,352h38a266,266,0,0,1-38-17Zm58-5v5H183c37,13,70,14,95,7C258,360,232,357,202,347ZM611,232a29,29,0,0,0,29-29c0-16-13-24-29-24s-29,9-29,25A29,29,0,0,0,611,232ZM582,352h58V242H582Zm-74,0h58V157l-58,27ZM477,233c-18-18-50-17-50-17s-32-1-50,17-17,34-17,53-1,34,17,53,50,17,50,17,32,1,50-17,17-34,17-52S495,251,477,233Zm-40,72c0,4-2,13-11,13s-11-9-11-12V264c0-9,7-11,11-11s11,2,11,11ZM331,233c-18-18-50-17-50-17s-32-1-50,17l-5,6c-38-30-72-46-102-61V157l-22,11c-54-22-89-18-97,0,0,0-25,33,62,111v74h58V323l-19-14L65,278V247c13,15,31,31,53,50l5,4V272c0-7,2-18,11-18s11,7,11,15v49a267,267,0,0,0,58,30V253c0-19-13-37-41-37a44,44,0,0,0-38,22V183c42,21,84,47,100,58-10,15-9,28-9,44s-1,34,17,53,50,17,50,17,32,1,50-17,17-34,17-52,2-34-17-52ZM65,184v63c-49-54-39-76-35-79s38-8,64,2ZM292,305c0,4-2,13-11,13s-11-9-11-12V264c0-9,7-11,11-11s11,2,11,11Z" transform="translate(0 -152)" style="fill:#fff"/></svg>