<svg id="Layer_1" data-name="Layer 1" xmlns="http://www.w3.org/2000/svg" viewBox="0 0 509 512"><title>hornbill</title><path d="M76,370a38,38,0,1,1-42-32H44C-34,227,96,147,96,147c-6,43-8,91-8,91-67,41,1,64,40,73a140,140,0,0,0,132,92h6v19c-99,1-159-29-189-52ZM184,43a38,38,0,0,0-3-21,38,38,0,1,0-31,54c-23,30-54,90-52,190h22v-3a140,140,0,0,1,88-130c8-38,31-114,74-44,0,0,48,2,91,8,0,0-78-128-188-54ZM489,177a38,38,0,1,0-54-29c-32-22-90-49-183-48v23h8a140,140,0,0,1,130,89c39,9,105,32,38,73,0,0-2,48-8,91,0,0,133-81,49-195a37,37,0,0,0,19-3ZM374,436c21-32,46-90,45-180H400c0,2,0,4,0,6a140,140,0,0,1-91,131c-9,39-31,107-73,39,0,0-48-2-91-8,0,0,80,131,192,51a38,38,0,0,0,4,14,38,38,0,1,0,34-54Z" transform="translate(-1 0)" style="fill:#fff"/></svg>