<?xml version="1.0" encoding="UTF-8"?>
<!DOCTYPE svg PUBLIC "-//W3C//DTD SVG 1.1//EN" "http://www.w3.org/Graphics/SVG/1.1/DTD/svg11.dtd">
<!-- Creator: CorelDRAW 2017 -->
<svg xmlns="http://www.w3.org/2000/svg" xml:space="preserve" width="210mm" height="297mm" version="1.1" style="shape-rendering:geometricPrecision; text-rendering:geometricPrecision; image-rendering:optimizeQuality; fill-rule:evenodd; clip-rule:evenodd"
viewBox="0 0 21000 29700"
 xmlns:xlink="http://www.w3.org/1999/xlink">
 <defs>
  <style type="text/css">
   <![CDATA[
    .fil0 {fill:white}
   ]]>
  </style>
 </defs>
 <g id="Layer_x0020_1">
  <metadata id="CorelCorpID_0Corel-Layer"/>
  <path class="fil0" d="M20997 8309c0,-296 -110,-579 -313,-795 -138,-147 -313,-333 -499,-529 403,-249 711,-638 809,-1118 37,-181 -105,-351 -289,-351l-4374 0c-2577,0 -4667,2089 -4667,4667l-5830 0c-1051,0 -1983,473 -2625,1207l0 -40c-1769,0 -3208,1439 -3208,3208l0 2042c0,322 261,583 583,583l583 0c322,0 583,-261 583,-583l0 -2042c0,-482 250,-889 612,-1155 -8,94 -28,184 -28,280 0,1008 432,1909 1113,2548l-938 2501c-98,262 -149,539 -149,819 0,191 24,381 70,566l906 3624c65,260 298,442 565,442 0,0 0,0 0,0l2405 0c380,0 658,-357 566,-725l-959 -3838 869 -2318 4884 814 0 5483c0,322 261,583 583,583l2333 0c322,0 583,-261 583,-583l0 -6482c720,-736 1167,-1741 1167,-2852 0,-8 -3,-15 -3,-23l0 -3736 583 259 689 1374c272,542 913,786 1476,560l1187 -475c443,-177 734,-606 734,-1083 0,0 0,-1 0,-1l-2 -2833 0 0zm-3065 4625c-322,0 -583,-261 -583,-583 0,-322 261,-583 583,-583 322,0 583,261 583,583 0,322 -261,583 -583,583z"/>
 </g>
</svg>
