<svg id="Layer_1" data-name="Layer 1" xmlns="http://www.w3.org/2000/svg" viewBox="0 0 519 448"><title>ideal</title><path d="M126,165a49,49,0,1,0,49,49h0A49,49,0,0,0,126,165ZM86,426h79V285H86ZM238,214c0-20-10-23-19-23H205v46h14c10,0,19-3,19-23Zm202,46V169h23v69h34C487,113,389,86,300,86H205v83h14c26,0,42,17,42,45s-16,46-41,46H205V426h95c145,0,195-67,197-166Zm-110,0H273V169h54v23H296v11h30v23H296v13h34Zm75,0-5-18H369l-5,18H340l28-91h32l28,91ZM300,32H32V480H300c162,0,251-80,251-225C551,172,518,32,300,32Zm0,427H53V53H300c142,0,230,65,230,202S449,459,300,459Zm84-265-8,26h16l-8-26Z" transform="translate(-32 -32)" style="fill:#fff"/></svg>