<?xml version="1.0" encoding="UTF-8"?>
<!DOCTYPE svg PUBLIC "-//W3C//DTD SVG 1.1//EN" "http://www.w3.org/Graphics/SVG/1.1/DTD/svg11.dtd">
<!-- Creator: CorelDRAW 2017 -->
<svg xmlns="http://www.w3.org/2000/svg" xml:space="preserve" width="210mm" height="297mm" version="1.1" style="shape-rendering:geometricPrecision; text-rendering:geometricPrecision; image-rendering:optimizeQuality; fill-rule:evenodd; clip-rule:evenodd"
viewBox="0 0 21000 29700"
 xmlns:xlink="http://www.w3.org/1999/xlink">
 <defs>
  <style type="text/css">
   <![CDATA[
    .fil0 {fill:white}
   ]]>
  </style>
 </defs>
 <g id="Layer_x0020_1">
  <metadata id="CorelCorpID_0Corel-Layer"/>
  <path class="fil0" d="M19031 6975l-17063 0c-1087,0 -1969,881 -1969,1969l0 11813c0,1087 881,1969 1969,1969l17063 0c1087,0 1969,-881 1969,-1969l0 -11813c0,-1087 -881,-1969 -1969,-1969zm-246 13781l-16570 0c-136,0 -246,-110 -246,-246l0 -11320c0,-136 110,-246 246,-246l16570 0c136,0 246,110 246,246l0 11320c0,136 -110,246 -246,246l0 0zm-13535 -10172c-906,0 -1641,735 -1641,1641 0,906 735,1641 1641,1641 906,0 1641,-735 1641,-1641 0,-906 -735,-1641 -1641,-1641zm-1313 8203l13125 0 0 -3281 -3589 -3589c-192,-192 -504,-192 -696,0l-4902 4902 -1621 -1621c-192,-192 -504,-192 -696,0l-1621 1621 0 1969z"/>
 </g>
</svg>
