<svg id="Layer_1" data-name="Layer 1" xmlns="http://www.w3.org/2000/svg" viewBox="0 0 448 448"><title>imdb</title><path d="M400,32H48A48,48,0,0,0,0,80V432a48,48,0,0,0,48,48H400a48,48,0,0,0,48-48V80A48,48,0,0,0,400,32ZM21,229h0Zm76,91H64V192H97Zm113,0H182V233l-12,86H149l-12-84v85H108V192h43c3,20,6,40,9,60l8-60h43Zm11,0V192h25c18,0,45-2,49,21,2,8,1,16,1,24,0,89,11,83-75,83Zm161-29c0,16-2,31-22,31-9,0-15-3-21-10l-2,8H308V192h32v42c6-6,12-9,21-9,21,0,22,13,22,30ZM265,230c0-10,2-16-10-16v84c12,0,10-9,10-18Zm86,26c0-5,1-13-6-13s-5,9-5,13-1,40,1,45a4,4,0,0,0,4,2c8,0,6-9,6-14Z" transform="translate(0 -32)" style="fill:#fff"/></svg>