<svg id="Layer_1" data-name="Layer 1" xmlns="http://www.w3.org/2000/svg" viewBox="0 0 448 448"><title>instagram-square</title><path d="M224,203a53,53,0,1,0,53,53A53,53,0,0,0,224,203Zm125-41a54,54,0,0,0-30-30c-21-8-71-6-94-6s-73-2-94,6a54,54,0,0,0-30,30c-8,21-6,71-6,94s-2,73,6,94a54,54,0,0,0,30,30c21,8,71,6,94,6s73,2,94-6a54,54,0,0,0,30-30c8-21,6-71,6-94s2-73-6-94ZM224,338a82,82,0,1,1,82-82,82,82,0,0,1-82,82Zm85-148a19,19,0,1,1,19-19h0a19,19,0,0,1-19,19h0ZM400,32H48A48,48,0,0,0,0,80V432a48,48,0,0,0,48,48H400a48,48,0,0,0,48-48V80A48,48,0,0,0,400,32ZM383,322c-1,26-7,48-26,67s-41,25-67,26-106,1-132,0-48-7-67-26-25-41-26-67-1-106,0-132,7-48,26-67,41-25,67-26,106-1,132,0,48,7,67,26,25,41,26,67S384,296,383,322Z" transform="translate(0 -32)" style="fill:#fff"/></svg>