<svg id="Layer_1" data-name="Layer 1" xmlns="http://www.w3.org/2000/svg" viewBox="0 0 448 448"><title>instagram</title><path d="M224,141A115,115,0,1,0,339,256,115,115,0,0,0,224,141Zm0,190a75,75,0,1,1,75-75,75,75,0,0,1-75,75ZM371,136a27,27,0,1,1-27-27A27,27,0,0,1,371,136Zm76,27c-2-36-10-68-36-94s-58-34-94-36-148-2-185,0S64,43,38,70,3,128,2,163-1,311,2,348s10,68,36,94,58,34,94,36,148,2,185,0,68-10,94-36,34-58,36-94,2-148,0-185ZM399,388a76,76,0,0,1-43,43c-29,12-99,9-132,9s-103,3-132-9a76,76,0,0,1-43-43c-12-29-9-99-9-132s-3-103,9-132A76,76,0,0,1,92,81c30-12,100-9,132-9s103-3,132,9a76,76,0,0,1,43,43c12,30,9,100,9,132S411,359,399,388Z" transform="translate(0 -32)" style="fill:#fff"/></svg>