<svg id="Layer_1" data-name="Layer 1" xmlns="http://www.w3.org/2000/svg" viewBox="0 0 512 512"><title>internet-explorer</title><path d="M483,160c11-25,21-60,21-88,0-73-80-98-210-39C187,26,84,107,58,220c31-35,78-82,122-101C125,167,79,228,44,292,23,330,0,391,0,437c0,99,93,86,180,42,31,15,67,16,102,16,97,0,184-54,217-146H378c-53,89-197,53-197-47H510c6-44-2-96-27-141ZM65,347c18,51,54,96,100,123C76,519-8,499,65,347ZM181,238c2-55,50-95,104-95s102,40,104,95ZM365,50c21-10,49-22,73-22s54,22,54,54c0,20-7,49-15,68C451,108,411,68,365,50Z" transform="translate(0 0)" style="fill:#fff"/></svg>