<svg id="Layer_1" data-name="Layer 1" xmlns="http://www.w3.org/2000/svg" viewBox="0 0 448 448"><title>intercom</title><path d="M392,32H56A56,56,0,0,0,0,88V424a56,56,0,0,0,56,56H392a56,56,0,0,0,56-56V88A56,56,0,0,0,392,32ZM284,114c0-20,30-20,30,0V314c0,20-30,20-30,0Zm-75-7c0-20,30-20,30,0V323c0,20-30,20-30,0Zm-75,8c0-20,30-20,30,0V314c0,20-30,20-30,0ZM60,144c0-20,30-20,30,0V278c0,20-30,20-30,0ZM383,372c-73,63-242,65-318,0-15-13,4-35,19-23,66,55,216,54,279,0,15-13,34,10,19,23Zm5-93c0,20-30,20-30,0V144c0-20,30-20,30,0Z" transform="translate(0 -32)" style="fill:#fff"/></svg>