<svg id="Layer_1" data-name="Layer 1" xmlns="http://www.w3.org/2000/svg" viewBox="0 0 448 448"><title>invision</title><path d="M407,32H41A41,41,0,0,0,0,73V439a41,41,0,0,0,41,41H407a41,41,0,0,0,41-41V73A41,41,0,0,0,407,32ZM176,146c0,23-22,27-27,27a27,27,0,0,1-27-27C123,111,176,111,176,146ZM333,377c-66,0-34-74-25-107,14-46-45-59-60,1L222,374H177l8-32c-31,52-95,44-95-4,0-14,1-14,23-104H82l10-36h76c-34,134-33,127-33,138s41,14,57-23l20-79H180l10-36h69l-9,41c41-75,128-48,102,38-14,51-15,51-15,59s18,23,32-17l18,7C376,362,357,377,333,377Z" transform="translate(0 -32)" style="fill:#fff"/></svg>