<svg id="Layer_1" data-name="Layer 1" xmlns="http://www.w3.org/2000/svg" viewBox="0 0 640 496"><title>ioxhost</title><path d="M616,160H549C511,71,423,8,320,8,183,8,72,119,72,256a245,245,0,0,0,5,48H24a24,24,0,0,0,0,48H91c38,89,126,152,229,152,137,0,248-111,248-248a245,245,0,0,0-5-48h53a24,24,0,0,0,0-48Zm-96,96a200,200,0,0,1-375,96H424a24,24,0,0,0,0-48H126A200,200,0,0,1,496,160H216a24,24,0,0,0,0,48H514A200,200,0,0,1,520,256ZM216,232H424a24,24,0,0,1,0,48H216a24,24,0,0,1,0-48Z" transform="translate(0 -8)" style="fill:#fff"/></svg>