<svg id="Layer_1" data-name="Layer 1" xmlns="http://www.w3.org/2000/svg" viewBox="0 0 498 448"><title>itch-io</title><path d="M72,35C50,48,7,97,7,110v21c0,27,25,51,48,51s51-23,51-50c0,27,22,50,50,50s49-23,49-50c0,27,24,50,51,50h1c28,0,51-23,51-50,0,27,21,50,49,50s50-23,50-50c0,27,23,50,51,50s48-24,48-51V110c0-13-43-62-65-75-67-2-114-3-184-3S91,33,72,35ZM204,169c-22,38-78,39-100,0-13,23-43,32-56,28-4,40-14,237,18,269,80,19,302,18,380,0,32-32,21-232,18-269-13,4-43-5-56-28-22,39-78,38-100,0-7,12-23,29-52,29a58,58,0,0,1-52-29Zm-42,54c16,0,31,0,49,20a437,437,0,0,1,88,0c18-20,33-20,49-20,52,0,65,78,84,144s-6,64-34,64c-42-2-65-32-65-63-39,6-102,9-156,0,0,31-23,61-65,63-28,0-51-2-34-64s32-144,84-144Zm93,48s-44,41-52,55h29v25c0,2,21,0,23,0s23,1,23,0V325h29c-8-14-52-55-52-55Z" transform="translate(-7 -32)" style="fill:#fff"/></svg>