<svg id="Layer_1" data-name="Layer 1" xmlns="http://www.w3.org/2000/svg" viewBox="0 0 448 448"><title>itunes</title><path d="M224,80C129,80,53,157,53,252s77,171,171,171A171,171,0,0,0,395,252c0-95-77-171-171-171Zm79,240c-3,14-13,21-27,24s-22,3-32-5-12-26-1-37,20-10,38-13c3,0,6-1,8-4s2-2,2-81c0-6-3-7-8-6l-92,17c-5,1-7,3-7,8,0,116,1,111-1,119a29,29,0,0,1-15,20c-8,5-23,7-31,5-21-4-29-29-14-43s20-10,38-13c3,0,6-1,8-4s1-127,3-134a10,10,0,0,1,4-6l7-3,115-21c6,0,9,3,9,9,0,171,0,161-1,168ZM345,32H103A103,103,0,0,0,0,135V377A103,103,0,0,0,103,480H345A103,103,0,0,0,448,377V135A103,103,0,0,0,345,32ZM224,444C117,444,31,358,31,252S117,59,224,59s192,86,192,193S330,444,224,444Z" transform="translate(0 -32)" style="fill:#fff"/></svg>