<svg id="Layer_1" data-name="Layer 1" xmlns="http://www.w3.org/2000/svg" viewBox="0 0 377 512"><title>java</title><path d="M278,313c10-7,23-12,23-12s-39,7-77,10-98,5-123,1c-60-8,33-30,33-30s-36-2-81,19S183,338,278,313Zm-85-32c-19-43-83-80,0-146C296,53,243,0,243,0c22,85-76,110-111,163C108,199,144,237,192,281ZM307,105s-175,44-92,140c25,28-6,54-6,54s63-32,34-73S195,169,307,105Zm-6,270-2,3c128-34,81-119,20-97a17,17,0,0,0-8,6l11-3c31-6,76,42-21,91Zm47,62s15,12-16,21c-58,18-241,23-292,1-18-8,16-19,27-21s18-2,18-2c-20-14-131,28-56,40C233,509,401,461,348,437ZM124,396c-79,22,48,67,148,25l-28-14c-45,9-65,9-106,5S124,396,124,396Zm180,97c-79,15-176,13-233,4,0,0,12,10,72,14,92,6,234-3,237-47,0,0-6,17-76,30ZM261,353c-59,11-93,11-137,7s-12-20-12-20c-87,29,48,61,170,26A60,60,0,0,1,261,353Z" transform="translate(-3)" style="fill:#fff"/></svg>