<svg id="Layer_1" data-name="Layer 1" xmlns="http://www.w3.org/2000/svg" viewBox="0 0 463 512"><title>jenkins</title><path d="M487,425c-1-11-19-23-28-32s-29-23-30-30,10-21,13-29,9-24,11-33c19-66,21-157-6-211-10-21-39-49-56-62C348-4,271-7,220,11c-14,5-28,10-40,17-33,19-68,33-78,72-24,11-31,42-30,78,0,7,4,16,3,22s-5,8-6,10c-12,28-2,64,11,84a59,59,0,0,0,39,25c1,11,3,20,8,30s15,19,10,28-21,14-27,18c-21,12-36,20-56,34s-32,10-29,31,10,32,15,46l2,6H464l15-47c3-11,10-28,9-40ZM206,34c2,0,3,1,5,2s-5,5-9,7-13,10-20,17-14,28-23,30-10-1-14,0-18,6-28,8C130,67,173,43,206,34ZM101,127c14-15,32-24,55-26,12,30-8,65-1,98,2,10,10,25-2,26,0-28-35-46-61-30-2-21-5-52,10-68Zm37,200c-1-4-3-13-2-15s17-12,11-25c-11,0-14,10-24,11-27,3-46-35-44-58s18-38,40-36,21,19,24,35c9,1,23,0,27-8s-9-32-8-48c1-30,18-58,5-87,14-31,54-55,83-70s95-4,129,16c20,11,34,33,48,51-19-6-36,4-33,20,16-15,44,0,53,16s8,39,9,63c3,57-10,116-39,157-8,11-14,23-25,31-26,18-65,35-99,23-45-15-65-45-89-79,1,19,14,34,27,48s25,27,40,32c-12-3-31-4-36,7-29-2-55-5-69-24s-21-41-26-61ZM360,452c4-3,11-3,17-4a30,30,0,0,0-19-2c0-4-2-7-3-10,11-4,36-28,50-20s10,26,10,37-1,18-4,23c-19-1-36-3-51-7,1-6-1-12,1-16Zm-17-20c-17,1-26-1-38-11h2c18,8,41-3,59-5l-22,17Zm-12,33c-2-9-3-12-3-20C353,428,357,473,330,465ZM226,439c-12-1-48-14-38-24,9,7,28,5,41,7,1,4-3,10-3,16ZM58,497a342,342,0,0,0-15-37c31-24,65-49,102-63,3-1,23,25,26,28,17,12,37,21,56,30,1,9,4,20,9,36l2,7H58Zm241,6h0Zm8-6,6-4,3,4Zm15-25c-11,7-21,18-33,25s-27,12-33,10-4-5-5-9-10-23-11-37-2-46,16-42,32,10,44,16,11,9,22,10v4c-6,4-15,4-22,7a57,57,0,0,1,24,6v11Zm53,25H360a6,6,0,0,0-6-6,6,6,0,0,0-6,6H331l-9-12,6-7c9,4,15-5,22-4s14,12,25,11Zm9,0V486c16-7,29,1,36,12H383Zm83-37c-2,11-6,24-10,37H428l2-3c-3-6-9-9-11-15,12-23,7-93-24-78,4-6,16-11,21-19,13,10,21,20,33,31s20,13,21,23-3,19-4,25ZM222,131c5-15,27-35,45-32s18,8,12,18c-30-7-45,13-54,33-8-2-5-13-3-19Zm184,63c8-4,22-1,30-5-4-11-10-21-9-38h1c7,14,13,29,21,42C444,206,406,218,406,194Zm-97,3c-7-11-19-32-14-45,7,12,9,24,18,33s12,9,8,20-8,9-12,10-48,1-37-17c12,1,28,8,37-1Zm27,70c4,7,1,19,12,21s44-12,58-18-1-21-9-30-39-45-38-75c7-5,7,7,8,10,9,20,30,46,46,64,4,4,10,8,11,11s-5,18-4,23c-22,14-46,29-81,26-7-7-10-21-3-31Zm-201-9c-7-4-8-21-16-21s-9,22-9,36c-8-7-9-29-3-40-7-3-10,4-13,6C98,203,143,221,135,257Zm300,29c-10,19-24,40-54,41-1-6-1-16,0-19C404,305,418,294,435,286ZM293,298c19,10,54,11,79,10,1,6,1,13,1,19-33,2-72-6-81-30Zm92,47c-2,4-5,9-10,11s-46,9-62,0-17-18-23-26-17-13,0-13c13,33,58,29,96,28Z" transform="translate(-25 0)" style="fill:#fff"/></svg>