<svg id="Layer_1" data-name="Layer 1" xmlns="http://www.w3.org/2000/svg" viewBox="0 0 496 496"><title>joget</title><path d="M378,45A248,248,0,0,0,37,126C-35,243,1,395,118,467s269,36,341-81S495,117,378,45Zm52,323A213,213,0,0,1,248,470H228c-9-14-20-33-24-42s-27-46,31-67,177-16,209-18A233,233,0,0,1,430,368ZM229,282c-55-1-82-21-58-48s51-41,69-51,27-34-24-30C87,162,49,252,38,293A213,213,0,0,1,66,144C128,43,260,12,360,74a214,214,0,0,1,99,213l-230-5Zm184-55c-23-6-57,11-87,27s-31,8-31,8l51-34c11-6,32-14,13-25l-10-3c-18,0-41,19-67,36s-65,31-65,31l169-2,47-23s4-9-19-15Z" transform="translate(0 -8)" style="fill:#fff"/></svg>