<svg id="Layer_1" data-name="Layer 1" xmlns="http://www.w3.org/2000/svg" viewBox="0 0 448 448"><title>joomla</title><path d="M1,92A60,60,0,0,1,120,82c33-8,67,1,97,30l-44,44c-20-20-43-16-55-3a37,37,0,0,0,0,52l99,100-44,44L72,249c-27-26-35-65-25-99A59,59,0,0,1,1,92ZM130,209l44,44L274,153a37,37,0,0,1,52,0c13,13,17,35-3,55l44,44c31-31,39-68,29-101a60,60,0,1,0-67-68,99,99,0,0,0-98,25ZM396,361a99,99,0,0,0-26-94L271,167l-44,44L326,311a37,37,0,0,1,0,52c-13,13-35,17-55-3l-44,44a99,99,0,0,0,103,28,60,60,0,1,0,67-71Zm-84-53-44-44L168,363a37,37,0,0,1-52,0c-13-13-17-35,3-55L76,263c-30,30-38,65-29,98a60,60,0,1,0,72,72,99,99,0,0,0,94-26l99-100Z" transform="translate(0 -32)" style="fill:#fff"/></svg>