<svg id="Layer_1" data-name="Layer 1" xmlns="http://www.w3.org/2000/svg" viewBox="0 0 448 448"><title>js-square</title><path d="M400,32H48A48,48,0,0,0,0,80V432a48,48,0,0,0,48,48H400a48,48,0,0,0,48-48V80A48,48,0,0,0,400,32ZM244,381c0,44-26,64-63,64s-53-17-63-38l34-21c7,12,13,22,27,22s23-5,23-26V238h42V381Zm100,64c-39,0-64-19-77-43l34-20c9,15,21,26,42,26s29-9,29-21-11-19-31-28l-10-4c-30-13-50-29-50-63s24-56,62-56c27,0,46,9,60,34l-33,21c-7-13-15-18-27-18s-20,8-20,18,8,18,26,26l11,5c36,15,56,31,56,66s-30,59-70,59Z" transform="translate(0 -32)" style="fill:#fff"/></svg>