<svg id="Layer_1" data-name="Layer 1" xmlns="http://www.w3.org/2000/svg" viewBox="0 0 565 384"><title>jsfiddle</title><path d="M511,237c-5-3-6-6-6-11-2-16-4-34-9-49C459,78,341,34,248,86c-27,15-49,36-65,64l-8-4c-30-12-59-10-85,9s-36,45-33,76c0,3-2,8-5,10C13,271-4,319,11,366s58,80,106,81H459c53-1,96-37,108-87s-11-97-57-123Zm21,157c-18,22-42,35-71,36H126c-44,0-77-20-95-60s-4-91,34-116c9-6,13-12,10-23-5-26,4-48,26-63s47-16,72-3c10,5,15,12,22-3a151,151,0,0,1,61-61c97-54,228,8,230,133,0,8,2,12,10,16C554,277,571,346,532,394Zm-88-80c-6,31-35,55-67,55-17,0-32-7-44-18-28-26-71-75-96-93s-42-12-60,4c-50,44,16,122,67,77,5-4,8-10,13-13s21-1,13,11c-17,26-49,38-79,29s-49-36-49-70c1-22,12-43,35-56s46-13,67,2c51,38,76,82,107,101s54,7,69-18c29-49-35-105-79-63-4,4-7,9-11,12s-17-4-13-10c21-29,50-40,83-28s49,44,43,78Z" transform="translate(-6 -64)" style="fill:#fff"/></svg>