<svg id="Layer_1" data-name="Layer 1" xmlns="http://www.w3.org/2000/svg" viewBox="0 0 420 448"><title>keybase</title><path d="M286,419a18,18,0,1,0,18,18A18,18,0,0,0,286,419ZM398,271c-9-15-39-52-87-74l-18-7A78,78,0,0,0,250,88l-5-2c-12-4-23-6-32-6s-2-11,9-35L199,32l-5,8L169,74h-8l-41-2c-51,0-51,52-51,46l-2,37c-2,27,20,50,48,52h9a214,214,0,0,0-46,36C14,305,14,374,14,430v34l23-30a149,149,0,0,0,15,38c6,10,15,9,20,7s10-7,4-20a178,178,0,0,1-16-53l47-60L82,420c58-42,157-62,236-39,34,10,67,1,85-24l2-3a156,156,0,0,1,3,28c0,23-4,53-15,82-3,6,2,15,9,16s15-3,18-11c10-26,15-55,15-86s-13-77-36-111ZM142,129H127v22h13a93,93,0,0,0,0,20H116a12,12,0,0,1-12-13h0l2-37c1-12,14-11,13-11l29,2A144,144,0,0,0,142,129ZM291,301a11,11,0,0,1-14-1l-10-11-34,27a8,8,0,0,1-11-1l-16-19a7,7,0,0,1,1-10l35-27-14-17-17,13a8,8,0,0,1-11-1l-4-5a7,7,0,0,1,1-10l17-13-19-22a10,10,0,0,1,2-13h0a10,10,0,0,1,14,1l81,96a10,10,0,0,1-2,13h0ZM187,419a18,18,0,1,0,18,18A18,18,0,0,0,187,419Z" transform="translate(-14 -32)" style="fill:#fff"/></svg>