<?xml version="1.0" encoding="UTF-8"?>
<!DOCTYPE svg PUBLIC "-//W3C//DTD SVG 1.1//EN" "http://www.w3.org/Graphics/SVG/1.1/DTD/svg11.dtd">
<!-- Creator: CorelDRAW 2017 -->
<svg xmlns="http://www.w3.org/2000/svg" xml:space="preserve" width="210mm" height="297mm" version="1.1" style="shape-rendering:geometricPrecision; text-rendering:geometricPrecision; image-rendering:optimizeQuality; fill-rule:evenodd; clip-rule:evenodd"
viewBox="0 0 21000 29700"
 xmlns:xlink="http://www.w3.org/1999/xlink">
 <defs>
  <style type="text/css">
   <![CDATA[
    .fil0 {fill:white}
   ]]>
  </style>
 </defs>
 <g id="Layer_x0020_1">
  <metadata id="CorelCorpID_0Corel-Layer"/>
  <path class="fil0" d="M19250 7850l-17500 0c-967,0 -1750,783 -1750,1750l0 10500c0,967 783,1750 1750,1750l17500 0c967,0 1750,-783 1750,-1750l0 -10500c0,-967 -783,-1750 -1750,-1750zm292 12250c0,161 -131,292 -292,292l-17500 0c-161,0 -292,-131 -292,-292l0 -10500c0,-161 131,-292 292,-292l17500 0c161,0 292,131 292,292l0 10500zm-13344 -4740l0 -1021c0,-242 -196,-438 -438,-438l-1021 0c-242,0 -438,196 -438,438l0 1021c0,242 196,438 438,438l1021 0c242,0 438,-196 438,-438zm3500 0l0 -1021c0,-242 -196,-438 -438,-438l-1021 0c-242,0 -438,196 -438,438l0 1021c0,242 196,438 438,438l1021 0c242,0 438,-196 438,-438zm3500 0l0 -1021c0,-242 -196,-438 -438,-438l-1021 0c-242,0 -438,196 -438,438l0 1021c0,242 196,438 438,438l1021 0c242,0 438,-196 438,-438zm3500 0l0 -1021c0,-242 -196,-438 -437,-438l-1021 0c-242,0 -438,196 -438,438l0 1021c0,242 196,438 438,438l1021 0c242,0 437,-196 437,-438zm-12250 2990l0 -1021c0,-242 -196,-438 -438,-438l-1021 0c-242,0 -438,196 -438,438l0 1021c0,242 196,438 438,438l1021 0c242,0 438,-196 438,-438zm14000 0l0 -1021c0,-242 -196,-438 -438,-438l-1021 0c-242,0 -438,196 -438,438l0 1021c0,242 196,438 438,438l1021 0c242,0 438,-196 438,-438zm-14000 -5979l0 -1021c0,-242 -196,-438 -438,-438l-1021 0c-242,0 -438,196 -438,438l0 1021c0,242 196,438 438,438l1021 0c242,0 438,-196 438,-438zm3500 0l0 -1021c0,-242 -196,-438 -438,-438l-1021 0c-242,0 -438,196 -438,438l0 1021c0,242 196,438 438,438l1021 0c242,0 438,-196 438,-438zm3500 0l0 -1021c0,-242 -196,-438 -438,-438l-1021 0c-242,0 -438,196 -438,438l0 1021c0,242 196,438 438,438l1021 0c242,0 438,-196 438,-438zm3500 0l0 -1021c0,-242 -196,-438 -438,-438l-1021 0c-242,0 -438,196 -438,438l0 1021c0,242 196,438 438,438l1021 0c242,0 438,-196 438,-438zm3500 0l0 -1021c0,-242 -196,-438 -438,-438l-1021 0c-242,0 -438,196 -438,438l0 1021c0,242 196,438 438,438l1021 0c242,0 438,-196 438,-438zm-3573 5760l0 -583c0,-242 -196,-438 -438,-438l-7875 0c-242,0 -438,196 -438,438l0 583c0,242 196,438 438,438l7875 0c242,0 438,-196 438,-438z"/>
 </g>
</svg>
