<svg id="Layer_1" data-name="Layer 1" xmlns="http://www.w3.org/2000/svg" viewBox="0 0 512 495"><title>keycdn</title><path d="M64,409l61-59c32,43,71,66,127,67a162,162,0,0,0,86-22l21,22a191,191,0,0,1-226-14L94,441c10,30-13,62-46,62S0,482,0,455,33,398,64,409ZM419,157c19,31,30,67,29,104s-19,88-49,121l24,26a30,30,0,1,1-25,24l-44-47c43-34,63-80,64-124,1-29-7-57-21-82l22-21ZM104,53a30,30,0,0,1,8,26l46,48a163,163,0,0,0-23,21,162,162,0,0,0-21,185L92,356A189,189,0,0,1,64,251c1-45,18-88,47-121L86,103a30,30,0,1,1,18-50ZM465,8c26,0,47,22,47,48s-21,48-47,48l-16-2-63,60c-33-44-77-66-127-67-30-1-60,7-86,22L152,95a191,191,0,0,1,226,14l41-39a48,48,0,0,1-2-14C417,30,439,8,465,8ZM257,113h16c78,10,133,81,124,159S316,407,238,397,104,316,114,238s70-125,143-125ZM198,233c1,23,12,42,32,52l-11,52h74l-11-52c20-11,32-29,32-52s-26-57-58-58-57,25-58,58Z" transform="translate(0 -8)" style="fill:#fff"/></svg>