<?xml version="1.0" encoding="UTF-8"?>
<!DOCTYPE svg PUBLIC "-//W3C//DTD SVG 1.1//EN" "http://www.w3.org/Graphics/SVG/1.1/DTD/svg11.dtd">
<!-- Creator: CorelDRAW 2017 -->
<svg xmlns="http://www.w3.org/2000/svg" xml:space="preserve" width="210mm" height="297mm" version="1.1" style="shape-rendering:geometricPrecision; text-rendering:geometricPrecision; image-rendering:optimizeQuality; fill-rule:evenodd; clip-rule:evenodd"
viewBox="0 0 21000 29700"
 xmlns:xlink="http://www.w3.org/1999/xlink">
 <defs>
  <style type="text/css">
   <![CDATA[
    .fil0 {fill:white}
   ]]>
  </style>
 </defs>
 <g id="Layer_x0020_1">
  <metadata id="CorelCorpID_0Corel-Layer"/>
  <path class="fil0" d="M7113 11463c-749,0 -1355,605 -1355,1355 0,749 605,1355 1355,1355 749,0 1355,-605 1355,-1355 0,-749 -605,-1355 -1355,-1355zm5758 5589c0,-813 -1219,-1757 -3027,-1863 -161,-17 -313,102 -347,263 -38,161 47,326 199,390l716 305c550,233 881,572 881,910 0,339 -330,677 -876,910l-720 305c-241,102 -254,517 0,627l716 305c550,233 881,572 881,910 0,339 -330,677 -876,910l-720 305c-152,64 -237,229 -199,390 34,152 174,263 330,263l21 0c1812,-106 3027,-1050 3027,-1863 0,-550 -567,-1156 -1490,-1524 919,-385 1486,-991 1486,-1541zm-2371 -12702c-5800,0 -10500,4700 -10500,10500 0,5800 4700,10500 10500,10500 5800,0 10500,-4700 10500,-10500 0,-5800 -4700,-10500 -10500,-10500zm0 18968c-4670,0 -8468,-3798 -8468,-8468 0,-4670 3798,-8468 8468,-8468 4670,0 8468,3798 8468,8468 0,4670 -3798,8468 -8468,8468zm3387 -11855c-749,0 -1355,605 -1355,1355 0,749 605,1355 1355,1355 749,0 1355,-605 1355,-1355 0,-749 -605,-1355 -1355,-1355z"/>
 </g>
</svg>
