<?xml version="1.0" encoding="UTF-8"?>
<!DOCTYPE svg PUBLIC "-//W3C//DTD SVG 1.1//EN" "http://www.w3.org/Graphics/SVG/1.1/DTD/svg11.dtd">
<!-- Creator: CorelDRAW 2017 -->
<svg xmlns="http://www.w3.org/2000/svg" xml:space="preserve" width="210mm" height="297mm" version="1.1" style="shape-rendering:geometricPrecision; text-rendering:geometricPrecision; image-rendering:optimizeQuality; fill-rule:evenodd; clip-rule:evenodd"
viewBox="0 0 21000 29700"
 xmlns:xlink="http://www.w3.org/1999/xlink">
 <defs>
  <style type="text/css">
   <![CDATA[
    .fil0 {fill:white}
   ]]>
  </style>
 </defs>
 <g id="Layer_x0020_1">
  <metadata id="CorelCorpID_0Corel-Layer"/>
  <path class="fil0" d="M4991 14200c-115,-397 -256,-1089 -256,-1089l-16 0c0,0 -141,692 -256,1089l-364 1230 1250 0 -358 -1230zm15222 -4600l-9188 0 0 10500 9188 0c436,0 788,-351 788,-788l0 -8925c0,-436 -351,-788 -788,-788zm-788 3938c0,217 -177,394 -394,394l-374 0c-226,774 -712,1555 -1401,2294 276,210 561,410 856,591 180,112 240,345 135,532l-259 456c-112,194 -358,256 -548,141 -413,-256 -804,-528 -1162,-817 -358,285 -745,561 -1162,817 -190,115 -436,53 -548,-141l-259 -456c-105,-184 -46,-420 138,-532 305,-187 591,-384 856,-591 -259,-276 -489,-558 -689,-843 -131,-187 -72,-446 121,-561l213 -128 240 -141c177,-105 407,-56 525,112 164,230 354,459 571,686 443,-466 781,-948 984,-1418l-3750 0c-217,0 -394,-177 -394,-394l0 -525c0,-217 177,-394 394,-394l2100 0 0 -525c0,-217 177,-394 394,-394l525 0c217,0 394,177 394,394l0 525 2100 0c217,0 394,177 394,394l0 525zm-19425 -3150l0 8925c0,436 351,788 788,788l9188 0 0 -10500 -9188 0c-436,0 -788,351 -788,788zm1933 7091l1887 -5549c56,-161 203,-266 374,-266l1066 0c167,0 318,108 374,266l1887 5549c85,256 -102,522 -374,522l-751 0c-174,0 -328,-115 -377,-282l-308 -1047 -1975 0 -299 1043c-49,167 -203,285 -377,285l-751 0c-269,0 -459,-266 -374,-522z"/>
 </g>
</svg>
