<?xml version="1.0" encoding="UTF-8"?>
<!DOCTYPE svg PUBLIC "-//W3C//DTD SVG 1.1//EN" "http://www.w3.org/Graphics/SVG/1.1/DTD/svg11.dtd">
<!-- Creator: CorelDRAW 2017 -->
<svg xmlns="http://www.w3.org/2000/svg" xml:space="preserve" width="210mm" height="297mm" version="1.1" style="shape-rendering:geometricPrecision; text-rendering:geometricPrecision; image-rendering:optimizeQuality; fill-rule:evenodd; clip-rule:evenodd"
viewBox="0 0 21000 29700"
 xmlns:xlink="http://www.w3.org/1999/xlink">
 <defs>
  <style type="text/css">
   <![CDATA[
    .fil0 {fill:white}
   ]]>
  </style>
 </defs>
 <g id="Layer_x0020_1">
  <metadata id="CorelCorpID_0Corel-Layer"/>
  <path class="fil0" d="M20475 20100l-7956 0c-24,650 -483,1050 -1074,1050l-1995 0c-613,0 -1083,-573 -1075,-1050l-7850 0c-289,0 -525,236 -525,525l0 525c0,1155 945,2100 2100,2100l16800 0c1155,0 2100,-945 2100,-2100l0 -525c0,-289 -236,-525 -525,-525zm-1575 -12075c0,-866 -709,-1575 -1575,-1575l-13650 0c-866,0 -1575,709 -1575,1575l0 11025 16800 0 0 -11025zm-2100 8925l-12600 0 0 -8400 12600 0 0 8400z"/>
 </g>
</svg>
