<svg id="Layer_1" data-name="Layer 1" xmlns="http://www.w3.org/2000/svg" viewBox="0 0 497 512"><title>laravel</title><path d="M504,116h-4L404,56a8,8,0,0,0-8,0l-96,55h-4V223l-80,46V61h-4L116,1a8,8,0,0,0-8,0L11,56H8V393a8,8,0,0,0,4,7L204,511h8L404,400a8,8,0,0,0,4-7V288l92-53a8,8,0,0,0,4-7V116ZM112,17h0l80,46-80,46L31,63Zm88,60V279l-47,27-34,19V124l47-27Zm0,413L23,389V77L57,97l47,27V339h4l92,52Zm8-106-80-45,84-48,92-53,80,46-59,34Zm185,5L216,490V398l131-75,46-26Zm0-119-34-19-47-27V132l34,19,47,27Zm8-105-80-46,80-46,80,46Zm8,105V178l47-27,34-19v91h0Z" transform="translate(-7 0)" style="fill:#fff"/></svg>