<svg id="Layer_1" data-name="Layer 1" xmlns="http://www.w3.org/2000/svg" viewBox="0 0 448 448"><title>lastfm-square</title><path d="M400,32H48A48,48,0,0,0,0,80V432a48,48,0,0,0,48,48H400a48,48,0,0,0,48-48V80A48,48,0,0,0,400,32ZM308,345c-63,0-85-29-97-64-16-51-21-84-63-84-22,0-45,16-45,61s18,57,43,57,48-21,48-21l12,32s-20,19-61,19-80-30-80-86,29-92,83-92c74,0,81,41,101,102,9,27,24,46,61,46,25,0,38-5,38-19s-22-22-50-29-42-23-42-48c0-40,32-52,65-52s60,14,63,47l-37,4c-1-16-11-22-29-22s-26,7-26,20,5,18,21,21c33,7,72,12,72,58s-31,51-76,51Z" transform="translate(0 -32)" style="fill:#fff"/></svg>