<svg id="Layer_1" data-name="Layer 1" xmlns="http://www.w3.org/2000/svg" viewBox="0 0 512 284"><title>lastfm</title><path d="M226,367l-19-51s-30,34-76,34-69-35-69-91c0-72,36-98,72-98,67,0,75,53,101,135,19,57,54,103,155,103,73,0,122-22,122-81,0-73-63-81-115-92-26-6-33-16-33-34s16-32,42-32,43,11,46,36l59-7c-5-53-41-74-101-74s-104,20-104,84c0,40,19,65,68,77s80,14,80,46-21,31-61,31c-59,0-84-31-98-74-32-97-44-163-161-163C46,114,0,168,0,261S46,398,128,398C194,398,226,367,226,367Z" transform="translate(0 -114)" style="fill:#fff"/></svg>