<svg id="Layer_1" data-name="Layer 1" xmlns="http://www.w3.org/2000/svg" viewBox="0 0 562 384"><title>leanpub</title><path d="M387,111l15,249H391a186,186,0,0,0-103,28c-31-19-66-28-103-28s-82,11-124,28L93,130a248,248,0,0,1,92-18c41,0,74,13,103,43C316,126,347,112,387,111ZM569,448c-26,0-47-5-71-16-34-16-70-25-108-25s-75,13-103,41c-28-28-64-41-103-41s-74,9-108,25c-22,10-45,16-69,16H7L49,99c39-22,87-35,132-35s75,8,106,29c31-21,69-29,106-29s93,13,132,35Zm-43-45L492,123c-31-14-67-21-101-21s-74,12-103,39c-28-27-64-39-103-39s-70,7-101,21L50,403c47-19,83-33,135-33,38,0,71,10,103,30,32-20,65-30,103-30,52,0,88,14,135,33Z" transform="translate(-7 -64)" style="fill:#fff"/></svg>