<svg id="Layer_1" data-name="Layer 1" xmlns="http://www.w3.org/2000/svg" viewBox="0 0 640 274"><title>less</title><path d="M613,219c0-20,3-33,3-55,0-34-13-45-40-45H555v24h6c14,0,17,5,17,22s-2,33-2,52,8,34,24,37v2c-16,4-24,13-24,37s2,34,2,52-4,23-17,23h-6v25h21c28,0,41-11,41-45,0-23-3-34-3-55s7-23,27-24V242c-20-1-27-12-27-23ZM507,251c-16-6-30-10-30-20s6-13,18-13,22,5,34,13l21-28c-13-10-31-20-55-20-36,0-60,21-60,49s23,39,42,46,32,12,32,22-6,13-20,13-26-5-40-16l-21,31c16,13,40,22,60,22,42,0,65-22,65-51s-22-41-43-48ZM148,310c-4,0-8-3-8-13V119H65c-28,0-41,11-41,45,0,23,3,35,3,55s-7,23-27,24v27c20,1,27,12,27,23s-3,31-3,54c0,34,13,45,41,45H85V368H79c-13,0-17-5-17-23s2-32,2-51-8-34-24-37v-2c16-4,24-13,24-37s-2-34-2-51,4-22,17-22H93V294c0,32,11,53,43,53,10,0,18-2,24-4l-5-34h-6Zm232-59c-16-6-31-10-31-20s6-13,18-13,22,5,34,13l21-28c-13-10-31-20-55-20-36,0-60,21-60,49s23,39,42,46,32,12,32,22-6,13-20,13-26-5-40-16l-20,31c16,13,40,22,60,22,42,0,65-22,65-51s-22-41-43-48ZM225,182c-38,0-75,32-74,83s34,83,79,83c19,0,40-7,56-18l-16-28c-12,7-23,10-34,10s-37-10-41-34h95a138,138,0,0,0,2-19c1-43-23-76-67-76Zm-30,66c3-21,16-31,31-31s26,13,26,31Z" transform="translate(0 -119)" style="fill:#fff"/></svg>