<svg id="Layer_1" data-name="Layer 1" xmlns="http://www.w3.org/2000/svg" viewBox="0 0 448 448"><title>line</title><path d="M272,204v71a3,3,0,0,1-3,3H255l-33-44v42a3,3,0,0,1-3,3H208a3,3,0,0,1-3-3V204a3,3,0,0,1,3-3h14l33,44V204a3,3,0,0,1,3-3h11a3,3,0,0,1,3,3Zm-82-3H179a3,3,0,0,0-3,3v71a3,3,0,0,0,3,3h11a3,3,0,0,0,3-3V204a3,3,0,0,0-3-3Zm-27,60H132V204a3,3,0,0,0-3-3H117a3,3,0,0,0-3,3v73h48a3,3,0,0,0,3-3V264a3,3,0,0,0-3-3Zm169-60H286a3,3,0,0,0-3,3v71a3,3,0,0,0,3,3h46a3,3,0,0,0,3-3V264a3,3,0,0,0-3-3H301V249h31a3,3,0,0,0,3-3V234a3,3,0,0,0-3-3H301V219h31a3,3,0,0,0,3-3V204a3,3,0,0,0-3-3Zm116-87V399c0,45-37,81-82,81H81c-45,0-81-37-81-82V113C0,68,37,32,82,32H367C412,32,448,69,448,114ZM386,236c0-73-73-132-163-132S60,163,60,236s58,120,136,131c19,4,17,11,13,37-1,4-3,16,14,9s94-55,128-95C375,292,386,266,386,236Z" transform="translate(0 -32)" style="fill:#fff"/></svg>