<svg id="Layer_1" data-name="Layer 1" xmlns="http://www.w3.org/2000/svg" viewBox="0 0 427 512"><title>linode</title><path d="M437,226v-2l-70-39h-3l-59,36a3,3,0,0,0-1,3v31l-24-16h-3l-35,21V226a3,3,0,0,0-1-2l-36-24,34-17a3,3,0,0,0,2-3L231,47l-2-3L139,0h-2L13,39a3,3,0,0,0-2,4L38,175c1,3,34,27,39,31L50,219a3,3,0,0,0-2,3L69,323c1,3,24,23,27,26L78,360a3,3,0,0,0-1,3c1,7,15,78,17,79l65,69h4l84-67a2,2,0,0,0,1-2l-2-46,28,24h4l67-53a2,2,0,0,0,1-2l2-33,20,14h4l55-44v-2c1-6,10-71,10-73Zm-205,5,4,93-91,61-14-97,101-57ZM225,51l5,126L124,233,104,98ZM44,173,18,48,98,97l19,133ZM75,321,56,230l70,58,14,93L75,321ZM99,439,85,372l62,61,10,67L99,439Zm65,65-11-71,86-61,3,70Zm82-115c0-3,1-23-2-25l-24-20,22-15c2-2,1-6,1-8l29,23v68Zm94-25-61,49V343l66-47Zm28-26-19-13,2-34a3,3,0,0,0-1-3l-41-27V230l65,41Zm55-40-48,38,6-65,51-37-8,63Z" transform="translate(-11)" style="fill:#fff"/></svg>