<svg id="Layer_1" data-name="Layer 1" xmlns="http://www.w3.org/2000/svg" viewBox="0 0 423 512"><title>linux</title><path d="M221,123l3,2c1,0,3,0,3-1s-2-2-3-3h-6c0,1,2,1,3,2Zm-22,2,3-2c1-1,3,0,4-2h-6c-1,1-3,2-3,3ZM420,404c-4-4-5-12-7-20s-4-17-10-22l-4-3-4-2c9-27,6-54-4-79s-31-56-46-74-34-42-33-72c1-46,5-131-76-131-102,0-77,103-78,135s-6,42-22,65-45,59-58,97c-6,18-9,36-6,53-6,6-11,15-17,20s-10,6-17,8-14,6-18,15a26,26,0,0,0-3,12,79,79,0,0,0,1,12c1,8,3,16,1,21s-6,24-2,32,11,11,20,12,41,3,59,13,40,14,56,10,21-10,26-20,26-5,48-7,34,5,55,4l3,7h0c8,17,24,24,40,23s34-11,48-28,36-23,51-32,13-10,14-18-4-17-15-30ZM224,87c10-22,34-22,44,0s4,31-4,40l-13-5,4-5c5-12,0-27-9-27s-14,11-12,23l-13-4A40,40,0,0,1,224,87ZM183,76c10,0,21,14,19,34l-10,5c1-9-3-20-10-20s-10,21-2,28,2,0-6,6C159,113,164,76,183,76Zm-14,61,14-10c5-4,14-14,28-14s16,2,26,9,11,4,23,9,14,10,11,18-11,14-23,18-20,16-38,15l-10-2c-8-3-12-10-20-15s-13-10-15-15,0-9,4-12Zm3,334c-3,35-44,34-75,18s-69-6-76-22c-2-5-2-13,3-26h0c2-8,1-16-1-24s-2-15,1-20,9-9,15-11,12-3,20-10,10-13,14-18,10-8,18-7,15,7,22,16l20,36c10,20,43,48,41,69Zm-1-26a215,215,0,0,0-14-20c7,0,14-2,17-9s0-15-7-25-38-32-38-32c-13-8-21-19-25-30s-3-23,0-35c5-23,19-45,27-59,2-2,1,3-9,21s-24,53-3,82a173,173,0,0,1,14-61c12-27,37-75,39-113l6,4c5,3,8,7,13,10s29,9,42,1,11-7,16-9,18-9,22-15c8,30,26,74,37,96s18,36,24,65h11c14-36-12-74-23-85s-5-7-3-6c13,11,29,34,35,59a76,76,0,0,1,0,36c16,7,36,18,31,35h-4c3-10-4-18-23-26s-36-9-38,13c-12,4-18,15-21,27s-4,25-4,40-4,18-7,29c-32,23-77,33-114,7Zm257-11c-1,17-41,20-63,47-13,16-29,24-44,26s-26-5-34-19-2-23,1-36,9-29,10-41,2-28,4-39,7-17,14-21h1c1,13,7,27,19,30s31-7,38-16,16-1,23,5,7,30,17,42,14,20,14,25ZM173,149l8,7c7,5,16,11,27,11s23-6,32-11l15-10c4-3,6-6,3-7s-3,3-6,5l-14,10c-7,4-19,10-30,10s-19-5-25-10l-8-7c-1-1-2-5-4-5s-2,4,2,7Z" transform="translate(-13 0)" style="fill:#fff"/></svg>