<?xml version="1.0" encoding="UTF-8"?>
<!DOCTYPE svg PUBLIC "-//W3C//DTD SVG 1.1//EN" "http://www.w3.org/Graphics/SVG/1.1/DTD/svg11.dtd">
<!-- Creator: CorelDRAW 2017 -->
<svg xmlns="http://www.w3.org/2000/svg" xml:space="preserve" width="210mm" height="297mm" version="1.1" style="shape-rendering:geometricPrecision; text-rendering:geometricPrecision; image-rendering:optimizeQuality; fill-rule:evenodd; clip-rule:evenodd"
viewBox="0 0 21000 29700"
 xmlns:xlink="http://www.w3.org/1999/xlink">
 <defs>
  <style type="text/css">
   <![CDATA[
    .fil0 {fill:white}
   ]]>
  </style>
 </defs>
 <g id="Layer_x0020_1">
  <metadata id="CorelCorpID_0Corel-Layer"/>
  <path class="fil0" d="M18750 13350l-1125 0 0 -3375c0,-3928 -3197,-7125 -7125,-7125 -3928,0 -7125,3197 -7125,7125l0 3375 -1125 0c-1242,0 -2250,1008 -2250,2250l0 9000c0,1242 1008,2250 2250,2250l16500 0c1242,0 2250,-1008 2250,-2250l0 -9000c0,-1242 -1008,-2250 -2250,-2250zm-4875 0l-6750 0 0 -3375c0,-1861 1514,-3375 3375,-3375 1861,0 3375,1514 3375,3375l0 3375z"/>
 </g>
</svg>
