<svg id="Layer_1" data-name="Layer 1" xmlns="http://www.w3.org/2000/svg" viewBox="0 0 512 362"><title>lyft</title><path d="M0,81H78V290c0,33,15,53,27,61-13,11-51,21-80-3C8,334,0,311,0,289ZM486,255V233h24V156H484a103,103,0,0,0-203,22V357c16,2,35,0,52-14s25-37,25-59v-7h39V200H357V177c0-35,52-35,52,0v77A103,103,0,0,0,512,357V281A26,26,0,0,1,486,255ZM192,156V269c0,15-24,15-24,0V156H91V288c0,24,8,54,45,64s58-11,58-11c-2,13-14,23-35,25s-35-4-45-8v70c25,8,52,10,78,5,47-9,77-48,77-101V155H192Z" transform="translate(0 -75)" style="fill:#fff"/></svg>