<svg id="Layer_1" data-name="Layer 1" xmlns="http://www.w3.org/2000/svg" viewBox="0 0 423 449"><title>mailchimp</title><path d="M331,244h9c2-4,2-10,0-18s-5-17-11-16-6,9-4,19,3,11,6,14Zm-54,8c4,2,7,3,8,2s-3-9-12-13a31,31,0,0,0-31,4c-3,2-6,5-5,7s10-3,23-3,13,2,17,4Zm-9,5c-9,1-15,7-13,10h5a37,37,0,0,1,19-2h5c1-2-6-8-15-7Zm54,17c3-7-11-14-14-7s11,14,14,7Zm16-20c-8,0-8,16,0,16s8-16,0-16ZM119,333c-1,0-6,1-8-2s11-20,3-36-28-14-35-6-9,24-5,24,4-6,7-12a13,13,0,0,1,18-4h0c12,8,1,18,2,29s18,16,22,9a2,2,0,0,0,0-2c0,1,1-1-3,0Zm300-17c-3-12-3-9-7-21s15-24-3-43-34-17-41-19,5-59-22-83c21-22,34-45,34-66,0-39-48-51-107-26l-13,5L237,41C170-18-42,217,26,274l15,13a72,72,0,0,0-4,34c3,33,36,60,68,60,58,133,268,133,322,3,2-4,9-25,9-42s-10-25-17-25ZM103,364c-23-1-47-21-50-46-6-61,74-75,84-12,5,30-5,58-34,58ZM84,250c-15,3-29,12-37,23-5-4-14-12-16-15-13-25,14-73,33-100C112,91,186,40,220,49c6,2,24,23,24,23s-34,19-66,45c-43,33-75,81-94,132ZM323,351s-36,5-70-7c6-20,27,6,96-14,15-4,35-13,51-25a103,103,0,0,1,7,24c4-1,14-1,11,18s-12,36-26,51a107,107,0,0,1-31,23l-20,9c-54,17-108-2-126-43l-4-10c-8-27-1-60,19-80,1-1,2-3,2-5a8,8,0,0,0-2-5c-7-10-31-27-26-61s24-41,44-40h5l23,2c12,1,22-1,35-12s8-7,13-8a17,17,0,0,1,14,2c10,7,11,23,12,34v28c1,11,3,12,9,14l11,3c13,4,21,7,26,12a16,16,0,0,1,5,9c2,11-9,25-36,38-47,22-94,14-100,14-20-3-32,23-20,41,23,33,122,20,151-21,1-1,0-2-1-1-42,29-97,38-128,26-5-2-15-6-16-17,44,13,71,1,71,1s2-3-1-3ZM171,158c17-19,37-36,56-46h1a1,1,0,0,1,0,1c-1,3-4,8-5,13h1c11-8,31-16,49-17h1l-8,8a1,1,0,0,0,0,1h0c12,0,30,4,41,11,1,0,0,2-1,2-70-16-123,19-134,27h-1a1,1,0,0,1,0-1Z" transform="translate(-13 -32)" style="fill:#fff"/></svg>