<?xml version="1.0" encoding="UTF-8"?>
<!DOCTYPE svg PUBLIC "-//W3C//DTD SVG 1.1//EN" "http://www.w3.org/Graphics/SVG/1.1/DTD/svg11.dtd">
<!-- Creator: CorelDRAW 2017 -->
<svg xmlns="http://www.w3.org/2000/svg" xml:space="preserve" width="210mm" height="297mm" version="1.1" style="shape-rendering:geometricPrecision; text-rendering:geometricPrecision; image-rendering:optimizeQuality; fill-rule:evenodd; clip-rule:evenodd"
viewBox="0 0 21000 29700"
 xmlns:xlink="http://www.w3.org/1999/xlink">
 <defs>
  <style type="text/css">
   <![CDATA[
    .fil0 {fill:white}
   ]]>
  </style>
 </defs>
 <g id="Layer_x0020_1">
  <metadata id="CorelCorpID_0Corel-Layer"/>
  <g>
   <path class="fil0" d="M10500 0c2050,0 3713,1662 3713,3713 0,2050 -1662,3713 -3713,3713 -2050,0 -3713,-1662 -3713,-3713 0,-2050 1662,-3713 3713,-3713l0 0zm2784 8353l-659 0c-1317,606 -2877,632 -4251,0l-659 0c-1538,0 -2784,1247 -2784,2784l0 7889c0,769 623,1392 1392,1392l928 0 0 7889c0,769 623,1392 1392,1392l3713 0c769,0 1392,-623 1392,-1392l0 -7889 928 0c769,0 1392,-623 1392,-1392l0 -7889c0,-1538 -1247,-2784 -2784,-2784l0 0z"/>
  </g>
 </g>
</svg>
