<svg id="Layer_1" data-name="Layer 1" xmlns="http://www.w3.org/2000/svg" viewBox="0 0 391 512"><title>mandalorian</title><path d="M232,512c-1-3-2-16-1-25s1-25,1-29,3-21,3-21,0-28,0-33-1-12-1-21-1-20-3-25-1-4-1-11a92,92,0,0,0,0-13c-2-13-3-28-3-34s0-7,2-10,7-14,9-23l5-21a110,110,0,0,1,4-15c2-6,2-15,0-15l-2,3-8,7c-8,6-12,9-13,13s-1,7,0,8l2,5a29,29,0,0,1,1,15v16a10,10,0,0,1-2,4c-1,1-1,1-2-1v-5l-3-12c-3-11-4-16-1-21l2-5c0-2-2-5-7-10s-9-8-10-11-3-4-5-2-3,9-3,22v12l2,2,14,20c3,7,4,12,4,24s1,23,2,25v6a38,38,0,0,1,2,9,91,91,0,0,0,2,10c2,10,3,14,2,20s-1,11-1,17c-1,42-2,58-2,61s0,12-1,21-1,27-2,29-8-5-13-9-4-5-3-10,2-18,3-33V436c1-9,2-20,3-35s1-16,2-18,1-10,1-19V347l-2-4c-2-3-5-7-13-15l-13-14-2-3V300c1-16,1-49,0-59v-9l-3-5c-6-8-6-8-6-33,0-6,0-11-1-12s-3-3-9-3-11-2-24-15l-14-13c-3-2-3-2-1-10v-5l-2-3-3-4c-1-2-5-11-6-13a4,4,0,0,1,1-4c2-3,3-6,4-11s8-26,11-29,8-1,9,5,1,10,0,19a101,101,0,0,0-1,11c0,4,0,5,2,7s8,7,15,11l5,3c11,11,19,16,23,17s8,5,10,13,4,11,5,11h3c2-1,2-2,2-4a133,133,0,0,0-2-18V135c-3-11-4-15-4-16s-4-10-5-16-4-14-13-17a43,43,0,0,1-13-8l-6-5-5-4-3-2c-6-4-9-7-11-12l-2-5V24l7-7,11-8c3-2,4-2,11-2s10,0,12,2,1,6,0,9v2l-5,9-2,7c20,13,22,4,14,29l11,3c3-9,6-17,9-26s-12-4-15-9,3-14,6-19,7-5,9-4h7l8-2h18l6,2,5,2c3,1,3,1,7-2l4-2h11c10,0,11,0,15-3l5-2h2c2,1,3,3,5,6s2,5,1,7-1,3,0,6l2,6v4c0,4,0,5-2,7s-7,8-7,9v3c-5,12-7,14-14,17s-12,5-16,5h-5l-4,4-4,5-2,3-2,2-7,5-8,6-2,2-2,2c-1,1-1,2-1,5v6c1,4,1,8,0,11a10,10,0,0,0,1,10c2,3,2,5,1,9a33,33,0,0,0-1,9c0,5,0,6,1,8s2,2,3,2,2-1,5-12,4-12,14-17l10-5,9-5a40,40,0,0,0,15-12c7-9,10-16,13-33a18,18,0,0,1,3-8,20,20,0,0,0,3-7c1-5,3-9,6-12s6-1,5,11V82l4,4,4,4v8c0,5,0,10,1,11v2l-6,6c-9,8-13,14-17,22l-4,8c-2,3-6,13-9,20l-2,7-7,6-9,8c-3,2-4,5-4,10a15,15,0,0,0,2,7l2,5,2,3c1,2,2,16,1,23s-4,12-5,12-4,9-5,21v9c0,3-1,10-1,16s0,19,2,23,1,13-11,23l-4,3v5a41,41,0,0,0,1,9c5,16,5,17,4,37s0,40,1,44v14c0,2,1,11,1,23v19l-2,3c-3,4-15,14-15,12Zm30-45s0-7,0-15-1-28-2-34-1-10-1-17-1-24-3-26-3-18-3-21,1-6,5-9,5-3,5-1l3,10c4,15,4,16,4,22s0,6-2,18-1,12-1,28-1,36-2,41-3,5-3,4Zm-71-38a101,101,0,0,1-2-11,100,100,0,0,0-2-11,38,38,0,0,1-1-6v-9c-1-5-3-19-3-21v-7c-1-6-1-28,0-28s7,3,11,7l5,5v6c0,4-1,10-1,15s0,10-1,12-1,9-1,17-2,31-3,32h-1ZM104,163c21,13,18,14,28,18s19,7,23,17c-44,36-69,58-77,71-31,52-6,102,63,87-14,29-78,29-99-5S21,232,104,163ZM314,342c57,7,82-38,47-89l-64-68c3-15,9-32,31-54,89,64,92,142,92,149,4,71-79,91-105,62Z" transform="translate(-29)" style="fill:#fff"/></svg>