<svg id="Layer_1" data-name="Layer 1" xmlns="http://www.w3.org/2000/svg" viewBox="0 0 418 448"><title>mastodon</title><path d="M433,179c0-97-64-126-64-126C307,25,141,25,79,53c0,0-64,29-64,126,0,116-7,259,106,289,41,11,75,13,103,11,51-3,79-18,79-18l-2-37s-36,11-77,10-83-4-90-54a103,103,0,0,1-1-14c86,21,159,9,179,7,56-7,105-41,111-73,10-50,9-121,9-121ZM358,304H311V190c0-50-64-52-64,7v63H201V197c0-58-64-57-64-7V304H90c0-122-5-148,18-175s80-31,104,6l12,20,12-19c24-37,78-35,104-6s18,53,18,175Z" transform="translate(-15 -32)" style="fill:#fff"/></svg>