<svg id="Layer_1" data-name="Layer 1" xmlns="http://www.w3.org/2000/svg" viewBox="0 0 320 512"><title>medapps</title><path d="M118,238c4-12,7-34,13-34s10,23,19,37c5-23,5-85,14-87s20,67,22,78,49,7,49,7-24,8-40,8c-5,15-5,28-11,28s-8-29-17-50l-9,66c-4,13-15-22-22-39-3,0-62-2-48-8l31-5ZM228,448c21,0,21-32,0-32H92c-21,0-21,32,0,32Zm-24,64c21,0,21-32,0-32H116c-21,0-21,32,0,32Zm34-141c3-19,5-36,12-49s16-28,24-41c25-40,46-75,46-125C320,70,248,0,160,0S0,70,0,155c0,50,21,85,46,126,8,13,16,26,24,41s9,30,12,49,36,16,33-5-6-41-15-59c-33-60-66-96-66-152C33,87,90,32,160,32S287,87,287,155c0,56-33,91-66,152-10,18-12,37-15,59s29,26,33,5Z" style="fill:#fff"/></svg>