<svg id="Layer_1" data-name="Layer 1" xmlns="http://www.w3.org/2000/svg" viewBox="0 0 544 496"><title>medrt</title><path d="M114,256c0,122,84,223,194,241a249,249,0,0,1-58,7C111,504,0,393,0,256S111,8,249,8a247,247,0,0,1,58,7C198,33,114,134,114,256M411,356c-78,55-180,48-240-15a191,191,0,0,0,22,41c62,88,182,109,270,47s108-184,47-273a193,193,0,0,0-30-34c37,79,11,178-67,234M192,112l-4,3A168,168,0,0,1,392,334c57-56,68-142,22-202S265,58,192,112M296,224a8,8,0,0,1-8-8V176a8,8,0,0,0-8-8H232a8,8,0,0,0-8,8v40a8,8,0,0,1-8,8H176a8,8,0,0,0-8,8v48a8,8,0,0,0,8,8h40a8,8,0,0,1,8,8v40a8,8,0,0,0,8,8h48a8,8,0,0,0,8-8V296a8,8,0,0,1,8-8h40a8,8,0,0,0,8-8V232a8,8,0,0,0-8-8Z" transform="translate(0 -8)" style="fill:#fff"/></svg>