<svg id="Layer_1" data-name="Layer 1" xmlns="http://www.w3.org/2000/svg" viewBox="0 0 528 512"><title>meetup</title><path d="M99,414a10,10,0,0,1-8,12,10,10,0,0,1-12-8,11,11,0,0,1,8-12A10,10,0,0,1,99,414Zm143,71a15,15,0,0,0-4,20,14,14,0,0,0,20,4,14,14,0,0,0,3-20,14,14,0,0,0-20-4ZM156,23a12,12,0,0,0,9-14,11,11,0,0,0-14-9,12,12,0,0,0-9,14,11,11,0,0,0,14,9ZM34,226a22,22,0,0,0-31,6,22,22,0,0,0,6,31,22,22,0,0,0,31-6A23,23,0,0,0,34,226ZM306,55a22,22,0,0,0,8-30,22,22,0,0,0-30-8,22,22,0,0,0-7,31,21,21,0,0,0,30,7ZM115,113a17,17,0,0,0,4-24,17,17,0,0,0-23-4,17,17,0,0,0-4,24A16,16,0,0,0,115,113ZM488,269a14,14,0,0,0-11,17,14,14,0,0,0,16,11,14,14,0,0,0,11-17A14,14,0,0,0,488,269Zm40-57a10,10,0,0,0-12-8c-6,1-9,7-8,13a10,10,0,1,0,20-5Zm-80-74a19,19,0,0,0-5,26c6,9,17,11,26,5a19,19,0,0,0,5-26A18,18,0,0,0,447,139Zm-6,139c26,43,15,100-26,129a93,93,0,0,1-57,17c-12,47-69,65-105,33l-4,3a85,85,0,0,1-119-22,88,88,0,0,1-15-47c-65-11-90-94-41-140-28-47,1-107,53-115,25-66,108-98,164-54,67-22,136,29,131,101C462,196,474,250,441,278Zm-70,74c-3-21-41-5-43-27s44-101,40-128-19-29-33-29-17,2-21,5-7,5-12,0-11-12-19-13-18,2-27,10-12,13-20,9l-24-11c-16-7-40,5-49,20s-38,113-42,125c-9,27,11,49,37,47,11-1,18-5,25-17s42-108,45-113,9-8,15-5,7,9,6,15-28,71-29,78c-3,23,27,27,39,4,4-7,46-93,49-98s7-8,12-8,8,1,7,11-35,72-39,88,7,41,25,51,63,16,59-11Zm6,92a24,24,0,0,0-6,33,23,23,0,0,0,32,6,24,24,0,0,0,6-33C401,440,387,437,376,445Z" transform="translate(0 0)" style="fill:#fff"/></svg>