<svg id="Layer_1" data-name="Layer 1" xmlns="http://www.w3.org/2000/svg" viewBox="0 0 640 355"><title>mendeley</title><path d="M625,325a59,59,0,0,0-48-17c-43-1-50-35-37-99,23-57-15-131-87-131s-82,82-131,82S266,79,189,78,79,152,102,209c12,64,6,98-38,99-21-2-37,7-53,23S-8,425,54,433c47,6,82-43,61-88-47-104,186-106,147-8h0c-27,43,7,97,59,95s85-53,59-95h0c-39-98,194-95,147,8a65,65,0,0,0-6,33c5,53,69,74,105,35,18-15,23-66,0-88ZM321,306h-1c-43,0-63-37-63-63a63,63,0,0,1,63-63h1a63,63,0,0,1,63,63C383,268,364,306,321,306Z" transform="translate(0 -78)" style="fill:#fff"/></svg>