<svg id="Layer_1" data-name="Layer 1" xmlns="http://www.w3.org/2000/svg" viewBox="0 0 445 448"><title>microblog</title><path d="M399,362c29-35,47-78,47-126C446,123,347,32,224,32S2,123,2,236,101,441,224,441a239,239,0,0,0,79-13,7,7,0,0,1,8,3c19,25,48,43,80,50a4,4,0,0,0,5-3,4,4,0,0,0-1-4,87,87,0,0,1,4-111ZM330,212l-57,43,21,69a7,7,0,0,1-4,8h-6l-59-41-59,41a7,7,0,0,1-10-7l21-69-57-43a6,6,0,0,1-1-9l5-3,72-2,24-68a7,7,0,0,1,12,0l24,68,72,2a7,7,0,0,1,4,12Z" transform="translate(-2 -32)" style="fill:#fff"/></svg>