<svg id="Layer_1" data-name="Layer 1" xmlns="http://www.w3.org/2000/svg" viewBox="0 0 638 376"><title>mixcloud</title><path d="M424,220c-8-85-80-152-168-152A169,169,0,0,0,98,182C43,190,1,237,1,294S52,407,114,407H404c52,0,95-42,95-95s-32-83-74-92ZM404,364H114a71,71,0,1,1,50-120c20,20,50-10,30-30a115,115,0,0,0-52-29,126,126,0,0,1,115-74c69,0,126,56,126,126a127,127,0,0,1-6,40c-9,28,32,39,40,13a163,163,0,0,0,6-25,52,52,0,0,1-19,101Zm235-52a219,219,0,0,1-37,123,21,21,0,0,1-18,9c-16,0-27-19-17-33a179,179,0,0,0,0-198c-16-23,19-47,35-24a217,217,0,0,1,37,122Zm-71,0a157,157,0,0,1-27,88,21,21,0,0,1-35-24,116,116,0,0,0,0-129c-16-23,19-47,35-24a156,156,0,0,1,27,88Z" transform="translate(-1 -68)" style="fill:#fff"/></svg>