<svg id="Layer_1" data-name="Layer 1" xmlns="http://www.w3.org/2000/svg" viewBox="0 0 496 471"><title>napster</title><path d="M298,374a135,135,0,0,1-50,31,134,134,0,0,1-50-30Zm44-200a180,180,0,0,1,70-36V299c0,219-328,218-328,0V138a180,180,0,0,1,70,36A164,164,0,0,1,342,174ZM133,116a168,168,0,0,1,229,0l-21,12a204,204,0,0,0-188,0l-20-11ZM44,93v69c-58,37-58,121,0,158,26,245,382,240,408,2v-2c59-36,59-122,0-158V93a213,213,0,0,0-50,7C320,9,176,9,94,101A217,217,0,0,0,44,93ZM259,352h61c10,0,21-4,26-6,26-15,25-39,26-47C293,296,272,293,259,352ZM124,297c1,8,0,32,26,47,4,3,15,6,26,7l61,2C224,293,203,296,124,297ZM293,420a21,21,0,0,0-7-7,138,138,0,0,1-76,0s-3,2-6,7a27,27,0,0,0-4,10c29,18,67,18,96,0a23,23,0,0,0-3-9Z" transform="translate(0 -32)" style="fill:#fff"/></svg>