<svg id="Layer_1" data-name="Layer 1" xmlns="http://www.w3.org/2000/svg" viewBox="0 0 447 504"><title>node-js</title><path d="M224,508a39,39,0,0,1-19-5l-62-36c-9-5-5-7-2-8s15-5,28-13h5l47,28h6L412,367a6,6,0,0,0,3-5V149a6,6,0,0,0-3-5L227,38h-6L37,144a6,6,0,0,0-3,5V363a6,6,0,0,0,3,5l51,29c27,14,44-2,44-19V168a5,5,0,0,1,5-5h23a5,5,0,0,1,5,5V378c0,37-20,58-55,58-11,0-19,0-42-12L20,396A39,39,0,0,1,1,362V149a39,39,0,0,1,19-34L205,9a40,40,0,0,1,39,0L428,116a39,39,0,0,1,19,34V363a39,39,0,0,1-19,34L243,503A39,39,0,0,1,224,508ZM373,298c0-40-27-51-84-58s-63-11-63-25,5-26,47-26,52,8,58,34a5,5,0,0,0,5,4h24l4-2a6,6,0,0,0,1-4c-4-44-33-65-92-65s-84,22-84,60,31,52,82,57,65,15,65,27-17,29-55,29-60-12-63-37a5,5,0,0,0-5-4H189a5,5,0,0,0-5,5c0,31,17,68,98,68,58,0,92-23,92-63Z" transform="translate(-1 -4)" style="fill:#fff"/></svg>