<svg id="Layer_1" data-name="Layer 1" xmlns="http://www.w3.org/2000/svg" viewBox="0 0 640 392"><title>node</title><path d="M316,452l-6-2-19-11c-3-2-1-2,0-2l9-4h1l15,9h2l58-33V338l-58-33h-2l-58,33v70l16,9c9,4,14-1,14-6V345l2-2h7l2,2v66c0,12-6,18-17,18s-6,0-13-4l-15-9a12,12,0,0,1-6-10V340a12,12,0,0,1,6-10l58-33a12,12,0,0,1,12,0l58,33a12,12,0,0,1,6,11v67a12,12,0,0,1-6,11l-58,33-6,2Zm47-66c0-12-8-16-26-18s-20-4-20-8,2-8,15-8,16,3,18,11h11c-1-14-10-20-29-20s-26,7-26,19,10,16,26,18,20,5,20,8-5,9-17,9-19-4-20-11h-9l-2,2c0,10,5,21,31,21s29-7,29-20Zm55-50a11,11,0,1,1-11-11A11,11,0,0,1,418,336Zm-2,0a9,9,0,1,0-9,9A10,10,0,0,0,416,336Zm-4,6h-3v-4h-3v5h-2V330h4c2,0,4,0,4,3a3,3,0,0,1-2,3c2,0,2,1,2,3a14,14,0,0,0,1,3Zm-3-9c0-2-1-2-2-2h-2v4h2A2,2,0,0,0,408,334ZM137,191a7,7,0,0,0-4-6L72,149H65L4,185a7,7,0,0,0-4,6v95a4,4,0,0,0,2,3H6l36-21a8,8,0,0,0,4-6V218a7,7,0,0,1,4-6l16-9h7l16,9a7,7,0,0,1,4,6v44a7,7,0,0,0,4,6l36,21h4a4,4,0,0,0,2-3V191ZM473,87V264a7,7,0,0,1-4,6l-61,35a8,8,0,0,1-7,0l-61-35a7,7,0,0,1-4-6V193a7,7,0,0,1,4-6l61-35a8,8,0,0,1,7,0l15,9a3,3,0,0,0,4-2V64a4,4,0,0,1,6-3l37,20a7,7,0,0,1,4,6ZM427,216v-2l-21-12h-2l-21,12v28l21,12h2l21-12V216Zm210-1a7,7,0,0,0,4-6V192a7,7,0,0,0-4-6l-61-35a8,8,0,0,0-7,0l-61,35a7,7,0,0,0-4,6v71a7,7,0,0,0,4,6l61,35a7,7,0,0,0,7,0l37-20a4,4,0,0,0,0-6l-62-35a4,4,0,0,1-2-3V216a4,4,0,0,1,2-3l19-11h4l19,11a4,4,0,0,1,2,3v17a4,4,0,0,0,6,3l37-21Zm-77,4h-1v14h1l12,7h1l12-7h1V220h-1l-12-7h-1ZM305,263V192a8,8,0,0,0-4-6l-61-35a8,8,0,0,0-7,0l-61,35a7,7,0,0,0-4,6v70a8,8,0,0,0,4,6l61,35a7,7,0,0,0,7,0l61-35a7,7,0,0,0,4-5v-2ZM230,138h0Zm76,130h0Z" transform="translate(0 -60)" style="fill:#fff"/></svg>