<svg id="Layer_1" data-name="Layer 1" xmlns="http://www.w3.org/2000/svg" viewBox="0 0 640 260"><title>ns8</title><path d="M187,160,153,274,98,160H49L0,320H45L76,214l51,107h57l49-160Zm452-1c-3-18-24-28-42-31-45-8-102,16-88,59h0c-44,9-74,27-94,48-3-10-14-17-34-17H293c-9,0-13-2-11-7l4-12c2-6,8-7,13-7H432l10-31c-140,0-144,0-160,1s-23,5-31,15-14,36-18,47-1,29,33,29h87c8,0,9,3,8,7l-4,15c-2,4-5,7-14,7H216l-12,40c140,0,145-1,161-2s13-2,19-5a76,76,0,0,0,1,11c5,31,27,52,57,60,49,12,109-17,135-68,19-36,14-76-3-105h0c30-6,70-22,66-51ZM531,264c-6,30-37,48-62,44s-38-39-14-65,45-24,69-27C530,230,534,248,531,264Zm22-83c-4-6-10-18-2-26s21-10,32-8,20,16,5,24S563,179,553,181Z" transform="translate(0 -126)" style="fill:#fff"/></svg>