<svg id="Layer_1" data-name="Layer 1" xmlns="http://www.w3.org/2000/svg" viewBox="0 0 400 496"><title>nutritionix</title><path d="M88,8S221,0,209,113c0,0,19-75,103-41,0,0-18,74-88,56,0,0,15-55,66-57,0,0-40-10-82,49,0,0-20-94-94-100,0,0,75,19,78,108C192,128,86,135,88,8ZM400,324c0,49-10,95-32,132-42,31-105,48-168,48S74,487,32,456C10,419,0,372,0,324s18-95,40-132c42-31,97-49,160-49s118,18,160,49C382,229,400,275,400,324ZM120,428a28,28,0,1,0-28,28A28,28,0,0,0,120,428Zm0-66a28,28,0,1,0-28,28A28,28,0,0,0,120,362Zm0-66a28,28,0,1,0-28,28A28,28,0,0,0,120,296Zm72,132a28,28,0,1,0-28,28A28,28,0,0,0,192,428Zm0-66a28,28,0,1,0-28,28A28,28,0,0,0,192,362Zm0-66a28,28,0,1,0-28,28A28,28,0,0,0,192,296Zm72,132a28,28,0,1,0-28,28A28,28,0,0,0,264,428Zm0-66a28,28,0,1,0-28,28A28,28,0,0,0,264,362Zm0-66a28,28,0,1,0-28,28A28,28,0,0,0,264,296Zm72,132a28,28,0,1,0-28,28A28,28,0,0,0,336,428Zm0-66a28,28,0,1,0-28,28A28,28,0,0,0,336,362Zm0-66a28,28,0,1,0-28,28A28,28,0,0,0,336,296Zm24-40c-5-22-7-37-16-56-39-20-90-32-144-32S95,180,56,200c-9,20-11,34-16,56a889,889,0,0,1,160-15,889,889,0,0,1,160,15Z" transform="translate(0 -8)" style="fill:#fff"/></svg>