<svg id="Layer_1" data-name="Layer 1" xmlns="http://www.w3.org/2000/svg" viewBox="0 0 308 512"><title>odnoklassniki</title><path d="M275,334c-27,17-65,24-90,27l21,21,76,76c28,29-17,73-46,46l-76-77L84,503c-28,28-74-18-45-46l76-76,21-21c-25-3-63-9-91-27s-47-33-34-59c7-15,28-27,55-6,0,0,36,29,95,29s95-29,95-29c27-21,47-9,55,6,12,26-2,38-34,59ZM30,130C30,58,89,0,160,0S290,58,290,130,231,259,160,259,30,201,30,130Zm66,0a64,64,0,1,0,64-64A64,64,0,0,0,96,130Z" transform="translate(-6)" style="fill:#fff"/></svg>