<svg id="Layer_1" data-name="Layer 1" xmlns="http://www.w3.org/2000/svg" viewBox="0 0 448 448"><title>odnoklassniki-square</title><path d="M184,177a40,40,0,1,1,40,40,40,40,0,0,1-40-40ZM448,80V432a48,48,0,0,1-48,48H48A48,48,0,0,1,0,432V80A48,48,0,0,1,48,32H400A48,48,0,0,1,448,80ZM143,177a81,81,0,1,0,81-81A81,81,0,0,0,143,177Zm175,91c-5-9-17-17-34-4,0,0-23,18-59,18s-59-18-59-18c-17-13-29-5-34,4s1,24,21,37,41,15,57,17l-13,13-48,48c-18,18,11,46,28,29l48-48,48,48c18,17,46-11,29-29l-48-48-13-13c16-2,39-6,56-17S325,284,317,268Z" transform="translate(0 -32)" style="fill:#fff"/></svg>