<svg id="Layer_1" data-name="Layer 1" xmlns="http://www.w3.org/2000/svg" viewBox="0 0 496 496"><title>old-republic</title><path d="M236,10h33l15,2h9l23,5A249,249,0,0,1,472,152l3,8,8,20a239,239,0,0,1,9,38v9q1,6,1,12a234,234,0,0,1,1,25c0,5,0,10-1,15s-1,7-1,10v8c-1,5-2,10-3,15A249,249,0,0,1,348,485l-19,7-11,3-20,5-14,2-16,2H210l-12-2-13-3-25-8-31-14-6-4A249,249,0,0,1,14,341a248,248,0,0,1-8-27c-1-6-3-12-4-19v-7c-1-4-1-8-1-12a271,271,0,0,1-1-28c0-4,0-7,1-11s0-6,1-10v-8l2-12a242,242,0,0,1,15-48l4-9A250,250,0,0,1,127,41l23-11a247,247,0,0,1,49-15l11-2h26m9,24-28,2-22,4a225,225,0,0,0-40,14,229,229,0,0,0-30,17l-12,9L97,94l-7,7A222,222,0,0,0,33,206a196,196,0,0,0-4,26,212,212,0,0,0-1,27,209,209,0,0,0,1,21,213,213,0,0,0,3,21l3,14A222,222,0,0,0,95,417a223,223,0,0,0,55,39l22,10,15,5,34,7h9a230,230,0,0,0,42,0l13-2,11-2,12-3a222,222,0,0,0,74-36,225,225,0,0,0,42-41l9-13,10-16,7-13a225,225,0,0,0,14-37,219,219,0,0,0,6-30,228,228,0,0,0,1-41V232A222,222,0,0,0,388,83a221,221,0,0,0-86-42l-24-4H244ZM139,84c13-9,28-15,43-20l-10,5a136,136,0,0,0-30,24,99,99,0,0,0-17,25,80,80,0,0,0-7,22,69,69,0,0,0-1,15c0,14,4,27,11,39a115,115,0,0,0,22,27l15,13,6,7a31,31,0,0,1,6,11c1,3,1,6,1,9s0,8,0,12,0,7,0,11,0,5,0,7,0,12,0,17,0,6,0,9a42,42,0,0,1,0,5h-3a82,82,0,0,1-32-7l-17-10a97,97,0,0,1-16-14,123,123,0,0,1-17-24l-3-6-4-8a125,125,0,0,1-8-30c0-4-1-9-1-13a163,163,0,0,1,5-47,141,141,0,0,1,8-24,128,128,0,0,1,26-38A132,132,0,0,1,139,84ZM315,63l8,3,19,8a141,141,0,0,1,36,25,129,129,0,0,1,25,34l4,8a153,153,0,0,1,11,48c0,5,0,9,0,14a140,140,0,0,1-4,35,104,104,0,0,1-8,21,144,144,0,0,1-11,19,104,104,0,0,1-26,27,87,87,0,0,1-35,15H317a52,52,0,0,1,0-6c0-4,0-7,0-11s0-14,0-21,0-5,0-7,0-10,0-15,0-6,1-9l3-7c4-7,11-13,18-18l15-14a105,105,0,0,0,19-28,81,81,0,0,0,6-18,65,65,0,0,0,1-13,82,82,0,0,0-4-23,92,92,0,0,0-7-16,106,106,0,0,0-14-19,138,138,0,0,0-35-27l-6-3ZM214,122l3-3-2,3a40,40,0,0,0-7,13,42,42,0,0,0-2,10,41,41,0,0,0,0,8,49,49,0,0,0,9,21l7,7,5,3,9,5a11,11,0,0,1,4,9q0,111,0,221c0,1,0,3,0,4a12,12,0,0,0,1,4l3,5h3l3-3,2-5c1-2,0-4,1-7s0-8,0-12,0-12,0-18,0-7,0-11,0-8,0-12,0-12,0-18,0-7,0-11,0-8,0-12,0-12,0-18,0-8,0-12a32,32,0,0,1,0,4c0,4,0,7,1,11s0,7,1,10,1,6,1,9,1,8,2,12,3,18,5,27,2,10,4,14a92,92,0,0,0,10,23l6,7h3l2-3,12-23,3-4,6-4,9-2c7-1,13,1,20,2h22a91,91,0,0,0,25-6l15-8a127,127,0,0,0,30-27l3-4-4,9-4,8a191,191,0,0,1-18,28l-13,15c-7,6-14,11-22,15a49,49,0,0,1-26,3l-10-3-8-4-10-6,9,9,14,10,13,6h4l-4,3a181,181,0,0,1-31,16,203,203,0,0,1-66,15H230a192,192,0,0,1-33-5,189,189,0,0,1-30-11,157,157,0,0,1-25-14l-5-4a67,67,0,0,0,19-6,65,65,0,0,0,16-11l6-7-11,6-14,5a48,48,0,0,1-40-8l-12-10c-10-10-18-22-26-34L64,342l-3-6,8,9a193,193,0,0,0,29,24c8,5,16,9,25,11h50a19,19,0,0,1,12,1c5,2,8,6,11,10l6,10,4,7,3,7,3,3,2-3a96,96,0,0,0,5-13c2-7,4-13,5-20s3-19,5-28,1-8,1-12,2-21,2-32,0-4,0-6,0-9,0-13,0-5,0-7,0-10,0-15-1-13-1-20a124,124,0,0,0-3-18,81,81,0,0,0-10-22,73,73,0,0,0-11-14,31,31,0,0,0-14-8h-5a54,54,0,0,1,1-9,130,130,0,0,1,7-23l5-12a101,101,0,0,1,12-18Zm31,2h1a53,53,0,0,1,0,5v38a34,34,0,0,1,0,5h-1l-3-11v-5H216s0-1,0-1h4l10-3,4-2a9,9,0,0,0,0-2h-4l-9-3-5-2h26l3-15Zm6,0h1l3,12v4h25l-6,2-11,4h-2a5,5,0,0,0,0,2h3l15,5h1s0,1,0,1H256v5l-3,11h-1a31,31,0,0,1,0-5V129c0-2,0-4,0-5ZM65,168l3-6a175,175,0,0,0-4,46c1,20,6,40,14,58a99,99,0,0,0,11,17,170,170,0,0,0,20,21l16,11,10,5,15,5,12,3a31,31,0,0,1,13,8c5,5,8,12,10,19a66,66,0,0,1,2,9,8,8,0,0,1,0,2,87,87,0,0,1-20,6H154a86,86,0,0,1-30-5l-11-5a104,104,0,0,1-22-14l-8-8a123,123,0,0,1-22-34,163,163,0,0,1-6-17l-3-12-2-9v-6a113,113,0,0,1-1-16,161,161,0,0,1,1-18v-9a165,165,0,0,1,4-17,194,194,0,0,1,13-34Zm364-6,3,5,6,13a175,175,0,0,1,13,59v5a134,134,0,0,1-3,28l-3,11a146,146,0,0,1-18,42,102,102,0,0,1-32,31l-18,9-18,5H339a80,80,0,0,1-23-5l-6-2a14,14,0,0,1,1-4,64,64,0,0,1,6-17,39,39,0,0,1,9-12l8-5,11-3,21-7a92,92,0,0,0,28-19l5-5,10-12c7-10,13-22,17-33a153,153,0,0,0,4-16l2-9a145,145,0,0,0,2-18,168,168,0,0,0-1-20,172,172,0,0,0-4-24Z" transform="translate(0 -10)" style="fill:#fff"/></svg>