<svg id="Layer_1" data-name="Layer 1" xmlns="http://www.w3.org/2000/svg" viewBox="0 0 576 483"><title>optin-monster</title><path d="M573,421c6-9,5-15-5-12a85,85,0,0,0-11-14c3-10-1-14-11-9l-16-9c0-15-12-12-18-6s-19,0-27,6c0-6,0-13,0-20,13,0,40-11,46-36a49,49,0,0,0,0-22c-3-13-14-21-25-26s-8-14-15-16-12,5-14,10-19,3-21,8l-17-2,8-5c5-9,15-11,26-12v-3c20,0,43-6,54-18s15-37,12-55-10-38-25-48-22-1-23,10,1,30-39,25c-10-24-25-45-43-60C341,50,243,56,166,72c20,5,41,9,60,17-26,2-53,11-76,23s-44,30-57,42c15-2,29-5,44-4a128,128,0,0,0-26,20c-26,1-24-5-26-26s-14-15-23-10c-28,20-33,80-12,104,11,12,35,17,55,18a9,9,0,0,0,0,3c11,1,20,3,25,12l8,5-16,2c-3-7-14-8-21-8s-6-12-14-10-14,10-15,16c-22,10-30,27-25,48s33,36,46,36v20c-7-5-14-7-27-6s-17-10-17,6l-16,9c-10-5-14-2-11,9A88,88,0,0,0,9,410c-10-4-11,2-5,12a48,48,0,0,0-2,11c0,32,45,64,74,65,17,1,35-8,43-23,113,5,227,4,340,0,8,15,25,24,43,24,29-1,74-33,74-65a32,32,0,0,0-2-11ZM499,167a45,45,0,0,0,2-15c0-6,7-8,14-1s15,41,14,51c-4-14-13-29-30-36Zm-5,7c19,6,29,28,30,49l-5,8c-6,6-15,10-26,12,4-21,0-47-13-63,5-1,11-2,14-6Zm-24,7c14,12,20,39,14,64H473a255,255,0,0,0-14-65h12ZM48,203c-1-10,2-39,14-51s14-5,14,1a48,48,0,0,0,2,15C61,174,52,190,48,203Zm10,28-5-8c1-21,10-43,30-49,3,3,9,5,14,6-13,16-17,42-13,63C73,241,63,237,57,231Zm48,15H92c-5-19-2-39,5-53h0l12-5,15-5A172,172,0,0,0,105,245ZM289,83c42,0,76,34,76,76a76,76,0,0,1-152,0c0-42,34-76,76-76ZM405,257c0,18-7,49-23,57s-6-7-16-58Zm-54-2c1,5,4,40-2,42s-40,4-51-1-5-36-4-41h57Zm-72,54c-13,4-42,4-55-2s-4-42-2-52h58C281,264,283,307,278,309ZM172,258l37-2c-2,15-3,44-5,52s-4,7-10,4c-22-10-28-35-22-55Zm-35,31,24-3a72,72,0,0,0,7,18c10,17,44,36,45,7,6,15,41,12,55,11s24-1,27-14c12,4,31,4,44,3s21,0,25-9c1,5,2,12,5,17,11,21,37,1,47-32l27,3c0,1-4,7,7,12-48,47-96,88-163,107-63-21-112-59-156-106C138,298,139,293,136,289ZM115,462c-4,18-22,30-40,29s-46-17-59-36c-3-31,44-61,66-55s28,31,33,54A41,41,0,0,1,115,462Zm-9-66c0-13,0-27,0-40h0l8-6c7-2,13-5,15-9s-7-7-5-12l8-3c29,29,59,57,97,77-37,11-72,28-106,47C122,429,115,412,106,396Zm338,65c-103,4-206,4-309,0h0c35-22,72-39,112-51l35,13h4a314,314,0,0,0,42-15c42,12,79,32,116,53Zm11-12c-36-19-73-36-112-48,38-20,72-47,104-77l8,3v2c-5,3-8,6-6,10s9,8,15,9l8,7c0,14,0,28-1,41h0c-9,16-15,37-16,52Zm106,6c-13,20-40,36-59,37s-40-13-40-37,19-50,34-54S563,423,560,454ZM373,75C369,3,272-4,247,52,292,27,337,36,373,75ZM75,407c-16,2-49,25-49,43s16,20,32,15,31-18,36-27-4-33-19-31ZM291,231c29,0,52-22,52-48s-40-58-72-44c10,3,17,12,17,22,0,23-33,32-46,11C233,205,260,231,291,231ZM68,474c1,7,12,13,22,10s15-10,17-16-1-20-10-18S68,466,68,474Zm433-67c-15-2-25,19-19,31s24,24,36,27,32-3,32-15-34-42-49-43Zm-22,42c-8-2-12,11-9,18s10,14,17,16,21-3,21-9-20-23-29-25Z" transform="translate(0 -15)" style="fill:#fff"/></svg>