<svg id="Layer_1" data-name="Layer 1" xmlns="http://www.w3.org/2000/svg" viewBox="0 0 496 479"><title>osi</title><path d="M8,266C10,131,105,34,222,18,361,0,477,94,500,219S456,449,348,493c-9,4-14,2-18-8L277,347c-3-8-1-13,7-17,24-11,39-29,43-56a71,71,0,0,0-60-82h-5c-39-3-72,24-77,60s11,64,42,78c10,4,12,9,8,18L181,488c-3,7-8,9-15,7C113,474,64,433,35,375S10,287,8,266Zm21-2c0,7,1,14,1,22,6,72,50,144,131,183,3,2,4,1,6-2l45-117c1-3,1-5-2-7-32-20-47-48-46-86,1-22,9-41,24-56,30-33,77-40,116-18a92,92,0,0,1,45,90c-4,31-19,54-46,70-3,2-3,3-2,6l45,118c1,3,2,4,6,2,36-17,65-40,88-72,35-48,49-102,42-161C468,119,362,22,226,39,120,52,31,141,29,265Z" transform="translate(-8 -16)" style="fill:#fff"/></svg>