<svg id="Layer_1" data-name="Layer 1" xmlns="http://www.w3.org/2000/svg" viewBox="0 0 384 491"><title>pagelines</title><path d="M384,313c-55,137-187,54-187,54C156,449,89,501,12,501c-16,0-17-24,0-24,64,0,121-43,157-110C128,383,51,395,8,285c109-45,159,11,178,46,10-24,17-51,22-80,0,0-140,22-150-98,119-48,153,77,153,77,2-17,3-53,3-53S108,102,176,11c125,43,61,162,61,162s1,24,0,33,45-89,136-57c-4,134-142,106-142,106a421,421,0,0,1-20,78S295,241,384,313Z" transform="translate(0 -11)" style="fill:#fff"/></svg>