<svg id="Layer_1" data-name="Layer 1" xmlns="http://www.w3.org/2000/svg" viewBox="0 0 496 496"><title>page4</title><path d="M248,504C111,504,0,393,0,256S111,8,248,8a248,248,0,0,1,61,8L42,392H248Zm0-144V147L99,360Zm96,32v93a249,249,0,0,0,111-93Zm57-138-21,8,21,8Zm-20,54c-7,0-8,6-8,13v8h16V319C389,313,387,308,381,308Zm115-52a246,246,0,0,1-23,104H344V27C433,65,496,153,496,256ZM360,144h68V96H415v33H401V99H387v30H374V96H360v48Zm68,185H402V318c0-15-6-25-21-25s-21,11-21,26v25h68V329Zm0-103-68,30v12l68,30V281l-14-6V249l14-6V226Zm-5-68H388v27h14V172h11c9,16,1,35-19,35s-28-25-15-38l-12-11c-16,18-12,64,27,64s45-36,29-65Z" transform="translate(0 -8)" style="fill:#fff"/></svg>