<svg id="Layer_1" data-name="Layer 1" xmlns="http://www.w3.org/2000/svg" viewBox="0 0 560 448"><title>palfed</title><path d="M385,194c0-47-55-44-95-30-1,39-2,81-3,120,1,3,3,6,15,6,37,0,83-43,83-96ZM190,266s7-3,11-3c27,0,21,44-14,44-21,0-37-18-37-43,0-42,43-96,101-127,1-12,3-22,10-28s27-3,30,11c72-22,135,1,135,72S347,345,286,331c0,39,1,74,3,100h0c0,3,1,13-5,19s-33,10-36-22c-4-44,0-206,1-242-21,15-58,50-58,76v5ZM8,181s0,37,38,37H76L99,436s0,44,45,44H432s45,0,45-44l22-217h30s38,1,38-37c0,0,0-37-38-37H499c-7-26-30-74-119-74H352V50s-3-18-21-18H245s-21,0-21,18V69H196S91,74,75,144H46S8,143,8,181Z" transform="translate(-8 -32)" style="fill:#fff"/></svg>