<svg id="Layer_1" data-name="Layer 1" xmlns="http://www.w3.org/2000/svg" viewBox="0 0 384 454"><title>paypal</title><path d="M111,296c-3,19-17,109-21,134,0,2-1,3-3,3H12A12,12,0,0,1,0,419L59,47A20,20,0,0,1,79,30c152,0,165-4,204,11,60,23,66,80,44,140s-72,90-140,90c-43,1-69-7-75,24ZM357,152c-2-1-2-2-3,1a234,234,0,0,1-9,34C305,301,195,291,141,291c-6,0-10,3-11,9-23,140-27,170-27,170s4,13,11,13h64c9,0,16-6,17-15l14-91c5-22,14-20,29-20,71,0,126-29,143-112,7-35,5-71-24-93Z" transform="translate(0 -29)" style="fill:#fff"/></svg>