<svg id="Layer_1" data-name="Layer 1" xmlns="http://www.w3.org/2000/svg" viewBox="0 0 640 365"><title>penny-arcade</title><path d="M422,164l-15,65,40-11-25-55ZM216,215l-40,11,4,46,35-9C258,253,248,206,216,215Zm326-26L497,90a28,28,0,0,0-33-15L328,111a28,28,0,0,0-19,17C144,113,0,154,0,227c0,33,31,67,81,95l2,18a28,28,0,0,0-18,29l4,44a28,28,0,0,0,28,25c5,0-3,2,123-32a28,28,0,0,0,21-28c217,46,402-6,400-85,0-28-22-67-98-104ZM255,298l-22,6-48,13,2,24,21-6,5,45L97,410l-4-45,20-5L102,246l-20,5-4-44c178-48,170-46,186-47,57-1,64,72,43,104a87,87,0,0,1-51,34Zm199,17-4-39,15-4-7-15-58,15-4,18,19-5,4,40L307,354l-4-44,21-6,33-126-17,5-4-44,136-36,67,145,21-6,4,44L454,315Z" transform="translate(0 -74)" style="fill:#fff"/></svg>