<svg id="Layer_1" data-name="Layer 1" xmlns="http://www.w3.org/2000/svg" viewBox="0 0 496 384"><title>phabricator</title><path d="M323,262V249s22-20,21-21l-9-20c-1-1-29,0-29,0l-9-9s0-28-1-29l-20-9c-1-1-21,21-21,21H240s-20-21-22-21l-20,8c-1,1,0,29,0,29l-9,9s-29-1-30,0l-8,20c-1,1,21,21,21,21v13s-22,20-21,21l10,20c1,1,30,1,30,1l9,9s0,32,1,32l20,8c1,1,21-23,21-23h13s20,24,22,23l20-7c1-1,0-32,0-32l9-9s29,1,30,0l8-20c1-1-21-21-21-21Zm-45-9a31,31,0,0,1-30,32c-17,1-32-12-33-30a31,31,0,0,1,30-32C263,223,277,236,278,253Zm201-38-97-97h0c-75-73-195-73-270,2L17,216a57,57,0,0,0,0,81l97,97h0c75,73,195,73,270-2l95-95A57,57,0,0,0,479,216ZM140,364a152,152,0,0,1,0-215c60-60,156-60,216,0A152,152,0,1,1,140,364Z" transform="translate(0 -64)" style="fill:#fff"/></svg>