<svg id="Layer_1" data-name="Layer 1" xmlns="http://www.w3.org/2000/svg" viewBox="0 0 640 437"><title>phoenix-framework</title><path d="M213,344l26-2c-2-3-44-1-68-50-4-9-7-18-6-28,3-25,33-30,52-18,36,22,63,91,114,98,37,5,85-17,108-45h-2c-33,12-94,10-135-15s-53-59-52-75,23-23,36-20,24,18,39,27,33,14,51,10,34-12,37-14h-2l-18-2C280,195,262,47,139,38,94,35,39,46,2,73L0,75H3a56,56,0,0,1,19,0c24,4,48,23,56,77,5,34-1,51,8,86,19,77,91,108,128,106ZM75,65V63a237,237,0,0,1,37-5C110,73,88,79,75,65ZM272,415c-43,1-92-27-123-61l-19-23h0c7,4,26,19,55,27s48,6,72-3,41,0,43,3c-18,4-20,4-24,8s-5,12,7,17c26,12,63-3,97,25l10,11h0c-5-1-16-7-40-9s-46,5-77,6ZM447,163c16-5,41-13,67-3s26,19,32,35a84,84,0,0,1,5,29h-1c-5-22-30-44-68-30-50,19-130,10-177-48-1-1-2-2-1-3h3a147,147,0,0,0,60,26c31,6,55,3,80-5ZM550,281c-32,0-34,50-104,64-18,4-39,5-45,4h0c3-1,15-3,30-17l23-23c20-20,41-42,82-39,23,2,29,8,36,13h0c-7-3-14-3-22-3Zm-12-24h0c-29-4-48-8-68,4s-31,21-62,24-45,2-66-8h-1c25,4,36,5,56-6s40-27,71-31S518,242,537,257ZM269,97l-2-2c8,0,30-1,53,8s32,21,50,33,23,9,36,8l13-2h0a72,72,0,0,1-26,7c-26,3-50-4-73-15a192,192,0,0,1-51-39ZM640,336c-3,3-23,12-43,5s-19-15-32-24-21-8-28-8h1c15-9,31-12,47-6s19,14,30,24,21,10,23,11h0ZM428,473c2,1,2,2,2,2-18-1-34-8-47-22s-42-28-49-30h1c13,0,26,1,39,4,25,6,35,25,42,35a35,35,0,0,0,12,11Z" transform="translate(0 -37)" style="fill:#fff"/></svg>