<svg id="Layer_1" data-name="Layer 1" xmlns="http://www.w3.org/2000/svg" viewBox="0 0 512 495"><title>phoenix-squadron</title><path d="M96,63C142,27,202,7,261,9c30,0,59,5,87,15-24-5-49-6-73-2-43,5-83,27-112,59,6-1,11-4,16-6,18-8,37-13,57-15s40,0,59,2c-14,3-29,5-43,10-34,11-65,33-86,63s-24,43-25,67,5,35,20,44a53,53,0,0,0,38,7c15-2,30-9,44-16s23-15,32-24,3-8,3-13-4-1-6,0a203,203,0,0,1-36,15c-20,6-42,8-62,1,13,2,26,0,38-5s37-25,54-39a527,527,0,0,1,89-55c26-12,53-23,82-24-16,14-32,27-47,41s-27,30-40,45c-4,5-9,7-14,10a151,151,0,0,0-52,60c-9,20-14,42-12,64s9,28,21,35,29,8,43,5c33-7,61-29,81-56s31-62,29-96c-1-7-2-15-2-22,8,19,15,40,17,61s1,29-2,43-6,22-8,32a165,165,0,0,0,39-81,184,184,0,0,0-14-105c21,32,32,70,36,107,0,13,0,26,0,38a243,243,0,0,1-30,98c-26,47-68,86-117,108-78,36-175,31-248-15a248,248,0,0,1-91-99A238,238,0,0,1,0,273V242C4,172,41,106,96,63m222,80,16-4c5-2,9-6,10-11Z" transform="translate(0 -9)" style="fill:#fff"/></svg>