<svg id="Layer_1" data-name="Layer 1" xmlns="http://www.w3.org/2000/svg" viewBox="0 0 640 337"><title>php</title><path d="M320,105c171,0,303,72,303,152S491,408,320,408,17,335,17,256,149,105,320,105m0-17C143,88,0,163,0,256S143,424,320,424s320-75,320-168S497,88,320,88ZM218,243c-8,41-36,36-70,36l14-71c38,0,64-4,56,34ZM97,350h37l9-45c41,0,67,3,90-19s33-67,14-88-25-17-46-17H130ZM283,137h37l-9,45c32,0,61-2,75,11s8,31-8,113H340c15-79,18-86,13-92s-18-5-47-5l-19,97H250l33-169ZM505,243c-8,41-37,36-70,36l14-71c38,0,64-4,56,34ZM384,350h37l9-45c43,0,67,3,90-19s33-67,14-88-25-17-46-17H417Z" transform="translate(0 -88)" style="fill:#fff"/></svg>