<svg id="Layer_1" data-name="Layer 1" xmlns="http://www.w3.org/2000/svg" viewBox="0 0 562 512"><title>pied-piper-alt</title><path d="M244,246a18,18,0,0,0-10-3c-7,0-13,3-19,4l2,5ZM380,444c-19,0-64,10-80,20l7,45c36,6,70,4,106-10C408,489,389,444,380,444ZM341,177c7,3,12,9,23,22,2-1,8-5,8-9s-12-13-13-23c11-6,25-6,38-9,68-16,116-53,147-117,6-13,12-26,12-40l-2,3c-28,50-33,63-81,100-32,24-69,40-107,55h-6V137c-20,2-20-15-32-23-19,21-32,41-59,51-13,5-20,10-26,22,35-16,91-13,99-10ZM556,0h0ZM496,382c-34-57-75-118-150-115v-6c-1-13,33,3,35-31l-14,7c-20-46-9-54-65-54-15,0-27,2-41,5,3,19,2,37-11,50l20,6a21,21,0,0,0-3,10c0,21,43,3,43,34,0,18-37,60-55,60s-54-50-53-60v-5l52-11c13-3,12-23-3-23l-49,11c-2-5-7-14-14-14s-6,3-9,4-31,3-21,20L16,299c-5,1-9,6-9,12s6,11,12,11,131-28,147-32c3,3,5,6,8,9,20,14,60,86,76,86s58-22,71-42c3-4,7-7,12-7,1,14-32,34-33,44s-1,35,0,41c27,8,52-4,78-3,4-21,11-42,10-63v-9c-1-34-11-38-35-59l-4-4,5-2c89,0,56,184,112,230,33-15,72-28,103-47-29-26-53-46-73-80ZM300,428v27l12-3-3-24ZM231,278l24,61,21-14-31-51Zm84,155,2,12c9-1,58-7,58-14a25,25,0,0,0-1-5c-27,0-37,4-59,6Z" transform="translate(-7)" style="fill:#fff"/></svg>