<svg id="Layer_1" data-name="Layer 1" xmlns="http://www.w3.org/2000/svg" viewBox="0 0 448 448"><title>pied-piper-pp</title><path d="M205,175c0,21-14,38-32,38s-13-1-17-4V141c4-3,10-4,17-4s32,17,32,38Zm53,67c-7,0-13,2-17,4v68c4,3,10,4,17,4s32-17,32-38S275,242,258,242ZM448,80V432a48,48,0,0,1-48,48H48A48,48,0,0,1,0,432V80A48,48,0,0,1,48,32H400A48,48,0,0,1,448,80ZM185,255c41,0,74-36,74-80s-33-80-74-80a74,74,0,0,0-35,9H105V311l52-10V250a84,84,0,0,0,29,5Zm158,25c0-44-33-80-74-80H260a82,82,0,0,1-19,33c-14,15-32,24-52,25V416l52-10V355a82,82,0,0,0,29,5C310,360,343,324,343,280Z" transform="translate(0 -32)" style="fill:#fff"/></svg>