<svg id="Layer_1" data-name="Layer 1" xmlns="http://www.w3.org/2000/svg" viewBox="0 0 435 457"><title>pied-piper</title><path d="M456,23c-27,7-68,28-115,67A206,206,0,0,0,240,64C125,64,32,157,32,272s93,208,208,208,208-93,208-208a207,207,0,0,0-59-145,155,155,0,0,0-17,27,176,176,0,0,1,45,117c0,98-79,177-177,177a176,176,0,0,1-88-23c83-107,151-38,184-227,6-33,28-94,126-160C471,33,465,21,456,23ZM125,406A177,177,0,0,1,63,272c0-98,79-177,177-177a174,174,0,0,1,77,18C251,175,190,266,125,406Z" transform="translate(-32 -23)" style="fill:#fff"/></svg>