<svg id="Layer_1" data-name="Layer 1" xmlns="http://www.w3.org/2000/svg" viewBox="0 0 384 499"><title>pinterest-p</title><path d="M204,7C101,7,0,75,0,186c0,70,40,110,64,110,10,0,16-28,16-35s-24-29-24-68c0-80,61-137,140-137,68,0,119,39,119,110,0,53-21,153-90,153-25,0-46-18-46-44,0-38,26-74,26-113,0-66-94-54-94,26,0,17,2,35,10,51-14,59-42,148-42,209,0,19,3,38,5,56,3,4,2,3,7,2,50-69,49-82,71-173,12,23,44,36,69,36,106,0,154-103,154-197S298,7,204,7Z" transform="translate(0 -7)" style="fill:#fff"/></svg>