<svg id="Layer_1" data-name="Layer 1" xmlns="http://www.w3.org/2000/svg" viewBox="0 0 448 448"><title>pinterest-square</title><path d="M448,80V432a48,48,0,0,1-48,48H154c10-16,22-40,27-59l15-58c8,15,31,28,56,28,74,0,127-68,127-153S315,96,229,96C123,96,67,167,67,245c0,36,19,81,50,95,5,2,7,1,8-3l7-28a7,7,0,0,0-2-7c-10-12-18-35-18-56,0-54,41-107,111-107s103,41,103,100-33,112-77,112c-24,0-42-20-36-44s20-61,20-82c0-53-75-46-75,25,0,22,7,36,7,36-31,133-36,135-30,193H48A48,48,0,0,1,0,432V80A48,48,0,0,1,48,32H400A48,48,0,0,1,448,80Z" transform="translate(0 -32)" style="fill:#fff"/></svg>