<svg id="Layer_1" data-name="Layer 1" xmlns="http://www.w3.org/2000/svg" viewBox="0 0 496 496"><title>pinterest</title><path d="M496,256c0,137-111,248-248,248a247,247,0,0,1-73-11c10-16,25-43,31-65l15-59c8,15,32,29,57,29,75,0,129-69,129-154S339,100,253,100C146,100,90,172,90,250c0,36,19,82,50,96,5,2,7,1,8-3l7-28a7,7,0,0,0-2-7c-10-12-18-35-18-57,0-55,41-108,112-108s104,42,104,101-34,114-78,114c-24,0-43-20-37-45s21-61,21-83-10-35-31-35-45,26-45,60c0,22,7,37,7,37L159,416c-5,21-3,52-1,71C65,451,0,361,0,256,0,119,111,8,248,8S496,119,496,256Z" transform="translate(0 -8)" style="fill:#fff"/></svg>