<svg id="Layer_1" data-name="Layer 1" xmlns="http://www.w3.org/2000/svg" viewBox="0 0 576 445"><title>playstation</title><path d="M571,372c-11,14-39,24-39,24L327,470V416l151-54c17-6,20-15,6-19s-39-3-56,3L327,381V325a355,355,0,0,1,76-17c41-4,91,1,130,16s49,35,38,49ZM347,280V141c0-16-3-31-18-36s-19,7-19,23V477l-94-30V32c40,7,98,25,129,35,79,27,106,61,106,138s-46,103-104,75ZM43,410c-45-13-53-39-32-55s52-25,52-25l135-48v55l-97,35c-17,6-20,15-6,19s39,3,56-3l46-17v49c-52,9-101,7-154-10Z" transform="translate(0 -32)" style="fill:#fff"/></svg>