<svg id="Layer_1" data-name="Layer 1" xmlns="http://www.w3.org/2000/svg" viewBox="0 0 448 448"><title>python</title><path d="M440,201c-8-31-22-54-53-54H346v47c0,37-31,68-67,68H173c-29,0-53,25-53,54V418c0,29,25,46,53,54s66,12,107,0c27-8,53-23,53-54V377H226V363H386c31,0,43-22,53-54s11-66,0-109ZM286,404a20,20,0,1,1-20,20A20,20,0,0,1,286,404ZM168,248H275c30,0,53-24,53-54V92c0-29-24-51-53-56s-75-6-107,0c-45,8-53,25-53,56v41H221v14H74c-31,0-58,19-67,54S-3,267,8,309c8,32,26,54,57,54h37V315c0-35,31-66,67-66Zm-7-143a20,20,0,1,1,20-20A20,20,0,0,1,161,106Z" transform="translate(0 -32)" style="fill:#fff"/></svg>