<svg id="Layer_1" data-name="Layer 1" xmlns="http://www.w3.org/2000/svg" viewBox="0 0 433 448"><title>quora</title><path d="M441,387H411c-1,14-10,31-33,31s-35-14-49-36c44-34,75-87,75-153,0-118-97-197-198-197S7,112,7,229C7,363,139,450,256,418c20,34,46,62,95,62C433,480,442,405,441,387ZM297,329c-19-29-44-52-91-52-30,0-54,10-69,23l12,24c6-3,13-4,20-4,36,0,54,31,69,61-10,3-21,4-33,4-75,0-107-53-107-157S130,71,205,71s109,54,109,158C314,271,308,304,297,329Z" transform="translate(-7 -32)" style="fill:#fff"/></svg>