<svg id="Layer_1" data-name="Layer 1" xmlns="http://www.w3.org/2000/svg" viewBox="0 0 581 448"><title>r-project</title><path d="M581,227C581,119,451,32,291,32S0,119,0,227c0,96,103,175,239,191v62h99V419a397,397,0,0,0,69-14l40,75H560L493,366c54-35,88-85,88-140ZM114,241c0-73,99-133,221-133s212,41,212,133c0,50-26,85-70,106l-6-4c-10-5-28-10-28-10s87-6,87-93-91-88-91-88H239V361c-74-21-125-67-125-120Zm225,38V224c58,0,88-7,88,27s-38,28-88,28Zm-1,73h27c11,0,19,12,24,19l-51,3V352Z" transform="translate(0 -32)" style="fill:#fff"/></svg>