<svg id="Layer_1" data-name="Layer 1" xmlns="http://www.w3.org/2000/svg" viewBox="0 0 407 512"><title>raspberry-pi</title><path d="M372,233l-4-6c0-46-21-65-46-80,8-2,15-4,18-13,13-3,16-9,17-16s15-9,14-20,10-10,8-18,9-14,6-19c8-10,5-16,1-21s1-23-17-21c-7-10-22-8-24-8s-6-6-16-5-14-5-22-2-15-1-23,1-14,1-19,3-16,3-22,9h-7c-19,11-28,33-31,44-3-11-12-33-31-44h-7c-6-6-10-12-22-9s-8-7-19-3-9-4-14-4a15,15,0,0,0-9,4C94,0,86-1,79,6S65,7,63,10,45,8,38,18C21,16,16,28,22,39s-7,11,1,21c-3,6-1,12,6,19s2,14,8,18,10,17,14,20,4,12,17,16c2,10,10,11,18,13-25,14-47,33-46,80l-4,7C6,250-20,305,21,350c3,14,7,24,11,35,6,45,45,66,55,69s31,22,52,29c20,21,42,28,64,28h1c22,0,44-8,64-28,22-7,37-18,52-29s49-24,55-69c4-11,8-21,11-35,41-45,15-101-14-118Zm-22-8c-1,19-99-65-82-68C313,149,351,176,350,225Zm-43,93c-24,16-60,6-79-23s-15-64,10-80,60-6,79,23,15,64-10,80ZM239,29c1,4,2,7,3,8s10-12,17-17-2,7,3,9a49,49,0,0,1,16-13c-3,6-1,7,1,10s10-9,19-12c-3,3-6,6-2,10s11-7,23-9c-3,3-9,6-5,9l22-5c-4,3-7,6-4,9s17-5,26-3l-6,6h24c-4,5-7,10-9,18h10c-5,10-13,12-15,17s7,2,11,0-10,12-16,17,4,2,10,1a90,90,0,0,1-19,15c1,2,6,2,10,2-7,7-15,10-23,14,4,3,7,2,10,2s-15,7-24,10c2,3,3,3,7,4-9,5-23,3-27,6s4,4,7,6c-15,1-57-1-65-32,16-17,44-37,94-63-38,13-73,30-102,54-34-16-11-56,6-72ZM205,144c24,0,54,18,54,35s-21,27-54,27-54-15-54-30,26-32,53-32ZM82,131c4-1,5-1,7-4-9-3-19-5-24-10s6,1,10-2c-8-4-17-8-23-14,4,0,9,0,10-2A90,90,0,0,1,42,84c6,1,8,0,10-1S39,73,36,66s8,2,11,0S37,59,32,49H43c-2-8-6-13-9-18H57l-6-6c10-2,19,0,26,3s0-6-4-9l22,5c4-3-2-6-5-9,12,2,18,6,23,9s0-7-2-10c9,3,14,8,19,12s4-4,1-10a49,49,0,0,1,16,13c4-3,3-6,3-9s11,12,17,17,2-3,3-8c17,16,40,56,6,72C147,78,112,60,74,48c49,25,78,45,94,63-8,32-50,33-65,32,3-1,6-3,7-6s-18,0-27-6Zm60,24c17,3-81,87-82,68-1-49,37-75,82-68ZM38,342c-24-19-31-74,13-98C77,237,60,352,38,342Zm91,98c-13,8-46,5-69-28s-13-55-3-63,42,3,61,26S143,430,129,440ZM103,321c-24-16-29-52-10-80s54-39,79-23,29,52,10,80S127,336,103,321ZM205,496c-29,1-58-24-58-32s36-23,59-22,56,8,56,19-29,36-57,35Zm59-125c0,30-26,54-59,54s-59-24-59-53h0c0-30,26-54,59-54s59,24,59,53Zm82,43c-25,35-60,36-72,26s-3-51,15-72,43-38,59-27,17,49-2,72Zm23-73c-21,9-39-105-13-98C400,267,393,322,369,341Z" transform="translate(0 0)" style="fill:#fff"/></svg>