<svg id="Layer_1" data-name="Layer 1" xmlns="http://www.w3.org/2000/svg" viewBox="0 0 512 441"><title>ravelry</title><path d="M407,62c-76-39-150-30-225,5-11,5-15,11-20,19a220,220,0,0,0-20,53,205,205,0,0,0-43,90c-11,18-21,41-23,71,0,0-1,8,0,8-35-5-76-27-76-27,9,15,61,32,76,38,0,0,2,98,65,131l-13-20s-33-60-27-104h2c24,87,103,151,197,151h18c14,2,28,1,40-4s14-6,20-11c70-39,101-82,123-148,5-16,8-35,10-52,9-82-31-162-103-199ZM139,163s-1,12-1,20a147,147,0,0,0-18,17,199,199,0,0,1,19-36ZM108,285c4-17,13-39,30-55,0,0,2,48,16,90l-41-7A175,175,0,0,1,108,285Zm8,43,43,9c27,77,108,124,108,124h3c-73-12-133-65-154-134ZM386,444c-14,5-36,8-65,4,0,0-91-23-127-108,38,1,52,0,78-4,39-6,79-16,115-33,12-5,11-19,10-30s-11-12-21-5-82,59-190,54c-19-32-27-111-27-111,41-35,83-60,168-52,0-6,3-27-20-28,0,0-94-11-146,34,3-16,6-29,11-39A191,191,0,0,1,300,76c106,0,193,87,193,195A196,196,0,0,1,386,444Z" transform="translate(0 -36)" style="fill:#fff"/></svg>