<svg id="Layer_1" data-name="Layer 1" xmlns="http://www.w3.org/2000/svg" viewBox="0 0 571 512"><title>reacteurope</title><path d="M251,212l6-4,6,4-2-7,6-4h-7l-2-7-2,7h-7l6,4Zm64,0,6-4,6,4-2-7,6-4h-7l-2-7-2,7h-7l6,4Zm-91,50h-3c-5,0-4,4-4,12s-2,6-6,6-6-1-6-6V238c0-5,2-6,6-6s6,1,6,6-1,11,4,11h3c5,0,4-4,4-12s-7-14-17-14h0c-10,0-17,4-17,14v40c0,10,7,14,17,14h0c10,0,17-4,17-14S228,262,223,262Zm-81,17H128V260h11c3,0,4-1,4-4v-2c0-2-1-4-4-4H128V232h14c3,0,4-1,4-4v-2c0-2-1-4-4-4H120c-2,0-4,1-4,4v59c0,3,1,4,4,4h22c3,0,4-1,4-4v-2c0-2-1-4-4-4Zm-42-18c5-2,7-6,7-12V237c0-10-7-14-17-14H77c-2,0-4,1-4,4v59c0,3,1,4,4,4h3c3,0,4-1,4-4V263h6l7,24a4,4,0,0,0,4,3h3c3,0,4-2,3-4Zm-4-14c0,5-2,6-6,6H85V232h6c4,0,6,1,6,6Zm79-21a4,4,0,0,0-4-3h-7a4,4,0,0,0-4,3h0l-11,59c0,3,1,4,3,4h3a4,4,0,0,0,4-3h0l2-11h12l2,11a4,4,0,0,0,4,4h4c3,0,4-1,3-4Zm-12,39,5-30,5,30Zm89,20V232h8c3,0,4-1,4-4v-2c0-2-1-4-4-4H235c-2,0-4,1-4,4v2c0,3,1,4,4,4h7v53c0,3,1,4,4,4h3c3,0,4-1,4-4Zm248-1H482V258h16l2-2a2,2,0,0,0,0,0h0a2,2,0,0,0-2-2H482V227h19l2-2a2,2,0,0,0,0,0h0a2,2,0,0,0-2-2H477v63a2,2,0,0,0,2,2h23l2-2h0a2,2,0,0,0-2-2h0Zm-93-63h-1c-10,0-15,5-15,14v40c0,9,5,14,15,14h1c10,0,15-5,15-14V236c0-9-5-14-15-14Zm10,52c0,8-3,11-10,11s-10-3-10-11V238c0-8,3-11,11-11s11,3,11,11Zm-46-14c6-2,9-6,9-13V237c0-9-5-14-15-14H352l-2,2h0v63a2,2,0,0,0,2,2h1l2-2a2,2,0,0,0,0,0V261h12l10,27,2,2h2c1,0,2-1,2-2Zm-6-4H355V227h10c8,0,11,3,11,11v6c0,8-3,11-10,11Zm86-33H435v63a2,2,0,0,0,2,2h1l2-2a2,2,0,0,0,0,0V261h11c10,0,15-5,15-14V237c0-9-5-14-15-14Zm10,23c0,8-3,11-10,11H441V227h10c8,0,11,3,11,11ZM260,308l-2-7-2,7h-7l6,4-2,7,6-4,6,4-2-7,6-4ZM487,172l-36-11C471,83,463,26,429,7s-86,4-138,55l10,10C384-8,421,19,422,19c22,13,36,56,16,138a588,588,0,0,0-85-13C281,44,212,2,171,2c-31,0-44,21-48,28-18,32-13,84,0,134C53,184,3,218,3,259c1,60,103,88,122,93-20,82-10,136,22,154s75,6,138-55l-10-10c-82,80-120,54-121,53-22-13-36-56-15-138,12,3,42,10,85,13,72,100,141,142,182,142,31,0,44-21,48-28,18-32,13-84,0-134,152-44,156-130,34-176ZM136,37c3-5,12-20,35-20,37,0,99,40,163,126a714,714,0,0,0-94,1,548,548,0,0,1,42-52L272,81a598,598,0,0,0-51,64,570,570,0,0,0-84,15c0-1-24-82-1-123ZM441,475c-3,5-12,20-35,20-37,0-99-39-163-126a695,695,0,0,0,94-1,548,548,0,0,1-42,52l10,10a588,588,0,0,0,51-64c47-5,80-13,84-15,23,84,5,117,1,123Zm9-139c-4-12-8-24-12-36a13,13,0,0,1-11-6h0l-5,4c6,14,11,28,15,42a535,535,0,0,1-72,13c4-5,17-26,32-54l-6-3c-1,1-4,4-11,4-6,11-17,31-34,55a712,712,0,0,1-112,1c-8-11-21-31-37-58h-3c-2,2-4,3-13,3,6,11,18,31,34,55a549,549,0,0,1-72-12q6-21,14-43H141c-5,13-9,27-13,39-160-43-140-124-2-164,4,12,8,24,12,36,10,0,13,3,14,5l2-2c-6-15-11-29-15-43,7-2,32-8,72-13-16,24-27,44-33,55a14,14,0,0,1,6,8,23,23,0,0,1,10-8c7-12,18-32,35-57a712,712,0,0,1,112-1c32,45,29,48,43,65a21,21,0,0,1,10-7c-6-11-18-31-34-55,40,4,65,10,72,12-4,14-9,29-15,44l7,4h0a13,13,0,0,1,9-6c5-13,9-27,13-39l35,11c106,40,74,88,73,90-20,35-80,55-106,63ZM335,223h-1l-2,2a2,2,0,0,0,0,0v50c0,8-3,11-10,11s-10-3-10-11V224a2,2,0,0,0-1-2h-2l-2,2h0v51c0,10,5,14,15,14h0c10,0,15-5,15-14V224a2,2,0,0,0-2-2h0Zm-14,85-2-7-2,7h-7l6,4-2,7,6-4,6,4-2-7,6-4Zm-31,7-2-7-2,7h-7l6,4-2,7,6-4,6,4-2-7,6-4Zm5-31H276V258h16l2-2a2,2,0,0,0,0,0h0a2,2,0,0,0-2-2H276V227h19l2-2a2,2,0,0,0,0,0h0a2,2,0,0,0-2-2H273l-2,2h0v63a2,2,0,0,0,2,2h23l2-2h0a2,2,0,0,0-2-2h0Zm-7-99-2,7h-7l6,4-2,7,6-4,6,4-2-7,6-4h-7Z" transform="translate(-3 0)" style="fill:#fff"/></svg>