<svg id="Layer_1" data-name="Layer 1" xmlns="http://www.w3.org/2000/svg" viewBox="0 0 512 448"><title>react</title><path d="M418,177l-16-5,3-11c12-60,4-107-23-123s-69,1-113,38L256,88l-8-8c-45-40-91-57-118-41S96,99,107,155l4,17-19,6C38,196,0,225,0,256s41,62,96,81l14,4-4,18c-10,56-2,100,24,115s72,0,117-39l11-10,14,12c43,37,85,52,111,37s36-63,24-120l-3-13,9-3c58-19,100-50,100-82s-39-60-94-78ZM283,92c37-32,72-45,88-36s23,49,13,100l-2,10a512,512,0,0,0-67-11,505,505,0,0,0-43-53ZM167,308l16,26-46-7a467,467,0,0,1,16-44l14,26ZM137,187l46-8-15,25-14,26c-6-15-12-29-16-44Zm27,69c7-14,14-27,21-41s16-26,24-39l46-2,46,2,24,39q12,20,22,40-10,21-22,41c-8,13-16,26-24,39l-46,2H210q-13-19-25-39c-8-13-15-27-21-41Zm181,51,15-27a464,464,0,0,1,17,44l-47,8,16-26Zm14-76-14-26-15-25,46,8A443,443,0,0,1,359,231ZM256,118a439,439,0,0,1,30,36H226C236,141,246,129,256,118ZM140,57c17-10,54,4,93,39l8,7a508,508,0,0,0-43,53,527,527,0,0,0-67,10l-3-15c-9-48-3-85,13-94ZM116,321l-12-4c-21-7-45-17-63-31a45,45,0,0,1-19-30c0-18,32-42,77-58l17-5a532,532,0,0,0,25,64A547,547,0,0,0,116,321Zm117,98a183,183,0,0,1-56,35,44,44,0,0,1-35,1c-16-9-22-44-13-92l4-17a500,500,0,0,0,68,10,528,528,0,0,0,43,53l-10,9Zm25-24c-10-11-20-23-30-36h60A431,431,0,0,1,257,394Zm131,30a44,44,0,0,1-16,31c-16,9-50-3-86-34l-13-11a495,495,0,0,0,42-54,493,493,0,0,0,68-10l3,12a182,182,0,0,1,3,66Zm18-107-8,3a508,508,0,0,0-25-64,505,505,0,0,0,25-63l15,5c47,16,79,40,79,58S456,300,406,317ZM256,302a46,46,0,1,0-46-46,46,46,0,0,0,46,46Z" transform="translate(0 -32)" style="fill:#fff"/></svg>