<svg id="Layer_1" data-name="Layer 1" xmlns="http://www.w3.org/2000/svg" viewBox="0 0 576 419"><title>readme</title><path d="M528,47H389a103,103,0,0,0-100,80A103,103,0,0,0,188,47H48A48,48,0,0,0,0,95V340a48,48,0,0,0,48,48h90c102,0,133,24,147,75,1,3,5,3,6,0,15-51,45-75,147-75h90a48,48,0,0,0,48-48V95A48,48,0,0,0,528,47ZM242,312a3,3,0,0,1-3,4H78a3,3,0,0,1-3-3V289a3,3,0,0,1,4-3H239a3,3,0,0,1,4,4v23Zm0-61a3,3,0,0,1-3,4H78a3,3,0,0,1-3-3V228a3,3,0,0,1,4-3H239a3,3,0,0,1,4,4v23Zm0-61a3,3,0,0,1-3,4H78a3,3,0,0,1-3-3V167a3,3,0,0,1,4-3H239a3,3,0,0,1,4,4v23ZM501,312a3,3,0,0,1-3,4H338a3,3,0,0,1-3-3V289a3,3,0,0,1,4-3H498a3,3,0,0,1,4,4v23Zm0-61a3,3,0,0,1-3,4H338a3,3,0,0,1-3-3V228a3,3,0,0,1,4-3H498a3,3,0,0,1,4,4v23Zm0-61a3,3,0,0,1-3,4H338a3,3,0,0,1-3-3V167a3,3,0,0,1,4-3H498a3,3,0,0,1,4,4v23Z" transform="translate(0 -47)" style="fill:#fff"/></svg>