<svg id="Layer_1" data-name="Layer 1" xmlns="http://www.w3.org/2000/svg" viewBox="0 0 486 496"><title>rebel</title><path d="M257,504C117,504,9,388,13,250,16,171,56,98,130,50c0,0,2-1,1,1S20,180,117,277c50,50,90,3,90,3,39-50-1-126-1-126-10-25-46-40-46-40l29-32c24,11,43,39,43,39,1-30-22-61-22-61L255,8l44,50c-20,29-22,63-22,63,14-23,44-39,44-39l29,32c-27,9-45,40-45,40-16,29-27,89,1,127s88-3,88-3c103-92-10-225-10-225s1-3,1-3c50,36,115,84,116,205C501,400,399,504,257,504Z" transform="translate(-13 -8)" style="fill:#fff"/></svg>