<svg id="Layer_1" data-name="Layer 1" xmlns="http://www.w3.org/2000/svg" viewBox="0 0 448 448"><title>reddit-square</title><path d="M283,346a6,6,0,0,1,0,9c-24,25-94,25-118,0a6,6,0,0,1,0-9,6,6,0,0,1,9,0c19,19,81,20,101,0A7,7,0,0,1,283,346Zm-91-54a27,27,0,1,0-26,27A27,27,0,0,0,192,292Zm91-27a27,27,0,1,0,27,27A27,27,0,0,0,283,265ZM448,80V432a48,48,0,0,1-48,48H48A48,48,0,0,1,0,432V80A48,48,0,0,1,48,32H400A48,48,0,0,1,448,80ZM348,221a36,36,0,0,0-26,11c-24-17-56-27-93-29l19-84,59,13a27,27,0,0,0,27,27,27,27,0,1,0-24-39l-66-15c-3-1-6,2-7,5l-20,93c-36,2-68,12-92,29a36,36,0,0,0-26-11c-37,0-50,50-15,67a77,77,0,0,0-2,17c0,57,64,102,142,102s142-46,142-102a64,64,0,0,0-2-17c34-17,21-67-16-67Z" transform="translate(0 -32)" style="fill:#fff"/></svg>