<svg id="Layer_1" data-name="Layer 1" xmlns="http://www.w3.org/2000/svg" viewBox="0 0 496 496"><title>reddit</title><path d="M202,306a25,25,0,1,1,25-25A25,25,0,0,1,202,306Zm303-49c0,137-111,248-248,248S8,393,8,256,119,8,256,8,504,119,504,256ZM372,215a33,33,0,0,0-24,10c-22-15-53-25-86-27l17-78,55,13a25,25,0,0,0,25,25,25,25,0,1,0-22-36l-61-14c-3-1-6,1-7,4l-19,86c-33,1-63,11-85,27a33,33,0,0,0-24-10c-35,0-46,47-14,63a72,72,0,0,0-2,16c0,53,59,95,132,95s132-43,132-95a64,64,0,0,0-2-16c31-16,20-62-15-62ZM303,331c-18,18-76,18-94,0a6,6,0,0,0-8,0,6,6,0,0,0,0,9c23,23,87,23,110,0a6,6,0,0,0,0-9A6,6,0,0,0,303,331Zm8-75a25,25,0,1,0,25,25A25,25,0,0,0,311,256Z" transform="translate(-8 -8)" style="fill:#fff"/></svg>