<svg id="Layer_1" data-name="Layer 1" xmlns="http://www.w3.org/2000/svg" viewBox="0 0 474 448"><title>reddit-alien</title><path d="M440,204a53,53,0,0,0-38,16c-36-25-84-41-137-42L293,52l88,20a39,39,0,0,0,39,39,40,40,0,1,0,0-79c-15,0-29,9-35,22L288,32c-5-1-10,2-11,7L246,177c-53,2-100,18-136,43a53,53,0,0,0-38-16c-56,0-74,75-23,100a112,112,0,0,0-3,25c0,84,94,152,210,152s211-68,211-152a95,95,0,0,0-3-25c50-26,32-100-24-100ZM129,309a39,39,0,1,1,40,39A40,40,0,0,1,129,309Zm214,94c-36,36-139,36-175,0-4-3-4-10,0-14a10,10,0,0,1,13,0c28,29,120,29,149,0a10,10,0,0,1,13,0c4,4,4,10,0,14Zm-1-54a39,39,0,1,1,40-39A39,39,0,0,1,343,348Z" transform="translate(-19 -32)" style="fill:#fff"/></svg>