<svg id="Layer_1" data-name="Layer 1" xmlns="http://www.w3.org/2000/svg" viewBox="0 0 448 448"><title>replyd</title><path d="M320,480H128C58,480,0,422,0,352V160C0,90,58,32,128,32H320c70,0,128,58,128,128V352C448,422,390,480,320,480ZM193,273l-16-3a33,33,0,0,0-19,6c-5,4-10,9-13,16h-1l-4-18H112V412h36V322a25,25,0,0,1,9-13c4-3,10-5,16-5l16,3,5-34ZM309,377l-14,7a57,57,0,0,1-20,4c-12,0-21-3-27-9s-8-15-9-26h83c1-5,2-9,2-14a111,111,0,0,0,1-12c0-11-2-20-5-27s-7-13-12-17a48,48,0,0,0-18-9l-21-3q-32,0-49,18t-17,55q0,34,16,54t49,20a98,98,0,0,0,30-5c10-3,17-7,23-11l-12-24Zm-22-70c4,5,5,13,5,23H240c1-9,4-17,8-23s12-8,21-8S283,301,287,306Zm80,3c4,4,9,6,16,6s13-2,17-6,6-9,6-16-2-12-6-15-10-6-17-6-12,2-16,6-6,9-6,15S363,305,367,309Zm0,101c4,4,9,6,16,6s13-2,17-6,6-9,6-16-2-12-6-15-10-6-17-6-12,2-16,6-6,9-6,15S363,405,367,409Z" transform="translate(0 -32)" style="fill:#fff"/></svg>