<svg id="Layer_1" data-name="Layer 1" xmlns="http://www.w3.org/2000/svg" viewBox="0 0 448 448"><title>researchgate</title><path d="M0,32V480H448V32ZM262,366c-7,3-33,6-50-14s-25-33-42-64H149v46c0,24,6,21,26,24v8H105v-8c16-3,22-1,22-24V225c0-23-6-21-22-24v-8c26,1,53-1,71-1,32,0,56,14,56,46s-17,42-39,48c14,24,30,46,42,59s17,15,27,15v7Zm23-135c-23,0-32-16-32-32V167c0-12,9-30,34-30s30,18,30,18l-11,7s-5-12-20-12-20,7-20,20v27c0,13,7,23,18,23s22-11,22-27H289V182h30c0,21,5,50-34,50ZM169,276H149V206h23c23,0,37,12,37,35S193,276,169,276Z" transform="translate(0 -32)" style="fill:#fff"/></svg>