<?xml version="1.0" encoding="UTF-8"?>
<!DOCTYPE svg PUBLIC "-//W3C//DTD SVG 1.1//EN" "http://www.w3.org/Graphics/SVG/1.1/DTD/svg11.dtd">
<!-- Creator: CorelDRAW 2017 -->
<svg xmlns="http://www.w3.org/2000/svg" xml:space="preserve" width="210mm" height="297mm" version="1.1" style="shape-rendering:geometricPrecision; text-rendering:geometricPrecision; image-rendering:optimizeQuality; fill-rule:evenodd; clip-rule:evenodd"
viewBox="0 0 21000 29700"
 xmlns:xlink="http://www.w3.org/1999/xlink">
 <defs>
  <style type="text/css">
   <![CDATA[
    .fil0 {fill:white}
   ]]>
  </style>
 </defs>
 <g id="Layer_x0020_1">
  <metadata id="CorelCorpID_0Corel-Layer"/>
  <path class="fil0" d="M286 23677c-450,506 -352,1294 211,1673l3225 1308c464,314 1092,234 1467,-178l4303 -4777 -3713 -4120 -5494 6094 0 0zm20428 0c0,0 -13687,-15216 -13847,-15473 722,-394 1884,-839 3633,-839 1748,0 2911,445 3633,839 -155,263 -2625,3028 -2625,3028l3708 4111 1603 -1781c1345,-1495 1561,-3684 534,-5414l-2048 -3445c-202,-338 -464,-623 -788,-844 -1908,-1294 -5972,-1392 -8034,0 -323,220 -586,506 -787,844l-2044 3431c-70,117 -1739,2916 539,5438l11630 12905c375,417 1003,492 1467,178l3225 -1308c558,-375 656,-1163 202,-1669l0 0z"/>
 </g>
</svg>
