<?xml version="1.0" encoding="UTF-8"?>
<!DOCTYPE svg PUBLIC "-//W3C//DTD SVG 1.1//EN" "http://www.w3.org/Graphics/SVG/1.1/DTD/svg11.dtd">
<!-- Creator: CorelDRAW 2017 -->
<svg xmlns="http://www.w3.org/2000/svg" xml:space="preserve" width="210mm" height="297mm" version="1.1" style="shape-rendering:geometricPrecision; text-rendering:geometricPrecision; image-rendering:optimizeQuality; fill-rule:evenodd; clip-rule:evenodd"
viewBox="0 0 21000 29700"
 xmlns:xlink="http://www.w3.org/1999/xlink">
 <defs>
  <style type="text/css">
   <![CDATA[
    .fil0 {fill:white}
   ]]>
  </style>
 </defs>
 <g id="Layer_x0020_1">
  <metadata id="CorelCorpID_0Corel-Layer"/>
  <path class="fil0" d="M10500 6975c-5986,0 -10500,2539 -10500,5906l0 4025c0,3214 4701,5819 10500,5819 5799,0 10500,-2605 10500,-5819l0 -4025c0,-3367 -4514,-5906 -10500,-5906zm0 2625c4349,0 7875,1469 7875,3281 0,380 -163,743 -447,1082 -1843,-1074 -4465,-1739 -7428,-1739 -2963,0 -5584,665 -7428,1739 -285,-339 -447,-703 -447,-1082 0,-1812 3526,-3281 7875,-3281zm-5560 5604c1420,-603 3331,-1011 5560,-1011 2230,0 4141,407 5560,1011 -1424,592 -3390,958 -5560,958 -2171,0 -4136,-366 -5560,-958l0 0z"/>
 </g>
</svg>
