<?xml version="1.0" encoding="UTF-8"?>
<!DOCTYPE svg PUBLIC "-//W3C//DTD SVG 1.1//EN" "http://www.w3.org/Graphics/SVG/1.1/DTD/svg11.dtd">
<!-- Creator: CorelDRAW 2017 -->
<svg xmlns="http://www.w3.org/2000/svg" xml:space="preserve" width="210mm" height="297mm" version="1.1" style="shape-rendering:geometricPrecision; text-rendering:geometricPrecision; image-rendering:optimizeQuality; fill-rule:evenodd; clip-rule:evenodd"
viewBox="0 0 21000 29700"
 xmlns:xlink="http://www.w3.org/1999/xlink">
 <defs>
  <style type="text/css">
   <![CDATA[
    .fil0 {fill:white}
   ]]>
  </style>
 </defs>
 <g id="Layer_x0020_1">
  <metadata id="CorelCorpID_0Corel-Layer"/>
  <path class="fil0" d="M20898 20197l-5097 -11667c-181,-415 -576,-681 -1011,-681l-3558 0 89 844c18,172 -117,322 -290,322l-1063 0c-173,0 -308,-150 -290,-322l89 -844 -3558 0c-435,0 -830,266 -1011,681l-5097 11667c-337,773 201,1653 1011,1653l7176 0 376 -3561c31,-297 281,-522 580,-522l2508 0c299,0 549,225 580,522l376 3561 7176 0c810,0 1349,-880 1011,-1653zm-11404 -9753c16,-148 141,-261 290,-261 0,0 0,0 0,0l1432 0c149,0 275,113 290,261l168 1589c27,258 -175,483 -435,483l-1478 0c-260,0 -462,-225 -435,-483l167 -1589 0 0zm2014 6156l-2016 0c-346,0 -617,-300 -580,-645l185 -1750c31,-297 281,-522 580,-522l1646 0c299,0 549,225 580,522l185 1750c36,345 -234,645 -580,645l0 0z"/>
 </g>
</svg>
