<svg id="Layer_1" data-name="Layer 1" xmlns="http://www.w3.org/2000/svg" viewBox="0 0 576 506"><title>rocketchat</title><path d="M486,108C409,57,307,45,222,61,127-31,21,11,0,23c0,0,73,62,61,116-87,88-45,186,0,233C73,427,0,489,0,489c21,12,127,54,222-37,85,15,187,4,264-47,119-76,120-221,0-297ZM294,404a340,340,0,0,1-88-11l-20,19a180,180,0,0,1-37,27,143,143,0,0,1-52,15l3-5q30-55,16-99c-33-26-52-58-52-94,0-82,103-148,229-148s229,66,229,148S421,404,294,404ZM184,291a34,34,0,0,1-35-34c-1-45,68-46,69-1h0a34,34,0,0,1-34,34h0Zm74-34c-1-45,68-46,69-1h0c0,45-68,46-69,1Zm143,34a34,34,0,0,1-35-34c-1-45,68-46,69-1h0a34,34,0,0,1-33,34h0Z" transform="translate(0 -3)" style="fill:#fff"/></svg>