<?xml version="1.0" encoding="UTF-8"?>
<!DOCTYPE svg PUBLIC "-//W3C//DTD SVG 1.1//EN" "http://www.w3.org/Graphics/SVG/1.1/DTD/svg11.dtd">
<!-- Creator: CorelDRAW 2017 -->
<svg xmlns="http://www.w3.org/2000/svg" xml:space="preserve" width="210mm" height="297mm" version="1.1" style="shape-rendering:geometricPrecision; text-rendering:geometricPrecision; image-rendering:optimizeQuality; fill-rule:evenodd; clip-rule:evenodd"
viewBox="0 0 21000 29700"
 xmlns:xlink="http://www.w3.org/1999/xlink">
 <defs>
  <style type="text/css">
   <![CDATA[
    .fil0 {fill:white}
   ]]>
  </style>
 </defs>
 <g id="Layer_x0020_1">
  <metadata id="CorelCorpID_0Corel-Layer"/>
  <path class="fil0" d="M10500 4350c-5800,0 -10500,4700 -10500,10500 0,5800 4700,10500 10500,10500 5800,0 10500,-4700 10500,-10500 0,-5800 -4700,-10500 -10500,-10500zm6097 16360l0 -4844c0,-559 -457,-1016 -1016,-1016 -559,0 -1016,457 -1016,1016l0 6410c-1207,660 -2591,1042 -4065,1042 -1473,0 -2858,-381 -4065,-1042l0 -6410c0,-559 -457,-1016 -1016,-1016 -559,0 -1016,457 -1016,1016l0 4844c-1465,-1524 -2371,-3586 -2371,-5860 0,-4670 3798,-8468 8468,-8468 4670,0 8468,3798 8468,8468 0,2274 -906,4340 -2371,5860l0 0zm-7883 -6770c186,-102 292,-313 258,-525 -169,-1067 -1448,-1782 -2532,-1782 -1084,0 -2367,716 -2532,1782 -34,212 72,423 258,525 186,102 419,76 580,-68l402 -360c627,-559 1956,-559 2583,0l402 360c106,97 334,203 580,68l0 0zm5851 -2307c-1088,0 -2367,716 -2532,1782 -34,212 72,423 258,525 191,102 419,76 580,-68l402 -360c627,-559 1956,-559 2583,0l402 360c106,93 339,199 580,68 186,-102 292,-313 258,-525 -165,-1067 -1444,-1782 -2532,-1782l0 0zm-4065 3895c-1308,0 -2371,1215 -2371,2710 0,1495 1063,2710 2371,2710 1308,0 2371,-1215 2371,-2710 0,-1495 -1063,-2710 -2371,-2710z"/>
 </g>
</svg>
