<svg id="Layer_1" data-name="Layer 1" xmlns="http://www.w3.org/2000/svg" viewBox="0 0 496 496"><title>safari</title><path d="M275,275l-37-37L166,346ZM256,8C119,8,8,119,8,256S119,504,256,504,504,393,504,256,393,8,256,8ZM412,183l15-6a8,8,0,0,1,10,4h0a8,8,0,0,1-4,10h0l-15,6a8,8,0,0,1-10-4h0A8,8,0,0,1,412,183ZM314,94l6-15a8,8,0,0,1,10-4h0a8,8,0,0,1,4,10l-6,15a8,8,0,0,1-10,4h0a8,8,0,0,1-4-10ZM256,60h0a8,8,0,0,1,8,8V84a8,8,0,0,1-8,8h0a8,8,0,0,1-8-8V68A8,8,0,0,1,256,60ZM181,75a8,8,0,0,1,10,4h0l6,15a8,8,0,1,1-15,6h0l-6-15A8,8,0,0,1,181,75Zm-64,42h0a8,8,0,0,1,11,0l11,11a8,8,0,0,1,0,11h0a8,8,0,0,1-11,0l-11-11a8,8,0,0,1,0-11ZM60,256h0a8,8,0,0,1,8-8H84a8,8,0,0,1,8,8h0a8,8,0,0,1-8,8H68A8,8,0,0,1,60,256Zm40,73-15,6a8,8,0,0,1-10-4h0a8,8,0,0,1,4-10h0l15-6a8,8,0,0,1,10,4h0A8,8,0,0,1,100,329Zm4-136h0a8,8,0,0,1-10,4h0l-15-6a8,8,0,0,1-4-10h0a8,8,0,0,1,10-4l15,6a8,8,0,0,1,4,10Zm93,225-6,15a8,8,0,0,1-15-6l6-15a8,8,0,1,1,15,6Zm66,26a8,8,0,0,1-8,8h0a8,8,0,0,1-8-8V428a8,8,0,0,1,8-8h0a8,8,0,0,1,8,8Zm67-7h0a8,8,0,0,1-10-4h0l-6-15a8,8,0,0,1,4-10h0a8,8,0,0,1,10,4l6,15A8,8,0,0,1,331,437Zm64-42h0a8,8,0,0,1-11,0l-11-11a8,8,0,0,1,0-11h0a8,8,0,0,1,11,0l11,11a8,8,0,0,1,0,11ZM286,286,110,402,226,226,402,110Zm151,45h0a8,8,0,0,1-10,4l-15-6a8,8,0,0,1-4-10h0a8,8,0,0,1,10-4h0l15,6A8,8,0,0,1,437,331Zm7-67H428a8,8,0,0,1-8-8h0a8,8,0,0,1,8-8h16a8,8,0,0,1,8,8h0A8,8,0,0,1,444,264Z" transform="translate(-8 -8)" style="fill:#fff"/></svg>