<svg id="Layer_1" data-name="Layer 1" xmlns="http://www.w3.org/2000/svg" viewBox="0 0 640 448"><title>salesforce</title><path d="M249,246H223c1-5,3-14,14-14S248,235,249,246Zm137-14s-14-2-14,20,14,20,14,20c13,0,14-14,14-20,0-22-14-20-14-20ZM142,256a9,9,0,0,0-3,7c0,5,2,6,3,7s15,2,21,1V254C158,253,147,252,142,256Zm498-24c0,88-80,154-165,136-18,33-71,71-132,42-41,96-178,92-214-5C9,429-50,267,53,206,19,126,76,32,168,32a124,124,0,0,1,99,49c21-21,49-35,81-35,42,0,79,24,99,59C539,64,640,133,640,232ZM120,264c0-12-12-15-18-17s-13-4-13-9,17-7,25-2,1,1,2,0l3-7h-1c-12-8-41-9-41,13s11,15,18,17,13,3,13,9-4,7-9,7a32,32,0,0,1-19-6s-1-1-2,1l-2,7c0,1,0,1,0,1s10,7,23,7,21-7,21-18Zm32-43c-10,0-19,3-21,5a1,1,0,0,0,0,1h0l3,7h1c1,0,7-4,17-4s7,1,9,2,3,8,3,11-19-3-29,4a17,17,0,0,0-7,15c0,6,2,10,7,14s36,2,38,1,4-1,4-2V243c0-5,0-22-23-22Zm47-21H187v79h12a1,1,0,0,0,0,0Zm56,29c-2-2-7-8-18-8s-14,0-21,9-7,18-7,21,0,14,7,21,9,8,23,8,16-2,19-4,1-1,0-2l-2-7h-1c-3,1-6,3-15,3s-17-15-17-17h38s2-15-6-24Zm37,53c13,0,21-7,21-18s-12-15-18-17-13-3-13-9,3-6,8-6a38,38,0,0,1,17,4s1,1,2,0l3-7h-1c-8-5-17-5-20-5s-20,7-20,18,11,15,18,17,13,3,13,9-4,7-9,7a32,32,0,0,1-19-6h-2l-2,8c0,1,0,1,0,1s10,7,23,7Zm66-58H344s1-9,4-12,12-2,12-2h2l3-8c1-1,0-1,0-1s-17-3-24,4-7,14-8,20H323v8h9c-9,48-9,50-10,56s-3,7-6,8-4,2-10,0h-1l-3,8c0,1,0,1,0,1s13,2,18,0,10-8,12-13,3-10,12-60h13Zm53,16c-1-2-5-18-25-18s-23,10-25,18-3,14,0,24,4,18,25,18,23-10,25-18,1-21,0-24Zm45-17c-5-2-17-2-22,5v-4H422v55h12a1,1,0,0,0,0,0V252c0-3,0-11,4-15s12-3,13-3h1l3-8a1,1,0,0,0,0-1Zm47,54-2-7h-1c-4,2-10,2-11,2s-17-1-17-20c0-6,2-20,16-20l12,2s1,0,1-1l3-8c0-1,0-1-1-1-12-4-22-3-28,0s-16,6-16,28c0,3-1,30,29,30l16-3a1,1,0,0,0,0-1Zm54-40c-1-3-5-16-22-16s-24,10-26,19a39,39,0,0,0-2,12c0,26,19,29,30,29s16-2,19-4,1-1,0-2l-2-7h-1c-3,1-6,3-15,3s-17-15-17-17h38s1-7-1-16Zm-23-6c-10,0-13,9-14,14h26c-1-12-8-14-13-14Z" transform="translate(0 -32)" style="fill:#fff"/></svg>