<svg id="Layer_1" data-name="Layer 1" xmlns="http://www.w3.org/2000/svg" viewBox="0 0 640 480"><title>sass</title><path d="M302,379Zm249-87a131,131,0,0,0-58,14c-6-12-12-22-13-30s-2-14-1-25,8-26,8-27-1-7-14-7-24,3-25,6a123,123,0,0,0-5,19c-2,12-26,53-39,75-4-8-8-16-9-22s-2-14-1-25,8-26,8-27-1-7-14-7-24,3-25,6-3,11-5,19-34,77-42,95l-10,22v2h1l-3,7h0c-2,3-4,6-4,6s-2-8,0-20c5-24,16-62,16-63s2-7-7-11-12,2-13,2-1,2-1,2,10-42-19-42c-18,0-44,20-57,39l-43,24-21,11h-1c-36-38-102-65-99-116,1-19,8-68,127-127,98-49,176-35,190-6,19,43-42,122-144,133-39,4-59-11-64-16s-6-6-8-5-1,7,0,10,16,22,37,29,64,10,119-12,110-90,96-146S293,0,205,31C152,50,95,79,54,118S-3,203,1,220c11,59,93,97,125,126l-4,3c-16,8-78,41-94,75s3,67,16,70c42,12,85-9,108-44s20-79,10-99h0l13-7,23-13c-4,11-7,24-8,43s7,51,19,62,11,5,15,5,20-11,27-25,16-36,16-36-9,52,16,52c9,0,19-12,23-18h1l2-2h0c4-6,12-21,25-46s32-71,32-71a201,201,0,0,0,6,26c3,10,9,20,13,30l-6,8h0l-10,13c-13,15-28,33-30,38s-2,10,3,14,9,3,16,3,20-4,24-5a82,82,0,0,0,20-11c13-9,20-22,19-40s-3-19-7-28l3-5c20-29,35-61,35-61a201,201,0,0,0,6,26c2,8,7,17,11,26-19,15-30,33-34,44s-2,31,9,33,12-1,17-3a79,79,0,0,0,22-11c13-9,25-22,24-40s-2-16-5-23c16-7,36-10,62-7,56,7,67,41,64,56s-14,23-18,25-5,3-5,5,2,3,6,2,29-12,30-39-31-71-89-71ZM122,437c-18,20-44,28-55,21s-7-36,15-58,32-25,43-32l11-7h1l3-2c8,30,0,57-19,78Zm134-91c-6,16-20,56-28,54s-11-32-1-62c5-15,16-33,22-40s21-15,24-10-12,49-16,59Zm111,53-6,2c-1,0,1-2,1-2l19-22,11-14v2c0,18-17,30-25,35Zm86-19c-2-1-2-6,5-21s9-15,19-24a36,36,0,0,1,2,11c0,23-16,31-26,34Z" transform="translate(0 -16)" style="fill:#fff"/></svg>