<?xml version="1.0" encoding="UTF-8"?>
<!DOCTYPE svg PUBLIC "-//W3C//DTD SVG 1.1//EN" "http://www.w3.org/Graphics/SVG/1.1/DTD/svg11.dtd">
<!-- Creator: CorelDRAW 2017 -->
<svg xmlns="http://www.w3.org/2000/svg" xml:space="preserve" width="210mm" height="297mm" version="1.1" style="shape-rendering:geometricPrecision; text-rendering:geometricPrecision; image-rendering:optimizeQuality; fill-rule:evenodd; clip-rule:evenodd"
viewBox="0 0 21000 29700"
 xmlns:xlink="http://www.w3.org/1999/xlink">
 <defs>
  <style type="text/css">
   <![CDATA[
    .fil0 {fill:white}
   ]]>
  </style>
 </defs>
 <g id="Layer_x0020_1">
  <metadata id="CorelCorpID_0Corel-Layer"/>
  <path class="fil0" d="M20341 8941l-3932 -3932c-422,-422 -994,-659 -1591,-659l-12568 0c-1243,0 -2250,1007 -2250,2250l0 16500c0,1243 1007,2250 2250,2250l16500 0c1243,0 2250,-1007 2250,-2250l0 -12568c0,-597 -237,-1169 -659,-1591l0 0zm-7591 -2341l0 3750 -6000 0 0 -3750 6000 0zm5719 16500l-15938 0c-155,0 -281,-126 -281,-281l0 -15937c0,-155 126,-281 281,-281l1969 0 0 4875c0,621 504,1125 1125,1125l8250 0c621,0 1125,-504 1125,-1125l0 -4693 3668 3668c53,53 82,124 82,199 0,0 0,0 0,0l0 12170c0,155 -126,281 -281,281l0 0zm-7969 -9375c-2275,0 -4125,1850 -4125,4125 0,2275 1850,4125 4125,4125 2275,0 4125,-1850 4125,-4125 0,-2275 -1850,-4125 -4125,-4125zm0 6000c-1034,0 -1875,-841 -1875,-1875 0,-1034 841,-1875 1875,-1875 1034,0 1875,841 1875,1875 0,1034 -841,1875 -1875,1875z"/>
 </g>
</svg>
