<svg id="Layer_1" data-name="Layer 1" xmlns="http://www.w3.org/2000/svg" viewBox="0 0 448 395"><title>schlix</title><path d="M351,158l-54-46,73-39,78,44-97,41ZM192,122l46-28,35,35-55,29Zm-65,7,32-22,17,28-37,23Zm-23,88-9-35,30-18,13,35ZM82,133l24-18,9,24L89,157l-6-24ZM59,207l-4-28,22-15,6,29ZM28,223l21-13,3,33L30,256ZM1,268l19-10v38L0,305Zm59,59-28,8-2-47,25-11Zm39-64L68,276l-5-41,27-14Zm24,114-42,6-8-63,35-11Zm29-140,21,57-46,14-14-54Zm86,230-71-3-24-96,55-9,40,108ZM153,188l42-22,28,46-51,21Zm41,95,61-19,53,87-80,11Zm51-86,67-29,66,65-89,26-44-63Z" transform="translate(0 -73)" style="fill:#fff"/></svg>