<svg id="Layer_1" data-name="Layer 1" xmlns="http://www.w3.org/2000/svg" viewBox="0 0 384 473"><title>scribd</title><path d="M42,253c-16-19-25-46-25-80C18,72,93,20,185,20S342,69,369,90l-50,72-37-25,27-39A218,218,0,0,0,185,63C134,63,73,91,73,140c0,19,11,21,29,16s42,1,56,14c26,24,23,68-1,92s-85,27-115-8Zm318,6a79,79,0,0,0-63-29c-38-2-71,28-70,67a57,57,0,0,0,18,44c14,14,33,20,56,14s29-3,29,16a60,60,0,0,1-1,13c-17,41-59,64-121,64A240,240,0,0,1,63,401l34-39L61,335,0,406l15,14a285,285,0,0,0,191,72c51,0,94-10,134-44,57-51,54-149,20-190Z" transform="translate(0 -20)" style="fill:#fff"/></svg>