<?xml version="1.0" encoding="utf-8"?>
<!-- Generator: Adobe Illustrator 21.0.0, SVG Export Plug-In . SVG Version: 6.00 Build 0)  -->
<svg version="1.1" id="Layer_1" xmlns="http://www.w3.org/2000/svg" xmlns:xlink="http://www.w3.org/1999/xlink" x="0px" y="0px"
	 viewBox="0 0 598 560" style="enable-background:new 0 0 598 560;" xml:space="preserve">
<style type="text/css">
	.st0{fill:#F4F4F4;}
</style>
<symbol  id="Search_2" viewBox="-31.6 -30.6 63.2 61.3">
	<g>
		<g>
			<g>
				<path class="st0" d="M-31.1-23.3c-0.7,0.8-0.7,2.1,0.1,2.8L-14-5.1c0.8,0.7,2.1,0.7,2.8-0.1l6-6.7c0.7-0.8,0.7-2.1-0.1-2.8
					l-16.9-15.4c-0.8-0.7-2.1-0.7-2.8,0.1L-31.1-23.3z"/>
			</g>
		</g>
	</g>
	<g>
		<path class="st0" d="M9.5,30.7c2.4,0,4.8-0.4,7.2-1.2c11.6-4,17.7-16.6,13.7-28.2C27.2-7.9,18.6-13.6,9.5-13.6
			c-2.4,0-4.8,0.4-7.2,1.2c-11.6,4-17.7,16.6-13.7,28.2C-8.3,24.9,0.3,30.6,9.5,30.7 M9.5,24.6c-6.9,0-13-4.4-15.2-10.9
			C-7.2,9.7-6.9,5.3-5.1,1.5c1.9-3.9,5.2-6.8,9.2-8.2c1.7-0.6,3.5-0.9,5.3-0.9c6.9,0,13,4.4,15.2,10.9c1.4,4.1,1.1,8.5-0.7,12.3
			c-1.9,3.9-5.2,6.8-9.2,8.2l0,0C13,24.4,11.2,24.6,9.5,24.6L9.5,24.6z"/>
	</g>
</symbol>
<use xlink:href="#Search_2"  width="63.2" height="61.3" id="XMLID_1_" x="-31.6" y="-30.6" transform="matrix(6.581 0 0 -6.581 306.8117 280.0021)" style="overflow:visible;"/>
</svg>
