<svg id="Layer_1" data-name="Layer 1" xmlns="http://www.w3.org/2000/svg" viewBox="0 0 460 460"><title>searchengin</title><path d="M221,130l-67,28V43L99,234l55-24V340l67-209ZM137,34v5L121,91A108,108,0,0,0,52,192c0,52,34,96,83,106v54C58,340,0,272,0,192S60,44,137,34ZM449,481c-11,11-23,12-29,11s-27-20-60-44-34-36-43-57-30-43-57-52l-10-15c-25,17-53,27-81,29l2-7,16-49a108,108,0,0,0,81-104c0-54-38-102-96-107V32c83,5,149,75,149,159,0,34-11,65-29,90l15,10c10,27,32,48,52,57s32,10,57,43,43,55,45,60,1,17-10,29Zm-10-18a8,8,0,1,0-8,8A8,8,0,0,0,439,463Z" transform="translate(0 -32)" style="fill:#fff"/></svg>