<svg id="Layer_1" data-name="Layer 1" xmlns="http://www.w3.org/2000/svg" viewBox="0 0 628 448"><title>sellsy</title><path d="M540,237a154,154,0,0,0,4-37c0-93-75-168-168-168A168,168,0,0,0,213,160,84,84,0,0,0,74,223a80,80,0,0,0,3,22A124,124,0,0,0,6,357c0,68,55,123,123,123H511c68,0,123-55,123-123,0-56-39-106-94-120ZM200,402a16,16,0,0,1-15,15H154a16,16,0,0,1-15-15V291a16,16,0,0,1,15-15h31a16,16,0,0,1,15,15V402Zm89,0a16,16,0,0,1-15,15H243a16,16,0,0,1-15-15V270a16,16,0,0,1,15-15h31a16,16,0,0,1,15,15V402Zm89,0a16,16,0,0,1-15,15H333a16,16,0,0,1-15-15V239a16,16,0,0,1,15-15h31a16,16,0,0,1,15,15V402Zm87,0a16,16,0,0,1-15,15H422a16,16,0,0,1-15-15V177a16,16,0,0,1,15-16h28a16,16,0,0,1,15,16V402Z" transform="translate(-6 -32)" style="fill:#fff"/></svg>