<svg id="Layer_1" data-name="Layer 1" xmlns="http://www.w3.org/2000/svg" viewBox="0 0 448 448"><title>sellcast</title><path d="M353,32H95C43,32,0,75,0,127V385c0,52,43,95,95,95H353c52,0,95-43,95-95V127c0-52-43-95-95-95ZM303,348c-28,48-90,65-138,37-23,40-55,9-42-13l16-27a22,22,0,0,1,30-8l19,11a58,58,0,1,0,58-101l-19-11c-25-14-3-52,22-37l19,11c48,28,65,90,37,139Zm22-209c-17,30-16,29-19,32s-16,9-26,4l-18-11a58,58,0,0,0-79,21c-16,28-6,63,21,79l19,11c25,14,3,52-22,38l-18-11c-48-28-65-90-37-138s90-65,138-37l5-8c14-25,52-3,38,21Z" transform="translate(0 -32)" style="fill:#fff"/></svg>