<svg id="Layer_1" data-name="Layer 1" xmlns="http://www.w3.org/2000/svg" viewBox="0 0 448 505"><title>shirtsinbulk</title><path d="M100,410l31,13,4-10-31-13Zm39,18,31,13,4-10-31-13Zm172-14,4,10,31-13-4-10ZM179,445l30,14,4-10-30-13ZM60,393l31,13,4-10L65,383Zm211,39,4,10,31-13-4-10Zm-39,18,4,10,31-14-4-10Zm118-52,4,10,31-13-4-10ZM170,47H137V57h34Zm-47,0H89V57h33ZM76,47H42V57H76Zm142,0H184V57h33Zm95,0H278V57h34Zm47,0H325V57h34Zm-95,0H231V57h33Zm142,0H372V57h33ZM53,351H42v34H53Zm70-216H89v11h33ZM53,146H76V135H42v34H53ZM222,374a91,91,0,1,0,0-183c-50,0-91,41-91,91A91,91,0,0,0,222,374ZM174,263c0-25,30-32,50-32s29,6,44,12l-9,17h-1c-6-10-25-13-36-13s-30,2-30,15,78-10,78,38c0,25-31,31-51,31s-32-3-47-12l9-18h1c6,12,24,15,36,15s33-1,33-14C251,275,174,308,174,263ZM53,178H42v34H53ZM395,385h11V351H395ZM53,308H42v34H53ZM0,4V410l222,99,226-99V4ZM419,391,222,477,29,391V121H419V391Zm0-299H29V33H419V92ZM53,222H42v34H53Zm0,43H42v34H53ZM170,135H137v11h34ZM395,298h11V265H395Zm0-43h11V222H395ZM217,135H184v11h33Zm178,77h11V179H395Zm0,130h11V308H395ZM264,135H231v11h33Zm47,0H278v11h34Zm84,34h11V135H373v11h23Zm-36-34H325v11h34Z" transform="translate(0 -4)" style="fill:#fff"/></svg>