<svg id="Layer_1" data-name="Layer 1" xmlns="http://www.w3.org/2000/svg" viewBox="0 0 437 496"><title>shopify</title><path d="M388,104a5,5,0,0,0-4-4H347L317,70V503l126-31ZM289,70a117,117,0,0,0-7-18c-10-20-26-31-44-31h-4l-2-2c-8-9-18-13-31-12-24,1-48,18-67,49s-24,49-27,70L59,142c-14,4-14,5-16,18L5,452l303,52V66h-4ZM233,88l-51,16c5-19,14-38,26-50s10-10,17-13C232,55,234,74,233,88ZM201,24a27,27,0,0,1,14,4c-6,3-13,8-19,14s-27,42-32,66l-42,13C131,83,164,25,201,24ZM154,245c2,26,69,31,73,92,3,48-25,80-66,82s-76-26-76-26l10-44s27,20,48,19,19-12,19-20c-2-34-57-32-61-87s27-93,94-98c26-2,39,5,39,5l-15,58s-17-8-38-6S154,240,154,245ZM249,83c0-12-2-29-7-44,18,4,27,24,31,36Z" transform="translate(-5 -8)" style="fill:#fff"/></svg>