<svg id="Layer_1" data-name="Layer 1" xmlns="http://www.w3.org/2000/svg" viewBox="0 0 640 375"><title>skyatlas</title><path d="M640,329c0,66-52,114-117,114-166,0-197-250-360-250-147,0-147,212,6,212,43,0,91-18,125-42,6-4,17-16,23-16a11,11,0,0,1,11,11c0,8-13,19-19,24-41,36-100,61-155,61C71,444,0,385,0,299S67,150,153,150c185,0,223,246,362,246,100,0,95-140,3-140-17,0-35,12-47,12s-16-7-16-16,5-24,5-36c0-67-51-115-117-115-53,0-80,37-89,37a11,11,0,0,1-11-11c0-6,4-10,8-14,25-29,65-44,103-44,79,0,139,58,139,138a158,158,0,0,1-1,21,143,143,0,0,1,36-5C589,222,640,267,640,329Z" transform="translate(0 -68)" style="fill:#fff"/></svg>