<svg id="Layer_1" data-name="Layer 1" xmlns="http://www.w3.org/2000/svg" viewBox="0 0 448 448"><title>skype</title><path d="M425,300a218,218,0,0,0,5-44A205,205,0,0,0,224,51a211,211,0,0,0-44,5A112,112,0,0,0,23,212a218,218,0,0,0-5,44A205,205,0,0,0,224,461a211,211,0,0,0,44-5,112,112,0,0,0,180-89,110,110,0,0,0-23-68ZM230,391c-66,0-120-29-120-65,0-16,9-31,30-31,31,0,34,45,88,45,26,0,42-11,42-26s-16-22-42-28c-62-15-118-22-118-87s59-81,109-81,111,22,111,55c0,17-11,32-30,32s-29-33-75-33c-26,0-42,7-42,23s21,22,69,33,91,27,91,78-57,87-112,87Z" transform="translate(0 -32)" style="fill:#fff"/></svg>