<svg id="Layer_1" data-name="Layer 1" xmlns="http://www.w3.org/2000/svg" viewBox="0 0 448 448"><title>slack-hash</title><path d="M446,270c-6-19-27-29-46-23l-45,15-30-90,45-15c19-6,29-27,23-46s-27-29-46-23l-45,15L286,57c-6-19-27-29-46-23s-29,27-23,46l16,47-93,31-16-47c-6-19-27-29-46-23s-29,27-23,46l16,47L25,196C6,202-4,223,2,242s19,24,34,25,12-2,58-17l30,90L78,355c-19,6-29,27-23,46s19,24,34,25,12-2,58-17l16,47c6,17,25,29,46,23s29-27,23-46l-16-47,94-31,16,47c6,17,25,29,46,23s29-27,23-46l-16-47,45-15c19-6,29-27,23-46ZM192,318l-30-90,94-31,30,90-93,31Z" transform="translate(0 -32)" style="fill:#fff"/></svg>