<svg id="Layer_1" data-name="Layer 1" xmlns="http://www.w3.org/2000/svg" viewBox="0 0 502 512"><title>slideshare</title><path d="M188,154c-34,0-62,26-62,58s28,58,62,58,62-26,62-58-28-58-62-58Zm143,0c-34,0-62,26-62,58s28,58,62,58,62-26,62-58-27-58-62-58Zm157,90-6,4V50c0-27-21-50-46-50H77C51,0,31,22,31,50V248l-6-4C9,233-1,248,8,261s53,50,106,72C58,525,252,556,249,458c0-1,0-57,0-97l14,3c0,40,0,93,0,94-3,98,191,68,134-124,53-22,88-49,106-72S503,233,488,244Zm-30,19c-69,37-128,31-161,30s-33,9-34,25l-20-17c-5-5-14-8-27-8-32,1-90,7-157-28V72c0-35,9-46,41-46H416c30,0,41,13,41,46V263Z" transform="translate(-5)" style="fill:#fff"/></svg>