<?xml version="1.0" encoding="UTF-8"?>
<!DOCTYPE svg PUBLIC "-//W3C//DTD SVG 1.1//EN" "http://www.w3.org/Graphics/SVG/1.1/DTD/svg11.dtd">
<!-- Creator: CorelDRAW 2017 -->
<svg xmlns="http://www.w3.org/2000/svg" xml:space="preserve" width="210mm" height="297mm" version="1.1" style="shape-rendering:geometricPrecision; text-rendering:geometricPrecision; image-rendering:optimizeQuality; fill-rule:evenodd; clip-rule:evenodd"
viewBox="0 0 21000 29700"
 xmlns:xlink="http://www.w3.org/1999/xlink">
 <defs>
  <style type="text/css">
   <![CDATA[
    .fil0 {fill:white}
   ]]>
  </style>
 </defs>
 <g id="Layer_x0020_1">
  <metadata id="CorelCorpID_0Corel-Layer"/>
  <path class="fil0" d="M10500 4350c-5800,0 -10500,4700 -10500,10500 0,5800 4700,10500 10500,10500 5800,0 10500,-4700 10500,-10500 0,-5800 -4700,-10500 -10500,-10500zm0 18968c-4670,0 -8468,-3798 -8468,-8468 0,-4670 3798,-8468 8468,-8468 4670,0 8468,3798 8468,8468 0,4670 -3798,8468 -8468,8468zm-3387 -9145c749,0 1355,-605 1355,-1355 0,-749 -605,-1355 -1355,-1355 -749,0 -1355,605 -1355,1355 0,749 605,1355 1355,1355zm6774 0c749,0 1355,-605 1355,-1355 0,-749 -605,-1355 -1355,-1355 -749,0 -1355,605 -1355,1355 0,749 605,1355 1355,1355zm169 3074c-881,1058 -2180,1668 -3556,1668 -1376,0 -2676,-605 -3556,-1668 -360,-432 -1003,-487 -1431,-131 -432,360 -487,999 -131,1431 1270,1524 3137,2396 5119,2396 1981,0 3849,-872 5119,-2396 360,-432 301,-1071 -131,-1431 -428,-356 -1071,-301 -1431,131z"/>
 </g>
</svg>
