<svg id="Layer_1" data-name="Layer 1" xmlns="http://www.w3.org/2000/svg" viewBox="0 0 496 496"><title>snapchat</title><path d="M248,8C111,8,0,119,0,256S111,504,248,504,496,393,496,256,385,8,248,8ZM418,347c-3,8-18,14-45,18-1,2-2,10-4,16s-4,6-8,6h0c-6,0-13-3-26-3s-24,4-37,14-28,19-49,18-39-11-48-18-20-14-37-14-20,3-26,3-7-3-8-6-3-14-4-16c-14-2-45-7-46-21a7,7,0,0,1,6-7c46-8,67-55,68-57h0c3-5,3-9,2-12s-18-11-24-13-18-13-17-18,14-14,22-10,11,4,16,4h7c-1-24-5-58,4-77,22-50,70-54,84-54h7c35,0,68,18,84,54,9,19,5,53,4,77h6q6,0,15-4c4-2,10-2,14,0s10,7,10,12-6,12-17,17l-5,2c-6,2-16,5-19,12s-1,8,2,13h0c1,2,22,50,68,57,4,1,7,6,5,11Z" transform="translate(0 -8)" style="fill:#fff"/></svg>