<svg id="Layer_1" data-name="Layer 1" xmlns="http://www.w3.org/2000/svg" viewBox="0 0 512 481"><title>snapchat-ghost</title><path d="M511,393c-5,12-27,21-67,27-2,3-4,15-7,24s-6,9-12,9h0c-9,0-19-4-39-4s-36,6-56,21-43,29-74,27-58-17-73-27-30-21-56-21-31,5-39,5-11-5-12-9-4-21-7-24c-21-3-67-11-68-32a11,11,0,0,1,9-11c70-11,101-83,102-86h0c4-8,5-14,2-19s-27-16-36-20c-24-9-27-20-26-28s22-21,33-15,17,6,24,6a20,20,0,0,0,10-2c-2-36-7-87,6-116,34-76,105-82,126-82h10c52,0,102,27,127,82,13,29,8,80,6,116l9,2c6,0,14-2,22-6s14-2,20,0h0c9,3,15,10,16,18s-9,18-26,25l-7,3c-10,3-25,8-29,17s-1,11,2,19h0c1,3,33,74,102,86,6,1,11,8,8,16Z" transform="translate(0 -15)" style="fill:#fff"/></svg>