<svg id="Layer_1" data-name="Layer 1" xmlns="http://www.w3.org/2000/svg" viewBox="0 0 640 278"><title>soundcloud</title><path d="M111,256l6,65-6,68a5,5,0,0,1-4,4,4,4,0,0,1-4-4l-6-68,6-65a4,4,0,0,1,4-4A5,5,0,0,1,111,256Zm21-46c-3,0-5,2-5,5l-5,106,5,68c0,3,2,5,5,5a5,5,0,0,0,5-5l6-68-6-106A5,5,0,0,0,133,211Zm26-24a6,6,0,0,0-6,5l-4,130,4,68a6,6,0,0,0,6,5,5,5,0,0,0,5-5l5-68-5-130a5,5,0,0,0-5-5ZM7,283c-1,0-2,1-2,3L0,321l5,35c0,1,1,3,3,3s2-1,2-2l6-35-6-36c0-1-1-2-3-2Zm24-22a2,2,0,0,0-2,3l-6,58,6,56a3,3,0,0,0,3,3,3,3,0,0,0,3-2l7-56-7-57A3,3,0,0,0,31,261Zm25-11a3,3,0,0,0-3,3l-6,68,6,66a4,4,0,0,0,3,3,3,3,0,0,0,3-3l7-66-7-68a3,3,0,0,0-3-3Zm25-2a4,4,0,0,0-4,4l-6,70,6,68a4,4,0,0,0,4,4,4,4,0,0,0,4-4l6-68-6-70a4,4,0,0,0-4-4ZM323,137h-4l-6,2a10,10,0,0,0-3,7h0l-3,177,2,33,2,32a9,9,0,0,0,9,9,9,9,0,0,0,9-9l4-64-4-177a10,10,0,0,0-4-7Zm-27,15h-9a8,8,0,0,0-4,7v2l-3,161,3,66h0a8,8,0,0,0,2,5,9,9,0,0,0,6,3l6-2a7,7,0,0,0,3-6v-7l3-59-3-163a9,9,0,0,0-4-7ZM185,175a6,6,0,0,0-6,6l-4,141,4,67a6,6,0,0,0,12,0l5-67-5-141a6,6,0,0,0-6-6Zm377,63a80,80,0,0,0-31,6c-6-71-66-126-138-126a136,136,0,0,0-50,9c-6,2-8,4-8,9V385c0,5,4,9,9,9H561c43,0,79-35,79-78a79,79,0,0,0-78-79ZM265,177c-4,0-7,3-8,8l-3,137,3,66a8,8,0,0,0,8,8,7,7,0,0,0,8-7l4-66-4-137c0-4-3-8-7-8Zm-54-8a7,7,0,0,0-6,7l-4,145,4,67a7,7,0,0,0,13,0l4-67-4-145C218,172,215,169,211,169Zm27,3a7,7,0,0,0-7,7l-4,142,4,66c0,4,3,7,7,7a7,7,0,0,0,7-7l4-66-4-142a7,7,0,0,0-7-7Z" transform="translate(0 -117)" style="fill:#fff"/></svg>