<svg id="Layer_1" data-name="Layer 1" xmlns="http://www.w3.org/2000/svg" viewBox="0 0 496 496"><title>spotify</title><path d="M248,8C111,8,0,119,0,256S111,504,248,504,496,393,496,256,385,8,248,8ZM349,373c-4,0-7-1-11-4-62-38-135-39-207-24l-12,3a16,16,0,0,1-16-16c0-10,6-15,14-17,82-18,166-16,237,26,6,4,10,7,10,17a15,15,0,0,1-15,15Zm27-66c-5,0-9-2-12-4-62-37-156-52-239-29l-12,3a19,19,0,0,1-19-19c0-11,5-18,16-21,28-8,56-14,98-14,65,0,128,16,177,45,8,5,11,11,11,20A19,19,0,0,1,376,307Zm31-76c-5,0-8-1-13-4-71-42-198-53-281-30l-13,3c-13,0-23-10-23-24s8-21,17-24c35-10,75-15,118-15,73,0,149,15,205,48,8,5,13,11,13,23a23,23,0,0,1-23,23Z" transform="translate(0 -8)" style="fill:#fff"/></svg>