<svg id="Layer_1" data-name="Layer 1" xmlns="http://www.w3.org/2000/svg" viewBox="0 0 512 407"><title>squarespace</title><path d="M186,343a25,25,0,0,0,35,35L378,221a49,49,0,1,1,70,70L294,445a49,49,0,0,0,70,0h0L483,326A99,99,0,1,0,343,186L186,343ZM431,239a25,25,0,0,0-35,0L239,396a49,49,0,0,1-70,0h0a25,25,0,0,0-35,0h0a25,25,0,0,0,0,35h0a99,99,0,0,0,140,0L431,273a25,25,0,0,0,0-35ZM169,326,326,169a25,25,0,0,0-35-35L134,291a49,49,0,0,1-70,0h0a49,49,0,0,1,0-70h0L218,67a49,49,0,0,0-70,0h0L29,186A99,99,0,0,0,169,326ZM81,273a25,25,0,0,0,35,0L273,116a49,49,0,0,1,70,0h0a25,25,0,1,0,35-35,99,99,0,0,0-140,0L81,239a25,25,0,0,0,0,35Z" transform="translate(0 -52)" style="fill:#fff"/></svg>