<svg id="Layer_1" data-name="Layer 1" xmlns="http://www.w3.org/2000/svg" viewBox="0 0 448 448"><title>stackpath</title><path d="M245,232c0,9-4,20-21,20H204V211h20C240,211,245,224,245,232ZM448,32V480H0V32ZM151,288c0-21-12-35-47-45-21-7-26-11-26-19s7-15,20-15,21,8,21,18h31c1-20-15-42-51-42-23,0-53,11-53,38s9,31,51,44c17,6,22,10,22,19s-19,14-19,14c-20,0-26-9-26-22H44c-1,31,28,45,57,45s51-14,51-38Zm125-56c0-25-18-45-53-45H171V325h32V278h20c30,0,53-16,53-45Zm21,93,49-138H316L268,325ZM404,187H373L325,325h30Z" transform="translate(0 -32)" style="fill:#fff"/></svg>