<svg id="Layer_1" data-name="Layer 1" xmlns="http://www.w3.org/2000/svg" viewBox="0 0 440 513"><title>staylinked</title><path d="M383,293l3,3L215,128c-3-3-10-4-14,0l-57,44c-4,3-5,9-1,12l68,64c4,4,10,4,14,1h0c4-3,10-3,14,1l84,81c4,4,3,9-1,12l-93,74a11,11,0,0,1-14,0L63,268c-3-3-10-4-14,0L4,302c-4,3-5,9-1,12L211,511s7,7,17-1L426,346c4-3,4-9,1-12Zm55-83L227,3c-1-1-8-5-16,1L4,166c-4,3-5,9-1,12l42,42L216,385c4,4,10,4,14,0l50-39h0l8-6c4-3,5-9,1-12l-57-54c-4-3-10-4-14,0h0c-4,3-10,3-14,0l-95-92c-4-3-3-9,1-12l92-71a11,11,0,0,1,14,1L377,257a11,11,0,0,0,14,1l46-36a8,8,0,0,0,1-12Z" transform="translate(0 0)" style="fill:#fff"/></svg>