<svg id="Layer_1" data-name="Layer 1" xmlns="http://www.w3.org/2000/svg" viewBox="0 0 448 384"><title>steam-symbol</title><path d="M396,178a61,61,0,1,1-61-61A61,61,0,0,1,396,178Zm53,0A114,114,0,0,1,334,292L225,371a85,85,0,0,1-84,77c-40,0-75-29-83-67L0,358V251l97,39c15-9,32-13,52-11l71-102c1-62,52-113,114-113A114,114,0,0,1,448,178ZM203,363a62,62,0,0,0-62-62l-13,2,26,11a50,50,0,1,1-37,92L85,392a62,62,0,0,0,118-29ZM411,178a76,76,0,1,0-76,76A76,76,0,0,0,411,178Z" transform="translate(0 -64)" style="fill:#fff"/></svg>