<svg id="Layer_1" data-name="Layer 1" xmlns="http://www.w3.org/2000/svg" viewBox="0 0 448 448"><title>steam-square</title><path d="M185,357a36,36,0,0,0-20-47l-29-12a49,49,0,1,1-2,91,49,49,0,0,1-25-24l29,12a36,36,0,0,0,48-19ZM400,32H48A48,48,0,0,0,0,80V241l117,48a65,65,0,0,1,41-11l55-80h0a88,88,0,0,1,175,0c0,49-41,89-90,88l-79,56A66,66,0,0,1,89,356L0,319V432a48,48,0,0,0,48,48H400a48,48,0,0,0,48-48V80A48,48,0,0,0,400,32ZM300,255a58,58,0,1,1,58-58A58,58,0,0,1,300,255Zm0-15a44,44,0,1,0-44-44A44,44,0,0,0,300,240Z" transform="translate(0 -32)" style="fill:#fff"/></svg>