<svg id="Layer_1" data-name="Layer 1" xmlns="http://www.w3.org/2000/svg" viewBox="0 0 496 496"><title>steam</title><path d="M496,256c0,137-111,248-248,248A248,248,0,0,1,9,324l95,39a70,70,0,0,0,139-17l85-60c52,1,96-41,96-93a94,94,0,0,0-94-94c-52,0-94,42-94,94h0l-59,86a70,70,0,0,0-43,12L0,236C10,108,117,8,248,8S496,119,496,256ZM156,384l-30-13a53,53,0,0,0,96-3,53,53,0,0,0-67-69l32,13a39,39,0,0,1-30,72ZM330,254a62,62,0,1,1,62-62A62,62,0,0,1,330,254Zm0-16a47,47,0,1,0-47-47A47,47,0,0,0,330,239Z" transform="translate(0 -8)" style="fill:#fff"/></svg>