<svg id="Layer_1" data-name="Layer 1" xmlns="http://www.w3.org/2000/svg" viewBox="0 0 576 512"><title>sticker-mule</title><path d="M562,200Zm-6-77c-8-22-5-7-13-37-2-6-4-14-6-20s-5-7-5-9,31-45,19-47-12,12-21,17-8,5-10,5-6-3-6-5,2-26-4-26-12,25-17,26-28-11-75,18c-25,13-87,65-87,65s-20,5-35,16c-44,30-110,9-111,9C74,107,56,119,25,146S2,182,1,185c-4,20,5,48,7,64s-3,18,8,98c1,1,4,0,5,2s-4,12-4,13-2,11,0,16,8,37,8,47c0,42,0,44,3,49s13,9,17,12,0,9,1,13,4,4,6,5,27,0,30-2,1-4,3-5,11,0,14-2,4-6,1-10-7-13-10-16l-7-4c-6-5-10-19-10-19-5-19-10-46-4-67s40-88,40-88,17-11,27-7,19,22,65,31,97-2,112-2c3,2-2,13,0,39s0,14-4,30,3,23-1,47c-1,10-10,33-8,43l2,4c1,5,2,9,5,10s12-3,10,12c-1,3-3,12,2,15s31,3,37,1,2-4,6-7,11,0,11-6-9-20-9-20-9-4-11-8-2-53,1-59,6-22,9-32c11-42,10-51,17-68,1-2,6-23,10-30s22-32,34-47,34-47,52-70c6-7,8-14,18-8s22,7,32,17,10,18,12,23,8,11,15,10l13-2c3,0,6-5,7-8s7-9,7-16,0-3-21-53Z" transform="translate(0 0)" style="fill:#fff"/></svg>