<svg id="Layer_1" data-name="Layer 1" xmlns="http://www.w3.org/2000/svg" viewBox="0 0 640 264"><title>stripe</title><path d="M165,145l-43,9V296c0,26,20,43,46,43,15,0,25-3,31-6V300c-6,2-34,11-34-16V221h34V183H165Zm89,52-3-13H213V336h44V233c11-14,28-11,34-9V183c-6-2-27-6-37,13Zm92-72-45,10v36l45-9ZM45,228c0-7,6-10,15-10s31,4,44,11V188a119,119,0,0,0-44-8c-36,0-60,19-60,50,0,49,67,41,67,62,0,8-7,11-17,11s-34-6-49-14v40a123,123,0,0,0,49,10c37,0,62-16,62-48,0-53-68-43-68-63Zm595,33c0-45-22-81-64-81s-68,36-68,81,30,78,74,78c21,0,37-5,49-11V295c-12,6-26,10-44,10s-32-6-34-27h87c0-2,1-12,1-16Zm-88-17c0-20,12-28,23-28s23,8,23,28ZM439,180c-17,0-29,8-35,14l-2-11H363V388l44-9V328c6,5,16,11,31,11,32,0,61-23,61-80s-29-80-60-80ZM429,303c-10,0-17-4-21-8V228c5-5,11-9,21-9s27,18,27,41-11,42-27,42ZM302,336h45V183H302Z" transform="translate(0 -124)" style="fill:#fff"/></svg>