<svg id="Layer_1" data-name="Layer 1" xmlns="http://www.w3.org/2000/svg" viewBox="0 0 496 496"><title>stumbleupon-circle</title><path d="M256,8C119,8,8,119,8,256S119,504,256,504,504,393,504,256,393,8,256,8Zm0,178a18,18,0,0,0-18,18V310c0,41-34,74-75,74a75,75,0,0,1-75-75V263h57v46a18,18,0,0,0,36,0V200c0-40,34-72,75-72s75,32,75,73v24l-34,10-23-11V203a18,18,0,0,0-18-18ZM424,309a75,75,0,0,1-75,75c-41,0-75-33-75-74V263l23,11,34-10v47a18,18,0,0,0,36,0V263h57v46Z" transform="translate(-8 -8)" style="fill:#fff"/></svg>