<?xml version="1.0" encoding="UTF-8"?>
<!DOCTYPE svg PUBLIC "-//W3C//DTD SVG 1.1//EN" "http://www.w3.org/Graphics/SVG/1.1/DTD/svg11.dtd">
<!-- Creator: CorelDRAW 2017 -->
<svg xmlns="http://www.w3.org/2000/svg" xml:space="preserve" width="210mm" height="297mm" version="1.1" style="shape-rendering:geometricPrecision; text-rendering:geometricPrecision; image-rendering:optimizeQuality; fill-rule:evenodd; clip-rule:evenodd"
viewBox="0 0 21000 29700"
 xmlns:xlink="http://www.w3.org/1999/xlink">
 <defs>
  <style type="text/css">
   <![CDATA[
    .fil0 {fill:white}
   ]]>
  </style>
 </defs>
 <g id="Layer_x0020_1">
  <metadata id="CorelCorpID_0Corel-Layer"/>
  <path class="fil0" d="M20270 13451l-2453 -1661 562 -2912c107,-541 -66,-1099 -455,-1493 -394,-390 -952,-562 -1485,-455l-2908 562 -1657 -2457c-619,-915 -2129,-915 -2748,0l-1657 2457 -2904 -562c-546,-103 -1099,66 -1489,459 -390,394 -562,947 -455,1489l562 2912 -2453 1661c-459,312 -730,824 -730,1378 0,554 275,1066 730,1374l2453 1661 -562 2912c-107,541 66,1099 455,1489 390,390 939,562 1489,455l2904 -562 1657 2457c308,459 824,734 1374,734 550,0 1066,-275 1374,-730l1657 -2457 2908 562c550,111 1099,-66 1489,-455 390,-390 558,-947 455,-1489l-562 -2912 2453 -1661c455,-308 730,-824 730,-1374 -4,-558 -275,-1071 -734,-1382l0 0zm-4631 3511l722 3741 -3732 -722 -2129 3154 -2129 -3158 -3728 722 722 -3741 -3150 -2133 3150 -2133 -722 -3741 3732 722 2125 -3150 2129 3154 3732 -722 -722 3737 3150 2133 -3150 2137 0 0zm-5139 -6378c-2350,0 -4266,1915 -4266,4266 0,2350 1915,4266 4266,4266 2350,0 4266,-1915 4266,-4266 0,-2350 -1915,-4266 -4266,-4266zm0 6563c-1267,0 -2297,-1029 -2297,-2297 0,-1267 1029,-2297 2297,-2297 1267,0 2297,1029 2297,2297 0,1267 -1029,2297 -2297,2297z"/>
 </g>
</svg>
