<svg id="Layer_1" data-name="Layer 1" xmlns="http://www.w3.org/2000/svg" viewBox="0 0 640 283"><title>supple</title><path d="M640,263c0,64-109,116-243,116a505,505,0,0,1-71-5h23c135,0,244-57,244-127,0-29-19-56-51-78C601,190,640,224,640,263ZM48,228c0-70,109-127,243-128h23a505,505,0,0,0-71-5C109,96,0,149,0,213c0,38,39,72,99,93-32-21-51-49-52-78Zm60,40a39,39,0,0,0,29,13c18,0,28-11,28-25,0-28-40-25-40-40s5-9,13-9,11,3,11,7v4h14v-8c0-12-15-17-25-17s-28,10-28,24c0,27,40,25,40,40s-6,10-12,10-21-10-21-10Zm121-74v54c0,11-7,18-18,18s-18-6-18-18V194H177v55c0,19,13,32,34,32s33-13,33-32V194H229Zm34,85h16V250h16c16,0,27-11,27-28s-11-28-27-28H255v13h8v72Zm16-43V207h13c9,0,14,6,14,14s-5,15-14,15H279Zm57,43h16V250h16c16,0,27-11,27-28s-11-28-27-28H328v13h8v72Zm16-43V207h13c9,0,14,6,14,14s-5,15-14,15H352Zm57,35c0,6,2,8,8,8h38c6,0,8-2,8-8V258H448v5a2,2,0,0,1-3,3H427a2,2,0,0,1-3-3V202c0-6-2-8-8-8H401v13h5a2,2,0,0,1,3,3v61Zm63,0c0,6,2,8,8,8h39c6,0,8-2,8-8V258H513v5a2,2,0,0,1-3,3H491a2,2,0,0,1-3-3V243h28V230H488V207h19a2,2,0,0,1,3,3v5h14V202c0-6-2-8-8-8H464v13h8v64Zm59-76v6h2v-6h-2Zm6-1v7h2v-6l2,6h1l2-6v6h2v-7h-2l-2,5-2-5Z" transform="translate(0 -96)" style="fill:#fff"/></svg>