<svg id="Layer_1" data-name="Layer 1" xmlns="http://www.w3.org/2000/svg" viewBox="0 0 632 320"><title>suse</title><path d="M471,103s0,18,0,20S396,99,335,97s-123-4-223,57C93,166,38,200,12,264c-5,13-13,43-5,71a111,111,0,0,0,17,36c17,25,47,42,78,44,44,4,78-16,90-53,8-26,0-64-31-83s-53-12-69-2-22,24-22,39c0,28,24,43,42,43l16-3c6-2,13-6,13-15s-12-15-17-14-4,2-12,2-12-3-12-14h0c0-12,13-18,26-17,32,3,48,41,29,66S77,388,54,344s13-111,87-98c33,6,84,36,102,104h46c-6-18-9-68,43-68s64,40,80,68h49c-13-18-22-39-19-56,6-34,40-18,82-17,67,0,102-27,103-28s7-16,7-18-3-2-3-2-30,15-51,16-76-25-82-28l-11-25c88,58,118,41,145,22,1-1,4-3,4-6-14-48-22-63-34-70-37-22-125-35-129-35h-1Zm60,73a38,38,0,0,1,39-36h0c33,1,49,42,24,65s-64,5-63-29Zm39-25a26,26,0,1,0,25,27,26,26,0,0,0-25-27Zm4,29c-15,0-15-16,0-16s15,16,0,16Z" transform="translate(-4 -96)" style="fill:#fff"/></svg>