<svg id="Layer_1" data-name="Layer 1" xmlns="http://www.w3.org/2000/svg" viewBox="0 0 448 448"><title>swift</title><path d="M448,156c0-5,0-9,0-14a196,196,0,0,0-3-29,100,100,0,0,0-9-28,94,94,0,0,0-41-41,99,99,0,0,0-28-9l-29-3H103L81,35,60,41l-7,3A95,95,0,0,0,35,56l-5,5A94,94,0,0,0,12,85a99,99,0,0,0-9,28,196,196,0,0,0-3,29c0,5,0,9,0,14V356c0,5,0,9,0,14a196,196,0,0,0,3,29,99,99,0,0,0,9,28,94,94,0,0,0,41,41,99,99,0,0,0,28,9l29,3H337l29-3a100,100,0,0,0,28-9,94,94,0,0,0,41-41,99,99,0,0,0,9-28,195,195,0,0,0,3-29c0-4,0-9,0-14V172Q448,164,448,156ZM378,397c-20-39-57-29-76-19l-5,3h0c-39,21-93,23-146,0A235,235,0,0,1,45,290a231,231,0,0,0,39,23c56,26,113,24,153,0C180,270,133,212,96,166a197,197,0,0,1-19-26c44,40,113,90,137,104-53-55-99-124-97-122,83,83,159,131,159,131l7,4,4-12c13-48-2-104-35-149,77,46,122,134,104,208v5c39,47,28,98,23,89Z" transform="translate(0 -32)" style="fill:#fff"/></svg>