<svg id="Layer_1" data-name="Layer 1" xmlns="http://www.w3.org/2000/svg" viewBox="0 0 496 496"><title>symfony</title><path d="M256,8C119,8,8,119,8,256S119,504,256,504,504,393,504,256,393,8,256,8ZM390,152c-11,0-19-6-20-17s7-13,7-19-10-7-13-7c-40,1-49,57-59,114,21,3,37-1,45-6s-3-16-1-25,33-19,32,5-26,42-78,36c-11,60-18,115-58,162-29,34-58,40-72,40-25,1-41-12-42-30s14-26,24-27c22-1,30,26,15,34s0,13,2,13,17-6,22-9c24-20,33-55,45-118,8-50,17-78,18-82-17-13-27-29-50-35s-25-1-32,8-5,23,2,31l13,14c16,18,24,32,21,51-5,30-41,53-83,40s-43-37-38-51,42-12,35,14c-3,9-5,9-6,13s42,28,51-1c4-15-5-22-22-40-28-32-16-65,3-80,53-39,101,18,111,26C299,96,363,100,364,100c25-1,44,11,45,29s-4,23-20,23Z" transform="translate(-8 -8)" style="fill:#fff"/></svg>