<svg id="Layer_1" data-name="Layer 1" xmlns="http://www.w3.org/2000/svg" viewBox="0 0 512 512"><title>teamspeak</title><path d="M244,347c2-12-12-30-32-49s-48-39-63-47-42-2-46,23,0,51,15,74,25,23,43,24,53,2,62-1S242,359,244,347Zm205,21a5,5,0,0,0-7,1v2c-8,25-45,113-172,122-150,11,80,44,145-6,23-17,48-35,47-85C460,390,456,373,449,368Zm62-122c0-19-9-33-26-42-3-1-5-3-6-6a223,223,0,0,0-40-94c-1-1-3-3-2-5s0-18-7-24Q321-31,177,13C137,25,103,49,75,80c-4,4-7,9-3,15s1,6-1,9c-20,28-33,58-39,92-1,4-3,6-6,8-14,7-23,19-25,34v47c0,31,21,50,52,49,8,0,12-4,12-11,2-78-2-95,4-126C92,72,234,5,345,65c66,37,100,94,102,169,1,28,0,56,0,85,0,7,2,13,9,14,24,5,49-12,53-37s1-34,1-52ZM352,377c37,3,59-28,58-60-2-45-66-16-88-8-73,28-45,55-22,61Z" transform="translate(0 0)" style="fill:#fff"/></svg>