<svg id="Layer_1" data-name="Layer 1" xmlns="http://www.w3.org/2000/svg" viewBox="0 0 505 512"><title>the-red-yeti</title><path d="M488,242l21,7c-10-24-24-37-32-45l7-18s12-28-2-31c-1-11-7-27-18-27-8-11-18-12-31-6a122,122,0,0,0-25,17c-5-6-3,0-3-30-37-24-45-12-75,3h1a239,239,0,0,0-68-13c-5-9-19-19-25-25l25,7c-5-5-27-13-34-15,18-4,30-21,42-33-35-10-68-6-98,12L184,1h-2c-32,24-33,42-34,46s-6-20-15-27a35,35,0,0,0,0,25c3,8,6,15,8,19-16-3-28-5-49,0H88l33,14a194,194,0,0,0-47,67l-2,8,2,2,8-5c-3,12-5,19-7,26a200,200,0,0,0-28,40c-15,1-32,11-40,14l3,3H39v3c-7,6-40,38-33,81l20-22v5c0,26,0,90,65,151,44,40,96,60,157,60,122,0,223-87,223-211,7-10-1,3,17-25l13,14h3a182,182,0,0,0-9-34,45,45,0,0,0-7-13ZM398,111v22c6,18,17,17,22,17l-3-5,22-5H412c13-2,33-29,43-11s6,17,9,28l2-6a56,56,0,0,1-2-15c5,1,9,3,9,10s2,15,3,25l5-11c5,0,5-4-2,21-21-9-35-8-46-8l18-16c-25,8-33,11-55,21-1-5-5-13-16-20s-3,1-1,15h-2a62,62,0,0,0-8-23l4-3c8-7,12-14,11-22s-5-13-13-21c6-3,15,0,28,9Zm-40-10c3,2,11,5,19,17s4,10,3,11,0,4-3,7-5,5-12,8c-8-13-16-24-28-31ZM91,143v-2l9-15,3-3L91,135l5-5-10,9H82c12-24,23-41,33-50l20-19h-6l-25-8h24l16,3V66l-8-36,14,29a43,43,0,0,0,6-14c2-6,5-13,10-19s8-11,9-11a235,235,0,0,0-6,25l-2,7v5l3,3c22-14,45-19,71-19h21c-12,14-28,22-49,25l-23,3h-3a21,21,0,0,0-14,2h-7l-2,2h7l-2,3h3L160,80c-4,3-5,6-4,9l5-3h1a39,39,0,0,1,25-15V68h19c6,0,8,1,5,1l21,14c14,10,24,22,30,35s14,37,14,57a141,141,0,0,1-3,28,210,210,0,0,1-16,46h3c18-20,42-16,49-16l-6,6,22,18-2,31c-5-12-16-21-33-28l22,20c-5-3-3-2-11-4,4,4,18,19,18,21h0c0,2,2-1-14,23-75-15-106-43-141-63h12c-12-19-16-18-38-26l11-8c-9-3-18-3-28,1l8-11v-2c-15,4-20,9-23,11s-3-12-12-29v27l-13-5C79,193,83,167,91,143ZM368,473c-50,25-56,22-59,24-30-12-51-32-63-59l30,17c-10-9-18-16-38-44l12,23-18-8c14,21,24,52,67,74C177,524,98,427,96,425a263,263,0,0,0,35,25c3,2,7,3,10,1l-16-21,69,29c-42-21-74-41-93-60,0,6-1,10-1,10a80,80,0,0,1,21,27c-39-19-58-48-71-83,50,55,119,38,120,37,35,16,70,24,114,11,3,0,20,17,25,39l4-3-2-24c9,9,25,23,34,13-16-5-23-9-29-32,5,4,8,9,28,15h1l-10-14,32-11c4,34,9,49,1,90ZM483,259h-2l3,9c-3,6-24,44-72,80s-77,39-81,40l-8-7v3l14,16-7-5,3,4h-1l-22-13,9,27-19-28v3l8,29c-6-8-21-33-57-40l32,21a215,215,0,0,1-93-6l-13-4v-3l-45-22,26,22c-58,9-113-25-126-83l-2-16L7,307c19-57,26-58,51-70-9-5-2-3-38-9,16-6,33-15,73,5l4-2c1-3,0-1,1-12,4,10,4,9,3,9h2l17-9-5,14,22-6-8,8,3,3c5-2,30,3,41,16l-24-2c39,23,52,54,56,70h2c-3-22-12-34-16-40,4,5,39,35,110,46-11,0-23,5-35,19l47-20-9,22c8-10,15-24,21-40h0v13l35-110,14-28v-2l-5-4h10l6,4h3l-3-16,12,19,42-20-15,13v3h18a184,184,0,0,1,33,4l-24,3v3l27,23a254,254,0,0,1,27,32c-11-3-10-3-21-3l12,32Zm-6-71-4,13-14-12Zm-255,7c2,11,5,18,9,22-9,7-27,14-46,16h1a50,50,0,0,0,25-2l-7,13c4-2,10-7,18-15s13-5,20-16c-13-6-16-14-18-19Zm4-102c-6-3-11,3-12,19s3,29,12,40,18,11,26,3,3-24-11-48a40,40,0,0,0-14-14Zm-5,46c5,2,11,2,12-11v-5h-1c-4-3-2-4-2-6h1c-1-1-5-8-12,5,0-13,1-22,3-25s5-1,11,4,11,16,15,33c7,28-20,26-27,5Zm-45-5c2,0,9-1,9-15h0c-5-1-2-5-1-6s-3-4-5-5-12,13-8,21a8,8,0,0,0,5,4Zm40-50h-2v3a49,49,0,0,1,26,6c-2-5-10-14-28-14v3Zm-72,49c22,17,17,21,47,24l-3-5a43,43,0,0,0,15-28c2-16-1-30-9-41l13-8V72a14,14,0,0,0-13,2c-13,7-28,21-29,22s-3,6-5,14a100,100,0,0,0-3,24c-5-8-10-6-20-6l7,8c-16,0-23,15-24,16s5-8,30-12l-5-7Zm19-19c1-8,3-13,6-17s11-10,16-12,7,1,10,9a72,72,0,0,1,3,25c0,9-3,17-8,23l-6,8H172l-7-3-5-6c1-10,1-19,3-26Zm42,56-36,14c-21,5-19-24-19-25h6v-2c-20-3-31,4-32,5s3,3,6,9c4-6,9-10,15-11a83,83,0,0,0,2,34c0,1,3,17,28,24,11,3,27,1,49-5h-9c-4-15-6-25-6-29,11-9,22-11,31-8h3l-12-8h-7c-6,1-12,4-19,8Z" transform="translate(-4)" style="fill:#fff"/></svg>