<svg id="Layer_1" data-name="Layer 1" xmlns="http://www.w3.org/2000/svg" viewBox="0 0 512 512"><title>themeisle</title><path d="M208,88c0-10,6-22,18-22s18,12,18,22-7,22-18,22S208,99,208,88ZM512,248c0,36-11,102-36,130s-87,61-121,71h-1v33c0,16-13,31-29,31a29,29,0,0,1-25-14c-5,9-15,14-25,14s-19-6-25-14a29,29,0,0,1-25,14c-10,0-19-6-25-14a29,29,0,0,1-25,14c-19,0-29-16-29-33-16,12-36,19-57,19a93,93,0,0,1-60-23,100,100,0,0,0,30-6A96,96,0,0,1,8,434a92,92,0,0,0,67-11c-22-22-57-59-69-87-6-13-7-31-7-46,0-50,20-160,86-160,11,0,19,5,23,15l12-15c2-3,6-5,7-8s12-21,22-34c32-41,82-69,135-69h18A57,57,0,0,1,345,0c15,0,30,6,40,16a5,5,0,0,1,1,3c0,4-10,13-13,16s16,7,16,12-3,5-5,7c31,28,49,67,56,108,4-5,10-9,17-9s21,7,29,14c21,19,26,53,26,80ZM188,89c0,18,13,37,32,37s32-19,32-37-13-37-32-37S188,71,188,89Zm50,105c0-20,4-39,9-58-52,80-14,185,69,185,21,0,43-8,60-20,2-7,4-15,4-23s-6-21-21-21l-13,2c-63,13-107,4-107-64ZM197,449c0-11-9-21-20-21s-20,10-20,21v33c0,11,9,21,20,21s20-10,20-21V449Zm49,0c0-11-9-21-20-21s-20,10-20,21v33c0,11,9,21,20,21s20-10,20-21V449Zm50,0c0-11-9-21-20-21s-20,10-20,21v33c0,11,9,21,20,21s20-10,20-21V449Zm50,0c0-11-9-21-20-21s-20,10-20,21v33c0,11,9,21,20,21s20-10,20-21V449Zm77-163c-31,59-90,103-159,103-97,0-161-85-161-177a208,208,0,0,1,6-50c-20,34-30,73-30,111,0,60,25,122,71,161,5-10,15-16,26-16a29,29,0,0,1,25,14c5-9,15-14,25-14a29,29,0,0,1,25,14c5-9,15-14,25-14s19,6,25,14a28,28,0,0,1,50,2c43-36,69-92,71-148Zm11-100c0-54-35-106-93-106-30,0-59,15-79,37-20,66-27,137,41,137,29,0,97-29,84,37,29-26,46-66,46-105Z" style="fill:#fff"/></svg>