<svg id="Layer_1" data-name="Layer 1" xmlns="http://www.w3.org/2000/svg" viewBox="0 0 448 504"><title>themeco</title><path d="M203,8c10-6,26-6,36,0L430,116c10,6,18,19,18,31V364c0,11-8,25-18,31L239,504c-10,6-26,6-36,0L18,395C8,389,0,375,0,364V147c0-11,8-25,18-31ZM125,208H78V310H97V280h29C175,280,175,208,125,208ZM266,309l-31-35c37-8,35-65-11-66H176V310h19V276h18l30,34h23Zm-42-82c23,0,23,32,0,32H195V226Zm-96-2c21,0,21,39,0,39H96V225Zm193-18c-68,0-71,106,0,106s69-106,0-106Zm0,17c44,0,45,71,0,71S277,224,321,224Z" transform="translate(0 -4)" style="fill:#fff"/></svg>