<svg id="Layer_1" data-name="Layer 1" xmlns="http://www.w3.org/2000/svg" viewBox="0 0 496 496"><title>trade-federation</title><path d="M248,9C111,9,0,120,0,257S111,505,248,505,496,394,496,257,385,9,248,9Zm0,483C118,492,13,386,13,257S118,22,248,22,483,127,483,257,378,492,248,492ZM403,163V116H209v82H54l37,46H209V441h49V245h83V198H257V163H403Zm-73,45v24H247V429H220V232H96L76,208H220V128H392v24H247v56ZM168,139l-12-21,2,24-23,5,23,5-2,24,12-20,22,10-16-18,16-18Zm-30-20,9-11-13,6-8-12,2,14-14,4,14,3v15l7-12,14,5ZM304,265l-13,6-7-12v14l-14,3,14,3v14l7-12,13,6-9-11Zm107-77-21,9-12-20,2,23-22,5,22,5-2,23,12-20,21,9-15-17ZM248,30C123,30,21,132,21,257S123,484,248,484,475,382,475,257,373,30,248,30Zm95,166v51H259V443H207V246H90L50,196H207V114H405v51H259v31ZM248,43a213,213,0,0,1,154,65H203v82H45C73,105,153,43,248,43Zm0,427C130,470,34,375,34,257a212,212,0,0,1,9-61l44,56H202V449h65V253h83V190H267V171H412V120a213,213,0,0,1,49,136c0,118-95,214-213,214ZM179,275l-11-21,2,24-24,4,24,6-4,24,13-21,22,11-16-19,17-17Z" transform="translate(0 -9)" style="fill:#fff"/></svg>