<svg id="Layer_1" data-name="Layer 1" xmlns="http://www.w3.org/2000/svg" viewBox="0 0 576 341"><title>tripadvisor</title><path d="M166,281a24,24,0,1,1-24-24A24,24,0,0,1,166,281Zm265-24a24,24,0,1,0,24,24A24,24,0,0,0,431,257Zm89,139a144,144,0,0,1-202-25l-31,46-31-46A144,144,0,0,1,28,197,187,187,0,0,0,0,139H90A358,358,0,0,1,287,85a350,350,0,0,1,192,53h96a186,186,0,0,0-28,58A144,144,0,0,1,521,396ZM259,282A115,115,0,1,0,144,397,115,115,0,0,0,259,282Zm29-10A144,144,0,0,1,427,138a339,339,0,0,0-140-28,356,356,0,0,0-140,27A144,144,0,0,1,288,271Zm252-29a115,115,0,1,0-216,80h0a115,115,0,0,0,216-80ZM214,281h0a71,71,0,1,1-71-71,71,71,0,0,1,71,71Zm-25,0h0a47,47,0,1,0-47,47A47,47,0,0,0,189,280Zm313,0h0a71,71,0,1,1-71-71A71,71,0,0,1,503,281Zm-25,0a47,47,0,1,0-47,47,47,47,0,0,0,47-47h0Z" transform="translate(0 -85)" style="fill:#fff"/></svg>