<svg id="Layer_1" data-name="Layer 1" xmlns="http://www.w3.org/2000/svg" viewBox="0 0 448 448"><title>tumblr-square</title><path d="M400,32H48A48,48,0,0,0,0,80V432a48,48,0,0,0,48,48H400a48,48,0,0,0,48-48V80A48,48,0,0,0,400,32ZM318,396c-8,9-31,20-61,20-75,0-92-55-92-88V238H135a6,6,0,0,1-6-6V189a11,11,0,0,1,7-10c39-14,51-47,53-73,1-7,4-10,10-10h44a6,6,0,0,1,6,6v72h52a6,6,0,0,1,6,6v51a6,6,0,0,1-6,6H249v83c0,21,15,34,43,22,3-1,6-2,8-1s4,2,5,5l14,40c1,3,2,7,0,9Z" transform="translate(0 -32)" style="fill:#fff"/></svg>