<svg id="Layer_1" data-name="Layer 1" xmlns="http://www.w3.org/2000/svg" viewBox="0 0 512 416"><title>twitter</title><path d="M459,152c0,5,0,9,0,14,0,139-106,299-299,299A297,297,0,0,1,0,417H25a210,210,0,0,0,130-45,105,105,0,0,1-98-73l20,2a111,111,0,0,0,28-4A105,105,0,0,1,21,196h0a106,106,0,0,0,47,13A105,105,0,0,1,36,67,298,298,0,0,0,252,177a118,118,0,0,1-3-24A105,105,0,0,1,431,81a207,207,0,0,0,67-25,105,105,0,0,1-46,58,210,210,0,0,0,60-16,226,226,0,0,1-53,54Z" transform="translate(0 -48)" style="fill:#fff"/></svg>