<svg id="Layer_1" data-name="Layer 1" xmlns="http://www.w3.org/2000/svg" viewBox="0 0 448 448"><title>twitter-square</title><path d="M400,32H48A48,48,0,0,0,0,80V432a48,48,0,0,0,48,48H400a48,48,0,0,0,48-48V80A48,48,0,0,0,400,32ZM351,191c0,3,0,6,0,9,0,87-66,187-187,187A186,186,0,0,1,64,357H80a131,131,0,0,0,81-28,66,66,0,0,1-61-45c10,2,19,2,30-1a66,66,0,0,1-53-64h0a66,66,0,0,0,30,8,65,65,0,0,1-29-55,65,65,0,0,1,9-33,186,186,0,0,0,135,69c-9-44,24-81,64-81a65,65,0,0,1,48,21,129,129,0,0,0,42-16,65,65,0,0,1-29,36,131,131,0,0,0,38-10A138,138,0,0,1,351,191Z" transform="translate(0 -32)" style="fill:#fff"/></svg>