<svg id="Layer_1" data-name="Layer 1" xmlns="http://www.w3.org/2000/svg" viewBox="0 0 496 496"><title>ubuntu</title><path d="M248,8C111,8,0,119,0,256S111,504,248,504,496,393,496,256,385,8,248,8Zm53,93a32,32,0,1,1,12,44A32,32,0,0,1,301,101ZM87,288a32,32,0,1,1,32-32A32,32,0,0,1,87,288Zm28,3a45,45,0,0,0,0-70,138,138,0,0,1,57-79l24,40c-51,36-51,112,0,149l-24,40A138,138,0,0,1,116,291ZM344,423a32,32,0,1,1,12-44A32,32,0,0,1,344,423Zm0-69a45,45,0,0,0-60,35,138,138,0,0,1-97-9l23-40c57,27,123-12,129-74h46a137,137,0,0,1-40,88Zm-6-105c-5-62-71-101-129-74l-22-40a138,138,0,0,1,97-9,45,45,0,0,0,61,35,136,136,0,0,1,40,89H339Z" transform="translate(0 -8)" style="fill:#fff"/></svg>