<svg id="Layer_1" data-name="Layer 1" xmlns="http://www.w3.org/2000/svg" viewBox="0 0 496 496"><title>umbraco</title><path d="M255,8C118,8,7,119,7,256S118,504,255,504,503,393,503,256,392,8,255,8ZM400,274q-1,41-14,65t-44,35q-31,11-85,10h-5q-55,0-85-10t-44-35q-13-24-14-65a225,225,0,0,1,0-31,418,418,0,0,1,4-44c2-13,4-23,5-32l2-8a5,5,0,0,1,5-4h1l32,5a5,5,0,0,1,4,5,5,5,0,0,1,0,1l-2,9q-2,13-5,34a381,381,0,0,0-3,42q0,40,8,60a44,44,0,0,0,31,25,243,243,0,0,0,57,5h10a243,243,0,0,0,57-5,44,44,0,0,0,31-25q9-19,8-60a388,388,0,0,0-3-42q-2-20-5-34l-2-9a6,6,0,0,1,4-6l32-5h1a5,5,0,0,1,5,4l2,8c2,10,4,19,5,32a416,416,0,0,1,4,44,228,228,0,0,1,0,31Z" transform="translate(-7 -8)" style="fill:#fff"/></svg>