<svg id="Layer_1" data-name="Layer 1" xmlns="http://www.w3.org/2000/svg" viewBox="0 0 384 448"><title>uniregistry</title><path d="M192,480a192,192,0,0,0,107-32H85A191,191,0,0,0,192,480ZM103,287V275H0v12c0,3,0,5,0,7H103C103,292,103,289,103,287Zm21,57H9a182,182,0,0,0,10,25H156A91,91,0,0,1,123,344Zm-18-35H1a204,204,0,0,0,4,22H115A87,87,0,0,1,106,309Zm-3-69H0v17H103Zm0-173H0v5H103Zm0-35H0v3H103Zm0,69H0v7H103Zm0,104H0v15H103Zm0-69H0v10H103Zm0,35H0v12H103ZM269,331H379a165,165,0,0,0,4-22H278A91,91,0,0,1,269,331Zm12-186H384V136H281Zm0,37H384V171H281Zm0-74H384v-7H281Zm0-77v2H384V32ZM78,443H306a193,193,0,0,0,32-30H45c10,11,21,21,33,30ZM281,72H384V67H281Zm0,149H384V205H281ZM39,406H344a190,190,0,0,0,18-27H23C28,388,32,397,39,406Zm189-37H367c4-8,6-16,9-25H261A89,89,0,0,1,228,369Zm53-82a60,60,0,0,1,0,7H384c0-2,0-5,0-7V275H281Zm0-30H384V240H281Z" transform="translate(0 -32)" style="fill:#fff"/></svg>