<svg id="Layer_1" data-name="Layer 1" xmlns="http://www.w3.org/2000/svg" viewBox="0 0 613 512"><title>untappd</title><path d="M401,50c-80,160-85,152-88,173l-5,33a79,79,0,0,1-14,33L146,497a36,36,0,0,1-33,15c-40-5-78-32-95-68a36,36,0,0,1,3-36L169,199a79,79,0,0,1,27-24l29-15c19-10,10-12,136-139,1-5,1-7,4-8s7-1,6-5V4a3,3,0,0,1,3-4c5,0,13,1,26,10s16,17,18,21a3,3,0,0,1-2,4h-4c-3,1-2,4-2,7s-2,4-6,6ZM230,36c3,1,3,4,2,7s2,4,6,6l22,44a2,2,0,0,0,3,1l41-43a4,4,0,0,0,0-5L279,21c-1-5-1-7-4-8s-7-1-6-5,1-8-3-8-13,1-26,10-16,17-18,21S227,36,230,36ZM620,407,471,199c-13-18-27-23-56-39-11-6-14-11-30-29a2,2,0,0,0-4,1c-46,89-47,83-49,95a90,90,0,0,0,0,30,79,79,0,0,0,14,33L495,497a36,36,0,0,0,33,15c40-5,78-32,96-69A37,37,0,0,0,620,407Z" transform="translate(-13 0)" style="fill:#fff"/></svg>