<svg id="Layer_1" data-name="Layer 1" xmlns="http://www.w3.org/2000/svg" viewBox="0 0 375 447"><title>ups</title><path d="M103,303c-5,4-33,13-33-19V180H38V283c0,75,80,51,98,39V180H103ZM4,75V296C4,399,79,431,192,480c112-49,188-80,188-184V75C263,13,98,25,4,75ZM362,296c0,87-53,114-170,165C74,409,21,382,21,296V169C124,76,253,69,362,80ZM153,188V401h33V332c24,7,72-3,72-78,0-97-81-81-104-66Zm33,117V205c8-4,38-13,38,49s-36,52-38,51Zm79-86c0,47,52,43,52,70s-30,23-51,5v30c36,22,82,8,83-33s-54-47-53-73,31-20,49-2V187c-28-22-80-9-80,32Z" transform="translate(-4 -33)" style="fill:#fff"/></svg>