<svg id="Layer_1" data-name="Layer 1" xmlns="http://www.w3.org/2000/svg" viewBox="0 0 642 392"><title>usb</title><path d="M642,256a8,8,0,0,1-4,8l-89,54h-9a9,9,0,0,1-4-8V274H296c25,40,41,107,70,107h27V354a9,9,0,0,1,9-9h89a9,9,0,0,1,9,9v89a9,9,0,0,1-9,9H401a9,9,0,0,1-9-9V416H365c-75,0-81-142-125-142H140c-8,31-36,54-69,54a71,71,0,1,1,69-89c39,0,44,10,75-60,40-89,58-82,109-82a54,54,0,1,1,0,36H294c-29,0-44,67-70,107H535V203a9,9,0,0,1,5-8,8,8,0,0,1,9,0l89,54a8,8,0,0,1,5,7Z" transform="translate(0 -60)" style="fill:#fff"/></svg>