<?xml version="1.0" encoding="UTF-8"?>
<!DOCTYPE svg PUBLIC "-//W3C//DTD SVG 1.1//EN" "http://www.w3.org/Graphics/SVG/1.1/DTD/svg11.dtd">
<!-- Creator: CorelDRAW 2017 -->
<svg xmlns="http://www.w3.org/2000/svg" xml:space="preserve" width="210mm" height="297mm" version="1.1" style="shape-rendering:geometricPrecision; text-rendering:geometricPrecision; image-rendering:optimizeQuality; fill-rule:evenodd; clip-rule:evenodd"
viewBox="0 0 21000 29700"
 xmlns:xlink="http://www.w3.org/1999/xlink">
 <defs>
  <style type="text/css">
   <![CDATA[
    .fil0 {fill:white}
   ]]>
  </style>
 </defs>
 <g id="Layer_x0020_1">
  <metadata id="CorelCorpID_0Corel-Layer"/>
  <path class="fil0" d="M10500 14850c3314,0 6000,-2686 6000,-6000 0,-3314 -2686,-6000 -6000,-6000 -3314,0 -6000,2686 -6000,6000 0,3314 2686,6000 6000,6000zm4200 1500l-783 0c-1041,478 -2198,750 -3417,750 -1219,0 -2372,-272 -3417,-750l-783 0c-3478,0 -6300,2822 -6300,6300l0 1950c0,1242 1008,2250 2250,2250l16500 0c1242,0 2250,-1008 2250,-2250l0 -1950c0,-3478 -2822,-6300 -6300,-6300z"/>
 </g>
</svg>
