<svg id="Layer_1" data-name="Layer 1" xmlns="http://www.w3.org/2000/svg" viewBox="0 0 512 512"><title>ussunnah</title><path d="M157,285l6,14h-8l-4-9c-2-6-1-8,0-10l4-5c0,2,1,6,3,10Zm297,19a193,193,0,0,1-10,40l43,23-45-19a195,195,0,0,1-20,37l34,30-37-26a200,200,0,0,1-29,32l25,35-28-32a202,202,0,0,1-36,25l16,37-19-35a199,199,0,0,1-42,16l7,38-10-37a198,198,0,0,1-44,5l-2,38-2-38a204,204,0,0,1-44-5l-11,37,7-38a199,199,0,0,1-42-16l-19,35,16-37a193,193,0,0,1-36-25L96,456l25-34a201,201,0,0,1-29-32L56,416l34-30a202,202,0,0,1-20-37L25,367l43-23a197,197,0,0,1-10-40L6,313l50-14a201,201,0,0,1-2-26c0-5,0-9,1-14L0,256l56-3a201,201,0,0,1,8-38L6,199l59,10a200,200,0,0,1,15-34L25,145l58,25a197,197,0,0,1,22-30L56,96l54,39a199,199,0,0,1,27-24L96,56l46,52a201,201,0,0,1,30-17L145,25l34,62a192,192,0,0,1,33-10L199,6l20,69,34-3,4-72,4,72,34,4L313,6,301,77a197,197,0,0,1,33,11l34-62L340,91a208,208,0,0,1,30,17l46-52-40,56a205,205,0,0,1,27,24l54-39-50,44a202,202,0,0,1,22,29l59-25-55,30a198,198,0,0,1,15,34l59-10-57,16a199,199,0,0,1,8,38l56,3-56,3c0,5,1,9,1,14a221,221,0,0,1-2,26l51,14-51-9Zm-22-31A177,177,0,1,0,256,449,176,176,0,0,0,432,273Zm-24,0A153,153,0,1,1,256,120,153,153,0,0,1,408,273ZM195,241c0,2,1,4,4,5a22,22,0,0,1,8,8c3-6,4-9,4-11s-1-4-3-7a13,13,0,0,1-3-8c-6,7-10,11-10,13Zm-41-19c0,2,1,4,4,5a20,20,0,0,1,8,8c3-6,4-9,4-11s-1-4-3-7a13,13,0,0,1-3-8c-6,7-10,11-10,13Zm-19,0c0,2,1,4,4,5a22,22,0,0,1,8,8c3-6,4-9,4-11s-1-4-3-7a13,13,0,0,1-3-8c-6,7-10,11-10,13Zm205,88c-8-3-9-7-9-16V182c-8,13-14,19-18,19,6,14,10,24,10,28v64c0,2-2,7-5,7H300l-15-40-11,14a13,13,0,0,1,5,6l8,20h-9l-12-31-11,14a13,13,0,0,1,5,6l4,11h-9l-8-22-11,14a12,12,0,0,1,5,6v2H225c-5-14-11-28-11-34a34,34,0,0,1,1-8c-9,11-14,16-14,25s10,28,10,33a10,10,0,0,1-1,5c-10-13-15-21-19-21H179l-11-28c-4-10-6-16-6-19a46,46,0,0,1,2-12l-5,7-5-11-11,14,5,12-14,18c-4,5-6,13-3,22s2,8-2,14h62c6,0,14,14,16,22l17-22H330c4,0,7-2,10-6Zm20-27V182c-9,13-16,19-21,19,7,14,11,24,11,28v66c0,18,9,20,24,20s13-1,14-3l-10-3c-8-3-18-7-18-26Z" style="fill:#fffdfd"/></svg>