<svg id="Layer_1" data-name="Layer 1" xmlns="http://www.w3.org/2000/svg" viewBox="0 0 448 424"><title>vaadin</title><path d="M225,141c2-18,5-53,50-53h99c21,0,32-8,32-22V54c0-12,9-22,22-22s22,10,22,22V91c0,43-21,62-67,62H281c-30,0-33,15-33,27,0,1,0,3,0,4a23,23,0,0,1-47,0c0-1,0-2,0-4,0-12-3-27-33-27H67C22,153,0,134,0,91V54C0,42,9,32,22,32S43,42,43,54V66c0,14,11,22,32,22h99c45,0,48,35,50,53h1Zm0,315a29,29,0,0,0,26-16l98-171c12-20-3-44-27-44s-23,6-30,20L224,362,157,244c-6-14-16-20-30-20s-39,25-27,44l98,171a29,29,0,0,0,26,16Z" transform="translate(0 -32)" style="fill:#fff"/></svg>