<svg id="Layer_1" data-name="Layer 1" xmlns="http://www.w3.org/2000/svg" viewBox="0 0 439 512"><title>viadeo</title><path d="M276,151h0C258,99,234,48,205,0,249,29,272,100,276,151Zm33,122a147,147,0,0,1,11,57c0,78-58,141-138,139h4c74-47,109-119,109-205a345,345,0,0,0-19-112c1,12,1,24,1,35,0,92-18,242-117,280C95,455,49,398,49,329s57-142,135-142a127,127,0,0,1,49,10,126,126,0,0,1,13-43,184,184,0,0,0-62-11C23,143-54,338,55,456c68,75,192,74,260,0,57-61,61-142,36-201a128,128,0,0,1-42,17ZM418,12c-31,66-81,47-116,80-12,12-21,34-21,50s5,27,12,39c47-11,98-46,118-91-1,6-5,14-7,19-20,36-65,66-100,85,15,14,34,26,55,26,79,0,110-135,58-209Z" transform="translate(-4)" style="fill:#fff"/></svg>