<svg id="Layer_1" data-name="Layer 1" xmlns="http://www.w3.org/2000/svg" viewBox="0 0 448 448"><title>viadeo-square</title><path d="M400,32H48A48,48,0,0,0,0,80V432a48,48,0,0,0,48,48H400a48,48,0,0,0,48-48V80A48,48,0,0,0,400,32ZM281,381c-42,46-120,47-162,0-68-74-20-196,81-196a113,113,0,0,1,39,7,80,80,0,0,0-8,27,79,79,0,0,0-31-6c-49,0-85,42-85,89s29,79,70,86c62-24,73-118,73-175,0-7,0-15-1-22-11-33-27-65-44-94,27,18,42,63,44,94h0a217,217,0,0,1,12,70c0,54-22,99-68,128h-2c50,1,86-39,86-87a92,92,0,0,0-7-36,80,80,0,0,0,26-10,118,118,0,0,1-23,126Zm28-148c-13,0-25-7-34-16,22-12,50-31,62-53,2-3,4-9,5-12-12,28-44,50-74,57a45,45,0,0,1-7-24c0-10,5-24,13-32,22-20,53-8,72-50,33,46,13,130-36,130Z" transform="translate(0 -32)" style="fill:#fff"/></svg>