<svg id="Layer_1" data-name="Layer 1" xmlns="http://www.w3.org/2000/svg" viewBox="0 0 486 512"><title>viber</title><path d="M444,50C431,38,380,1,265,0c0,0-135-8-201,52C28,89,15,143,14,210S10,401,131,434h0v52s-1,21,13,25,26-11,42-28l30-34c82,7,145-9,152-11s111-17,126-142S486,87,444,50Zm14,237c-13,104-89,111-103,115s-61,16-131,11c0,0-52,63-68,79-5,5-11,5-11-6s0-86,0-86h0C43,373,49,267,50,211S62,110,93,80c56-50,170-43,170-43,97,0,143,30,154,39,36,31,54,104,41,211ZM319,206c0,9-12,9-13,1-1-22-11-33-33-34-9,0-8-13,1-13C302,162,318,178,319,206Zm20,11c1-42-25-76-76-79-8-1-8-13,1-13,58,4,89,44,88,92,0,9-13,8-13,0Zm47,13c0,9-13,9-13,0-1-81-55-126-121-126-8,0-8-13,0-13C326,92,386,143,386,231Zm-11,98h0c-11,19-31,40-52,33h0c-21-6-71-31-102-56a261,261,0,0,1-42-42,325,325,0,0,1-31-47c-21-38-26-56-26-56-7-21,14-41,33-52h0c9-5,18-3,24,4l18,22c5,7,12,18,15,24s2,22-4,27l-12,10c-6,5-5,14-5,14s18,67,84,84c0,0,9,1,14-5l10-12c5-6,16-10,27-4s33,21,46,33,9,14,4,24Z" transform="translate(-13 0)" style="fill:#fff"/></svg>