<svg id="Layer_1" data-name="Layer 1" xmlns="http://www.w3.org/2000/svg" viewBox="0 0 539 320"><title>vk</title><path d="M545,118c4-12,0-22-18-22H468c-15,0-22,8-26,17s-30,73-72,121c-14,14-20,18-27,18s-9-4-9-17V118c0-15-4-22-17-22H224c-9,0-15,7-15,14s21,18,23,58v87c0,19-3,22-11,22-20,0-69-73-97-157-6-16-11-23-27-23H39c-17,0-20,8-20,17s20,93,93,196c49,70,117,108,180,108,38,0,42-8,42-23,0-67-3-73,15-73s24,4,59,38,47,58,69,58h59c17,0,25-8,20-25-11-35-87-107-90-111s-6-16,0-26,72-101,79-136Z" transform="translate(-19 -96)" style="fill:#fff"/></svg>