<svg id="Layer_1" data-name="Layer 1" xmlns="http://www.w3.org/2000/svg" viewBox="0 0 640 160"><title>vnv</title><path d="M105,352c-34,0-46-30-46-30L3,210s-10-18,10-18H46c10,0,13,9,19,18l37,74a24,24,0,0,0,42,0l37-74c6-9,8-18,19-18h33c21,0,10,18,10,18L186,322s-12,30-46,30Zm395,0c-34,0-46-30-46-30L398,210s-10-18,10-18h33c10,0,13,9,19,18l37,74a24,24,0,0,0,42,0l37-74c6-9,8-18,19-18h33c21,0,10,18,10,18L582,322s-12,30-46,30H500ZM338,192c34,0,46,30,46,30l56,112s10,18-10,18H397c-10,0-13-9-19-18l-37-74a24,24,0,0,0-42,0l-37,75c-6,9-8,18-19,18H211c-21,0-10-18-10-18l56-112s12-30,46-30h35Z" transform="translate(0 -192)" style="fill:#fff"/></svg>