<?xml version="1.0" encoding="UTF-8"?>
<!DOCTYPE svg PUBLIC "-//W3C//DTD SVG 1.1//EN" "http://www.w3.org/Graphics/SVG/1.1/DTD/svg11.dtd">
<!-- Creator: CorelDRAW 2017 -->
<svg xmlns="http://www.w3.org/2000/svg" xml:space="preserve" width="210mm" height="297mm" version="1.1" style="shape-rendering:geometricPrecision; text-rendering:geometricPrecision; image-rendering:optimizeQuality; fill-rule:evenodd; clip-rule:evenodd"
viewBox="0 0 21000 29700"
 xmlns:xlink="http://www.w3.org/1999/xlink">
 <defs>
  <style type="text/css">
   <![CDATA[
    .fil0 {fill:white}
   ]]>
  </style>
 </defs>
 <g id="Layer_x0020_1">
  <metadata id="CorelCorpID_0Corel-Layer"/>
  <path class="fil0" d="M20493 19513c-784,-88 -1535,-383 -2111,-835 -514,-405 -1247,-412 -1757,0 -1382,1108 -3908,1108 -5312,-55 -492,-408 -1203,-332 -1703,66 -1385,1097 -3897,1094 -5294,-62 -492,-408 -1214,-324 -1717,73 -565,445 -1313,733 -2104,817 -288,29 -496,284 -496,572l0 1174c0,332 277,613 609,583 1050,-91 2045,-416 2895,-944 2060,1261 4995,1243 7000,0 2060,1261 4995,1243 7000,0 849,518 1856,849 2884,941 332,29 609,-252 609,-583l0 -1152c4,-292 -208,-561 -503,-594l0 0zm0 -5250c-784,-88 -1535,-383 -2111,-835 -514,-405 -1247,-412 -1757,0 -1382,1108 -3908,1108 -5312,-55 -492,-408 -1203,-332 -1703,66 -1385,1097 -3897,1094 -5294,-62 -492,-408 -1214,-324 -1717,73 -565,445 -1313,733 -2104,817 -288,29 -496,284 -496,572l0 1174c0,332 277,612 609,583 1050,-91 2045,-416 2895,-944 2060,1261 4995,1243 7000,0 2060,1261 4995,1243 7000,0 849,518 1856,849 2884,941 332,29 609,-252 609,-583l0 -1152c4,-292 -208,-561 -503,-594l0 0zm0 -5250c-784,-91 -1535,-383 -2111,-835 -514,-405 -1247,-412 -1757,0 -1382,1108 -3908,1108 -5312,-55 -492,-408 -1203,-332 -1703,66 -1385,1097 -3897,1094 -5294,-62 -492,-408 -1214,-324 -1717,73 -565,445 -1313,733 -2104,817 -288,29 -496,284 -496,572l0 1174c0,332 277,613 609,583 1050,-91 2045,-416 2895,-944 2060,1261 4995,1243 7000,0 2060,1261 4995,1243 7000,0 849,518 1856,849 2884,941 332,29 609,-252 609,-583l0 -1152c4,-292 -208,-561 -503,-594l0 0z"/>
 </g>
</svg>
