<svg id="Layer_1" data-name="Layer 1" xmlns="http://www.w3.org/2000/svg" viewBox="0 0 498 448"><title>waze</title><path d="M502,202c15,86-31,168-113,208,13,34-12,70-48,70a52,52,0,0,1-52-49H213a52,52,0,0,1-54,50h0c-34-1-58-35-47-68-37-13-73-35-100-71-13-17,0-42,21-42,46,0,32-54,43-110C95,95,193,32,288,32s197,71,214,170ZM374,388c42-19,81-57,96-102C510,163,406,58,288,58c-83,0-170,55-186,136-10,49,5,131-69,131,25,33,58,53,94,64,25-22,64-15,80,14h88a52,52,0,0,1,70-22ZM205,187c0-35,51-35,51,0S205,222,205,187Zm117,0c0-35,51-35,51,0S322,222,322,187ZM199,258c-3-17,22-22,26-5h0c4,21,30,44,64,43s59-22,64-43,29-10,25,6-31,62-91,63c-43,0-81-28-88-64Z" transform="translate(-7 -32)" style="fill:#fff"/></svg>