<svg id="Layer_1" data-name="Layer 1" xmlns="http://www.w3.org/2000/svg" viewBox="0 0 512 380"><title>weebly</title><path d="M425,66c-40,0-73,26-84,64-18-58-65-64-85-64s-67,6-85,64c-10-39-43-64-84-64S0,100,0,143c0,29,4,33,77,233,22,61,68,69,93,69,39,0,70-19,86-54,16,35,47,54,86,54,25,0,70-9,93-70,77-209,78-206,78-227,1-48-36-83-87-83Zm26,115L386,357c-8,21-21,37-46,37s-37-12-44-34L256,243h-1L216,360c-7,22-21,34-44,34s-38-16-46-37L61,182c-5-15-8-24-8-34s16-29,38-29,32,12,36,29l44,140h1l45-137c6-20,16-32,39-32s33,12,39,32l45,137h1l44-140c4-17,17-29,36-29s38,13,38,36c0,8-4,16-8,27Z" transform="translate(0 -66)" style="fill:#fff"/></svg>