<svg id="Layer_1" data-name="Layer 1" xmlns="http://www.w3.org/2000/svg" viewBox="0 0 512 415"><title>weibo</title><path d="M407,178c8-24-13-47-37-42s-29-28-7-33c50-11,92,37,77,85C432,209,400,199,407,178ZM215,447C109,447,0,395,0,310c0-44,28-95,76-144C176,67,280,66,250,161c-4,13,12,6,12,6,80-34,141-17,114,51-4,9,1,11,8,13,136,42,35,215-170,215ZM359,300c-5-56-78-94-163-86S46,275,52,331s78,94,163,86S364,356,359,300ZM348,35c-26,6-17,44,8,38,72-15,135,53,112,124-7,24,29,37,37,12C537,110,450,14,348,35ZM269,346c-17,39-67,60-109,46s-58-53-40-90,63-55,103-45S287,308,269,346Zm-86-30c-13-5-30,0-38,13s-4,28,9,34,31,0,39-13S196,322,183,316Zm33-13a13,13,0,0,0-14,5c-3,5-1,11,4,13a12,12,0,0,0,15-5C222,310,221,305,216,303Z" transform="translate(0 -32)" style="fill:#fff"/></svg>