<?xml version="1.0" encoding="UTF-8"?>
<!DOCTYPE svg PUBLIC "-//W3C//DTD SVG 1.1//EN" "http://www.w3.org/Graphics/SVG/1.1/DTD/svg11.dtd">
<!-- Creator: CorelDRAW 2017 -->
<svg xmlns="http://www.w3.org/2000/svg" xml:space="preserve" width="210mm" height="297mm" version="1.1" style="shape-rendering:geometricPrecision; text-rendering:geometricPrecision; image-rendering:optimizeQuality; fill-rule:evenodd; clip-rule:evenodd"
viewBox="0 0 21000 29700"
 xmlns:xlink="http://www.w3.org/1999/xlink">
 <defs>
  <style type="text/css">
   <![CDATA[
    .fil0 {fill:white}
   ]]>
  </style>
 </defs>
 <g id="Layer_x0020_1">
  <metadata id="CorelCorpID_0Corel-Layer"/>
  <path class="fil0" d="M18375 6975l-1066 0c673,1160 1066,2502 1066,3938 0,4342 -3533,7875 -7875,7875 -4342,0 -7875,-3533 -7875,-7875 0,-1435 392,-2778 1066,-3938l-1066 0c-1447,0 -2625,1178 -2625,2625l0 13125c0,1447 1178,2625 2625,2625l15750 0c1447,0 2625,-1178 2625,-2625l0 -13125c0,-1447 -1178,-2625 -2625,-2625zm-7875 10500c3625,0 6563,-2938 6563,-6563 0,-3625 -2938,-6563 -6563,-6563 -3625,0 -6563,2938 -6563,6563 0,3625 2938,6563 6563,6563zm-12 -6232l1377 -3214c144,-335 531,-489 863,-345 333,143 487,529 345,861l-1381 3222c274,294 449,681 449,1114 0,906 -735,1641 -1641,1641 -906,0 -1641,-735 -1641,-1641 0,-902 728,-1631 1628,-1638l0 0z"/>
 </g>
</svg>
