<svg id="Layer_1" data-name="Layer 1" xmlns="http://www.w3.org/2000/svg" viewBox="0 0 550 448"><title>weixin</title><path d="M385,168h19C387,90,303,32,208,32,101,32,13,105,13,197c0,53,29,98,78,132L72,388l68-34c24,5,44,10,68,10h18a138,138,0,0,1-6-41c0-85,73-154,165-154ZM281,115c15,0,24,10,24,24s-10,24-24,24-29-10-29-24S266,115,281,115ZM144,163c-14,0-29-10-29-24s15-24,29-24,24,10,24,24S159,163,144,163ZM563,319c0-78-78-141-165-141S232,242,232,319s73,141,165,141c19,0,39-5,59-10l53,29-15-49C534,402,563,363,563,319ZM344,295c-10,0-19-10-19-20s10-19,19-19,24,10,24,19S359,295,344,295Zm107,0c-10,0-19-10-19-20s10-19,19-19,24,10,24,19S466,295,451,295Z" transform="translate(-13 -32)" style="fill:#fff"/></svg>