<svg id="Layer_1" data-name="Layer 1" xmlns="http://www.w3.org/2000/svg" viewBox="0 0 448 448"><title>whatsapp</title><path d="M381,97A220,220,0,0,0,224,32C101,32,2,132,2,254A222,222,0,0,0,31,365L0,480l118-31a221,221,0,0,0,106,27h0c122,0,224-100,224-222C448,195,423,139,381,97ZM224,439a184,184,0,0,1-94-26l-7-4L53,427l19-68-4-7a184,184,0,0,1-28-98C39,152,122,70,224,70a183,183,0,0,1,130,54c35,35,56,81,56,130C411,356,326,439,224,439ZM325,301l-38-18c-5-2-9-3-12,3s-14,18-18,22-6,4-12,1c-33-16-54-29-75-66-6-10,6-9,16-30,2-4,1-7,0-10l-17-41c-4-11-9-9-12-9H145a21,21,0,0,0-15,7c-5,6-19,19-19,46s20,54,23,57,39,60,95,84c35,15,49,17,67,14s33-13,37-26,5-24,3-26S331,303,325,301Z" transform="translate(0 -32)" style="fill:#fff"/></svg>