<svg id="Layer_1" data-name="Layer 1" xmlns="http://www.w3.org/2000/svg" viewBox="0 0 448 448"><title>whatsapp-square</title><path d="M224,123c-73,0-132,59-132,132a131,131,0,0,0,20,70l3,5-13,49,50-13,5,3a131,131,0,0,0,67,18h0c73,0,133-59,133-132,0-35-15-68-40-93a131,131,0,0,0-93-39Zm78,188c-3,9-19,18-27,19s-22,1-47-10c-40-17-66-57-68-60s-16-21-16-41,10-29,14-33a14,14,0,0,1,11-5h8c2,0,6-1,9,7l12,29c1,2,2,4,0,7-8,15-16,15-12,22,15,26,31,35,54,47,4,2,6,2,9-1l13-15c3-4,5-3,9-2l27,13,8,5C305,294,305,302,302,311ZM400,32H48A48,48,0,0,0,0,80V432a48,48,0,0,0,48,48H400a48,48,0,0,0,48-48V80A48,48,0,0,0,400,32ZM224,413a158,158,0,0,1-76-19L64,416l23-82a158,158,0,0,1-21-79c0-87,71-158,159-158a158,158,0,0,1,112,47c30,30,48,70,48,112,0,87-73,159-160,159Z" transform="translate(0 -32)" style="fill:#fff"/></svg>