<svg id="Layer_1" data-name="Layer 1" xmlns="http://www.w3.org/2000/svg" viewBox="0 0 448 448"><title>whmcs</title><path d="M448,161V140l-28-9-2-10,20-21L427,80l-29,8-7-7,8-28L379,41,358,62l-11-3-7-26H318l-6,26-12,3L280,41,260,52l8,28-8,8-28-7L221,99l21,21-3,10-28,8v22l29,8,2,12-20,20,10,19,30-7,7,9-8,27,20,12,19-20,12,3,7,29h23l7-29,12-3,21,22,20-12-9-28,8-8,29,9,10-20-21-19,2-12,29-7ZM329,206a57,57,0,1,1,57-57A57,57,0,0,1,329,206Zm72,16,47,15v40l-55,13-4,23,39,35-19,38-54-17-15,15,17,53-38,23-39-40-22,7-13,54H203l-13-54-22-6-36,38L95,437l15-50L96,370,41,385,21,350l38-37-5-23L0,276V235l54-15,6-20L21,161l21-36,54,14,15-16L95,71l36-21,37,39,23-6,12-52h42l12,46-23-6-6-2-3,6L213,95l-3,6,5,5,17,17h0l-24,7-6,2v19A106,106,0,1,0,327,278h20l2-7,6-24h2l17,18,5,5,6-3,20-12,6-3-2-6-7-21Z" transform="translate(0 -32)" style="fill:#fff"/></svg>