<?xml version="1.0" encoding="UTF-8"?>
<!DOCTYPE svg PUBLIC "-//W3C//DTD SVG 1.1//EN" "http://www.w3.org/Graphics/SVG/1.1/DTD/svg11.dtd">
<!-- Creator: CorelDRAW 2017 -->
<svg xmlns="http://www.w3.org/2000/svg" xml:space="preserve" width="210mm" height="297mm" version="1.1" style="shape-rendering:geometricPrecision; text-rendering:geometricPrecision; image-rendering:optimizeQuality; fill-rule:evenodd; clip-rule:evenodd"
viewBox="0 0 21000 29700"
 xmlns:xlink="http://www.w3.org/1999/xlink">
 <defs>
  <style type="text/css">
   <![CDATA[
    .fil0 {fill:white}
   ]]>
  </style>
 </defs>
 <g id="Layer_x0020_1">
  <metadata id="CorelCorpID_0Corel-Layer"/>
  <path class="fil0" d="M20833 11532c-5813,-5377 -14855,-5375 -20666,0 -219,202 -223,544 -11,754l1124 1115c201,200 526,204 735,12 4788,-4386 12183,-4387 16972,0 209,192 534,187 735,-12l1124 -1115c211,-210 207,-552 -12,-754l0 0zm-10333 6468c-1160,0 -2100,940 -2100,2100 0,1160 940,2100 2100,2100 1160,0 2100,-940 2100,-2100 0,-1160 -940,-2100 -2100,-2100zm6650 -2743c-3782,-3345 -9523,-3341 -13300,0 -226,200 -234,548 -19,760l1130 1115c197,194 514,207 724,26 2755,-2381 6882,-2376 9630,0 210,181 527,168 724,-26l1130 -1115c215,-212 208,-560 -18,-760z"/>
 </g>
</svg>
