<svg id="Layer_1" data-name="Layer 1" xmlns="http://www.w3.org/2000/svg" viewBox="0 0 640 413"><title>wikipedia-w</title><path d="M640,51V63c-28,1-45,16-56,40-25,58-103,240-155,359H415L333,269c-32,64-68,130-99,193H219C172,352,123,243,76,133,64,107,26,63,0,64c0-3,0-10,0-14H162V63c-19,1-53,13-43,34,22,50,104,240,126,289,15-30,58-109,75-143-14-28-59-134-73-160s-36-19-56-20V50H333V63c-19,1-38,8-29,26,19,40,31,68,48,105,6-11,35-69,48-101,9-21-4-29-39-29,0-4,0-10,0-14H485V63c-22,1-46,13-58,32L368,218c6,16,63,143,69,157L559,92c-9-23-36-28-47-28V50H640Z" transform="translate(0 -50)" style="fill:#fff"/></svg>