<?xml version="1.0" encoding="UTF-8"?>
<!DOCTYPE svg PUBLIC "-//W3C//DTD SVG 1.1//EN" "http://www.w3.org/Graphics/SVG/1.1/DTD/svg11.dtd">
<!-- Creator: CorelDRAW 2017 -->
<svg xmlns="http://www.w3.org/2000/svg" xml:space="preserve" width="210mm" height="297mm" version="1.1" style="shape-rendering:geometricPrecision; text-rendering:geometricPrecision; image-rendering:optimizeQuality; fill-rule:evenodd; clip-rule:evenodd"
viewBox="0 0 21000 29700"
 xmlns:xlink="http://www.w3.org/1999/xlink">
 <defs>
  <style type="text/css">
   <![CDATA[
    .fil0 {fill:white}
   ]]>
  </style>
 </defs>
 <g id="Layer_x0020_1">
  <metadata id="CorelCorpID_0Corel-Layer"/>
  <path class="fil0" d="M19031 5663l-17063 0c-1087,0 -1969,882 -1969,1969l0 14438c0,1087 882,1969 1969,1969l17063 0c1087,0 1969,-882 1969,-1969l0 -14438c0,-1087 -882,-1969 -1969,-1969zm0 16160c0,135 -111,246 -246,246l-16570 0c-135,0 -246,-111 -246,-246l0 -13945c0,-135 111,-246 246,-246l16570 0c135,0 246,111 246,246l0 13945 0 0zm-4409 -9491l-2518 2518 2518 2518c189,189 189,496 0,689l-915 915c-189,189 -496,189 -689,0l-2518 -2518 -2518 2518c-189,189 -496,189 -689,0l-915 -915c-189,-189 -189,-496 0,-689l2518 -2518 -2518 -2518c-189,-189 -189,-496 0,-689l915 -915c189,-189 496,-189 689,0l2518 2518 2518 -2518c189,-189 496,-189 689,0l915 915c193,189 193,496 0,689z"/>
 </g>
</svg>
