<?xml version="1.0" encoding="UTF-8"?>
<!DOCTYPE svg PUBLIC "-//W3C//DTD SVG 1.1//EN" "http://www.w3.org/Graphics/SVG/1.1/DTD/svg11.dtd">
<!-- Creator: CorelDRAW 2017 -->
<svg xmlns="http://www.w3.org/2000/svg" xml:space="preserve" width="210mm" height="297mm" version="1.1" style="shape-rendering:geometricPrecision; text-rendering:geometricPrecision; image-rendering:optimizeQuality; fill-rule:evenodd; clip-rule:evenodd"
viewBox="0 0 21000 29700"
 xmlns:xlink="http://www.w3.org/1999/xlink">
 <defs>
  <style type="text/css">
   <![CDATA[
    .fil0 {fill:white}
   ]]>
  </style>
 </defs>
 <g id="Layer_x0020_1">
  <metadata id="CorelCorpID_0Corel-Layer"/>
  <path class="fil0" d="M6427 14850l-5771 0c-361,0 -656,295 -656,656l0 1313c0,361 295,656 656,656l5832 0c652,0 1263,447 1370,1091 135,820 -496,1534 -1296,1534 -578,0 -1071,-377 -1247,-898 -86,-258 -353,-414 -623,-414l-1345 0c-402,0 -726,361 -652,755 353,1809 1952,3183 3864,3183 2342,0 4212,-2055 3905,-4454 -250,-1985 -2038,-3421 -4036,-3421zm-5771 -1313l13781 0c2449,0 4380,-2248 3847,-4787 -312,-1485 -1513,-2687 -2998,-2998 -2272,-476 -4311,1021 -4713,3097 -78,394 250,751 648,751l1345 0c275,0 537,-156 623,-414 176,-521 669,-898 1247,-898 796,0 1431,714 1296,1534 -107,644 -714,1091 -1370,1091l-13707 0c-361,0 -656,295 -656,656l0 1313c0,361 295,656 656,656zm15750 1313l-6411 0c792,681 1362,1591 1632,2625l4778 0c1087,0 1969,882 1969,1969 0,1087 -882,1969 -1969,1969 -734,0 -1366,-406 -1706,-1001 -119,-205 -357,-312 -595,-312l-1386 0c-447,0 -779,443 -628,865 730,2075 2892,3478 5307,2965 1690,-357 3080,-1706 3474,-3392 701,-3002 -1575,-5689 -4467,-5689z"/>
 </g>
</svg>
