<svg id="Layer_1" data-name="Layer 1" xmlns="http://www.w3.org/2000/svg" viewBox="0 0 640 249"><title>wix</title><path d="M393,132c0,13,2,33-29,44a50,50,0,0,0-16,10c0-31,5-42,17-49S393,132,393,132ZM278,167,243,300,215,191c-8-32-21-49-48-49s-41,16-48,49L90,300,55,167c-6-27-31-38-55-35L66,380s22,2,32-4,21-13,30-47,29-118,31-125,11-14,15,0,23,95,31,125,15,39,30,47,32,4,32,4l66-248c-24-3-50,9-55,35Zm116,5s-4,6-13,12l-18,9c-15,7-13,14-13,35V380s17,2,27-3,17-14,17-45V181h0v-9Zm163,84,83-124s-35-6-52,10-24,30-54,72c0,1-6,11-13,0-29-42-41-60-54-72s-52-10-52-10l83,124L414,380s37,5,54-11,18-20,53-71c7-11,13-1,13,0,29,42,39,58,53,71s53,11,53,11L557,257Z" transform="translate(0 -131)" style="fill:#fff"/></svg>