<svg id="Layer_1" data-name="Layer 1" xmlns="http://www.w3.org/2000/svg" viewBox="0 0 640 378"><title>wizards-of-the-coast</title><path d="M219,346c-2,1-11,8,0,24s14,13,22,7,7-13,0-23S227,340,219,346Zm337,76c0,2-1,2,1,0s4-10,5-20c3-38-40-71-101-78s-124,9-189,60v2c3,5,5,11,3,21h1c64-58,131-77,184-74s100,34,100,68c0,10-3,16-4,20ZM392,240c1,7,4,10,9,10s9-3,10-7,2-30,2-30-11,7-15,10-7,8-7,15ZM342,89C138,89,13,227,1,241c-1,1-1,1,1,1,60,17,156,81,196,202h1c55-70,141-128,237-128,81,0,130,42,130,80,0,18-7,34-22,46h1c15-11,28-29,28-48a67,67,0,0,0-12-38,55,55,0,0,1,11,16c6-41,27-62,27-62a82,82,0,0,0-7-18c8,8,14,28,14,41s-3,23-13,32h0c8-5,17-17,17-38s-5-26-5-26l16-12a95,95,0,0,1,2,15c0,1,1,2,1,0s0-16,0-16l10-4C618,176,489,89,342,89ZM243,379c-11,9-24,4-31-4a23,23,0,0,1,4-32c15-11,27,0,31,6S260,364,243,379Zm2-136,9-18,12,71-13,6-25-29,14-27,4,4-2-8Zm19,118h0c2-4-2-7-18-32-1-2-3-3-4-3h0l25-16h1l3,5h-5a47,47,0,0,0-12,8h0l6,10h0l12-8h0l2,6h0c-3,1-5,0-12,6h0c9,17,11,17,13,16h0l-10,7Zm55-32-10,5h0c1-3,1-3-12-32h0s-9,4-10,7h-1v-6h0c7-5,26-12,28-13h1l3,5h0c-4-2-7,1-12,3h0c12,32,13,31,15,31h0Zm45-16-10,3h0v-4l-4-14h0l-13,4h0l4,14c1,2,2,3,3,3h0l-10,4h0c1-1,1-3,0-5l-9-27c-1-2-2-3-3-3h0l11-3h0v5l3,10h0l13-4h0l-3-9c-1-2-1-3-3-4h0l11-2h0a4,4,0,0,0-1,4l6,26A5,5,0,0,0,364,311Zm32-7h0l-23,4h0v-4l-5-26c0-2-1-3-3-4h1l25-3h0l2,6h0c-1-1-3-3-16-1h0l2,10h0l11-2h0c0,2,0,2,0,5h0c-5-1-2-1-10,0h0l2,13h0c1,0,14-1,16-5h0l-2,6Zm11-45a23,23,0,0,1-11,3,19,19,0,0,1-18-10c-7-11-1-25,6-32s23-10,29-17-13-22-30-6l-3-3,5-16c26-2,45-3,50,16,1,3,0,9,0,12s-2,19-2,23-1,18-1,21,1,4,2,5,6,2,6,2v5H418l-4-8Zm37,21c-6-11-20-7-22,6s14,20,21,10h0l-2,6h-1c-10,7-28-2-26-19s14-19,29-10h0c0,1,0,3,0,5Zm6-88v-7c1,0,20,3,28,7l-2,18s10-9,15-11,15,7,15,7l-11,11c-12-6-20,0-21,1-5,39-9,42,4,46v5l-37-7v-5c7,0,7-5,8-7s5-53,5-55-5-4-5-4Zm11,114a16,16,0,0,1-11-21,15,15,0,0,1,19-10,16,16,0,0,1,11,19C477,305,470,310,461,308Zm42,10-9-3h0l2-2c1-8,1-7,0-8l-7-2-4,6v3h0l-6-2h0l3-2,14-20v-2h1l8,3s0-2-1,25a5,5,0,0,0,1,4Zm-5-90c11-18,31-16,34-3l8-26c2-6-3-10-4-11l2-4,23,20c-26,73-31,81-25,84l-2,4-18-9,2-7s-4,4-10,4c-19-1-23-32-10-53Zm29,79c0-6-6-8-8-5s1,5,3,8,3,6,1,9-12,5-15-1l2-5h1c-1,6,6,10,8,5s-1-5-2-8-4-6-2-10,11-4,15,2h0l-2,3Zm21,13c-2-3-1-2-4-5h0l-9,16c-1,2-1,3-1,4h0l-6-4h2l9-17h0c-3-2-1-2-6-2h0l3-3h0l12,9h0Zm27-44-3-3a36,36,0,0,0,2-8c1-10-12-12-12-5s8,19,8,28-6,16-14,17-20-10-20-10l5-14,3,2c-3,18,18,20,13,5-1-4-19-34,2-38s23,16,23,16l-8,10Zm36-10c-11-30-60-128-192-130-53-1-94,15-133,38l86-9-91,21,25,20-4-16c8-2,39-8,67-9l-22,80c14-1,19-9,20-23h5v27a401,401,0,0,0-49,10l13-43-62-37,2,8,10,5,20,59c2,4,3,6,12,4v5a280,280,0,0,0-39,14l-2-5c4-3,9-4,6-13-24-62-21-58-23-59l2-4,34,67c-4-12,2,2-33-79l-42,89,5-14-36-42,28,93-12,8C95,229,101,232,93,232s-14,6-14,6l-5-6c31-24,32-24,58-43l4,7-8,7c-6,9,2,13,62,76l-19-59,40-10,26,31,4-12-5-25,13-3v3l4-10-94,29,11-5-14-42,17-9,30,36,29-13c-1-7-2-14-5-20l17,14,5-2-59-43,23,12,32-10,3,11c-13,13,1,17,7,19l-14-61,12,28,7-2,3,9-6,2,9,21,34-66-21,61c42-24,81-37,132-36,67,1,167,41,200,140,1,2,0,3-1,0ZM203,152h4l9,8-11,2-2-9Zm144,39c-2-1-26-5-33,21l22,17ZM318,67c-58,0-106,12-115,14h0c8,2,14,4,21,12h2c7-2,49-14,110-14,180,0,302,117,302,223v10c0,1,1,3,1,1s1-9,1-20C640,211,543,67,318,67ZM529,237c1-6,0-12-7-13s-16,24-17,34-1,15,6,15,10-1,18-35Zm-62,43c-3-1-9-1-13,10s1,13,6,15,9,1,12-11-2-14-5-14Zm23,21,6,2c0-2,1-8,1-12l-7,10h0Z" transform="translate(0 -67)" style="fill:#fff"/></svg>