<svg id="Layer_1" data-name="Layer 1" xmlns="http://www.w3.org/2000/svg" viewBox="0 0 456 512"><title>wolf-pack-battalion</title><path d="M268,472l11,16,5-12,5,7v30c21-8,21-67,26-97s-1-93,81-149c-9-24-12-49-3-80,28,3,54,11,63,54l-30,8c11,23,17,47,13,72l-27-7-6,33-18-7-9,33-19-7,26,21,9-28,25,5,7-36,26,15c0-20,7-58-9-84l26,5c4-22-2-39-8-57l22,10c0-25-30-57-62-58-20-1-57-25-54-52s17-43,43-50c-44,37-10,67,5,73,4-11,18-69,0-130-40,23-90,65-93,148l-58,39-4,93,107-60,7,7-18,4-44,39-16-5-28,49-4,120,21,16-33,16-33-16,21-16-4-120-28-49-16,5-44-39-18-4,7-7,107,60-4-93-58-39C185,65,136,23,95,0c-18,61-4,119,0,130,15-6,49-37,5-73,26,7,41,30,43,50s-34,51-54,52c-32,2-61,33-62,59l22-10c-6,18-12,35-8,57l26-5c-16,26-9,64-9,84l26-15,7,36,25-5,9,28,26-21-19,7-9-33-18,7-6-33-27,7c-4-25,2-49,13-72l-30-8c9-44,35-51,63-54,9,31,6,56-3,80,82,56,77,117,81,149s4,89,26,97V482l5-7,5,12,11-16,11,21,11-21Zm79-95-16-11,19-12c-1,7,0,14-4,23Zm28-49c0,11-1,22-2,32-8-2-16-4-21-7l23-25Zm25,5a99,99,0,0,0-5-33,235,235,0,0,1-18,27Zm4-81c19,13,28,34,30,56-12-5-25-9-37-11,5-12,7-28,7-46Zm-2-46c1,14,2,29,2,42,19-8,30-10,44-14-11-19-27-26-46-28ZM166,377l16-11-19-12c1,7,0,14,4,23Zm-28-49c0,11,1,22,2,32,8-2,16-4,21-7Zm-25,5c0-13,2-24,5-33a235,235,0,0,0,18,27Zm-4-81c-19,13-28,34-30,56,12-5,25-9,37-11-5-12-7-28-7-46Zm2-46c-1,14-2,29-2,42-19-8-30-10-44-14C76,215,93,208,111,206Z" transform="translate(-28)" style="fill:#fff"/></svg>