<svg id="Layer_1" data-name="Layer 1" xmlns="http://www.w3.org/2000/svg" viewBox="0 0 496 496"><title>wordpress-simple</title><path d="M256,8C119,8,8,119,8,256S119,504,256,504,504,393,504,256,393,8,256,8ZM33,256a221,221,0,0,1,19-91L159,457C84,421,33,344,33,256ZM256,479a222,222,0,0,1-63-9l67-194,69,188,2,3A223,223,0,0,1,256,479Zm31-327,26-2c12-1,11-19-1-18,0,0-36,3-59,3s-59-3-59-3c-12-1-13,18-1,18l23,2,35,95L201,393,119,152l26-2c12-1,11-19-1-18,0,0-36,3-59,3H70A223,223,0,0,1,407,92h-3c-22,0-37,19-37,40s11,34,22,52,18,34,18,62-7,41-17,72l-22,74L287,151Zm81,297,68-197c13-32,17-57,17-80a164,164,0,0,0-1-23,223,223,0,0,1-84,300Z" transform="translate(-8 -8)" style="fill:#fff"/></svg>