<svg id="Layer_1" data-name="Layer 1" xmlns="http://www.w3.org/2000/svg" viewBox="0 0 496 496"><title>wordpress</title><path d="M62,169,163,447A213,213,0,0,1,62,169Zm338,76c0-26-9-44-17-59s-21-32-21-50,15-38,36-38h3A213,213,0,0,0,78,139H92c22,0,57-3,57-3,12-1,13,16,1,18l-24,2,78,230,47-140-33-91-22-2c-11-1-10-18,1-17,0,0,35,3,56,3s57-3,57-3c12-1,13,16,1,18l-24,2,77,229,21-71c9-29,16-50,16-69ZM260,275,196,460a212,212,0,0,0,131-3v-3ZM443,154a166,166,0,0,1,1,22c0,22-4,46-16,76L363,440a213,213,0,0,0,80-286Zm61,102c0,137-111,248-248,248S8,393,8,256,119,8,256,8,504,119,504,256Zm-11,0C493,126,386,19,256,19S19,126,19,256,126,493,256,493,493,387,493,256Z" transform="translate(-8 -8)" style="fill:#fff"/></svg>