<svg id="Layer_1" data-name="Layer 1" xmlns="http://www.w3.org/2000/svg" viewBox="0 0 448 448"><title>wpforms</title><path d="M448,75V437a43,43,0,0,1-43,43H43c-24,0-43-19-43-43V75A43,43,0,0,1,43,32H405a43,43,0,0,1,43,43ZM411,437V75a6,6,0,0,0-6-6h-9L285,144,224,94l-61,50L53,69H43a6,6,0,0,0-6,6V437a6,6,0,0,0,6,6H405a6,6,0,0,0,6-6ZM150,186v37H77V186Zm0,74v37H77V260Zm11-147,54-44H97Zm210,73v37H175V186Zm0,74v37H175V260ZM287,113l65-44H233l54,44Zm85,222v37H272V335Z" transform="translate(0 -32)" style="fill:#fff"/></svg>