<svg id="Layer_1" data-name="Layer 1" xmlns="http://www.w3.org/2000/svg" viewBox="0 0 496 496"><title>wpressr</title><path d="M248,8C111,8,0,119,0,256S111,504,248,504,496,393,496,256,385,8,248,8ZM419,167,374,270c-2,6-7,8-13,8H292c-5,0-8,2-10,7l-31,71c-2,4-4,5-8,5H105a10,10,0,0,1-8-3L63,320c-3-3-3-6-1-10l26-59,39-88c2-4,4-6,9-6h43c6,0,9,5,7,11l-41,92-17,39c-4,9,7,12,11,6l30-68a7,7,0,0,1,7-4h46c6,0,8,4,6,9l-25,57c-5,11,8,12,11,5l32-73c2-5,5-7,10-6h79c12,0,14-14,4-14H262c-6,0-8-2-5-8l17-39c2-4,5-6,9-6H414c6,0,8,3,6,8Z" transform="translate(0 -8)" style="fill:#fff"/></svg>