<svg id="Layer_1" data-name="Layer 1" xmlns="http://www.w3.org/2000/svg" viewBox="0 0 496 496"><title>xbox</title><path d="M370,318c44,54,65,99,54,119s-57,45-93,56-68,13-100,10-77-17-110-39-34-26-34-41c0-30,33-82,89-142,32-34,77-74,81-73s84,75,112,110ZM189,144c-30-27-58-54-86-63-15-5-16-5-29,8-29,30-53,80-60,122s-6,44-4,61c6,51,17,85,40,121,10,15,12,17,9,10s0-37,10-64c14-39,54-113,120-194Zm312,64c-17-80-67-130-75-130s-24,7-36,14c-23,14-41,31-64,53,42,53,102,139,123,202,7,21,10,41,7,52s-2,9,1,5,20-31,25-43,15-40,19-59,4-71-1-93ZM141,43c48-2,110,35,114,35l22-10c64-31,94-26,107-25C321,4,232-6,151,32c-23,11-24,12-9,11Z" transform="translate(-8 -8)" style="fill:#fff"/></svg>