<svg id="Layer_1" data-name="Layer 1" xmlns="http://www.w3.org/2000/svg" viewBox="0 0 496 496"><title>yarn</title><path d="M394,345c-39,9-48,32-104,47,0,0-3,4-10,6s-64,6-68,6-20-3-22-8,9-22,9-22-9-10-10-8-4,20-10,27-25,6-35,1,1-19,1-19-6,3-10-4-17-37,12-62c-1-10-5-54,41-86,0,0-21-23-13-43s7-13,9-14,11-5,15-9c21-22,47-18,47-18s12-38,24-30,16,31,16,31,14-8,15-5c8,16,9,47,6,65-6,31-21,47-28,58s17,10,28,41,1,53,3,55,14,1,36-13,28-17,45-17,18,19,5,22Zm102-89c0,137-111,248-248,248S0,393,0,256,111,8,248,8,496,119,496,256Zm-79,75c-2-14-13-23-28-23s-40,12-53,19l-12,7c3-44-22-73-29-79,8-11,18-28,23-53s3-55-7-74c-2-3-7-11-21-7-10-20-13-22-16-24s-24-16-41,28a71,71,0,0,0-47,23c-2,2-6,4-10,5h0c-8,3-12,10-17,22s0,35,7,46c-18,16-37,40-36,83-34,36-12,73-6,80s4,19,12,24,30,10,44,3c5,5,14,10,30,10s58-3,73-6a35,35,0,0,0,15-7c10-3,37-12,62-29s24-14,38-17a26,26,0,0,0,19-28Z" transform="translate(0 -8)" style="fill:#fff"/></svg>