<svg id="Layer_1" data-name="Layer 1" xmlns="http://www.w3.org/2000/svg" viewBox="0 0 382 512"><title>yelp</title><path d="M43,240l100,49c19,9,16,38-4,43L31,358A23,23,0,0,1,3,342v-3a197,197,0,0,1,9-85,23,23,0,0,1,29-14h3ZM87,480a199,199,0,0,0,79,32,23,23,0,0,0,26-19v-3l4-111c1-21-25-32-40-16L83,445a23,23,0,0,0,2,32l2,2ZM232,370l59,94a23,23,0,0,0,32,7l2-2a198,198,0,0,0,53-68,23,23,0,0,0-11-31h-2L259,336c-20-6-38,16-27,34ZM381,237a197,197,0,0,0-50-69,23,23,0,0,0-32,2l-2,2-62,92c-12,18,5,41,25,35l107-31a23,23,0,0,0,16-29v-3ZM62,30A23,23,0,0,0,51,61h1L156,243c12,20,43,12,43-11V23A23,23,0,0,0,176,0h-2A320,320,0,0,0,62,30Z" transform="translate(-1 0)" style="fill:#fff"/></svg>