<svg id="Layer_1" data-name="Layer 1" xmlns="http://www.w3.org/2000/svg" viewBox="0 0 640 290"><title>zhihu</title><path d="M171,148V366h23l8,26,42-26h50V148Zm98,194H240l-28,18-5-17H195V172h73ZM150,248H98c2-27,2-52,2-73h51s2-23-9-22H54q5-20,13-41s-24,0-32,22c-3,9-13,43-31,78,6-1,25-1,37-22l5-15H75c0,11-1,67-2,73H21C9,248,5,271,5,271H71c-4,50-28,92-71,125,20,6,41-1,51-10s23-21,36-69l54,65s8-27-1-40-28-33-37-42L88,312a176,176,0,0,0,8-41h62s0-24-8-24h0Zm412-2c21-26,45-59,45-59s-19-15-27-4l-37,48,19,14ZM412,187c-9-8-26,2-26,2l41,57,19-14s-26-38-35-46h0Zm228,71H509V158h23l88-5s12-27-1-33-23,5-23,5-165,16-232,18c2,9,8,17,16,20s23,2,49,1l57-2V259H351s3,22,26,23H485v71c0,14-11,22-24,21l-42-2c2,4,6,14,19,22s16,7,26,7c30,0,46-17,45-45V282H631c10,0,9-24,9-24h0Z" transform="translate(0 -111)" style="fill:#fff"/></svg>